<?xml version="1.0" encoding="UTF-8" standalone="no"?>
<!-- Created with Inkscape (http://www.inkscape.org/) -->

<svg
   xmlns:dc="http://purl.org/dc/elements/1.1/"
   xmlns:cc="http://creativecommons.org/ns#"
   xmlns:rdf="http://www.w3.org/1999/02/22-rdf-syntax-ns#"
   xmlns:svg="http://www.w3.org/2000/svg"
   xmlns="http://www.w3.org/2000/svg"
   xmlns:xlink="http://www.w3.org/1999/xlink"
   xmlns:sodipodi="http://sodipodi.sourceforge.net/DTD/sodipodi-0.dtd"
   xmlns:inkscape="http://www.inkscape.org/namespaces/inkscape"
   width="341.84375"
   height="114.84375"
   id="svg3134"
   version="1.1"
   inkscape:version="0.48.5 r10040"
   sodipodi:docname="demo.svg">
  <defs
     id="defs3136">
    <linearGradient
       inkscape:collect="always"
       id="linearGradient3999">
      <stop
         style="stop-color:#999999;stop-opacity:1;"
         offset="0"
         id="stop4001" />
      <stop
         style="stop-color:#999999;stop-opacity:0;"
         offset="1"
         id="stop4003" />
    </linearGradient>
    <linearGradient
       inkscape:collect="always"
       xlink:href="#SVGID_1_"
       id="linearGradient3088"
       gradientUnits="userSpaceOnUse"
       x1="-23.5249"
       y1="3.7925"
       x2="23.125099"
       y2="4.2138" />
    <linearGradient
       y2="4.2138"
       x2="23.125099"
       y1="3.7925"
       x1="-23.5249"
       gradientUnits="userSpaceOnUse"
       id="SVGID_1_">
      <stop
         id="stop14"
         style="stop-color:#FF66FF"
         offset="0" />
      <stop
         id="stop16"
         style="stop-color:#4DED23"
         offset="0.5098" />
      <stop
         id="stop18"
         style="stop-color:#FF66FF"
         offset="1" />
    </linearGradient>
    <linearGradient
       inkscape:collect="always"
       xlink:href="#SVGID_2_"
       id="linearGradient3090"
       gradientUnits="userSpaceOnUse"
       x1="0.5747"
       y1="19.637699"
       x2="0.5747"
       y2="29.4627" />
    <linearGradient
       y2="29.4627"
       x2="0.5747"
       y1="19.637699"
       x1="0.5747"
       gradientUnits="userSpaceOnUse"
       id="SVGID_2_">
      <stop
         id="stop25"
         style="stop-color:#CB841B"
         offset="0" />
      <stop
         id="stop27"
         style="stop-color:#F2CCA6"
         offset="0.2549" />
      <stop
         id="stop29"
         style="stop-color:#CCDD33"
         offset="0.4863" />
      <stop
         id="stop31"
         style="stop-color:#EEC86F"
         offset="0.7451" />
      <stop
         id="stop33"
         style="stop-color:#C59118"
         offset="1" />
    </linearGradient>
    <linearGradient
       inkscape:collect="always"
       xlink:href="#SVGID_3_"
       id="linearGradient3092"
       gradientUnits="userSpaceOnUse"
       x1="-3.125"
       y1="11.4253"
       x2="0.82520002"
       y2="11.4253" />
    <linearGradient
       y2="11.4253"
       x2="0.82520002"
       y1="11.4253"
       x1="-3.125"
       gradientUnits="userSpaceOnUse"
       id="SVGID_3_">
      <stop
         id="stop38"
         style="stop-color:#6DB3F8"
         offset="0" />
      <stop
         id="stop40"
         style="stop-color:#025CE3"
         offset="1" />
    </linearGradient>
    <radialGradient
       inkscape:collect="always"
       xlink:href="#SVGID_4_"
       id="radialGradient3094"
       gradientUnits="userSpaceOnUse"
       cx="-1.2998"
       cy="4.7997999"
       r="6.6500001" />
    <radialGradient
       gradientUnits="userSpaceOnUse"
       r="6.6500001"
       cy="4.7997999"
       cx="-1.2998"
       id="SVGID_4_">
      <stop
         id="stop45"
         style="stop-color:#E60000"
         offset="0" />
      <stop
         id="stop47"
         style="stop-color:#CCB809"
         offset="0.3647" />
    </radialGradient>
    <linearGradient
       inkscape:collect="always"
       xlink:href="#SVGID_5_"
       id="linearGradient3096"
       gradientUnits="userSpaceOnUse"
       x1="5.3125"
       y1="6.1767998"
       x2="8.7875004"
       y2="6.1767998" />
    <linearGradient
       y2="6.1767998"
       x2="8.7875004"
       y1="6.1767998"
       x1="5.3125"
       gradientUnits="userSpaceOnUse"
       id="SVGID_5_">
      <stop
         id="stop52"
         style="stop-color:#6DB3F8"
         offset="0" />
      <stop
         id="stop54"
         style="stop-color:#025CE3"
         offset="1" />
    </linearGradient>
    <linearGradient
       id="SVGID_1_-8"
       gradientUnits="userSpaceOnUse"
       x1="129.45509"
       y1="34.3979"
       x2="137.10339"
       y2="38.476101">
      <stop
         offset="0"
         style="stop-color:#FFFF66"
         id="stop5" />
      <stop
         offset="1"
         style="stop-color:#8F8E01"
         id="stop7" />
    </linearGradient>
    <radialGradient
       id="SVGID_2_-8"
       cx="-175"
       cy="-324.5"
       r="548.22443"
       gradientUnits="userSpaceOnUse">
      <stop
         offset="0.3804"
         style="stop-color:#FFFFFF"
         id="stop12" />
      <stop
         offset="1"
         style="stop-color:#3C3C3C"
         id="stop14-2" />
    </radialGradient>
    <linearGradient
       id="SVGID_3_-5"
       gradientUnits="userSpaceOnUse"
       x1="106.5977"
       y1="44.771"
       x2="127.3452"
       y2="55.8507">
      <stop
         offset="0"
         style="stop-color:#FFFF66"
         id="stop19" />
      <stop
         offset="1"
         style="stop-color:#8F8E01"
         id="stop21" />
    </linearGradient>
    <radialGradient
       id="SVGID_4_-3"
       cx="126.1499"
       cy="75.149902"
       r="28.549999"
       gradientUnits="userSpaceOnUse">
      <stop
         offset="0"
         style="stop-color:#55A7F7"
         id="stop26" />
      <stop
         offset="1"
         style="stop-color:#0148B1"
         id="stop28" />
    </radialGradient>
    <linearGradient
       id="SVGID_5_-1"
       gradientUnits="userSpaceOnUse"
       x1="98.035202"
       y1="61.271999"
       x2="115.2094"
       y2="70.448303">
      <stop
         offset="0"
         style="stop-color:#FFFF66"
         id="stop33-0" />
      <stop
         offset="1"
         style="stop-color:#8F8E01"
         id="stop35" />
    </linearGradient>
    <radialGradient
       id="SVGID_6_"
       cx="89.149902"
       cy="75.950203"
       r="24.078199"
       gradientUnits="userSpaceOnUse">
      <stop
         offset="0"
         style="stop-color:#FFFFFF"
         id="stop40-9" />
      <stop
         offset="1"
         style="stop-color:#000000"
         id="stop42" />
    </radialGradient>
    <radialGradient
       id="SVGID_7_"
       cx="111.5498"
       cy="83.350098"
       r="18.35"
       gradientUnits="userSpaceOnUse">
      <stop
         offset="0"
         style="stop-color:#55A7F7"
         id="stop49" />
      <stop
         offset="1"
         style="stop-color:#0148B1"
         id="stop51" />
    </radialGradient>
    <radialGradient
       id="SVGID_8_"
       cx="95.950203"
       cy="92.549797"
       r="33.799999"
       gradientUnits="userSpaceOnUse">
      <stop
         offset="0"
         style="stop-color:#55A7F7"
         id="stop56" />
      <stop
         offset="1"
         style="stop-color:#0148B1"
         id="stop58" />
    </radialGradient>
    <linearGradient
       id="SVGID_9_"
       gradientUnits="userSpaceOnUse"
       x1="76.048302"
       y1="70.532204"
       x2="81.824303"
       y2="69.136299">
      <stop
         offset="0"
         style="stop-color:#CB841B"
         id="stop63" />
      <stop
         offset="1"
         style="stop-color:#2D1D06"
         id="stop65" />
    </linearGradient>
    <radialGradient
       id="SVGID_10_"
       cx="91.200203"
       cy="96.25"
       r="37.049999"
       gradientUnits="userSpaceOnUse">
      <stop
         offset="0"
         style="stop-color:#55A7F7"
         id="stop70" />
      <stop
         offset="1"
         style="stop-color:#0148B1"
         id="stop72" />
    </radialGradient>
    <linearGradient
       id="SVGID_11_"
       gradientUnits="userSpaceOnUse"
       x1="99.567398"
       y1="84.747101"
       x2="100.3174"
       y2="85.147102">
      <stop
         offset="0"
         style="stop-color:#FFFF66"
         id="stop77" />
      <stop
         offset="1"
         style="stop-color:#8F8E01"
         id="stop79" />
    </linearGradient>
    <linearGradient
       id="SVGID_12_"
       gradientUnits="userSpaceOnUse"
       x1="100.7588"
       y1="85.940399"
       x2="105.1866"
       y2="88.310204">
      <stop
         offset="0"
         style="stop-color:#FFFF66"
         id="stop84" />
      <stop
         offset="1"
         style="stop-color:#8F8E01"
         id="stop86" />
    </linearGradient>
    <radialGradient
       id="SVGID_13_"
       cx="128.9502"
       cy="111.9502"
       r="35.049999"
       gradientUnits="userSpaceOnUse">
      <stop
         offset="0"
         style="stop-color:#55A7F7"
         id="stop91" />
      <stop
         offset="1"
         style="stop-color:#0148B1"
         id="stop93" />
    </radialGradient>
    <linearGradient
       id="SVGID_14_"
       gradientUnits="userSpaceOnUse"
       x1="105.9082"
       y1="76.199203"
       x2="109.6613"
       y2="78.193497">
      <stop
         offset="0"
         style="stop-color:#FFFF66"
         id="stop98" />
      <stop
         offset="1"
         style="stop-color:#8F8E01"
         id="stop100" />
    </linearGradient>
    <linearGradient
       id="SVGID_15_"
       gradientUnits="userSpaceOnUse"
       x1="64.891098"
       y1="51.9795"
       x2="81.691399"
       y2="47.930698">
      <stop
         offset="0"
         style="stop-color:#FFFFFF"
         id="stop105" />
      <stop
         offset="1"
         style="stop-color:#000000"
         id="stop107" />
    </linearGradient>
    <linearGradient
       id="SVGID_16_"
       gradientUnits="userSpaceOnUse"
       x1="41.817402"
       y1="102.8179"
       x2="57.318501"
       y2="100.2244">
      <stop
         offset="0"
         style="stop-color:#CB841B"
         id="stop112" />
      <stop
         offset="1"
         style="stop-color:#2D1D06"
         id="stop114" />
    </linearGradient>
    <linearGradient
       id="SVGID_17_"
       gradientUnits="userSpaceOnUse"
       x1="43.3955"
       y1="91.915497"
       x2="58.896599"
       y2="89.321999">
      <stop
         offset="0"
         style="stop-color:#CB841B"
         id="stop119" />
      <stop
         offset="1"
         style="stop-color:#2D1D06"
         id="stop121" />
    </linearGradient>
    <linearGradient
       id="SVGID_18_"
       gradientUnits="userSpaceOnUse"
       x1="76.448196"
       y1="103.1421"
       x2="85.448196"
       y2="102.8659">
      <stop
         offset="0"
         style="stop-color:#CB841B"
         id="stop128" />
      <stop
         offset="0.702"
         style="stop-color:#2D1D06"
         id="stop130" />
    </linearGradient>
    <radialGradient
       id="SVGID_19_"
       cx="19.3501"
       cy="101.4502"
       r="28.023899"
       gradientUnits="userSpaceOnUse">
      <stop
         offset="0"
         style="stop-color:#FFFFFF"
         id="stop135" />
      <stop
         offset="1"
         style="stop-color:#000000"
         id="stop137" />
    </radialGradient>
    <linearGradient
       id="SVGID_20_"
       gradientUnits="userSpaceOnUse"
       x1="60.888699"
       y1="126.4463"
       x2="61.112499"
       y2="133.34599">
      <stop
         offset="0"
         style="stop-color:#FFFFFF"
         id="stop142" />
      <stop
         offset="1"
         style="stop-color:#000000"
         id="stop144" />
    </linearGradient>
    <linearGradient
       id="SVGID_21_"
       gradientUnits="userSpaceOnUse"
       x1="43.4272"
       y1="123.0151"
       x2="44.026501"
       y2="129.8902">
      <stop
         offset="0"
         style="stop-color:#FFFFFF"
         id="stop149" />
      <stop
         offset="1"
         style="stop-color:#000000"
         id="stop151" />
    </linearGradient>
    <linearGradient
       id="SVGID_22_"
       gradientUnits="userSpaceOnUse"
       x1="61.299801"
       y1="129.09959"
       x2="68.200203"
       y2="129.09959">
      <stop
         offset="0"
         style="stop-color:#FFFFFF"
         id="stop156" />
      <stop
         offset="1"
         style="stop-color:#000000"
         id="stop158" />
    </linearGradient>
    <linearGradient
       id="SVGID_23_"
       gradientUnits="userSpaceOnUse"
       x1="22.7129"
       y1="126.9214"
       x2="23.338499"
       y2="133.7963">
      <stop
         offset="0"
         style="stop-color:#FFFFFF"
         id="stop163" />
      <stop
         offset="1"
         style="stop-color:#000000"
         id="stop165" />
    </linearGradient>
    <linearGradient
       id="SVGID_24_"
       gradientUnits="userSpaceOnUse"
       x1="29.799801"
       y1="123.4004"
       x2="36.700199"
       y2="123.4004">
      <stop
         offset="0"
         style="stop-color:#FFFFFF"
         id="stop170" />
      <stop
         offset="1"
         style="stop-color:#000000"
         id="stop172" />
    </linearGradient>
    <linearGradient
       id="SVGID_25_"
       gradientUnits="userSpaceOnUse"
       x1="27.1504"
       y1="130.11279"
       x2="34.049599"
       y2="129.9877">
      <stop
         offset="0"
         style="stop-color:#FFFFFF"
         id="stop177" />
      <stop
         offset="1"
         style="stop-color:#000000"
         id="stop179" />
    </linearGradient>
    <linearGradient
       id="SVGID_26_"
       gradientUnits="userSpaceOnUse"
       x1="21.549801"
       y1="122.5996"
       x2="28.450199"
       y2="122.5996">
      <stop
         offset="0"
         style="stop-color:#FFFFFF"
         id="stop184" />
      <stop
         offset="1"
         style="stop-color:#000000"
         id="stop186" />
    </linearGradient>
    <linearGradient
       inkscape:collect="always"
       xlink:href="#linearGradient3999"
       id="linearGradient4005"
       x1="272.16666"
       y1="58.018834"
       x2="341.83332"
       y2="58.018834"
       gradientUnits="userSpaceOnUse" />
    <filter
       inkscape:collect="always"
       id="filter4007"
       x="-0.260896"
       width="1.521792"
       y="-0.15900763"
       height="1.3180153">
      <feGaussianBlur
         inkscape:collect="always"
         stdDeviation="7.4645242"
         id="feGaussianBlur4009" />
    </filter>
  </defs>
  <sodipodi:namedview
     id="base"
     pagecolor="#ffffff"
     bordercolor="#666666"
     borderopacity="1.0"
     inkscape:pageopacity="0.0"
     inkscape:pageshadow="2"
     inkscape:zoom="1.5"
     inkscape:cx="170.74412"
     inkscape:cy="31.000396"
     inkscape:document-units="px"
     inkscape:current-layer="layer1"
     showgrid="false"
     fit-margin-top="0"
     fit-margin-left="0"
     fit-margin-right="0"
     fit-margin-bottom="0"
     inkscape:window-width="1110"
     inkscape:window-height="884"
     inkscape:window-x="1429"
     inkscape:window-y="109"
     inkscape:window-maximized="0" />
  <metadata
     id="metadata3139">
    <rdf:RDF>
      <cc:Work
         rdf:about="">
        <dc:format>image/svg+xml</dc:format>
        <dc:type
           rdf:resource="http://purl.org/dc/dcmitype/StillImage" />
        <dc:title />
      </cc:Work>
    </rdf:RDF>
  </metadata>
  <g
     inkscape:label="Layer 1"
     inkscape:groupmode="layer"
     id="layer1"
     transform="translate(-280.0359,-395.18549)">
    <g
       id="chapter_calendar"
       transform="translate(305.72057,461.11823)">
      <g
         id="Ebene_2">
        <linearGradient
           y2="4.2138"
           x2="23.125099"
           y1="3.7925"
           x1="-23.5249"
           gradientUnits="userSpaceOnUse"
           id="linearGradient3178">
          <stop
             id="stop3180"
             style="stop-color:#FF66FF"
             offset="0" />
          <stop
             id="stop3182"
             style="stop-color:#4DED23"
             offset="0.5098" />
          <stop
             id="stop3184"
             style="stop-color:#FF66FF"
             offset="1" />
        </linearGradient>
        <path
           id="path20"
           d="m 25.15,-34.1 c 0.1,0.167 0.233,0.333 0.4,0.5 l -0.95,9.75 -1.25,63.1 c 0.367,2.033 -0.167,3.083 -1.6,3.15 -4.667,-0.233 -10,0.117 -16,1.05 -6.033,0.966 -13.883,1.2 -23.55,0.7 -4.767,0.233 -7.3,-1.417 -7.6,-4.95 L -24.45,9 c 0.934,-11.367 0.833,-20.8 -0.3,-28.3 -1.1,-7.167 -1.083,-12.1 0.05,-14.8 0.034,-0.133 0.083,-0.25 0.15,-0.35 2.133,-0.833 5.683,-0.8 10.65,0.1 0.6,0 1.2,0.017 1.8,0.05 6.9,0.033 13.967,-0.25 21.2,-0.85 2.267,-0.233 4.533,-0.467 6.8,-0.7 4.1,-0.967 7.183,-0.383 9.25,1.75 z m -27.6,10.25 1.4,-7.75 3.15,6 3.25,-7.75 -3.25,7.75 -3.15,-6 -1.4,7.75 z m 13.6,1.65 2.4,-3.45 2.65,-3.95 0.45,4.9 0.5,5 1.6,-9.75 -1.6,9.75 -0.5,-5 -0.45,-4.9 -2.65,3.95 -2.4,3.45 z M 10.3,-26 c -0.8,3.133 -2.617,4.1 -5.45,2.9 l 2.4,-8.75 c 3,0.167 4.017,2.117 3.05,5.85 0.967,-3.733 -0.05,-5.683 -3.05,-5.85 l -2.4,8.75 c 2.833,1.2 4.65,0.233 5.45,-2.9 z m -4,8.4 4.3,-3.05 -1.6,9 1.6,-9 -4.3,3.05 z M -2,-19.8 v 2.45 c 0.733,-1.433 1.55,-2.167 2.45,-2.2 1.9,0.966 2.8,3.183 2.7,6.65 0.1,-3.467 -0.8,-5.684 -2.7,-6.65 -0.9,0.033 -1.717,0.767 -2.45,2.2 v -2.45 z m 20.9,-10.15 c 4.8,1.767 4.567,3.75 -0.7,5.95 l 4.85,5.6 -4.85,-5.6 c 5.267,-2.2 5.5,-4.183 0.7,-5.95 z m -2.25,5.25 -3.1,-0.95 3.1,0.95 z M -3.1,6.4 l 0.5,6.35 c -2,0.067 -3.816,0.25 -5.45,0.55 -4.133,0.9 -6.267,1.733 -6.4,2.5 -0.033,0.034 -0.05,0.083 -0.05,0.15 l -0.15,0.35 0.25,10.3 c 0.033,0.533 0.633,1.05 1.8,1.55 0.667,0.267 1.55,0.517 2.65,0.75 2.934,0.633 6.483,0.95 10.65,0.95 4.2,0 7.767,-0.317 10.7,-0.95 0.567,-0.133 1.083,-0.267 1.55,-0.4 1.867,-0.567 2.816,-1.2 2.85,-1.9 L 15.65,16.25 c 0.033,-0.1 0.05,-0.2 0.05,-0.3 0,-0.1 -0.017,-0.2 -0.05,-0.3 -0.267,-0.767 -1.717,-1.433 -4.35,-2 C 10.4,13.45 8.45,13.183 5.45,12.85 4.016,12.75 2.483,12.7 0.85,12.7 V 5.95 C 0.517,5.683 0.183,5.483 -0.15,5.35 0.65,4.417 0.667,3.333 -0.1,2.1 -1.067,0.567 -2.333,-0.267 -3.9,-0.4 c 1.433,1.033 2.183,1.883 2.25,2.55 -0.167,0.733 -0.567,1 -1.2,0.8 -0.433,1.267 -0.233,2.15 0.6,2.65 -0.3,0.167 -0.583,0.417 -0.85,0.75 V 6.4 z m 13.55,24.85 v 8.9 L 17,38 10.45,40.15 v -8.9 z m -5,0 0.85,9.1 -0.85,-9.1 z M -17.45,-30 v 5.55 l 3.45,-1.35 -3.45,-4.2 3.45,4.2 -3.45,1.35 V -30 z m 14.85,-2.55 -5.25,1.45 0.8,4.05 2.45,-0.05 -2.45,0.05 -0.8,-4.05 5.25,-1.45 z m -4.45,5.5 0.6,2.8 0.3,1.6 H -2 -6.15 l -0.3,-1.6 -0.6,-2.8 z m -0.15,8.3 c 0.034,3.933 0.934,5.667 2.7,5.2 2.167,-1.7 2,-4.15 -0.5,-7.35 2.5,3.2 2.667,5.65 0.5,7.35 -1.767,0.467 -2.667,-1.267 -2.7,-5.2 z m 5.2,1.4 v 3.95 -3.95 z m -6.8,-1.5 c -1.8,-2.167 -3.167,-2.167 -4.1,0 -0.533,0.8 -0.533,1.517 0,2.15 h 2.7 c 1.767,1.467 1.767,2.684 0,3.65 -1.3,0.233 -2.2,-0.083 -2.7,-0.95 0.5,0.867 1.4,1.183 2.7,0.95 1.767,-0.967 1.767,-2.184 0,-3.65 h -2.7 c -0.533,-0.633 -0.533,-1.35 0,-2.15 0.933,-2.167 2.3,-2.167 4.1,0 z m -8.65,-5.6 -0.2,3.8 c -5.7,2.3 -7.05,-0.483 -4.05,-8.35 -3,7.867 -1.65,10.65 4.05,8.35 l 0.2,-3.8 z m 4.3,-7.25 1.75,7.45 h 4.95 -4.95 l -1.75,-7.45 z m -0.85,5.9 3,3.7 -3,-3.7 z M 2.75,41 -0.55,35.6 c -0.534,0.367 -1.1,0.75 -1.7,1.15 V 41 36.75 c 0.6,-0.4 1.167,-0.783 1.7,-1.15 l 3.3,5.4 z m -5,-8.7 v 4.45 -4.45 z m -9.6,-1.05 c -2.267,0.233 -4.183,2.517 -5.75,6.85 l 6.55,-1.55 c 0.567,-2.6 0.3,-4.367 -0.8,-5.3 1.1,0.933 1.367,2.7 0.8,5.3 l -6.55,1.55 c 1.567,-4.333 3.483,-6.617 5.75,-6.85 z m -6.65,9.6 c 0.233,-0.967 0.517,-1.833 0.85,-2.6 0,-0.067 0.017,-0.117 0.05,-0.15 -0.033,0.033 -0.05,0.083 -0.05,0.15 -0.333,0.767 -0.617,1.633 -0.85,2.6 z m 10.55,-3.05 -0.4,-5.85 c 6.233,0.633 6.367,2.583 0.4,5.85 l 0.35,4.15 -0.35,-4.15 c 5.967,-3.267 5.833,-5.216 -0.4,-5.85 l 0.4,5.85 z m -3.1,-1.25 c -0.333,1.5 -0.95,3.3 -1.85,5.4 0.9,-2.1 1.517,-3.9 1.85,-5.4 z m 8.8,-4.75 c 5.467,-0.667 6.033,0.6 1.7,3.8 4.333,-3.2 3.767,-4.467 -1.7,-3.8 z M -19.1,-3.55 19.15,-3.8 -19.1,-3.55 z m 0,-2.5 38.5,-0.1 -38.5,0.1 z m 0.1,-1.9 38,-0.3 -38,0.3 z"
           clip-rule="evenodd"
           inkscape:connector-curvature="0"
           style="fill:url(#linearGradient3088);fill-rule:evenodd" />
        <path
           id="path22"
           d="m 0.9,-43.3 c 0.067,0.167 0.1,0.35 0.1,0.55 0,0.4 -0.15,0.767 -0.45,1.1 -0.033,0 -0.066,0.017 -0.1,0.05 -0.3,0.333 -0.667,0.5 -1.1,0.5 -0.467,0 -0.867,-0.167 -1.2,-0.5 -0.167,-0.167 -0.283,-0.333 -0.35,-0.5 -0.1,-0.2 -0.15,-0.417 -0.15,-0.65 0,-0.367 0.133,-0.717 0.4,-1.05 0.034,-0.067 0.067,-0.117 0.1,-0.15 0.333,-0.3 0.733,-0.45 1.2,-0.45 0.433,0 0.8,0.15 1.1,0.45 0.233,0.233 0.383,0.45 0.45,0.65 z"
           clip-rule="evenodd"
           inkscape:connector-curvature="0"
           style="fill-rule:evenodd" />
        <linearGradient
           y2="29.4627"
           x2="0.5747"
           y1="19.637699"
           x1="0.5747"
           gradientUnits="userSpaceOnUse"
           id="linearGradient3188">
          <stop
             id="stop3190"
             style="stop-color:#CB841B"
             offset="0" />
          <stop
             id="stop3192"
             style="stop-color:#F2CCA6"
             offset="0.2549" />
          <stop
             id="stop3194"
             style="stop-color:#CCDD33"
             offset="0.4863" />
          <stop
             id="stop3196"
             style="stop-color:#EEC86F"
             offset="0.7451" />
          <stop
             id="stop3198"
             style="stop-color:#C59118"
             offset="1" />
        </linearGradient>
        <path
           id="path35"
           d="m 15.65,15.65 v 0.6 c -0.167,0.6 -1.1,1.15 -2.8,1.65 -0.467,0.133 -0.983,0.267 -1.55,0.4 -2.933,0.633 -6.5,0.95 -10.7,0.95 -4.167,0 -7.717,-0.317 -10.65,-0.95 -1.1,-0.233 -1.983,-0.483 -2.65,-0.75 -0.9,-0.367 -1.55,-0.783 -1.95,-1.25 0.4,0.467 1.05,0.883 1.95,1.25 0.667,0.267 1.55,0.517 2.65,0.75 2.933,0.633 6.483,0.95 10.65,0.95 4.2,0 7.767,-0.317 10.7,-0.95 0.567,-0.133 1.083,-0.267 1.55,-0.4 1.7,-0.5 2.633,-1.05 2.8,-1.65 L 15.8,26.6 c -0.033,0.7 -0.983,1.333 -2.85,1.9 -0.467,0.133 -0.983,0.267 -1.55,0.4 -2.933,0.633 -6.5,0.95 -10.7,0.95 -4.167,0 -7.717,-0.317 -10.65,-0.95 -1.1,-0.233 -1.983,-0.483 -2.65,-0.75 -1.167,-0.5 -1.767,-1.017 -1.8,-1.55 l -0.25,-10.3 0.15,-0.35 c 0,-0.067 0.017,-0.117 0.05,-0.15 0.133,-0.767 2.267,-1.6 6.4,-2.5 1.633,-0.3 3.45,-0.483 5.45,-0.55 l 0.25,3.65 c 1.133,0.667 2.2,0.667 3.2,0 v -3.7 c 1.633,0 3.167,0.05 4.6,0.15 3,0.333 4.95,0.6 5.85,0.8 2.633,0.567 4.083,1.233 4.35,2 z"
           clip-rule="evenodd"
           inkscape:connector-curvature="0"
           style="fill:url(#linearGradient3090);fill-rule:evenodd" />
        <linearGradient
           y2="11.4253"
           x2="0.82520002"
           y1="11.4253"
           x1="-3.125"
           gradientUnits="userSpaceOnUse"
           id="linearGradient3201">
          <stop
             id="stop3203"
             style="stop-color:#6DB3F8"
             offset="0" />
          <stop
             id="stop3205"
             style="stop-color:#025CE3"
             offset="1" />
        </linearGradient>
        <path
           id="path42"
           d="M -2.6,12.75 -3.1,6.4 c 1.5,0.934 2.817,0.783 3.95,-0.45 v 6.75 3.7 c -1,0.667 -2.067,0.667 -3.2,0 L -2.6,12.75 z"
           clip-rule="evenodd"
           inkscape:connector-curvature="0"
           style="fill:url(#linearGradient3092);fill-rule:evenodd" />
        <radialGradient
           gradientUnits="userSpaceOnUse"
           r="6.6500001"
           cy="4.7997999"
           cx="-1.2998"
           id="radialGradient3208">
          <stop
             id="stop3210"
             style="stop-color:#E60000"
             offset="0" />
          <stop
             id="stop3212"
             style="stop-color:#CCB809"
             offset="0.3647" />
        </radialGradient>
        <path
           id="path49"
           d="M -0.15,5.35 C -0.283,5.483 -0.4,5.617 -0.5,5.75 -1.1,6.317 -1.6,6.3 -2,5.7 -2.1,5.666 -2.183,5.633 -2.25,5.6 -3.083,5.1 -3.283,4.217 -2.85,2.95 c 0.633,0.2 1.033,-0.067 1.2,-0.8 -0.067,-0.667 -0.817,-1.517 -2.25,-2.55 1.566,0.133 2.833,0.967 3.8,2.5 0.767,1.233 0.75,2.317 -0.05,3.25 z"
           clip-rule="evenodd"
           inkscape:connector-curvature="0"
           style="fill:url(#radialGradient3094);fill-rule:evenodd" />
        <linearGradient
           y2="6.1767998"
           x2="8.7875004"
           y1="6.1767998"
           x1="5.3125"
           gradientUnits="userSpaceOnUse"
           id="linearGradient3215">
          <stop
             id="stop3217"
             style="stop-color:#6DB3F8"
             offset="0" />
          <stop
             id="stop3219"
             style="stop-color:#025CE3"
             offset="1" />
        </linearGradient>
        <path
           id="path56"
           d="M 0.85,5.95 C -0.283,7.183 -1.6,7.333 -3.1,6.4 V 6.35 c 0.267,-0.333 0.55,-0.583 0.85,-0.75 0.067,0.033 0.15,0.067 0.25,0.1 0.4,0.6 0.9,0.617 1.5,0.05 0.1,-0.133 0.217,-0.267 0.35,-0.4 0.333,0.133 0.667,0.333 1,0.6 z"
           clip-rule="evenodd"
           inkscape:connector-curvature="0"
           style="fill:url(#linearGradient3096);fill-rule:evenodd" />
        <path
           id="path58"
           d="m 25.15,-34.1 c -2.066,-2.133 -5.15,-2.717 -9.25,-1.75 -2.267,0.233 -4.533,0.467 -6.8,0.7 -7.233,0.6 -14.3,0.883 -21.2,0.85 -0.6,-0.034 -1.2,-0.05 -1.8,-0.05 -4.967,-0.9 -8.517,-0.933 -10.65,-0.1 -0.067,0.1 -0.117,0.217 -0.15,0.35 -1.133,2.7 -1.15,7.633 -0.05,14.8 1.133,7.5 1.233,16.933 0.3,28.3 l -0.95,30.2 c 0.3,3.533 2.833,5.183 7.6,4.95 9.667,0.5 17.517,0.267 23.55,-0.7 6,-0.934 11.333,-1.284 16,-1.05 1.433,-0.066 1.967,-1.117 1.6,-3.15 l 1.25,-63.1 0.95,-9.75 c -0.167,-0.167 -0.3,-0.333 -0.4,-0.5 z M -2.6,12.75 -2.35,16.4 c 1.133,0.667 2.2,0.667 3.2,0 V 12.7 5.95 C -0.283,7.183 -1.6,7.333 -3.1,6.4 l 0.5,6.35 z M 0.85,12.7 c 1.633,0 3.167,0.05 4.6,0.15 3,0.333 4.95,0.6 5.85,0.8 2.633,0.567 4.083,1.233 4.35,2 0.033,0.1 0.05,0.2 0.05,0.3 0,0.1 -0.017,0.2 -0.05,0.3 L 15.8,26.6 c -0.033,0.7 -0.983,1.333 -2.85,1.9 -0.467,0.133 -0.983,0.267 -1.55,0.4 -2.933,0.633 -6.5,0.95 -10.7,0.95 -4.167,0 -7.717,-0.317 -10.65,-0.95 -1.1,-0.233 -1.983,-0.483 -2.65,-0.75 -1.167,-0.5 -1.767,-1.017 -1.8,-1.55 l -0.25,-10.3 0.15,-0.35 c 0,-0.067 0.017,-0.117 0.05,-0.15 0.133,-0.767 2.267,-1.6 6.4,-2.5 1.633,-0.3 3.45,-0.483 5.45,-0.55 m 18.25,3.5 c -0.167,0.6 -1.1,1.15 -2.8,1.65 -0.467,0.133 -0.983,0.267 -1.55,0.4 -2.933,0.633 -6.5,0.95 -10.7,0.95 -4.167,0 -7.717,-0.317 -10.65,-0.95 -1.1,-0.233 -1.983,-0.483 -2.65,-0.75 -0.9,-0.367 -1.55,-0.783 -1.95,-1.25 m 30.3,-0.65 v 0.6 M -2.25,5.6 c -0.833,-0.5 -1.033,-1.383 -0.6,-2.65 0.633,0.2 1.033,-0.067 1.2,-0.8 -0.067,-0.667 -0.817,-1.517 -2.25,-2.55 1.566,0.133 2.833,0.967 3.8,2.5 0.767,1.233 0.75,2.316 -0.05,3.25 0.333,0.133 0.667,0.333 1,0.6 M -3.1,6.4 V 6.35 c 0.267,-0.333 0.55,-0.583 0.85,-0.75 0.067,0.033 0.15,0.067 0.25,0.1 0.4,0.6 0.9,0.617 1.5,0.05 0.1,-0.133 0.217,-0.267 0.35,-0.4"
           stroke-miterlimit="3"
           clip-rule="evenodd"
           inkscape:connector-curvature="0"
           style="fill:none;stroke:#000000;stroke-width:0.25;stroke-linecap:round;stroke-linejoin:round;stroke-miterlimit:3" />
        <path
           id="path60"
           d="m -1.95,-43.8 c 0.034,-0.067 0.067,-0.117 0.1,-0.15 0.333,-0.3 0.733,-0.45 1.2,-0.45 0.433,0 0.8,0.15 1.1,0.45 0.233,0.233 0.383,0.45 0.45,0.65 l 8.2,8.15 M 0.9,-43.3 c 0.067,0.167 0.1,0.35 0.1,0.55 0,0.4 -0.15,0.767 -0.45,1.1 -0.033,0 -0.066,0.017 -0.1,0.05 -0.3,0.333 -0.667,0.5 -1.1,0.5 -0.467,0 -0.867,-0.167 -1.2,-0.5 -0.167,-0.167 -0.283,-0.333 -0.35,-0.5 -0.1,-0.2 -0.15,-0.417 -0.15,-0.65 0,-0.367 0.133,-0.717 0.4,-1.05 l -10.15,9.5 m 9.65,10.45 1.4,-7.75 3.15,6 3.25,-7.75 m 5.8,11.15 2.4,-3.45 2.65,-3.95 0.45,4.9 0.5,5 1.6,-9.75 M 10.3,-26 c -0.8,3.133 -2.617,4.1 -5.45,2.9 l 2.4,-8.75 c 3,0.167 4.017,2.117 3.05,5.85 z m -4,8.4 4.3,-3.05 -1.6,9 M -2,-19.8 v 2.45 c 0.733,-1.433 1.55,-2.167 2.45,-2.2 1.9,0.966 2.8,3.183 2.7,6.65 M 18.9,-29.95 c 4.8,1.767 4.567,3.75 -0.7,5.95 l 4.85,5.6 m -6.4,-6.3 -3.1,-0.95 m -3.1,56.9 v 8.9 L 17,38 M 5.45,31.25 6.3,40.35 M -17.45,-30 v 5.55 L -14,-25.8 -17.45,-30 z m 14.85,-2.55 -5.25,1.45 0.8,4.05 2.45,-0.05 m -2.45,0.05 0.6,2.8 0.3,1.6 H -2 m -5.2,3.9 c 0.034,3.933 0.934,5.667 2.7,5.2 2.167,-1.7 2,-4.15 -0.5,-7.35 m 3,3.55 v 3.95 m -6.8,-5.45 c -1.8,-2.167 -3.167,-2.167 -4.1,0 -0.533,0.8 -0.533,1.517 0,2.15 h 2.7 c 1.767,1.467 1.767,2.684 0,3.65 -1.3,0.233 -2.2,-0.083 -2.7,-0.95 m -4.55,-10.45 -0.2,3.8 c -5.7,2.3 -7.05,-0.483 -4.05,-8.35 m 8.55,-2.7 1.75,7.45 h 4.95 m -7.55,-1.55 3,3.7 M 2.75,41 -0.55,35.6 c -0.534,0.367 -1.1,0.75 -1.7,1.15 V 41 m 0,-8.7 v 4.45 m -9.6,-5.5 c -2.267,0.233 -4.183,2.517 -5.75,6.85 l 6.55,-1.55 c 0.567,-2.6 0.3,-4.367 -0.8,-5.3 z m -6.65,9.6 c 0.233,-0.967 0.517,-1.833 0.85,-2.6 0,-0.067 0.017,-0.117 0.05,-0.15 m 9.65,-0.3 -0.4,-5.85 c 6.233,0.633 6.367,2.583 0.4,5.85 l 0.35,4.15 m -3.45,-5.4 c -0.333,1.5 -0.95,3.3 -1.85,5.4 M -2.25,31.8 c 5.467,-0.667 6.033,0.6 1.7,3.8 M -19.1,-3.55 19.15,-3.8 m -38.25,-2.25 38.5,-0.1 m -38.4,-1.8 38,-0.3"
           stroke-miterlimit="3"
           clip-rule="evenodd"
           inkscape:connector-curvature="0"
           style="fill:none;stroke:#000000;stroke-linecap:round;stroke-linejoin:round;stroke-miterlimit:3" />
      </g>
      <use
         id="use62"
         overflow="visible"
         transform="scale(1,-1)"
         y="-12.95"
         x="-13"
         height="25.9"
         width="26"
         xlink:href="#yellowstar"
         style="overflow:visible" />
    </g>
    <g
       id="attic_toolbox"
       transform="translate(376.14272,373.03718)">
      <linearGradient
         id="linearGradient3427"
         gradientUnits="userSpaceOnUse"
         x1="129.45509"
         y1="34.3979"
         x2="137.10339"
         y2="38.476101">
        <stop
           offset="0"
           style="stop-color:#FFFF66"
           id="stop3429" />
        <stop
           offset="1"
           style="stop-color:#8F8E01"
           id="stop3431" />
      </linearGradient>
      <path
         clip-rule="evenodd"
         d="m 131.25,49.25 -0.3,0.9 -0.2,0.4 -0.45,-0.2 -4.25,-1.55 1.05,-2.9 8.85,-23.5 4.7,1.75 -9.4,25.1 z m -2.1,-0.9 c 0.2,-0.067 0.367,-0.2 0.5,-0.4 0.1,-0.2 0.117,-0.4 0.05,-0.6 -0.067,-0.233 -0.2,-0.4 -0.4,-0.5 -0.2,-0.1 -0.4,-0.117 -0.6,-0.05 -0.2,0.067 -0.35,0.2 -0.45,0.4 -0.133,0.2 -0.167,0.4 -0.1,0.6 0.067,0.2 0.2,0.35 0.4,0.45 0.2,0.1 0.4,0.133 0.6,0.1 z"
         id="path9"
         inkscape:connector-curvature="0"
         style="fill:url(#SVGID_1_-8);fill-rule:evenodd" />
      <radialGradient
         id="radialGradient3434"
         cx="-175"
         cy="-324.5"
         r="548.22443"
         gradientUnits="userSpaceOnUse">
        <stop
           offset="0.3804"
           style="stop-color:#FFFFFF"
           id="stop3436" />
        <stop
           offset="1"
           style="stop-color:#3C3C3C"
           id="stop3438" />
      </radialGradient>
      <path
         clip-rule="evenodd"
         d="m 129.15,48.35 c -0.2,0.033 -0.4,0 -0.6,-0.1 -0.2,-0.1 -0.333,-0.25 -0.4,-0.45 -0.066,-0.2 -0.033,-0.4 0.1,-0.6 0.1,-0.2 0.25,-0.333 0.45,-0.4 0.2,-0.066 0.4,-0.05 0.6,0.05 0.2,0.1 0.333,0.267 0.4,0.5 0.066,0.2 0.05,0.4 -0.05,0.6 -0.133,0.2 -0.3,0.333 -0.5,0.4 z m -22.7,5.4 c -0.133,0.2 -0.3,0.317 -0.5,0.35 -0.2,0.066 -0.4,0.05 -0.6,-0.05 -0.2,-0.1 -0.333,-0.25 -0.4,-0.45 -0.067,-0.233 -0.034,-0.45 0.1,-0.65 0.1,-0.2 0.25,-0.317 0.45,-0.35 0.2,-0.067 0.4,-0.05 0.6,0.05 0.2,0.1 0.333,0.25 0.4,0.45 0.067,0.233 0.05,0.45 -0.05,0.65 z m 1.35,23.45 c 0.167,0.1 0.3,0.267 0.4,0.5 0.066,0.2 0.05,0.4 -0.05,0.6 -0.026,0.052 -0.059,0.102 -0.1,0.15 -0.094,0.117 -0.227,0.201 -0.4,0.25 -0.233,0.033 -0.433,0 -0.6,-0.1 -0.2,-0.1 -0.333,-0.25 -0.4,-0.45 -0.061,-0.182 -0.052,-0.366 0.025,-0.55 0.008,-0.016 0.016,-0.033 0.025,-0.05 0.1,-0.2 0.267,-0.333 0.5,-0.4 0.2,-0.067 0.4,-0.05 0.6,0.05 z"
         id="path16"
         inkscape:connector-curvature="0"
         style="fill:url(#SVGID_2_-8);fill-rule:evenodd" />
      <linearGradient
         id="linearGradient3441"
         gradientUnits="userSpaceOnUse"
         x1="106.5977"
         y1="44.771"
         x2="127.3452"
         y2="55.8507">
        <stop
           offset="0"
           style="stop-color:#FFFF66"
           id="stop3443" />
        <stop
           offset="1"
           style="stop-color:#8F8E01"
           id="stop3445" />
      </linearGradient>
      <path
         clip-rule="evenodd"
         d="m 130.95,50.15 0.3,-0.9 0.2,0.8 -0.5,0.1 z m -15.2,3.6 -7.45,1.75 -0.3,-3.85 -4.95,0.4 -0.1,-0.45 24.15,-5.7 -1.05,2.9 4.25,1.55 -10.325,2.425 -4.225,0.975 z"
         id="path23"
         inkscape:connector-curvature="0"
         style="fill:url(#SVGID_3_-5);fill-rule:evenodd" />
      <radialGradient
         id="radialGradient3448"
         cx="126.1499"
         cy="75.149902"
         r="28.549999"
         gradientUnits="userSpaceOnUse">
        <stop
           offset="0"
           style="stop-color:#55A7F7"
           id="stop3450" />
        <stop
           offset="1"
           style="stop-color:#0148B1"
           id="stop3452" />
      </radialGradient>
      <path
         clip-rule="evenodd"
         d="m 131.6,92.9 c -4.8,-5.667 -9.5,-8.55 -14.1,-8.65 l -7.35,-4.525 0.15,-0.025 -0.05,-0.8 0.35,-0.6 -0.4,-0.2 -0.725,-8.525 c 5.8,-2.875 7.892,-8.15 6.275,-15.825 l 4.225,-0.975 28.375,17.375 c 5,14.433 -0.583,22.017 -16.75,22.75 z m -27.05,-21.65 0.4,5.15 -0.05,0.1 -7.15,-4.4 c 2.52,-0.115 4.786,-0.398 6.8,-0.85 z"
         id="path30"
         inkscape:connector-curvature="0"
         style="fill:url(#SVGID_4_-3);fill-rule:evenodd" />
      <linearGradient
         id="linearGradient3455"
         gradientUnits="userSpaceOnUse"
         x1="98.035202"
         y1="61.271999"
         x2="115.2094"
         y2="70.448303">
        <stop
           offset="0"
           style="stop-color:#FFFF66"
           id="stop3457" />
        <stop
           offset="1"
           style="stop-color:#8F8E01"
           id="stop3459" />
      </linearGradient>
      <path
         clip-rule="evenodd"
         d="m 104.95,76.4 -0.4,-5.15 -1.55,-19.15 0.05,-0.05 4.95,-0.4 0.3,3.85 1.175,14.075 0.725,8.525 0.05,0.8 0.05,0.8 -0.15,0.025 -0.35,0.075 -4.5,0.3 -0.2,-2.25 0.05,-0.05 -0.05,-0.05 -0.15,-1.35 z m 1.5,-22.65 c 0.1,-0.2 0.117,-0.417 0.05,-0.65 -0.067,-0.2 -0.2,-0.35 -0.4,-0.45 -0.2,-0.1 -0.4,-0.117 -0.6,-0.05 -0.2,0.033 -0.35,0.15 -0.45,0.35 -0.133,0.2 -0.167,0.417 -0.1,0.65 0.066,0.2 0.2,0.35 0.4,0.45 0.2,0.1 0.4,0.117 0.6,0.05 0.2,-0.033 0.367,-0.15 0.5,-0.35 z m 1.35,23.45 c -0.2,-0.1 -0.4,-0.117 -0.6,-0.05 -0.233,0.067 -0.4,0.2 -0.5,0.4 -0.009,0.018 -0.018,0.035 -0.025,0.05 -0.077,0.184 -0.085,0.368 -0.025,0.55 0.067,0.2 0.2,0.35 0.4,0.45 0.167,0.1 0.367,0.133 0.6,0.1 0.173,-0.049 0.306,-0.133 0.4,-0.25 0.041,-0.048 0.074,-0.098 0.1,-0.15 0.1,-0.2 0.117,-0.4 0.05,-0.6 -0.1,-0.233 -0.233,-0.4 -0.4,-0.5 z"
         id="path37"
         inkscape:connector-curvature="0"
         style="fill:url(#SVGID_5_-1);fill-rule:evenodd" />
      <radialGradient
         id="radialGradient3462"
         cx="89.149902"
         cy="75.950203"
         r="24.078199"
         gradientUnits="userSpaceOnUse">
        <stop
           offset="0"
           style="stop-color:#FFFFFF"
           id="stop3464" />
        <stop
           offset="1"
           style="stop-color:#000000"
           id="stop3466" />
      </radialGradient>
      <path
         clip-rule="evenodd"
         d="M 85.3,83.65 90.725,66.875 92.1,62.6 c -0.367,-0.4 -0.65,-0.9 -0.85,-1.5 -0.633,-1.633 -0.667,-3.35 -0.1,-5.15 0.4,-1.167 0.767,-2.233 1.1,-3.2 l 1.95,0.65 -1.15,3.6 1.25,2.2 2.4,0.8 2.5,-1.2 1.1,-3.45 2.2,0.6 c -0.133,1.1 -0.4,2.233 -0.8,3.4 -0.567,1.8 -1.567,3.183 -3,4.15 -0.567,0.333 -1.1,0.567 -1.6,0.7 L 95.25,69.95 89.75,87 c 0.3,0.4 0.55,0.883 0.75,1.45 0.329,0.813 0.495,1.663 0.5,2.55 l -2.775,-1.7 -0.025,-0.1 -0.3,-0.1 -4.95,-3 c 0.037,-0.015 0.07,-0.032 0.1,-0.05 0.567,-0.4 1.15,-0.683 1.75,-0.85 l 0.5,-1.55 z M 93.8,67.7 92.7,67.35 88.55,80.2 89.65,80.55 93.8,67.7 z"
         id="path44"
         inkscape:connector-curvature="0"
         style="fill:url(#SVGID_6_);fill-rule:evenodd" />
      <polygon
         clip-rule="evenodd"
         points="89.65,80.55 88.55,80.2 92.7,67.35 93.8,67.7 "
         id="polygon46"
         style="fill:#cccccc;fill-rule:evenodd" />
      <radialGradient
         id="radialGradient3470"
         cx="111.5498"
         cy="83.350098"
         r="18.35"
         gradientUnits="userSpaceOnUse">
        <stop
           offset="0"
           style="stop-color:#55A7F7"
           id="stop3472" />
        <stop
           offset="1"
           style="stop-color:#0148B1"
           id="stop3474" />
      </radialGradient>
      <path
         clip-rule="evenodd"
         d="m 117.5,84.25 c -5.74,-0.165 -11.332,4.019 -16.775,12.55 l 9.075,-17 0.35,-0.075 7.35,4.525 z M 97.75,72.1 l 7.15,4.4 -0.45,0.9 -0.7,-0.35 -6.1,11.425 L 97.7,72.1 h 0.05 z m 7.35,5.75 v -0.1 l 0.05,0.05 -0.05,0.05 z"
         id="path53"
         inkscape:connector-curvature="0"
         style="fill:url(#SVGID_7_);fill-rule:evenodd" />
      <radialGradient
         id="radialGradient3477"
         cx="95.950203"
         cy="92.549797"
         r="33.799999"
         gradientUnits="userSpaceOnUse">
        <stop
           offset="0"
           style="stop-color:#55A7F7"
           id="stop3479" />
        <stop
           offset="1"
           style="stop-color:#0148B1"
           id="stop3481" />
      </radialGradient>
      <path
         clip-rule="evenodd"
         d="m 75.3,67.625 3.9,16.2 L 66.5,76.1 v 0.25 l -0.15,-0.1 V 76.2 c 2.975,-3.863 5.958,-6.721 8.95,-8.575 z M 90.725,66.875 85.3,83.65 80.9,65.325 c 3.259,-0.652 6.534,-0.136 9.825,1.55 z M 97.7,72.1 97.65,88.475 95,93.425 91,91 C 90.995,90.113 90.829,89.263 90.5,88.45 90.3,87.883 90.05,87.4 89.75,87 l 5.5,-17.05 c 0.783,0.646 1.566,1.363 2.35,2.15 l 0.05,-0.025 0.05,0.025 z m -9.8,17 0.3,0.1 0.025,0.1 -0.325,-0.2 z"
         id="path60-3"
         inkscape:connector-curvature="0"
         style="fill:url(#SVGID_8_);fill-rule:evenodd" />
      <linearGradient
         id="linearGradient3484"
         gradientUnits="userSpaceOnUse"
         x1="76.048302"
         y1="70.532204"
         x2="81.824303"
         y2="69.136299">
        <stop
           offset="0"
           style="stop-color:#CB841B"
           id="stop3486" />
        <stop
           offset="1"
           style="stop-color:#2D1D06"
           id="stop3488" />
      </linearGradient>
      <path
         clip-rule="evenodd"
         d="m 79.2,83.825 -3.9,-16.2 -3.2,-13.375 5.8,-1.4 3,12.475 4.4,18.325 -0.5,1.55 c -0.6,0.167 -1.183,0.45 -1.75,0.85 -0.029,0.019 -0.063,0.035 -0.1,0.05 L 79.2,83.825 z"
         id="path67"
         inkscape:connector-curvature="0"
         style="fill:url(#SVGID_9_);fill-rule:evenodd" />
      <radialGradient
         id="radialGradient3491"
         cx="91.200203"
         cy="96.25"
         r="37.049999"
         gradientUnits="userSpaceOnUse">
        <stop
           offset="0"
           style="stop-color:#55A7F7"
           id="stop3493" />
        <stop
           offset="1"
           style="stop-color:#0148B1"
           id="stop3495" />
      </radialGradient>
      <path
         clip-rule="evenodd"
         d="m 95,93.425 0.675,0.4 0.675,0.425 4.325,2.625 0.025,0.025 -0.15,35.2 L 100.4,132 66.35,111.25 66.5,76.35 V 76.1 l 12.7,7.725 3.75,2.275 4.95,3 0.325,0.2 L 91,91 95,93.425 z M 76.65,97.25 c 0.333,1.633 0.684,3.117 1.05,4.45 3,11.9 5.5,12.466 7.5,1.7 l 2.45,1.85 -0.1,-3.55 -5.15,-3.85 0.15,3.6 0.65,0.5 c -0.833,6.566 -1.967,6.45 -3.4,-0.35 -0.167,-0.667 -0.316,-1.434 -0.45,-2.3 l 0.7,0.5 -0.15,-3.6 -5.1,-3.85 0.1,3.6 1.75,1.3 z"
         id="path74"
         inkscape:connector-curvature="0"
         style="fill:url(#SVGID_10_);fill-rule:evenodd" />
      <linearGradient
         id="linearGradient3498"
         gradientUnits="userSpaceOnUse"
         x1="99.567398"
         y1="84.747101"
         x2="100.3174"
         y2="85.147102">
        <stop
           offset="0"
           style="stop-color:#FFFF66"
           id="stop3500" />
        <stop
           offset="1"
           style="stop-color:#8F8E01"
           id="stop3502" />
      </linearGradient>
      <path
         clip-rule="evenodd"
         d="m 105.1,77.85 -8.75,16.4 -0.675,-0.425 -0.675,-0.4 2.65,-4.95 6.1,-11.425 0.7,0.35 0.45,-0.9 0.05,-0.1 0.15,1.35 v 0.1 z M 104.45,77.4 95.675,93.825 104.45,77.4 z"
         id="path81"
         inkscape:connector-curvature="0"
         style="fill:url(#SVGID_11_);fill-rule:evenodd" />
      <linearGradient
         id="linearGradient3505"
         gradientUnits="userSpaceOnUse"
         x1="100.7588"
         y1="85.940399"
         x2="105.1866"
         y2="88.310204">
        <stop
           offset="0"
           style="stop-color:#FFFF66"
           id="stop3507" />
        <stop
           offset="1"
           style="stop-color:#8F8E01"
           id="stop3509" />
      </linearGradient>
      <polygon
         clip-rule="evenodd"
         points="100.675,96.875 96.35,94.25 105.1,77.85 105.3,80.1 109.8,79.8 100.725,96.8 "
         id="polygon88"
         style="fill:url(#SVGID_12_);fill-rule:evenodd" />
      <radialGradient
         id="radialGradient3512"
         cx="128.9502"
         cy="111.9502"
         r="35.049999"
         gradientUnits="userSpaceOnUse">
        <stop
           offset="0"
           style="stop-color:#55A7F7"
           id="stop3514" />
        <stop
           offset="1"
           style="stop-color:#0148B1"
           id="stop3516" />
      </radialGradient>
      <path
         clip-rule="evenodd"
         d="m 131.65,92.95 c 0.033,0.033 0.083,0.083 0.15,0.15 l -0.15,35.2 -31.2,3.95 H 100.4 V 132 l 0.15,0.1 0.15,-35.2 -0.025,-0.025 0.05,-0.075 c 5.443,-8.531 11.035,-12.715 16.775,-12.55 4.6,0.1 9.3,2.983 14.1,8.65 l 0.05,0.05 z"
         id="path95"
         inkscape:connector-curvature="0"
         style="fill:url(#SVGID_13_);fill-rule:evenodd" />
      <linearGradient
         id="linearGradient3519"
         gradientUnits="userSpaceOnUse"
         x1="105.9082"
         y1="76.199203"
         x2="109.6613"
         y2="78.193497">
        <stop
           offset="0"
           style="stop-color:#FFFF66"
           id="stop3521" />
        <stop
           offset="1"
           style="stop-color:#8F8E01"
           id="stop3523" />
      </linearGradient>
      <polygon
         clip-rule="evenodd"
         points="110.6,78.3 110.25,78.9 110.2,78.1 "
         id="polygon102"
         style="fill:url(#SVGID_14_);fill-rule:evenodd" />
      <linearGradient
         id="linearGradient3526"
         gradientUnits="userSpaceOnUse"
         x1="64.891098"
         y1="51.9795"
         x2="81.691399"
         y2="47.930698">
        <stop
           offset="0"
           style="stop-color:#FFFFFF"
           id="stop3528" />
        <stop
           offset="1"
           style="stop-color:#000000"
           id="stop3530" />
      </linearGradient>
      <path
         clip-rule="evenodd"
         d="m 77.9,52.85 -5.8,1.4 -6.3,1.5 -1.2,-5 c 0.367,-0.133 0.7,-0.267 1,-0.4 4.1,-1.467 6.383,-2.867 6.85,-4.2 l 8.4,-2 1.8,7.55 -4.75,1.15 z"
         id="path109"
         inkscape:connector-curvature="0"
         style="fill:url(#SVGID_15_);fill-rule:evenodd" />
      <linearGradient
         id="linearGradient3533"
         gradientUnits="userSpaceOnUse"
         x1="41.817402"
         y1="102.8179"
         x2="57.318501"
         y2="100.2244">
        <stop
           offset="0"
           style="stop-color:#CB841B"
           id="stop3535" />
        <stop
           offset="1"
           style="stop-color:#2D1D06"
           id="stop3537" />
      </linearGradient>
      <path
         clip-rule="evenodd"
         d="m 46.75,111.7 -0.45,-2.5 v -0.1 l -2.5,-14.75 -0.4,-2.45 15.45,-2.6 0.05,0.05 1.3,0.7 0.05,-0.05 3.3,19.75 -3.4,0.6 -1.3,-0.65 -2.15,-12.5 c -0.9,-1.267 -1.75,-2.15 -2.55,-2.65 -1.733,-0.466 -3.2,1.1 -4.4,4.7 l 0.05,0.05 -1.35,-0.8 -0.05,0.1 2.1,12.5 -3.75,0.6 3.75,-0.6 -2.1,-12.5 0.05,-0.1 1.35,0.8 2.1,12.45 -3.9,0.7 -1.25,-0.75 z m 7.4,-17.15 c -2.433,-1.767 -4.333,-0.45 -5.7,3.95 1.367,-4.4 3.267,-5.717 5.7,-3.95 z m 9.4,15.2 -1.35,-0.65 -3.35,0.6 3.35,-0.6 1.35,0.65 z M 58.9,89.35 62.2,109.1 58.9,89.35 z"
         id="path116"
         inkscape:connector-curvature="0"
         style="fill:url(#SVGID_16_);fill-rule:evenodd" />
      <linearGradient
         id="linearGradient3540"
         gradientUnits="userSpaceOnUse"
         x1="43.3955"
         y1="91.915497"
         x2="58.896599"
         y2="89.321999">
        <stop
           offset="0"
           style="stop-color:#CB841B"
           id="stop3542" />
        <stop
           offset="1"
           style="stop-color:#2D1D06"
           id="stop3544" />
      </linearGradient>
      <polygon
         clip-rule="evenodd"
         points="58.9,89.3 58.9,89.35 58.85,89.3 "
         id="polygon123"
         style="fill:url(#SVGID_17_);fill-rule:evenodd" />
      <path
         clip-rule="evenodd"
         d="m 79.35,99.3 c -0.1,-0.6 -0.217,-1.233 -0.35,-1.9 -0.7,-1.566 -1.633,-2.35 -2.8,-2.35 0.133,0.733 0.283,1.467 0.45,2.2 l -1.75,-1.3 -0.1,-3.6 5.1,3.85 0.15,3.6 -0.7,-0.5 z m 5.85,4.1 c 0.066,-0.4 0.133,-0.8 0.2,-1.2 -0.8,-1.567 -1.483,-2.133 -2.05,-1.7 -0.033,0.333 -0.067,0.667 -0.1,1 0,0.133 -0.017,0.283 -0.05,0.45 l -0.65,-0.5 -0.15,-3.6 5.15,3.85 0.1,3.55 -2.45,-1.85 z"
         id="path125"
         inkscape:connector-curvature="0"
         style="fill:#333333;fill-rule:evenodd" />
      <linearGradient
         id="linearGradient3548"
         gradientUnits="userSpaceOnUse"
         x1="76.448196"
         y1="103.1421"
         x2="85.448196"
         y2="102.8659">
        <stop
           offset="0"
           style="stop-color:#CB841B"
           id="stop3550" />
        <stop
           offset="0.702"
           style="stop-color:#2D1D06"
           id="stop3552" />
      </linearGradient>
      <path
         clip-rule="evenodd"
         d="m 83.2,101.95 c 0.033,-0.167 0.05,-0.317 0.05,-0.45 0.033,-0.333 0.067,-0.667 0.1,-1 0.566,-0.433 1.25,0.133 2.05,1.7 -0.066,0.4 -0.133,0.8 -0.2,1.2 -2,10.767 -4.5,10.2 -7.5,-1.7 -0.367,-1.333 -0.717,-2.817 -1.05,-4.45 -0.167,-0.733 -0.316,-1.467 -0.45,-2.2 1.167,0 2.1,0.784 2.8,2.35 0.133,0.667 0.25,1.3 0.35,1.9 0.133,0.867 0.283,1.633 0.45,2.3 1.433,6.8 2.567,6.917 3.4,0.35 z"
         id="path132"
         inkscape:connector-curvature="0"
         style="fill:url(#SVGID_18_);fill-rule:evenodd" />
      <radialGradient
         id="radialGradient3555"
         cx="19.3501"
         cy="101.4502"
         r="28.023899"
         gradientUnits="userSpaceOnUse">
        <stop
           offset="0"
           style="stop-color:#FFFFFF"
           id="stop3557" />
        <stop
           offset="1"
           style="stop-color:#000000"
           id="stop3559" />
      </radialGradient>
      <polygon
         clip-rule="evenodd"
         points="19.5,109.2 17.3,111.7 15.05,109.3 12.95,111.55 10.7,109.3 8.5,111.65 6.25,109.15 3.95,111.6 1.75,109.2 0.45,101.65 43.8,94.35 46.3,109.1 46,109.15 43.8,111.6 41.55,109.25 41.6,109.15 41.55,109.2 41.55,109.25 39.4,111.7 37.05,109.3 35,111.55 32.8,109.25 30.6,111.7 28.4,109.25 26.25,111.65 23.9,109.2 21.75,111.6 "
         id="polygon139"
         style="fill:url(#SVGID_19_);fill-rule:evenodd" />
      <linearGradient
         id="linearGradient3562"
         gradientUnits="userSpaceOnUse"
         x1="60.888699"
         y1="126.4463"
         x2="61.112499"
         y2="133.34599">
        <stop
           offset="0"
           style="stop-color:#FFFFFF"
           id="stop3564" />
        <stop
           offset="1"
           style="stop-color:#000000"
           id="stop3566" />
      </linearGradient>
      <path
         clip-rule="evenodd"
         d="m 64.325,129.9 -6.625,0.6 -1.05,0.1 1.05,-0.1 c 0,0.733 -0.1,1.383 -0.3,1.95 -0.3,0.7 -0.65,1.05 -1.05,1.05 -0.4,0 -0.733,-0.317 -1,-0.95 -0.333,-0.667 -0.517,-1.483 -0.55,-2.45 -0.033,-0.967 0.1,-1.783 0.4,-2.45 0.233,-0.7 0.55,-1.05 0.95,-1.05 0.4,0 0.767,0.316 1.1,0.95 0.2,0.534 0.333,1.167 0.4,1.9 l 6.7,0.125 -0.025,0.325 z m -7.925,-0.5 1.25,0.05 -1.25,-0.05 z m 8.7,0.2 2.1,0.05 -2.075,0.175 L 65.1,129.6 z"
         id="path146"
         inkscape:connector-curvature="0"
         style="fill:url(#SVGID_20_);fill-rule:evenodd" />
      <linearGradient
         id="linearGradient3569"
         gradientUnits="userSpaceOnUse"
         x1="43.4272"
         y1="123.0151"
         x2="44.026501"
         y2="129.8902">
        <stop
           offset="0"
           style="stop-color:#FFFFFF"
           id="stop3571" />
        <stop
           offset="1"
           style="stop-color:#000000"
           id="stop3573" />
      </linearGradient>
      <path
         clip-rule="evenodd"
         d="m 40.5,127.25 -1.1,0.1 1.1,-0.1 c 0.033,0.733 -0.05,1.383 -0.25,1.95 -0.233,0.667 -0.55,1.017 -0.95,1.05 -0.4,0.033 -0.767,-0.25 -1.1,-0.85 -0.333,-0.633 -0.55,-1.433 -0.65,-2.4 -0.1,-0.967 -0.017,-1.8 0.25,-2.5 0.2,-0.7 0.5,-1.067 0.9,-1.1 0.4,-0.033 0.783,0.267 1.15,0.9 0.233,0.534 0.4,1.167 0.5,1.9 l 9.55,-0.35 -9.4,1.4 z m -1.4,-1.05 h 1.25 -1.25 z"
         id="path153"
         inkscape:connector-curvature="0"
         style="fill:url(#SVGID_21_);fill-rule:evenodd" />
      <linearGradient
         id="linearGradient3576"
         gradientUnits="userSpaceOnUse"
         x1="61.299801"
         y1="129.09959"
         x2="68.200203"
         y2="129.09959">
        <stop
           offset="0"
           style="stop-color:#FFFFFF"
           id="stop3578" />
        <stop
           offset="1"
           style="stop-color:#000000"
           id="stop3580" />
      </linearGradient>
      <path
         clip-rule="evenodd"
         d="m 65.125,129.825 0.125,2.575 0.05,1.1 -0.05,-1.1 c 0.733,0.033 1.383,0.167 1.95,0.4 0.667,0.3 1,0.65 1,1.05 0,0.4 -0.333,0.733 -1,1 -0.667,0.3 -1.483,0.45 -2.45,0.45 -0.967,0 -1.783,-0.15 -2.45,-0.45 -0.667,-0.267 -1,-0.6 -1,-1 0,-0.4 0.333,-0.75 1,-1.05 0.534,-0.2 1.167,-0.316 1.9,-0.35 l -0.1,1.25 0.1,-1.25 0.125,-2.55 0.025,-0.325 0.35,-6.675 0.4,6.7 0.025,0.225 z"
         id="path160"
         inkscape:connector-curvature="0"
         style="fill:url(#SVGID_22_);fill-rule:evenodd" />
      <linearGradient
         id="linearGradient3583"
         gradientUnits="userSpaceOnUse"
         x1="22.7129"
         y1="126.9214"
         x2="23.338499"
         y2="133.7963">
        <stop
           offset="0"
           style="stop-color:#FFFFFF"
           id="stop3585" />
        <stop
           offset="1"
           style="stop-color:#000000"
           id="stop3587" />
      </linearGradient>
      <path
         clip-rule="evenodd"
         d="m 19.65,130.15 9.55,-0.4 -9.4,1.4 -1.1,0.15 1.1,-0.15 c 0.034,0.767 -0.033,1.417 -0.2,1.95 -0.233,0.7 -0.55,1.066 -0.95,1.1 -0.4,0.033 -0.767,-0.267 -1.1,-0.9 -0.367,-0.6 -0.6,-1.383 -0.7,-2.35 -0.067,-0.967 0.017,-1.8 0.25,-2.5 0.2,-0.7 0.5,-1.067 0.9,-1.1 0.4,-0.033 0.783,0.267 1.15,0.9 0.233,0.533 0.4,1.167 0.5,1.9 z m -1.25,0 h 1.25 -1.25 z"
         id="path167"
         inkscape:connector-curvature="0"
         style="fill:url(#SVGID_23_);fill-rule:evenodd" />
      <linearGradient
         id="linearGradient3590"
         gradientUnits="userSpaceOnUse"
         x1="29.799801"
         y1="123.4004"
         x2="36.700199"
         y2="123.4004">
        <stop
           offset="0"
           style="stop-color:#FFFFFF"
           id="stop3592" />
        <stop
           offset="1"
           style="stop-color:#000000"
           id="stop3594" />
      </linearGradient>
      <path
         clip-rule="evenodd"
         d="m 32.7,126.75 0.5,-9.55 0.55,9.5 0.05,1.1 -0.05,-1.1 c 0.733,0.033 1.383,0.167 1.95,0.4 0.667,0.3 1,0.65 1,1.05 0,0.4 -0.333,0.733 -1,1 -0.667,0.3 -1.483,0.45 -2.45,0.45 -0.946,0 -1.747,-0.142 -2.4,-0.425 L 30.7,127.15 c 0.031,-0.018 0.065,-0.034 0.1,-0.05 0.533,-0.2 1.167,-0.317 1.9,-0.35 z m -0.1,1.25 0.1,-1.25 -0.1,1.25 z m -2.275,-0.625 -0.05,1.5 c -0.316,-0.209 -0.475,-0.451 -0.475,-0.725 0,-0.288 0.175,-0.546 0.525,-0.775 z"
         id="path174"
         inkscape:connector-curvature="0"
         style="fill:url(#SVGID_24_);fill-rule:evenodd" />
      <linearGradient
         id="linearGradient3597"
         gradientUnits="userSpaceOnUse"
         x1="27.1504"
         y1="130.11279"
         x2="34.049599"
         y2="129.9877">
        <stop
           offset="0"
           style="stop-color:#FFFFFF"
           id="stop3599" />
        <stop
           offset="1"
           style="stop-color:#000000"
           id="stop3601" />
      </linearGradient>
      <path
         clip-rule="evenodd"
         d="m 30.1,133.4 0.175,-4.525 0.05,-1.5 0.125,-3.525 0.25,3.3 0.15,2.025 0.3,4.175 0.1,1.1 -0.1,-1.1 c 0.733,0 1.383,0.117 1.95,0.35 0.7,0.3 1.05,0.65 1.05,1.05 0,0.4 -0.333,0.733 -1,1 -0.667,0.3 -1.483,0.467 -2.45,0.5 -0.967,0 -1.784,-0.133 -2.45,-0.4 -0.666,-0.267 -1,-0.6 -1,-1 0,-0.4 0.317,-0.75 0.95,-1.05 0.533,-0.233 1.167,-0.367 1.9,-0.4 l -0.05,1.25 0.05,-1.25 z"
         id="path181"
         inkscape:connector-curvature="0"
         style="fill:url(#SVGID_25_);fill-rule:evenodd" />
      <linearGradient
         id="linearGradient3604"
         gradientUnits="userSpaceOnUse"
         x1="21.549801"
         y1="122.5996"
         x2="28.450199"
         y2="122.5996">
        <stop
           offset="0"
           style="stop-color:#FFFFFF"
           id="stop3606" />
        <stop
           offset="1"
           style="stop-color:#000000"
           id="stop3608" />
      </linearGradient>
      <path
         clip-rule="evenodd"
         d="m 24.45,125.95 0.5,-9.55 0.55,9.5 0.05,1.1 -0.05,-1.1 c 0.733,0.033 1.383,0.167 1.95,0.4 0.667,0.3 1,0.65 1,1.05 0,0.4 -0.333,0.733 -1,1 -0.667,0.3 -1.483,0.45 -2.45,0.45 -0.967,0 -1.783,-0.15 -2.45,-0.45 -0.667,-0.267 -1,-0.6 -1,-1 0,-0.4 0.333,-0.75 1,-1.05 0.533,-0.2 1.167,-0.317 1.9,-0.35 l -0.1,1.25 0.1,-1.25 z"
         id="path188"
         inkscape:connector-curvature="0"
         style="fill:url(#SVGID_26_);fill-rule:evenodd" />
      <path
         clip-rule="evenodd"
         stroke-miterlimit="3"
         d="m 127.1,45.9 8.85,-23.5 4.7,1.75 -9.4,25.1 0.2,0.8 -0.5,0.1 -0.2,0.4 -0.45,-0.2 -10.325,2.425 28.375,17.375 c 5,14.434 -0.583,22.017 -16.75,22.75 l 0.05,0.05 0.25,0.15 h -0.1 l -0.15,35.2 -31.2,3.95 h -0.05 m 0,-0.25 -34.05,-20.75 0.15,-34.9 M 66.35,76.25 66.3,76.2 h 0.05 c 2.975,-3.863 5.958,-6.722 8.95,-8.575 l -3.2,-13.375 -6.3,1.5 -1.2,-5 c 0.367,-0.133 0.7,-0.267 1,-0.4 4.1,-1.467 6.383,-2.867 6.85,-4.2 l 8.4,-2 1.8,7.55 -4.75,1.15 3,12.475 c 3.259,-0.652 6.534,-0.136 9.825,1.55 L 92.1,62.6 c -0.367,-0.4 -0.65,-0.9 -0.85,-1.5 -0.633,-1.633 -0.667,-3.35 -0.1,-5.15 0.4,-1.167 0.767,-2.233 1.1,-3.2 l 1.95,0.65 -1.15,3.6 1.25,2.2 2.4,0.8 2.5,-1.2 1.1,-3.45 2.2,0.6 c -0.133,1.1 -0.4,2.233 -0.8,3.4 -0.567,1.8 -1.567,3.183 -3,4.15 -0.567,0.333 -1.1,0.567 -1.6,0.7 l -1.85,5.75 c 0.783,0.646 1.566,1.363 2.35,2.15 l 0.05,-0.025 0.05,-0.025 0.05,0.05 c 2.52,-0.115 4.786,-0.398 6.8,-0.85 L 103,52.1 l 0.05,-0.05 -0.1,-0.45 24.15,-5.7 m 2.05,2.45 c -0.2,0.033 -0.4,0 -0.6,-0.1 -0.2,-0.1 -0.333,-0.25 -0.4,-0.45 -0.066,-0.2 -0.033,-0.4 0.1,-0.6 0.1,-0.2 0.25,-0.333 0.45,-0.4 0.2,-0.066 0.4,-0.05 0.6,0.05 0.2,0.1 0.333,0.267 0.4,0.5 0.066,0.2 0.05,0.4 -0.05,0.6 -0.133,0.2 -0.3,0.333 -0.5,0.4 z m 1.15,2 -4.25,-1.55 1.05,-2.9 m -7.125,6.875 -4.225,0.975 c 1.617,7.675 -0.475,12.951 -6.275,15.825 l 0.725,8.525 0.4,0.2 -0.35,0.6 0.05,0.8 -0.15,0.025 7.35,4.525 c 4.6,0.1 9.3,2.983 14.1,8.65 m -28.55,-40.85 4.95,-0.4 0.3,3.85 7.45,-1.75 m -9.3,0 c -0.133,0.2 -0.3,0.317 -0.5,0.35 -0.2,0.066 -0.4,0.05 -0.6,-0.05 -0.2,-0.1 -0.333,-0.25 -0.4,-0.45 -0.067,-0.233 -0.034,-0.45 0.1,-0.65 0.1,-0.2 0.25,-0.317 0.45,-0.35 0.2,-0.067 0.4,-0.05 0.6,0.05 0.2,0.1 0.333,0.25 0.4,0.45 0.067,0.233 0.05,0.45 -0.05,0.65 z m 1.85,1.75 1.175,14.075 M 93.8,67.7 89.65,80.55 88.55,80.2 92.7,67.35 93.8,67.7 z m 3.9,4.4 h 0.05 m -0.05,0 -0.05,-0.025 M 97.7,72.05 v 0.05 m -14.75,14 c 0.037,-0.015 0.07,-0.032 0.1,-0.05 0.567,-0.4 1.15,-0.683 1.75,-0.85 L 85.3,83.65 80.9,65.325 M 95.25,69.95 89.75,87 c 0.3,0.4 0.55,0.883 0.75,1.45 0.329,0.813 0.495,1.663 0.5,2.55 l 4,2.425 2.65,-4.95 L 97.7,72.1 M 91,91 88.225,89.3 87.9,89.1 82.95,86.1 79.2,83.825 66.5,76.1 v 0.25 M 88.225,89.3 88.2,89.2 87.9,89.1 m 12.825,7.7 -0.05,0.075 0.025,0.025 -0.15,35.2 -0.15,-0.1 M 100.675,96.875 96.35,94.25 95.675,93.825 95,93.425 M 107.8,77.2 c 0.167,0.1 0.3,0.267 0.4,0.5 0.066,0.2 0.05,0.4 -0.05,0.6 -0.026,0.052 -0.059,0.102 -0.1,0.15 -0.094,0.117 -0.227,0.201 -0.4,0.25 -0.233,0.033 -0.433,0 -0.6,-0.1 -0.2,-0.1 -0.333,-0.25 -0.4,-0.45 -0.061,-0.182 -0.052,-0.366 0.025,-0.55 0.008,-0.016 0.016,-0.033 0.025,-0.05 0.1,-0.2 0.267,-0.333 0.5,-0.4 0.2,-0.067 0.4,-0.05 0.6,0.05 z m 2.35,2.525 -0.35,0.075 -9.075,17 C 106.168,88.269 111.76,84.085 117.5,84.25 m -7.3,-6.15 0.05,0.8 m -12.6,9.575 6.1,-11.425 0.7,0.35 0.45,-0.9 -7.15,-4.4 m 7.35,5.65 0.05,0.05 -0.05,0.05 0.2,2.25 4.5,-0.3 m -4.85,-3.4 -0.05,0.1 m 0.2,1.25 -0.15,-1.35 -0.4,-5.15 m 0.55,6.6 v -0.1 m -19.8,5.9 5.425,-16.775 M 96.35,94.25 105.1,77.85 M 104.45,77.4 95.675,93.825 M 131.65,92.95 c 0.033,0.033 0.083,0.083 0.15,0.15 m -0.55,-43.85 -0.3,0.9 m -58.85,4.1 5.8,-1.4 m -28.1,46.45 -1.35,-0.8 -0.05,0.1 2.1,12.5 -3.75,0.6 1.25,0.75 3.9,-0.7 -2.1,-12.45 z m -6,-4.95 -0.4,-2.45 15.45,-2.6 h 0.05 v 0.05 l 1.3,0.7 m 0.05,-0.05 3.3,19.75 -3.4,0.6 -1.3,-0.65 -2.15,-12.5 c -0.9,-1.267 -1.75,-2.15 -2.55,-2.65 -1.733,-0.466 -3.2,1.1 -4.4,4.7 l 0.05,0.05 m 9.1,-9.95 -0.05,-0.05 m -4.7,5.25 C 51.717,92.783 49.817,94.1 48.45,98.5 M 66.35,76.25 V 76.2 m 10.3,21.05 -1.75,-1.3 -0.1,-3.6 5.1,3.85 0.15,3.6 -0.7,-0.5 c 0.133,0.867 0.283,1.633 0.45,2.3 1.434,6.8 2.567,6.917 3.4,0.35 l -0.65,-0.5 -0.15,-3.6 5.15,3.85 0.1,3.55 -2.45,-1.85 c -2,10.767 -4.5,10.2 -7.5,-1.7 -0.367,-1.333 -0.717,-2.817 -1.05,-4.45 z m 2.7,2.05 c -0.1,-0.6 -0.217,-1.233 -0.35,-1.9 -0.7,-1.566 -1.633,-2.35 -2.8,-2.35 0.133,0.733 0.283,1.467 0.45,2.2 M 79.2,83.825 75.3,67.625 M 63.55,109.75 62.2,109.1 58.85,109.7 M 43.8,94.35 l -43.35,7.3 1.3,7.55 2.2,2.4 2.3,-2.45 2.25,2.5 2.2,-2.35 2.25,2.25 2.1,-2.25 2.25,2.4 2.2,-2.5 2.25,2.4 2.15,-2.4 2.35,2.45 2.15,-2.4 2.2,2.45 2.2,-2.45 2.2,2.3 2.05,-2.25 2.35,2.4 2.15,-2.45 v -0.05 l 0.05,-0.05 -0.05,0.1 2.25,2.35 2.2,-2.45 m 0.3,-0.05 -2.5,-14.75 m 2.5,14.85 v -0.1 m 0,0.1 -0.3,-0.05 m 0.75,2.55 -0.45,-2.5 m 11.35,20.25 c -0.066,-0.733 -0.2,-1.367 -0.4,-1.9 -0.333,-0.633 -0.7,-0.95 -1.1,-0.95 -0.4,0 -0.717,0.35 -0.95,1.05 -0.3,0.667 -0.434,1.483 -0.4,2.45 0.034,0.967 0.217,1.783 0.55,2.45 0.267,0.633 0.6,0.95 1,0.95 0.4,0 0.75,-0.35 1.05,-1.05 0.2,-0.567 0.3,-1.217 0.3,-1.95 l -1.05,0.1 m -0.25,-1.2 1.25,0.05 m -17.15,-2.2 c 0.033,0.733 -0.05,1.383 -0.25,1.95 -0.233,0.667 -0.55,1.017 -0.95,1.05 -0.4,0.033 -0.767,-0.25 -1.1,-0.85 -0.333,-0.633 -0.55,-1.433 -0.65,-2.4 -0.1,-0.967 -0.017,-1.8 0.25,-2.5 0.2,-0.7 0.5,-1.067 0.9,-1.1 0.4,-0.033 0.783,0.267 1.15,0.9 0.233,0.534 0.4,1.167 0.5,1.9 l 9.55,-0.35 -9.4,1.4 -1.1,0.1 m 25.7,2.25 0.025,0.225 2.075,-0.175 -2.1,-0.05 z m -0.775,0.3 0.025,-0.325 -6.7,-0.125 m 6.45,4.25 0.1,-1.25 c -0.733,0.033 -1.367,0.15 -1.9,0.35 -0.667,0.3 -1,0.65 -1,1.05 0,0.4 0.333,0.733 1,1 0.667,0.3 1.483,0.45 2.45,0.45 0.967,0 1.783,-0.15 2.45,-0.45 0.667,-0.267 1,-0.6 1,-1 0,-0.4 -0.333,-0.75 -1,-1.05 -0.567,-0.233 -1.217,-0.367 -1.95,-0.4 l 0.05,1.1 m -1.1,-1.05 0.125,-2.55 -6.625,0.6 m 7.425,-0.675 0.125,2.575 m -0.9,-2.825 0.35,-6.675 0.4,6.7 m -45.45,0.55 c -0.1,-0.733 -0.267,-1.367 -0.5,-1.9 -0.367,-0.633 -0.75,-0.933 -1.15,-0.9 -0.4,0.033 -0.7,0.4 -0.9,1.1 -0.233,0.7 -0.317,1.533 -0.25,2.5 0.1,0.966 0.333,1.75 0.7,2.35 0.333,0.633 0.7,0.934 1.1,0.9 0.4,-0.034 0.717,-0.4 0.95,-1.1 0.167,-0.533 0.233,-1.184 0.2,-1.95 l -1.1,0.15 m -0.3,-1.15 h 1.25 l 9.55,-0.4 -9.4,1.4 m 19.3,-4.95 h 1.25 m -9.5,2.975 c 0.653,0.284 1.454,0.425 2.4,0.425 0.967,0 1.783,-0.15 2.45,-0.45 0.667,-0.267 1,-0.6 1,-1 0,-0.4 -0.333,-0.75 -1,-1.05 -0.567,-0.233 -1.217,-0.367 -1.95,-0.4 l 0.05,1.1 m -1.2,0.2 0.1,-1.25 c -0.733,0.033 -1.367,0.15 -1.9,0.35 -0.035,0.016 -0.068,0.032 -0.1,0.05 l 0.15,2.025 0.3,4.175 0.1,1.1 m -0.925,-7.075 0.125,-3.525 0.25,3.3 m -0.6,6.25 c -0.733,0.033 -1.367,0.167 -1.9,0.4 -0.633,0.3 -0.95,0.65 -0.95,1.05 0,0.4 0.333,0.733 1,1 0.667,0.267 1.483,0.4 2.45,0.4 0.966,-0.033 1.783,-0.2 2.45,-0.5 0.667,-0.267 1,-0.6 1,-1 0,-0.4 -0.35,-0.75 -1.05,-1.05 -0.567,-0.233 -1.217,-0.35 -1.95,-0.35 m -0.825,-5.975 c -0.35,0.229 -0.525,0.487 -0.525,0.775 0,0.274 0.159,0.516 0.475,0.725 l 0.05,-1.5 z M 25.5,125.9 25.55,127 m -1.1,-1.05 c -0.733,0.033 -1.367,0.15 -1.9,0.35 -0.667,0.3 -1,0.65 -1,1.05 0,0.4 0.333,0.733 1,1 0.667,0.3 1.483,0.45 2.45,0.45 0.967,0 1.783,-0.15 2.45,-0.45 0.667,-0.267 1,-0.6 1,-1 0,-0.4 -0.333,-0.75 -1,-1.05 -0.567,-0.233 -1.217,-0.367 -1.95,-0.4 m -1.15,1.3 0.1,-1.25 0.5,-9.55 0.55,9.5 m 4.55,8.75 0.05,-1.25 0.175,-4.525 m 2.425,-2.125 0.5,-9.55 0.55,9.5 M 85.2,103.4 c 0.066,-0.4 0.133,-0.8 0.2,-1.2 -0.8,-1.567 -1.483,-2.133 -2.05,-1.7 -0.033,0.333 -0.067,0.667 -0.1,1 0,0.133 -0.017,0.283 -0.05,0.45 m -24.3,-12.6 3.3,19.75"
         id="path190"
         inkscape:connector-curvature="0"
         style="fill:none;stroke:#333333;stroke-width:0.5;stroke-linecap:round;stroke-linejoin:round;stroke-miterlimit:3" />
    </g>
    <rect
       style="fill:url(#linearGradient4005);fill-opacity:1;stroke:#000000;stroke-opacity:1;opacity:0.20000000000000001;filter:url(#filter4007)"
       id="object_dump"
       width="68.666664"
       height="112.66666"
       x="272.66666"
       y="1.6855062"
       transform="translate(280.0359,395.18549)" />
  </g>
</svg>
