<?xml version="1.0"?>
<svg xmlns:rdf="http://www.w3.org/1999/02/22-rdf-syntax-ns#" xmlns="http://www.w3.org/2000/svg" xmlns:cc="http://creativecommons.org/ns#" xmlns:dc="http://purl.org/dc/elements/1.1/" xmlns:svg="http://www.w3.org/2000/svg" id="svg3343" fill-rule="evenodd" xml:space="preserve" viewBox="0 0 21000.685 29700.249" version="1.1">
 <defs id="defs3345">
  <style id="style3347" type="text/css"/>
 </defs>
 <polygon id="polygon3351" transform="matrix(1.6988 0 0 1.6988 877.96 13941)" stroke="#000" points="2715 6934 3214 6559 3266 5656 2703 5398 2103 6239" stroke-width="44.151" fill="none"/><polygon id="polygon3353" transform="matrix(1.6988 0 0 1.6988 877.96 13941)" stroke="#000" points="1634 -3191 1352 -3792 719 -3792 334 -2792 684 -2520 1500 -2911" stroke-width="44.151" fill="none"/><polygon id="polygon3355" transform="matrix(1.6988 0 0 1.6988 877.96 13941)" stroke="#000" points="10330 6310 11143 6057 11143 5112 10255 4951 10090 5086 9944 5537" stroke-width="44.151" fill="none"/><polygon id="polygon3357" transform="matrix(1.6988 0 0 1.6988 877.96 13941)" stroke="#000" points="5754 36 4622 -219 4216 110 4191 399 4994 1140 5579 853" stroke-width="44.151" fill="none"/><polygon id="polygon3359" transform="matrix(1.6988 0 0 1.6988 877.96 13941)" stroke="#000" points="6235 -3792 6393 -3371 7096 -3104 7371 -3178 7446 -3792" stroke-width="44.151" fill="none"/><polygon id="polygon3361" transform="matrix(1.6988 0 0 1.6988 877.96 13941)" stroke="#000" points="341 587 706 1622 1562 927 1079 187" stroke-width="44.151" fill="none"/><polygon id="polygon3363" transform="matrix(1.6988 0 0 1.6988 877.96 13941)" stroke="#000" points="6918 4437 6246 3787 5845 3759 5710 3854 6082 5035 6456 5075" stroke-width="44.151" fill="none"/><polygon id="polygon3365" transform="matrix(1.6988 0 0 1.6988 877.96 13941)" stroke="#000" points="2873 -2420 2330 -1676 2778 -1274 3610 -1419 3815 -1658 3493 -2404" stroke-width="44.151" fill="none"/><polygon id="polygon3367" transform="matrix(1.6988 0 0 1.6988 877.96 13941)" stroke="#000" points="3070 3882 3279 3899 3956 2890 3664 2234 3314 2086 3185 2175 2724 3620" stroke-width="44.151" fill="none"/><polygon id="polygon3369" transform="matrix(1.6988 0 0 1.6988 877.96 13941)" stroke="#000" points="11143 1966 11105 1977 10631 2782 11039 3496 11143 3517" stroke-width="44.151" fill="none"/><polygon id="polygon3371" transform="matrix(1.6988 0 0 1.6988 877.96 13941)" stroke="#000" points="51 4706 566 4769 896 4554 508 3668 51 3671" stroke-width="44.151" fill="none"/><polygon id="polygon3373" transform="matrix(1.6988 0 0 1.6988 877.96 13941)" stroke="#000" points="51 7176 821 7176 850 6444 467 6185 51 6184" stroke-width="44.151" fill="none"/><polygon id="polygon3375" transform="matrix(1.6988 0 0 1.6988 877.96 13941)" stroke="#000" points="9467 -2097 8773 -2860 8110 -2602 8035 -1877 8069 -1807 9293 -1483" stroke-width="44.151" fill="none"/><polygon id="polygon3377" transform="matrix(1.6988 0 0 1.6988 877.96 13941)" stroke="#000" points="8748 5786 8239 5043 7366 5829 7980 6514 8628 6554" stroke-width="44.151" fill="none"/><polygon id="polygon3379" transform="matrix(1.6988 0 0 1.6988 877.96 13941)" stroke="#000" points="8070 1776 7417 1525 6790 2358 7206 2783 8021 2305" stroke-width="44.151" fill="none"/><polygon id="polygon3381" transform="matrix(1.6988 0 0 1.6988 877.96 13941)" stroke="#000" points="5761 -1237 6432 -1620 6449 -1664 6395 -1930 5747 -2464 4986 -1923 4886 -1571 4975 -1436" stroke-width="44.151" fill="none"/><polygon id="polygon3383" transform="matrix(1.6988 0 0 1.6988 877.96 13941)" stroke="#000" points="2767 -342 2557 -123 2614 679 3232 982 4080 390 4104 104 3807 -182" stroke-width="44.151" fill="none"/><polygon id="polygon3385" transform="matrix(1.6988 0 0 1.6988 877.96 13941)" stroke="#000" points="753 -1827 51 -1317 51 -880 1199 -501 1271 -560 1499 -1358" stroke-width="44.151" fill="none"/><polygon id="polygon3387" transform="matrix(1.6988 0 0 1.6988 877.96 13941)" stroke="#000" points="8320 3641 8516 4541 8906 4446 9500 3703 8699 3195" stroke-width="44.151" fill="none"/><polygon id="polygon3389" transform="matrix(1.6988 0 0 1.6988 877.96 13941)" stroke="#000" points="8567 261 8449 -331 7888 -828 7154 -515 6984 -71 7222 410 8522 320" stroke-width="44.151" fill="none"/><polygon id="polygon3391" transform="matrix(1.6988 0 0 1.6988 877.96 13941)" stroke="#000" points="10079 6843 8730 6675 8715 7176 10157 7176" stroke-width="44.151" fill="none"/><polygon id="polygon3393" transform="matrix(1.6988 0 0 1.6988 877.96 13941)" stroke="#000" points="3673 -3792 3950 -3038 4517 -2990 5001 -3390 5050 -3792" stroke-width="44.151" fill="none"/><polygon id="polygon3395" transform="matrix(1.6988 0 0 1.6988 877.96 13941)" stroke="#000" points="5879 2482 5252 2273 4774 3132 4976 3640 5196 3789 5626 3776 5775 3671" stroke-width="44.151" fill="none"/><polygon id="polygon3397" transform="matrix(1.6988 0 0 1.6988 877.96 13941)" stroke="#000" points="6576 6513 5823 6723 5567 7176 7083 7176" stroke-width="44.151" fill="none"/><polygon id="polygon3399" transform="matrix(1.6988 0 0 1.6988 877.96 13941)" stroke="#000" points="2176 3652 1417 4614 1560 4810 2574 5081 2982 3957 2638 3695" stroke-width="44.151" fill="none"/><polygon id="polygon3401" transform="matrix(1.6988 0 0 1.6988 877.96 13941)" stroke="#000" points="682 2488 932 3042 1753 3138 1850 2285 817 2018" stroke-width="44.151" fill="none"/><polygon id="polygon3403" transform="matrix(1.6988 0 0 1.6988 877.96 13941)" stroke="#000" points="8993 -3391 8939 -3792 7559 -3792 7482 -3159 8067 -2706 8750 -2971" stroke-width="44.151" fill="none"/><polygon id="polygon3405" transform="matrix(1.6988 0 0 1.6988 877.96 13941)" stroke="#000" points="5936 2383 6280 2237 6210 1224 5629 954 5036 1244 4978 1728 5262 2158" stroke-width="44.151" fill="none"/><polygon id="polygon3407" transform="matrix(1.6988 0 0 1.6988 877.96 13941)" stroke="#000" points="4868 1701 4925 1229 4128 493 3295 1075 3362 1985 3708 2131" stroke-width="44.151" fill="none"/><polygon id="polygon3409" transform="matrix(1.6988 0 0 1.6988 877.96 13941)" stroke="#000" points="7998 -2617 7410 -3073 7130 -2996 6506 -1950 6552 -1723 7926 -1916" stroke-width="44.151" fill="none"/><polygon id="polygon3411" transform="matrix(1.6988 0 0 1.6988 877.96 13941)" stroke="#000" points="1430 6110 1470 4876 1316 4666 980 4633 634 4859 543 6101 913 6351" stroke-width="44.151" fill="none"/><polygon id="polygon3413" transform="matrix(1.6988 0 0 1.6988 877.96 13941)" stroke="#000" points="962 6452 933 7176 2627 7176 2648 7028 2003 6295 1492 6205" stroke-width="44.151" fill="none"/><polygon id="polygon3415" transform="matrix(1.6988 0 0 1.6988 877.96 13941)" stroke="#000" points="645 1724 51 1721 51 2556 577 2445 719 1950 656 1731" stroke-width="44.151" fill="none"/><polygon id="polygon3417" transform="matrix(1.6988 0 0 1.6988 877.96 13941)" stroke="#000" points="5830 -1148 5979 -159 6885 -126 7048 -552 6458 -1505" stroke-width="44.151" fill="none"/><polygon id="polygon3419" transform="matrix(1.6988 0 0 1.6988 877.96 13941)" stroke="#000" points="1389 -565 2484 -208 2691 -425 2704 -1189 2234 -1611 2033 -1601 1612 -1347" stroke-width="44.151" fill="none"/><polygon id="polygon3421" transform="matrix(1.6988 0 0 1.6988 877.96 13941)" stroke="#000" points="2759 7041 2740 7176 4546 7176 4260 6785 3283 6647" stroke-width="44.151" fill="none"/><polygon id="polygon3423" transform="matrix(1.6988 0 0 1.6988 877.96 13941)" stroke="#000" points="2453 -3167 2880 -3792 1476 -3792 1733 -3243" stroke-width="44.151" fill="none"/><polygon id="polygon3425" transform="matrix(1.6988 0 0 1.6988 877.96 13941)" stroke="#000" points="1963 1031 2125 2039 3121 2082 3250 1995 3183 1083 2558 777" stroke-width="44.151" fill="none"/><polygon id="polygon3427" transform="matrix(1.6988 0 0 1.6988 877.96 13941)" stroke="#000" points="3937 -2927 3595 -2452 3919 -1701 4784 -1622 4878 -1954 4496 -2879" stroke-width="44.151" fill="none"/><polygon id="polygon3429" transform="matrix(1.6988 0 0 1.6988 877.96 13941)" stroke="#000" points="11143 6174 10343 6423 10183 6798 10272 7176 11143 7176" stroke-width="44.151" fill="none"/><polygon id="polygon3431" transform="matrix(1.6988 0 0 1.6988 877.96 13941)" stroke="#000" points="921 3154 608 3617 1005 4522 1322 4554 2077 3596 1775 3253" stroke-width="44.151" fill="none"/><polygon id="polygon3433" transform="matrix(1.6988 0 0 1.6988 877.96 13941)" stroke="#000" points="4559 -313 4879 -1378 4794 -1508 3904 -1590 3699 -1350 3885 -262 4166 7" stroke-width="44.151" fill="none"/><polygon id="polygon3435" transform="matrix(1.6988 0 0 1.6988 877.96 13941)" stroke="#000" points="8233 4847 8414 4597 8212 3671 7526 3496 7233 4359" stroke-width="44.151" fill="none"/><polygon id="polygon3437" transform="matrix(1.6988 0 0 1.6988 877.96 13941)" stroke="#000" points="6935 5842 6452 5187 6054 5145 5436 5559 5820 6608 6563 6401" stroke-width="44.151" fill="none"/><polygon id="polygon3439" transform="matrix(1.6988 0 0 1.6988 877.96 13941)" stroke="#000" points="9465 2235 9465 1851 8604 1454 8183 1768 8133 2316 8697 2832" stroke-width="44.151" fill="none"/><polygon id="polygon3441" transform="matrix(1.6988 0 0 1.6988 877.96 13941)" stroke="#000" points="7136 818 7438 1412 8121 1675 8540 1362 8498 435 7230 522" stroke-width="44.151" fill="none"/><polygon id="polygon3443" transform="matrix(1.6988 0 0 1.6988 877.96 13941)" stroke="#000" points="6687 2414 6344 2332 5992 2482 5890 3650 6253 3675 7149 3005 7142 2878" stroke-width="44.151" fill="none"/><polygon id="polygon3445" transform="matrix(1.6988 0 0 1.6988 877.96 13941)" stroke="#000" points="7128 473 6888 -14 5951 -48 5871 23 5693 860 6264 1125 7030 782" stroke-width="44.151" fill="none"/><polygon id="polygon3447" transform="matrix(1.6988 0 0 1.6988 877.96 13941)" stroke="#000" points="11143 3631 11014 3605 10306 4038 10296 4845 11143 4998" stroke-width="44.151" fill="none"/><polygon id="polygon3449" transform="matrix(1.6988 0 0 1.6988 877.96 13941)" stroke="#000" points="6360 -3264 5795 -2785 5804 -2562 6432 -2045 7011 -3016" stroke-width="44.151" fill="none"/><polygon id="polygon3451" transform="matrix(1.6988 0 0 1.6988 877.96 13941)" stroke="#000" points="8931 4555 8507 4659 8306 4937 8306 4943 8832 5710 9840 5493 9973 5082" stroke-width="44.151" fill="none"/><polygon id="polygon3453" transform="matrix(1.6988 0 0 1.6988 877.96 13941)" stroke="#000" points="10987 1956 9969 1522 9577 1842 9577 2241 9960 2661 10536 2722" stroke-width="44.151" fill="none"/><polygon id="polygon3455" transform="matrix(1.6988 0 0 1.6988 877.96 13941)" stroke="#000" points="4061 2850 4685 3060 5160 2208 4897 1810 3782 2223" stroke-width="44.151" fill="none"/><polygon id="polygon3457" transform="matrix(1.6988 0 0 1.6988 877.96 13941)" stroke="#000" points="7848 -933 7972 -1751 7945 -1806 6548 -1609 6540 -1586 7133 -628" stroke-width="44.151" fill="none"/><polygon id="polygon3459" transform="matrix(1.6988 0 0 1.6988 877.96 13941)" stroke="#000" points="7158 4447 7025 4480 6552 5134 7031 5783 7264 5770 8180 4946" stroke-width="44.151" fill="none"/><polygon id="polygon3461" transform="matrix(1.6988 0 0 1.6988 877.96 13941)" stroke="#000" points="249 -2716 51 -2704 51 -1456 691 -1921 624 -2425" stroke-width="44.151" fill="none"/><polygon id="polygon3463" transform="matrix(1.6988 0 0 1.6988 877.96 13941)" stroke="#000" points="3847 -2994 3553 -3792 3016 -3792 2547 -3105 2878 -2532 3502 -2516" stroke-width="44.151" fill="none"/><polygon id="polygon3465" transform="matrix(1.6988 0 0 1.6988 877.96 13941)" stroke="#000" points="2098 2150 1965 2270 1861 3182 2178 3540 2619 3580 3062 2192" stroke-width="44.151" fill="none"/><polygon id="polygon3467" transform="matrix(1.6988 0 0 1.6988 877.96 13941)" stroke="#000" points="2446 -103 1332 -465 1262 -407 1157 101 1671 888 1895 938 2501 679" stroke-width="44.151" fill="none"/><polygon id="polygon3469" transform="matrix(1.6988 0 0 1.6988 877.96 13941)" stroke="#000" points="10532 2835 9973 2776 9697 3653 10248 3942 10928 3526" stroke-width="44.151" fill="none"/><polygon id="polygon3471" transform="matrix(1.6988 0 0 1.6988 877.96 13941)" stroke="#000" points="8076 -1689 7958 -915 8497 -438 9323 -1285 9290 -1368" stroke-width="44.151" fill="none"/><polygon id="polygon3473" transform="matrix(1.6988 0 0 1.6988 877.96 13941)" stroke="#000" points="51 3559 515 3555 830 3089 589 2557 51 2671" stroke-width="44.151" fill="none"/><polygon id="polygon3475" transform="matrix(1.6988 0 0 1.6988 877.96 13941)" stroke="#000" points="8603 7176 8618 6666 7977 6626 7478 7176" stroke-width="44.151" fill="none"/><polygon id="polygon3477" transform="matrix(1.6988 0 0 1.6988 877.96 13941)" stroke="#000" points="5163 -3792 5113 -3385 5737 -2883 6283 -3345 6115 -3792" stroke-width="44.151" fill="none"/><polygon id="polygon3479" transform="matrix(1.6988 0 0 1.6988 877.96 13941)" stroke="#000" points="738 -2422 803 -1928 1565 -1449 1947 -1680 1512 -2792" stroke-width="44.151" fill="none"/><polygon id="polygon3481" transform="matrix(1.6988 0 0 1.6988 877.96 13941)" stroke="#000" points="433 6073 520 4876 51 4819 51 6072" stroke-width="44.151" fill="none"/><polygon id="polygon3483" transform="matrix(1.6988 0 0 1.6988 877.96 13941)" stroke="#000" points="9853 5605 8857 5819 8740 6564 10090 6732 10240 6379" stroke-width="44.151" fill="none"/><polygon id="polygon3485" transform="matrix(1.6988 0 0 1.6988 877.96 13941)" stroke="#000" points="2446 -3055 1730 -3131 1603 -2867 2054 -1715 2225 -1723 2778 -2481" stroke-width="44.151" fill="none"/><polygon id="polygon3487" transform="matrix(1.6988 0 0 1.6988 877.96 13941)" stroke="#000" points="8240 3563 8632 3100 8637 2929 8067 2408 7255 2885 7262 3013 7523 3380" stroke-width="44.151" fill="none"/><polygon id="polygon3489" transform="matrix(1.6988 0 0 1.6988 877.96 13941)" stroke="#000" points="9515 2338 8749 2933 8745 3091 9588 3626 9870 2729" stroke-width="44.151" fill="none"/><polygon id="polygon3491" transform="matrix(1.6988 0 0 1.6988 877.96 13941)" stroke="#000" points="4979 -1320 4678 -322 5804 -68 5870 -126 5719 -1132" stroke-width="44.151" fill="none"/><polygon id="polygon3493" transform="matrix(1.6988 0 0 1.6988 877.96 13941)" stroke="#000" points="1851 1043 1651 999 768 1716 823 1904 1896 2181 2017 2072" stroke-width="44.151" fill="none"/><polygon id="polygon3495" transform="matrix(1.6988 0 0 1.6988 877.96 13941)" stroke="#000" points="3764 -302 3594 -1302 2816 -1167 2803 -450" stroke-width="44.151" fill="none"/><polygon id="polygon3497" transform="matrix(1.6988 0 0 1.6988 877.96 13941)" stroke="#000" points="3386 3940 3624 4084 4857 3644 4669 3173 4042 2962" stroke-width="44.151" fill="none"/><polygon id="polygon3499" transform="matrix(1.6988 0 0 1.6988 877.96 13941)" stroke="#000" points="9621 3739 9614 3741 9025 4477 10034 4987 10184 4864 10194 4040" stroke-width="44.151" fill="none"/><polygon id="polygon3501" transform="matrix(1.6988 0 0 1.6988 877.96 13941)" stroke="#000" points="51 444 265 500 1048 76 1146 -400 51 -762" stroke-width="44.151" fill="none"/><polygon id="polygon3503" transform="matrix(1.6988 0 0 1.6988 877.96 13941)" stroke="#000" points="228 -2827 599 -3792 51 -3792 51 -2817" stroke-width="44.151" fill="none"/><polygon id="polygon3505" transform="matrix(1.6988 0 0 1.6988 877.96 13941)" stroke="#000" points="7009 4369 7121 4341 7427 3438 7194 3111 6356 3738" stroke-width="44.151" fill="none"/><polygon id="polygon3507" transform="matrix(1.6988 0 0 1.6988 877.96 13941)" stroke="#000" points="229 607 51 560 51 1609 583 1611" stroke-width="44.151" fill="none"/><polygon id="polygon3509" transform="matrix(1.6988 0 0 1.6988 877.96 13941)" stroke="#000" points="6392 2228 6693 2300 7332 1451 7050 896 6322 1222" stroke-width="44.151" fill="none"/><polygon id="polygon3511" transform="matrix(1.6988 0 0 1.6988 877.96 13941)" stroke="#000" points="7035 5895 6667 6447 7224 7176 7327 7176 7878 6569 7263 5882" stroke-width="44.151" fill="none"/><polygon id="polygon3513" transform="matrix(1.6988 0 0 1.6988 877.96 13941)" stroke="#000" points="2620 5321 2568 5196 1580 4931 1542 6100 2007 6182" stroke-width="44.151" fill="none"/><polygon id="polygon3515" transform="matrix(1.6988 0 0 1.6988 877.96 13941)" stroke="#000" points="4602 -2916 4962 -2044 5692 -2562 5682 -2783 5054 -3288" stroke-width="44.151" fill="none"/><line id="line3517" y2="25050" stroke-width="75.002" class="fil0 str0" x2="6529.7" stroke="#000" y1="23552" x1="6616.3" fill="none"/><line id="line3519" y2="25271" stroke-width="75.002" class="fil0 str0" x2="8089.2" stroke="#000" y1="25050" x1="6529.7" fill="none"/><line id="line3521" y2="24142" stroke-width="75.002" class="fil0 str0" x2="8281.1" stroke="#000" y1="25271" x1="8089.2" fill="none"/><line id="line3523" y2="23195" stroke-width="75.002" class="fil0 str0" x2="7368.9" stroke="#000" y1="24142" x1="8281.1" fill="none"/><line id="line3525" y2="23552" stroke-width="75.002" class="fil0 str0" x2="6616.3" stroke="#000" y1="23195" x1="7368.9" fill="none"/><line id="line3527" y2="20547" stroke-width="75.002" class="fil0 str0" x2="10398" stroke="#000" y1="22543" x1="11026" fill="none"/><line id="line3529" y2="20567" stroke-width="75.002" class="fil0 str0" x2="9743.8" stroke="#000" y1="20547" x1="10398" fill="none"/><line id="line3531" y2="22135" stroke-width="75.002" class="fil0 str0" x2="9147.5" stroke="#000" y1="20567" x1="9743.8" fill="none"/><line id="line3533" y2="23202" stroke-width="75.002" class="fil0 str0" x2="10041" stroke="#000" y1="22135" x1="9147.5" fill="none"/><line id="line3535" y2="22543" stroke-width="75.002" class="fil0 str0" x2="11026" stroke="#000" y1="23202" x1="10041" fill="none"/><line id="line3537" y2="20729" stroke-width="75.002" class="fil0 str0" x2="6122" stroke="#000" y1="20756" x1="6465.2" fill="none"/><line id="line3539" y2="22684" stroke-width="75.002" class="fil0 str0" x2="5411.9" stroke="#000" y1="20729" x1="6122" fill="none"/><line id="line3541" y2="22920" stroke-width="75.002" class="fil0 str0" x2="5510.5" stroke="#000" y1="22684" x1="5411.9" fill="none"/><line id="line3543" y2="23384" stroke-width="75.002" class="fil0 str0" x2="6522.9" stroke="#000" y1="22920" x1="5510.5" fill="none"/><line id="line3545" y2="23010" stroke-width="75.002" class="fil0 str0" x2="7312.8" stroke="#000" y1="23384" x1="6522.9" fill="none"/><line id="line3547" y2="22266" stroke-width="75.002" class="fil0 str0" x2="7582.9" stroke="#000" y1="23010" x1="7312.8" fill="none"/><line id="line3549" y2="21050" stroke-width="75.002" class="fil0 str0" x2="6951" stroke="#000" y1="22266" x1="7582.9" fill="none"/><line id="line3551" y2="20756" stroke-width="75.002" class="fil0 str0" x2="6465.2" stroke="#000" y1="21050" x1="6951" fill="none"/><line id="line3553" y2="20292" stroke-width="75.002" class="fil0 str0" x2="9239.2" stroke="#000" y1="20510" x1="9560.3" fill="none"/><line id="line3555" y2="21036" stroke-width="75.002" class="fil0 str0" x2="7158.3" stroke="#000" y1="20292" x1="9239.2" fill="none"/><line id="line3557" y2="22159" stroke-width="75.002" class="fil0 str0" x2="7740.9" stroke="#000" y1="21036" x1="7158.3" fill="none"/><line id="line3559" y2="22064" stroke-width="75.002" class="fil0 str0" x2="8970.8" stroke="#000" y1="22159" x1="7740.9" fill="none"/><line id="line3561" y2="20510" stroke-width="75.002" class="fil0 str0" x2="9560.3" stroke="#000" y1="22064" x1="8970.8" fill="none"/><line id="line3563" y2="26131" stroke-width="75.002" class="fil0 str0" x2="8836.6" stroke="#000" y1="25355" x1="8267.5" fill="none"/><line id="line3565" y2="26131" stroke-width="75.002" class="fil0 str0" x2="10116" stroke="#000" y1="26131" x1="8836.6" fill="none"/><line id="line3567" y2="25273" stroke-width="75.002" class="fil0 str0" x2="10602" stroke="#000" y1="26131" x1="10116" fill="none"/><line id="line3569" y2="23508" stroke-width="75.002" class="fil0 str0" x2="9956.1" stroke="#000" y1="25273" x1="10602" fill="none"/><line id="line3571" y2="24177" stroke-width="75.002" class="fil0 str0" x2="8469.7" stroke="#000" y1="23508" x1="9956.1" fill="none"/><line id="line3573" y2="25355" stroke-width="75.002" class="fil0 str0" x2="8267.5" stroke="#000" y1="24177" x1="8469.7" fill="none"/><line id="line3575" y2="22253" stroke-width="75.002" class="fil0 str0" x2="8996.3" stroke="#000" y1="22349" x1="7754.5" fill="none"/><line id="line3577" y2="23326" stroke-width="75.002" class="fil0 str0" x2="9896.6" stroke="#000" y1="22253" x1="8996.3" fill="none"/><line id="line3579" y2="23996" stroke-width="75.002" class="fil0 str0" x2="8405.1" stroke="#000" y1="23326" x1="9896.6" fill="none"/><line id="line3581" y2="23056" stroke-width="75.002" class="fil0 str0" x2="7499.7" stroke="#000" y1="23996" x1="8405.1" fill="none"/><line id="line3583" y2="22349" stroke-width="75.002" class="fil0 str0" x2="7754.5" stroke="#000" y1="23056" x1="7499.7" fill="none"/><line id="line3585" y2="10745" stroke-width="75.002" class="fil0 str0" x2="19807" stroke="#000" y1="12318" x1="19807" fill="none"/><line id="line3587" y2="10614" stroke-width="75.002" class="fil0 str0" x2="19133" stroke="#000" y1="10745" x1="19807" fill="none"/><line id="line3589" y2="12497" stroke-width="75.002" class="fil0 str0" x2="18385" stroke="#000" y1="10614" x1="19133" fill="none"/><line id="line3591" y2="12318" stroke-width="75.002" class="fil0 str0" x2="19807" stroke="#000" y1="12497" x1="18385" fill="none"/><line id="line3593" y2="9897.6" stroke-width="75.002" class="fil0 str0" x2="18482" stroke="#000" y1="10521" x1="18965" fill="none"/><line id="line3595" y2="10426" stroke-width="75.002" class="fil0 str0" x2="17145" stroke="#000" y1="9897.6" x1="18482" fill="none"/><line id="line3597" y2="11532" stroke-width="75.002" class="fil0 str0" x2="16831" stroke="#000" y1="10426" x1="17145" fill="none"/><line id="line3599" y2="11717" stroke-width="75.002" class="fil0 str0" x2="16906" stroke="#000" y1="11532" x1="16831" fill="none"/><line id="line3601" y2="14792" stroke-width="75.002" class="fil0 str0" x2="19807" stroke="#000" y1="17080" x1="19807" fill="none"/><line id="line3603" y2="14661" stroke-width="75.002" class="fil0 str0" x2="19172" stroke="#000" y1="14792" x1="19807" fill="none"/><line id="line3605" y2="15534" stroke-width="75.002" class="fil0 str0" x2="18035" stroke="#000" y1="14661" x1="19172" fill="none"/><line id="line3607" y2="16358" stroke-width="75.002" class="fil0 str0" x2="17903" stroke="#000" y1="15534" x1="18035" fill="none"/><line id="line3609" y2="17117" stroke-width="75.002" class="fil0 str0" x2="19685" stroke="#000" y1="16358" x1="17903" fill="none"/><line id="line3611" y2="17080" stroke-width="75.002" class="fil0 str0" x2="19807" stroke="#000" y1="17117" x1="19685" fill="none"/><line id="line3613" y2="11904" stroke-width="75.002" class="fil0 str0" x2="16839" stroke="#000" y1="12668" x1="17956" fill="none"/><line id="line3615" y2="13360" stroke-width="75.002" class="fil0 str0" x2="15421" stroke="#000" y1="11904" x1="16839" fill="none"/><line id="line3617" y2="14308" stroke-width="75.002" class="fil0 str0" x2="15610" stroke="#000" y1="13360" x1="15421" fill="none"/><line id="line3619" y2="14269" stroke-width="75.002" class="fil0 str0" x2="16518" stroke="#000" y1="14308" x1="15610" fill="none"/><line id="line3621" y2="12668" stroke-width="75.002" class="fil0 str0" x2="17956" stroke="#000" y1="14269" x1="16518" fill="none"/><line id="line3623" y2="12510" stroke-width="75.002" class="fil0 str0" x2="19807" stroke="#000" y1="14596" x1="19807" fill="none"/><line id="line3625" y2="12699" stroke-width="75.002" class="fil0 str0" x2="18304" stroke="#000" y1="12510" x1="19807" fill="none"/><line id="line3627" y2="14476" stroke-width="75.002" class="fil0 str0" x2="19213" stroke="#000" y1="12699" x1="18304" fill="none"/><line id="line3629" y2="14596" stroke-width="75.002" class="fil0 str0" x2="19807" stroke="#000" y1="14476" x1="19213" fill="none"/><line id="line3631" y2="14500" stroke-width="75.002" class="fil0 str0" x2="15582" stroke="#000" y1="14459" x1="16530" fill="none"/><line id="line3633" y2="14607" stroke-width="75.002" class="fil0 str0" x2="15503" stroke="#000" y1="14500" x1="15582" fill="none"/><line id="line3635" y2="16239" stroke-width="75.002" class="fil0 str0" x2="15576" stroke="#000" y1="14607" x1="15503" fill="none"/><line id="line3637" y2="16913" stroke-width="75.002" class="fil0 str0" x2="17038" stroke="#000" y1="16239" x1="15576" fill="none"/><line id="line3639" y2="16365" stroke-width="75.002" class="fil0 str0" x2="17708" stroke="#000" y1="16913" x1="17038" fill="none"/><line id="line3641" y2="15520" stroke-width="75.002" class="fil0 str0" x2="17845" stroke="#000" y1="16365" x1="17708" fill="none"/><line id="line3643" y2="14459" stroke-width="75.002" class="fil0 str0" x2="16530" stroke="#000" y1="15520" x1="17845" fill="none"/><line id="line3645" y2="12571" stroke-width="75.002" class="fil0 str0" x2="18149" stroke="#000" y1="11717" x1="16906" fill="none"/><line id="line3647" y2="10521" stroke-width="75.002" class="fil0 str0" x2="18965" stroke="#000" y1="12571" x1="18149" fill="none"/><line id="line3649" y2="14532" stroke-width="75.002" class="fil0 str0" x2="19027" stroke="#000" y1="12767" x1="18125" fill="none"/><line id="line3651" y2="15361" stroke-width="75.002" class="fil0 str0" x2="17949" stroke="#000" y1="14532" x1="19027" fill="none"/><line id="line3653" y2="14352" stroke-width="75.002" class="fil0 str0" x2="16700" stroke="#000" y1="15361" x1="17949" fill="none"/><line id="line3655" y2="12767" stroke-width="75.002" class="fil0 str0" x2="18125" stroke="#000" y1="14352" x1="16700" fill="none"/><line id="line3657" y2="8956.5" stroke-width="75.002" class="fil0 str0" x2="15926" stroke="#000" y1="8302.5" x1="16304" fill="none"/><line id="line3659" y2="10241" stroke-width="75.002" class="fil0 str0" x2="17093" stroke="#000" y1="8956.5" x1="15926" fill="none"/><line id="line3661" y2="9714.1" stroke-width="75.002" class="fil0 str0" x2="18428" stroke="#000" y1="10241" x1="17093" fill="none"/><line id="line3663" y2="8739.1" stroke-width="75.002" class="fil0 str0" x2="18579" stroke="#000" y1="9714.1" x1="18428" fill="none"/><line id="line3665" y2="8550.5" stroke-width="75.002" class="fil0 str0" x2="18418" stroke="#000" y1="8739.1" x1="18579" fill="none"/><line id="line3667" y2="8302.5" stroke-width="75.002" class="fil0 str0" x2="16304" stroke="#000" y1="8550.5" x1="18418" fill="none"/><line id="line3669" y2="7499" stroke-width="75.002" class="fil0 str0" x2="16255" stroke="#000" y1="7499" x1="18341" fill="none"/><line id="line3671" y2="8113.9" stroke-width="75.002" class="fil0 str0" x2="16338" stroke="#000" y1="7499" x1="16255" fill="none"/><line id="line3673" y2="8353.4" stroke-width="75.002" class="fil0 str0" x2="18367" stroke="#000" y1="8113.9" x1="16338" fill="none"/><line id="line3675" y2="7499" stroke-width="75.002" class="fil0 str0" x2="18341" stroke="#000" y1="8353.4" x1="18367" fill="none"/><line id="line3677" y2="8562.4" stroke-width="75.002" class="fil0 str0" x2="19807" stroke="#000" y1="10550" x1="19807" fill="none"/><line id="line3679" y2="8790" stroke-width="75.002" class="fil0 str0" x2="18764" stroke="#000" y1="8562.4" x1="19807" fill="none"/><line id="line3681" y2="9758.3" stroke-width="75.002" class="fil0 str0" x2="18613" stroke="#000" y1="8790" x1="18764" fill="none"/><line id="line3683" y2="10419" stroke-width="75.002" class="fil0 str0" x2="19128" stroke="#000" y1="9758.3" x1="18613" fill="none"/><line id="line3685" y2="10550" stroke-width="75.002" class="fil0 str0" x2="19807" stroke="#000" y1="10419" x1="19128" fill="none"/><line id="line3687" y2="7499" stroke-width="75.002" class="fil0 str0" x2="19807" stroke="#000" y1="7499" x1="18531" fill="none"/><line id="line3689" y2="7499" stroke-width="75.002" class="fil0 str0" x2="19807" stroke="#000" y1="8368.7" x1="19807" fill="none"/><line id="line3691" y2="8606.6" stroke-width="75.002" class="fil0 str0" x2="18715" stroke="#000" y1="8368.7" x1="19807" fill="none"/><line id="line3693" y2="8423.1" stroke-width="75.002" class="fil0 str0" x2="18560" stroke="#000" y1="8606.6" x1="18715" fill="none"/><line id="line3695" y2="7499" stroke-width="75.002" class="fil0 str0" x2="18531" stroke="#000" y1="8423.1" x1="18560" fill="none"/>
<metadata><rdf:RDF><cc:Work><dc:format>image/svg+xml</dc:format><dc:type rdf:resource="http://purl.org/dc/dcmitype/StillImage"/><cc:license rdf:resource="http://creativecommons.org/licenses/publicdomain/"/><dc:publisher><cc:Agent rdf:about="http://openclipart.org/"><dc:title>Openclipart</dc:title></cc:Agent></dc:publisher><dc:title>Voronoi 2D pattern with offset</dc:title><dc:date>2013-02-04T15:55:22</dc:date><dc:description>Voronoi 2D mathematical pattern with offseted cells</dc:description><dc:source>http://openclipart.org/detail/174820/voronoi-2d-pattern-with-offset-by-craftsmanspace-174820</dc:source><dc:creator><cc:Agent><dc:title>Craftsmanspace</dc:title></cc:Agent></dc:creator><dc:subject><rdf:Bag><rdf:li>clip art</rdf:li><rdf:li>clipart</rdf:li><rdf:li>offset</rdf:li><rdf:li>pattern</rdf:li><rdf:li>voronoi</rdf:li></rdf:Bag></dc:subject></cc:Work><cc:License rdf:about="http://creativecommons.org/licenses/publicdomain/"><cc:permits rdf:resource="http://creativecommons.org/ns#Reproduction"/><cc:permits rdf:resource="http://creativecommons.org/ns#Distribution"/><cc:permits rdf:resource="http://creativecommons.org/ns#DerivativeWorks"/></cc:License></rdf:RDF></metadata></svg>
