<?xml version="1.0" encoding="UTF-8" standalone="no"?>
<!-- Created with Inkscape (http://www.inkscape.org/) -->

<svg
   xmlns:dc="http://purl.org/dc/elements/1.1/"
   xmlns:cc="http://creativecommons.org/ns#"
   xmlns:rdf="http://www.w3.org/1999/02/22-rdf-syntax-ns#"
   xmlns:svg="http://www.w3.org/2000/svg"
   xmlns="http://www.w3.org/2000/svg"
   version="1.1"
   width="500"
   height="500"
   id="svg3068">
  <defs
     id="defs3070" />
  <metadata
     id="metadata3073">
    <rdf:RDF>
      <cc:Work
         rdf:about="">
        <dc:format>image/svg+xml</dc:format>
        <dc:type
           rdf:resource="http://purl.org/dc/dcmitype/StillImage" />
        <dc:title></dc:title>
      </cc:Work>
    </rdf:RDF>
  </metadata>
  <g
     transform="translate(-146.85715,-119.79075)"
     id="layer1">
    <path
       d="m 146.85715,619.79075 0,-500 500,0 0,500 -500,0 m 7.5,-7.5 485,0 0,-485 -485,0 0,485 m 7.5,-7.5 0,-469.375 469.375,0 0,469.375 -469.375,0 m 230,-445 c 2.49969,3.33375 5.62469,5.00047 9.375,5 4.16641,4.7e-4 7.29141,-1.25 9.375,-3.75 l 5,-8.75 c 1.66641,-2.91625 3.95797,-4.37453 6.875,-4.375 2.91625,4.7e-4 5.20797,1.45938 6.875,4.375 0.41562,2.08375 0.625,3.75047 0.625,5 0.41562,1.25 0.625,2.29219 0.625,3.125 -3.1e-4,2.50047 -1.45938,6.87547 -4.375,13.125 -0.83438,1.66703 -1.45938,3.12547 -1.875,4.375 -0.41719,0.83438 -0.83438,1.66703 -1.25,2.5 -2.08375,4.58375 -4.58375,13.33375 -7.5,26.25 l 2.5,-7.5 5.625,-15 11.875,-19.375 c 1.66625,-1.66625 2.49969,-3.54125 2.5,-5.625 -3.1e-4,-11.24953 -5.41703,-16.87453 -16.25,-16.875 -5.41703,4.7e-4 -8.54203,1.66719 -9.375,5 l -4.375,11.875 c -0.83438,2.08375 -2.50031,3.12547 -5,3.125 -4.58359,4.7e-4 -7.29203,-1.66625 -8.125,-5 l -2.5,-13.125 c -0.41719,-2.91625 -3.12531,-4.37453 -8.125,-4.375 -2.08359,4.7e-4 -4.37531,0.83438 -6.875,2.5 -2.08359,1.66719 -4.16703,3.54219 -6.25,5.625 -1.66703,2.08375 -3.33359,3.95875 -5,5.625 -1.25,1.66719 -1.87531,2.50047 -1.875,2.5 -0.41719,-0.41563 -0.83438,-0.625 -1.25,-0.625 l -0.625,-0.625 -5,-3.125 -1.875,1.875 c -3.1e-4,2.91719 2.29141,4.37547 6.875,4.375 2.08312,4.7e-4 4.79141,-0.83281 8.125,-2.5 l 8.75,-10 c 0.41719,-1.25 1.87469,-1.87453 4.375,-1.875 5.41641,4.7e-4 8.12469,4.37547 8.125,13.125 l 0,3.125 m 55.625,1.25 c -1.25,1.25 -2.91703,2.91719 -5,5 -1.66703,1.66719 -3.75031,3.54219 -6.25,5.625 l -3.75,5.625 -8.125,15 c -4.16703,10.83375 -6.25031,20.62547 -6.25,29.375 -3.1e-4,1.25 -3.1e-4,3.54203 0,6.875 0.41562,2.91703 0.83281,7.08375 1.25,12.5 l 2.5,5.625 4.375,10 6.25,5 -3.125,-6.875 c -4.58375,-12.49969 -6.87531,-21.45797 -6.875,-26.875 0.41562,-42.91625 21.87469,-68.74953 64.375,-77.5 l 2.5,-0.625 1.25,-0.625 c 0.83281,-0.83281 3.33297,-1.25 7.5,-1.25 l 20,0.625 c 9.99953,4.7e-4 20.62453,3.75047 31.875,11.25 l 9.375,8.125 1.875,3.75 5.625,11.25 -2.5,8.125 c -2.08375,2.08375 -3.75047,3.12547 -5,3.125 -3.33375,4.7e-4 -5.00047,-2.08297 -5,-6.25 -4.7e-4,-0.83281 0.20781,-1.45781 0.625,-1.875 l 3.75,-6.875 0,-2.5 c -4.7e-4,-4.58281 -1.45938,-6.87453 -4.375,-6.875 l -3.125,0 c 1.25,2.50047 1.87453,4.37547 1.875,5.625 l -0.625,5 c -0.41719,2.08375 -0.83438,3.75047 -1.25,5 -4.7e-4,0.83438 -4.7e-4,1.45938 0,1.875 l 0,4.375 c 2.49953,7.08375 6.24953,10.62547 11.25,10.625 6.24953,4.7e-4 9.99953,-5.20797 11.25,-15.625 l 5.625,2.5 c 2.49953,-4.99953 3.74953,-8.74953 3.75,-11.25 -4.7e-4,-11.24953 -6.45891,-18.95781 -19.375,-23.125 -1.66719,-0.41562 -2.50047,-1.25 -2.5,-2.5 -4.7e-4,-1.66625 0.625,-2.49953 1.875,-2.5 -0.41719,4.7e-4 2.91625,1.04219 10,3.125 3.33281,3.75047 6.04109,7.70875 8.125,11.875 2.91609,7.91719 8.74953,11.87547 17.5,11.875 8.33281,4.7e-4 12.49953,-1.66625 12.5,-5 -4.7e-4,0.41719 -0.41719,-1.04062 -1.25,-4.375 7.49953,-2.49953 11.24953,-7.70781 11.25,-15.625 -4.7e-4,-2.08281 -0.83438,-3.12453 -2.5,-3.125 l -0.625,0 -13.125,5.625 -10,-0.625 -2.5,0.625 -0.625,0 -33.125,-8.75 c -1.66719,-0.41562 -3.95875,-0.83281 -6.875,-1.25 -2.91719,-0.41562 -6.66719,-1.04062 -11.25,-1.875 -2.08375,4.7e-4 -3.54219,-0.20781 -4.375,-0.625 l -13.125,-0.625 -18.75,-0.625 c -19.58375,-0.83281 -38.54203,6.04219 -56.875,20.625 m -3.75,-17.5 1.875,0 c 2.08297,4.7e-4 3.12469,1.25 3.125,3.75 -3.1e-4,2.91719 -1.25,5.20875 -3.75,6.875 -2.08375,1.25 -3.12531,2.08375 -3.125,2.5 -3.1e-4,1.66719 0.20781,2.70875 0.625,3.125 7.91625,-4.99953 11.87469,-9.58281 11.875,-13.75 -3.1e-4,-3.74953 -2.08375,-5.62453 -6.25,-5.625 -0.83438,4.7e-4 -1.45937,0.20938 -1.875,0.625 l -2.5,2.5 m -94.375,0 c 0.83281,3.33375 1.87469,5.00047 3.125,5 2.49969,4.7e-4 3.74969,-1.45781 3.75,-4.375 -3.1e-4,-2.08281 -1.04219,-3.12453 -3.125,-3.125 -1.25,4.7e-4 -2.50031,0.83438 -3.75,2.5 m -181.25,11.875 c 2.91656,-6.24953 6.04156,-9.37453 9.375,-9.375 2.08328,4.7e-4 4.79156,1.25 8.125,3.75 l 0.625,8.125 -8.75,21.25 -1.25,7.5 3.125,-5.625 7.5,-13.75 3.75,-6.875 c 0.83281,-3.33281 1.25,-5.62453 1.25,-6.875 -1.6e-4,-8.33281 -3.75016,-12.49953 -11.25,-12.5 -7.50016,4.7e-4 -11.66672,4.79219 -12.5,14.375 m 136.25,-13.125 c -0.83281,3.33375 -1.25,5.00047 -1.25,5 -1.6e-4,3.75047 2.49984,5.62547 7.5,5.625 2.08312,4.7e-4 3.74969,-0.625 5,-1.875 l 7.5,-3.75 c 2.49969,-0.83281 3.95812,-1.25 4.375,-1.25 4.58312,4.7e-4 6.87469,1.66719 6.875,5 -3.1e-4,5.41719 -5.62531,8.12547 -16.875,8.125 -4.16688,4.7e-4 -6.66688,-0.20781 -7.5,-0.625 l -31.875,-10 -8.75,-0.625 c 2.49984,0.83438 4.58312,1.45938 6.25,1.875 22.91641,9.58375 37.91641,14.37547 45,14.375 12.08312,4.7e-4 18.12469,-4.58281 18.125,-13.75 -3.1e-4,-4.99953 -4.16688,-7.49953 -12.5,-7.5 -3.75031,4.7e-4 -6.45859,0.83438 -8.125,2.5 l -3.125,2.5 -1.25,0.625 -2.5,0.625 -0.625,0 c -3.33359,4.7e-4 -5.41688,-2.29125 -6.25,-6.875 m 59.375,1.25 c -1.25,4.7e-4 -2.08359,0.83438 -2.5,2.5 l -0.625,1.25 c -3.1e-4,2.08375 1.25,3.12547 3.75,3.125 2.49969,4.7e-4 3.74969,-1.25 3.75,-3.75 -3.1e-4,-2.08281 -1.45938,-3.12453 -4.375,-3.125 m -155.625,145 20.625,9.375 4.375,2.5 5,0 -0.625,-5.625 -3.125,-1.25 -5.625,-2.5 -8.75,-2.5 c -10.83344,-3.33297 -20.62516,-11.45797 -29.375,-24.375 -8.33344,-13.33297 -12.50016,-27.08297 -12.5,-41.25 -1.6e-4,-9.99953 1.66656,-19.37453 5,-28.125 3.33328,-8.74953 7.91656,-16.24953 13.75,-22.5 5.83328,-6.24953 12.70812,-11.24953 20.625,-15 7.91656,-3.74953 16.45812,-5.62453 25.625,-5.625 8.74984,4.7e-4 15.83312,1.45938 21.25,4.375 7.91641,4.16719 12.70812,6.25047 14.375,6.25 3.33312,4.7e-4 5.62484,-0.20781 6.875,-0.625 -1.25,-1.66625 -2.29188,-2.70781 -3.125,-3.125 -0.41719,-0.41562 -1.87516,-1.25 -4.375,-2.5 l -6.25,-3.125 c -7.91688,-4.16625 -18.12516,-6.24953 -30.625,-6.25 -20.00016,4.7e-4 -36.45844,7.50047 -49.375,22.5 -12.91672,14.58375 -19.37516,33.12547 -19.375,55.625 -1.6e-4,12.50031 3.33328,25.00031 10,37.5 7.08328,12.50031 15.62484,21.25031 25.625,26.25 m 282.5,-134.375 5,1.875 5,6.875 c 0.41562,0.41719 0.83281,0.625 1.25,0.625 1.25,-0.41563 1.87453,-2.29125 1.875,-5.625 -4.7e-4,-3.74953 -3.12547,-5.62453 -9.375,-5.625 l -0.625,0 -3.125,1.875 m -141.875,-1.875 c -2.08359,4.7e-4 -3.12531,1.25 -3.125,3.75 -3.1e-4,2.50047 1.25,3.75047 3.75,3.75 2.49969,4.7e-4 3.74969,-1.25 3.75,-3.75 -3.1e-4,-2.49953 -1.45781,-3.74953 -4.375,-3.75 m -119.375,4.375 -4.375,2.5 c 0.83281,0.41719 1.66656,0.83437 2.5,1.25 1.25,0.41719 2.70812,1.04219 4.375,1.875 l 1.875,3.125 1.875,-5 -5.625,-2.5 -0.625,-1.25 m 63.125,31.25 6.875,7.5 c 1.66641,4.16703 2.91641,8.54203 3.75,13.125 0.83281,4.16703 1.04062,8.75047 0.625,13.75 l 0,5 0,34.375 -0.625,24.375 0,6.875 -1.25,8.75 0.625,1.25 1.25,1.25 0.625,-0.625 18.125,-16.875 16.875,-11.25 c 0.83281,-0.83281 1.25,-1.87469 1.25,-3.125 l -0.625,-3.125 c -0.41719,-2.08297 -0.625,-4.16625 -0.625,-6.25 -3.1e-4,-2.08297 -3.1e-4,-4.37469 0,-6.875 l 0,-16.875 0,-29.375 c -3.1e-4,-15.41625 4.16641,-23.12453 12.5,-23.125 l 63.75,0.625 8.125,-18.75 -13.125,0 -15.625,0 -67.5,-0.625 -41.875,-1.25 -5,1.25 -6.25,-0.625 -25,-0.625 c -3.33344,4.7e-4 -5.00016,1.04219 -5,3.125 -1.6e-4,2.50047 2.29156,4.37547 6.875,5.625 l 30.625,8.125 10.625,4.375 m -83.125,-15.625 -3.75,5 -4.375,3.125 c -2.08344,2.08375 -3.12516,6.45875 -3.125,13.125 l 0,1.25 2.5,3.75 c 1.66656,3.33375 4.79156,5.20875 9.375,5.625 l -0.625,-3.125 c -4.16672,-2.91625 -6.66672,-6.45797 -7.5,-10.625 l 3.75,-0.625 -0.625,1.875 c -1.6e-4,1.66703 1.25,3.12547 3.75,4.375 0.83281,-3.33297 1.45781,-5.83297 1.875,-7.5 0.41719,-2.08297 0.625,-3.12453 0.625,-3.125 l 6.875,-5 0,-5 c -0.83281,-4.99953 -2.91687,-7.49953 -6.25,-7.5 l -2.5,4.375 m 245.625,-3.125 -10,10 -6.25,8.75 4.375,0.625 43.125,0.625 c 13.74953,4.7e-4 27.49953,6.25047 41.25,18.75 l 8.125,12.5 c 0.41563,0.41719 1.87453,4.37547 4.375,11.875 2.49953,7.08375 4.58281,10.62531 6.25,10.625 3.33281,3.1e-4 4.99953,-2.49969 5,-7.5 l 0,-5 c -0.83437,-5.41625 -1.66719,-9.79125 -2.5,-13.125 -0.83437,-3.74953 -1.66719,-6.45797 -2.5,-8.125 l -10.625,-26.875 0,-11.875 -4.375,0 -76.25,-1.25 m 83.125,1.25 -0.625,6.25 c -4.7e-4,2.50047 1.25,6.45875 3.75,11.875 l 3.125,9.375 1.875,3.75 1.875,5 2.5,9.375 c 0.41563,1.66703 0.83281,3.54203 1.25,5.625 0.41563,1.66703 0.83281,3.54203 1.25,5.625 l 0,8.125 c -4.7e-4,3.75031 -1.87547,6.87531 -5.625,9.375 l 2.5,5 c 5.83281,-3.33297 8.74953,-8.12469 8.75,-14.375 -4.7e-4,-9.58297 -1.45937,-17.91625 -4.375,-25 l -11.25,-28.75 -0.625,-10 -4.375,-1.25 m -310,0.625 0,0.625 c -3.33344,4.7e-4 -5.00016,0.83437 -5,2.5 -1.6e-4,2.50047 0.20781,4.16703 0.625,5 4.99984,4.7e-4 7.29156,-1.87453 6.875,-5.625 l 0,-2.5 -2.5,0 m 395,11.25 c -2.91719,1.66703 -5.00047,2.50047 -6.25,2.5 -1.25,4.7e-4 -4.16719,-1.66625 -8.75,-5 1.66609,6.66703 6.45781,10.00047 14.375,10 3.74938,4.7e-4 5.62438,-2.29125 5.625,-6.875 -6.2e-4,-2.91625 -0.83437,-4.58297 -2.5,-5 l -1.875,-0.625 -0.625,5 m -334.375,6.875 c -7.08359,-2.91625 -12.08359,-4.79125 -15,-5.625 l -16.875,-4.375 -9.375,-1.875 0,1.875 c 0.41719,2.50047 3.74984,4.16703 10,5 l 24.375,4.375 6.25,1.875 0.625,-1.25 m -47.5,-10 -4.375,2.5 -13.125,1.875 c -7.08344,1.25 -10.41687,5.62547 -10,13.125 l 0,1.25 c 1.66656,6.66703 6.45813,10.00047 14.375,10 1.25,4.7e-4 2.29156,-0.41563 3.125,-1.25 l 6.25,-9.375 c 0.83281,-0.83281 1.66656,-1.25 2.5,-1.25 0.83281,4.7e-4 1.25,0.41719 1.25,1.25 -1.6e-4,3.75047 -2.70844,7.70875 -8.125,11.875 l 1.875,6.875 c 2.91656,2.91703 5.62484,4.37547 8.125,4.375 9.58313,4.7e-4 14.37484,-5.83297 14.375,-17.5 -1.6e-4,-6.24953 -3.95844,-12.70797 -11.875,-19.375 -0.41719,-0.83281 -1.04219,-1.45781 -1.875,-1.875 -0.83281,-0.83281 -1.66687,-1.66625 -2.5,-2.5 m 353.75,1.875 -8.125,0.625 2.5,6.25 0.625,11.25 c 3.74953,-4.16625 5.62453,-7.91625 5.625,-11.25 l -0.625,-6.875 m 6.875,0 -4.375,0.625 c 0.41563,1.25 0.625,3.33375 0.625,6.25 -4.7e-4,3.33375 -2.29219,7.91703 -6.875,13.75 l -1.875,1.875 c -2.91719,1.66703 -6.25047,3.33375 -10,5 l -6.875,4.375 -2.5,4.375 c -3.75047,6.25047 -5.62547,12.70875 -5.625,19.375 -4.7e-4,2.50031 1.25,3.75031 3.75,3.75 1.25,3.1e-4 3.12453,-0.625 5.625,-1.875 l -1.875,9.375 -0.625,-3.125 c -2.50047,5.00031 -3.75047,8.95875 -3.75,11.875 -4.7e-4,4.16703 1.25,9.58375 3.75,16.25 l 6.25,-2.5 1.25,14.375 5.625,6.875 c -0.41719,-1.25 -0.625,-3.95797 -0.625,-8.125 -4.7e-4,-7.08297 2.08281,-12.08297 6.25,-15 l 8.75,-7.5 3.125,-5.625 c 0.41563,-0.41563 1.04063,-0.625 1.875,-0.625 0.41563,0.41719 0.83281,0.83437 1.25,1.25 0.41563,3.1e-4 0.83281,0.41719 1.25,1.25 l 2.5,0 c 4.99953,-11.66625 7.49953,-21.66625 7.5,-30 -4.7e-4,-2.91625 -1.04219,-7.49953 -3.125,-13.75 l -1.25,8.75 -3.75,0 c 3.33281,-9.58297 4.79109,-14.99953 4.375,-16.25 -4.7e-4,-2.08297 -1.04219,-5.83297 -3.125,-11.25 l 0,6.25 c 0.41563,1.25 -0.41719,5.41703 -2.5,12.5 -3.33391,7.50047 -5.41719,11.25047 -6.25,11.25 -1.25,4.7e-4 -1.87547,-0.83281 -1.875,-2.5 l 2.5,-3.75 3.75,-10 2.5,-8.75 c 0.41563,-0.83281 0.625,-2.70797 0.625,-5.625 -4.7e-4,-1.66625 -1.04219,-5.20797 -3.125,-10.625 l -3.125,19.375 -2.5,0 1.25,-6.875 c 0.41563,-2.08297 0.625,-3.95797 0.625,-5.625 0.41563,-1.66625 0.625,-2.91625 0.625,-3.75 l 0,-5.625 m -259.375,92.5 c 3.74969,-1.66625 5.62469,-3.33297 5.625,-5 l -1.875,-6.875 0,-5 0,-3.75 c -3.1e-4,-1.66625 -3.1e-4,-3.74969 0,-6.25 -3.1e-4,-2.91625 0.20781,-6.04125 0.625,-9.375 l 0,-8.75 0,-11.25 -0.625,-10.625 c -3.1e-4,-5.83297 0.625,-9.37453 1.875,-10.625 1.66641,-1.66625 5.41641,-2.49953 11.25,-2.5 l 6.25,0 20,0 c 3.33297,4.7e-4 6.24969,4.7e-4 8.75,0 2.91641,4.7e-4 5.62469,0.20937 8.125,0.625 l 8.125,0 c 2.49969,0.83437 3.74969,-0.625 3.75,-4.375 l -61.25,-0.625 c -5.00031,4.7e-4 -8.12531,2.29203 -9.375,6.875 l 0,9.375 c -3.1e-4,2.91703 -3.1e-4,6.45875 0,10.625 -3.1e-4,4.16703 -0.20937,9.16703 -0.625,15 l -1.25,35.625 0.625,6.875 m 92.5,-78.75 72.5,0.625 c -10.83375,-3.33297 -22.08375,-4.99953 -33.75,-5 l -4.375,0 -8.125,0.625 -6.875,0 -15.625,-0.625 c -2.08375,4.7e-4 -3.33375,1.45937 -3.75,4.375 m -175.625,-1.875 c 1.66656,5.00047 2.91641,7.50047 3.75,7.5 1.25,4.7e-4 1.87484,-0.41563 1.875,-1.25 l 0,-1.25 -5.625,-5 m -70.625,1.25 0,5.625 c -0.41719,6.66703 1.87484,10.00047 6.875,10 0.83281,4.7e-4 1.66656,-1.04063 2.5,-3.125 l -1.875,-0.625 1.875,-3.125 c -2.08344,-4.16625 -5.20844,-7.08297 -9.375,-8.75 m 188.125,6.25 c -2.08359,-2.08297 -4.16703,-3.12453 -6.25,-3.125 -3.75031,4.7e-4 -5.62531,1.04219 -5.625,3.125 -3.1e-4,2.91703 2.29141,4.37547 6.875,4.375 2.91641,4.7e-4 4.58297,-1.45781 5,-4.375 m 16.875,6.875 3.75,5 1.25,-0.625 -0.625,-1.875 c -3.1e-4,-3.74953 1.04219,-5.62453 3.125,-5.625 4.58297,4.7e-4 7.70797,3.95875 9.375,11.875 l 4.375,15 0.625,-4.375 -1.875,-5 -0.625,-7.5 c -0.83437,-11.24953 -5.00031,-16.87453 -12.5,-16.875 -4.58359,4.7e-4 -6.87531,2.08375 -6.875,6.25 l 0,3.75 m -14.375,-0.625 c 0.83281,2.08375 1.87469,3.12547 3.125,3.125 4.58297,4.7e-4 6.87469,-1.87453 6.875,-5.625 -3.1e-4,-2.49953 -1.45781,-3.74953 -4.375,-3.75 -3.33359,4.7e-4 -5.20859,2.08375 -5.625,6.25 m 51.875,36.875 c -0.41719,-1.25 -0.625,-3.12469 -0.625,-5.625 l 0,-5.625 c -3.1e-4,-6.66625 2.08297,-12.49953 6.25,-17.5 4.58297,-5.41625 9.79125,-8.12453 15.625,-8.125 9.58297,4.7e-4 14.37469,3.95875 14.375,11.875 -3.1e-4,5.41703 -2.50031,8.12531 -7.5,8.125 l -1.25,0 -11.875,-4.375 -1.25,-0.625 -1.25,0.625 c -4.58375,2.08375 -6.87531,5.41703 -6.875,10 -3.1e-4,5.83375 2.49969,8.75031 7.5,8.75 0.83281,3.1e-4 2.08297,-0.83281 3.75,-2.5 -5.00031,-1.66625 -7.50031,-3.95797 -7.5,-6.875 -3.1e-4,-3.74969 1.87469,-5.62453 5.625,-5.625 l 1.25,0 10,7.5 c 1.66625,1.25 3.33297,1.87531 5,1.875 3.74969,3.1e-4 7.49953,-2.91625 11.25,-8.75 0.83281,-3.33297 1.25,-5.62453 1.25,-6.875 -4.7e-4,-0.83281 -0.20937,-1.66625 -0.625,-2.5 -4.7e-4,-1.25 -0.20937,-2.91625 -0.625,-5 l 7.5,0.625 c -2.50047,-7.91625 -11.04203,-11.87453 -25.625,-11.875 -8.33375,4.7e-4 -15.20875,3.12547 -20.625,9.375 -5.41703,6.25047 -8.12531,14.37547 -8.125,24.375 -3.1e-4,5.41703 1.45781,8.33375 4.375,8.75 m -176.875,-22.5 5,-0.625 0,3.125 -3.125,0.625 -7.5,-0.625 c -5.83344,-0.83281 -8.75016,0.20937 -8.75,3.125 -1.6e-4,2.50031 2.08313,3.75031 6.25,3.75 17.49984,3.1e-4 26.24984,-6.45797 26.25,-19.375 -1.6e-4,-2.08297 -0.625,-3.54125 -1.875,-4.375 l -1.875,-0.625 -5,-1.875 -9.375,16.875 m 103.75,-16.875 -0.625,0 c -3.75031,4.7e-4 -5.62531,1.87547 -5.625,5.625 -3.1e-4,3.33375 1.45781,5.00047 4.375,5 4.99969,4.7e-4 7.49969,-2.29125 7.5,-6.875 -3.1e-4,-2.49953 -1.87531,-3.74953 -5.625,-3.75 m -65.625,0 c -2.50016,11.66703 -5.83359,17.50047 -10,17.5 -2.08359,4.7e-4 -3.95859,-1.25 -5.625,-3.75 -0.83281,3.33375 -1.25,5.00047 -1.25,5 -1.6e-4,3.75031 1.87484,5.62531 5.625,5.625 7.91641,3.1e-4 11.87484,-5.62453 11.875,-16.875 -1.6e-4,-3.74953 -0.20937,-6.24953 -0.625,-7.5 m 5,0.625 c -0.41719,2.91703 -0.83281,5.41703 -1.25,7.5 -1.6e-4,1.66703 -1.6e-4,3.33375 0,5 l -0.625,3.75 -2.5,4.375 -1.875,5 -3.75,2.5 -3.75,6.875 -6.25,4.375 -4.375,4.375 c -4.16687,4.16703 -12.08344,6.25031 -23.75,6.25 -5.83344,3.1e-4 -10.83344,-1.25 -15,-3.75 l -5.625,-3.125 -2.5,-1.25 c -4.58344,-2.08297 -7.08344,-6.87469 -7.5,-14.375 l 0,-0.625 c -1.6e-4,-0.83281 0.625,-2.08297 1.875,-3.75 1.66656,-1.66625 2.91656,-2.91625 3.75,-3.75 -1.6e-4,-0.83281 -2.08344,-1.87453 -6.25,-3.125 -3.75016,-1.66625 -6.25016,-2.49953 -7.5,-2.5 -2.08344,4.7e-4 -3.12516,0.83437 -3.125,2.5 l 0,1.25 3.125,5 3.75,14.375 c 1.66656,4.58375 6.45813,8.75031 14.375,12.5 7.91656,3.75031 16.04156,5.62531 24.375,5.625 17.91641,3.1e-4 32.49984,-9.16625 43.75,-27.5 1.66641,-2.91625 2.49984,-6.66625 2.5,-11.25 -1.6e-4,-3.74953 -0.625,-9.16625 -1.875,-16.25 m 70.625,10 c 0.41563,1.66703 1.45781,2.50047 3.125,2.5 3.74969,4.7e-4 5.62469,-1.66625 5.625,-5 -3.1e-4,-3.33297 -1.45937,-4.99953 -4.375,-5 -3.75031,4.7e-4 -5.20859,1.66703 -4.375,5 l 0,2.5 m -141.875,4.375 5,5 0,3.75 c -5.00016,0.83437 -7.50016,2.50031 -7.5,5 -1.6e-4,1.25 0.625,1.87531 1.875,1.875 6.24984,3.1e-4 9.37484,-2.49969 9.375,-7.5 -1.6e-4,-4.58297 -2.50016,-8.74953 -7.5,-12.5 -5.00016,-3.74953 -10.62516,-5.62453 -16.875,-5.625 -8.75016,4.7e-4 -13.12516,3.33375 -13.125,10 -1.6e-4,6.25047 2.08328,9.37531 6.25,9.375 0.83281,3.1e-4 1.25,-0.20781 1.25,-0.625 l 0.625,-1.25 c -1.6e-4,-0.83281 -0.83281,-1.87453 -2.5,-3.125 -1.25,-1.25 -1.87516,-2.29125 -1.875,-3.125 -1.6e-4,-4.58297 3.54156,-6.87453 10.625,-6.875 1.25,4.7e-4 6.04156,1.87547 14.375,5.625 m 253.125,23.125 -9.375,0 8.125,19.375 9.375,5 c 2.91625,1.66703 5.41625,3.12531 7.5,4.375 2.08297,0.83437 3.54125,1.45937 4.375,1.875 l 23.125,8.75 5.625,3.125 c 1.25,0.83281 3.12453,2.08359 5.625,3.75 2.08281,1.66703 4.37453,3.33359 6.875,5 2.49953,1.66703 4.79125,3.33359 6.875,5 l 0,1.25 c -0.83437,-0.41719 -1.87547,-0.83281 -3.125,-1.25 -1.25,-0.41719 -2.50047,-1.04219 -3.75,-1.875 -11.66719,-9.16641 -23.75047,-13.74969 -36.25,-13.75 -12.08375,3.1e-4 -18.12547,2.29203 -18.125,6.875 l 4.375,4.375 c -8.33375,4.58359 -12.08375,8.95859 -11.25,13.125 l 0.625,5 c 3.74953,4.58359 8.54125,6.87531 14.375,6.875 l 1.875,0 c -1.66703,-3.33297 -2.50047,-6.87469 -2.5,-10.625 -4.7e-4,-9.58297 5.83297,-14.37469 17.5,-14.375 6.66625,3.1e-4 14.37453,3.12531 23.125,9.375 l 9.375,5.625 11.875,10.625 7.5,8.125 10.625,12.5 5,8.75 c 4.16609,6.25031 6.45781,9.37531 6.875,9.375 0.83281,3.1e-4 1.45781,-0.20781 1.875,-0.625 l 0.625,-1.25 c 1.25,3.1e-4 2.49953,-0.20781 3.75,-0.625 1.66609,-0.41719 2.49953,-2.08313 2.5,-5 -4.7e-4,-4.58313 -6.45891,-15.83313 -19.375,-33.75 -4.58375,-6.66641 -8.75047,-12.08297 -12.5,-16.25 -3.75047,-4.16641 -7.08375,-7.29141 -10,-9.375 l -25,-17.5 -5,-2.5 -5.625,-3.125 0,-1.25 -8.125,-2.5 -5,-4.375 c -0.41719,-0.41563 -1.04219,-0.83281 -1.875,-1.25 -0.83437,-0.41563 -1.87547,-1.04063 -3.125,-1.875 -8.75047,-5.41625 -13.12547,-13.33297 -13.125,-23.75 -4.7e-4,-12.49953 5.83297,-18.74953 17.5,-18.75 4.16625,4.7e-4 8.54125,2.50047 13.125,7.5 0.41563,0.83437 0.625,2.08375 0.625,3.75 -4.7e-4,2.50031 -0.83437,3.75031 -2.5,3.75 -11.66703,1.66703 -17.70875,3.75031 -18.125,6.25 l -0.625,1.875 0.625,5 0,3.125 c -4.7e-4,0.41719 2.91625,2.91703 8.75,7.5 0.41563,0.41719 1.25,0.625 2.5,0.625 -4.7e-4,3.1e-4 0.20781,3.1e-4 0.625,0 0.83281,-0.41563 1.87453,-0.83281 3.125,-1.25 l -1.875,-2.5 c -6.25047,-1.25 -9.37547,-4.37469 -9.375,-9.375 -4.7e-4,-2.49969 1.66625,-4.16625 5,-5 l 6.25,-0.625 6.875,-1.25 c 2.91625,-2.91625 4.37453,-6.24969 4.375,-10 -4.7e-4,-9.16625 -5.62547,-13.74953 -16.875,-13.75 -18.33375,4.7e-4 -27.50047,7.91703 -27.5,23.75 -4.7e-4,0.83437 -4.7e-4,1.87531 0,3.125 0.41563,1.25 0.83281,2.91703 1.25,5 m -95.625,-28.75 -0.625,0 c -3.33359,4.7e-4 -5.00031,2.08375 -5,6.25 -3.1e-4,1.66703 0.83281,2.50047 2.5,2.5 4.16641,4.7e-4 6.24969,-2.08297 6.25,-6.25 -3.1e-4,-1.66625 -1.04219,-2.49953 -3.125,-2.5 m 10.625,1.875 0,1.875 -6.25,3.125 -0.625,2.5 -2.5,1.875 -1.875,13.125 -8.125,0.625 0,5 c 0.41563,1.25 0.83281,2.29203 1.25,3.125 0.41719,0.83437 0.83281,1.66703 1.25,2.5 l 5.625,3.75 13.75,1.25 15.625,6.875 8.75,0.625 c 1.66625,0.41719 2.49969,-0.20781 2.5,-1.875 -3.1e-4,-0.83281 -1.25,-2.91625 -3.75,-6.25 -0.41719,-0.83281 -0.83437,-1.87469 -1.25,-3.125 -0.41719,-1.25 -1.04219,-2.70797 -1.875,-4.375 -3.1e-4,3.1e-4 -0.83281,-0.20781 -2.5,-0.625 -1.25,-0.83281 -3.54203,-1.66625 -6.875,-2.5 l -3.125,-1.25 -6.875,-3.75 c -2.08359,-3.33297 -3.12531,-6.04125 -3.125,-8.125 -3.1e-4,-4.58297 2.29141,-6.87453 6.875,-6.875 1.25,4.7e-4 3.54141,0.625 6.875,1.875 l 0,-1.875 c 0.41563,-2.91625 -4.16703,-5.41625 -13.75,-7.5 m -40,25.625 c 4.16641,9.58375 12.08297,14.79203 23.75,15.625 l -5,-3.75 -10,-5.625 c -4.58359,-2.49969 -6.87531,-7.29125 -6.875,-14.375 -3.1e-4,-6.24969 3.12469,-10.62453 9.375,-13.125 l 0,-3.125 -1.875,0 c -7.91687,4.7e-4 -11.87531,5.20875 -11.875,15.625 -3.1e-4,2.91703 0.83281,5.83375 2.5,8.75 m 16.25,-20 c -2.91703,4.7e-4 -5.00031,1.66703 -6.25,5 l 0,0.625 c -3.1e-4,2.50031 1.66641,3.75031 5,3.75 4.58297,3.1e-4 6.87469,-1.66625 6.875,-5 -3.1e-4,-2.91625 -1.87531,-4.37453 -5.625,-4.375 m -181.25,33.125 c 1.25,4.58375 3.74984,8.95875 7.5,13.125 l 5.625,5.625 c 0.83281,0.83437 1.87484,1.87531 3.125,3.125 1.25,1.25 2.91656,2.29203 5,3.125 l 6.25,4.375 5.625,2.5 -5,-4.375 -6.875,-4.375 -9.375,-8.125 c -5.41672,-5.41625 -8.12516,-11.66625 -8.125,-18.75 -1.6e-4,-6.24969 2.49984,-9.37469 7.5,-9.375 2.49984,3.1e-4 5.41656,1.66703 8.75,5 l 0,-4.375 c -1.6e-4,-1.25 -1.25,-3.54125 -3.75,-6.875 -1.66672,-1.66625 -3.75016,-2.49969 -6.25,-2.5 -7.50016,3.1e-4 -11.25016,5.00031 -11.25,15 -1.6e-4,0.83437 -1.6e-4,1.87531 0,3.125 0.41719,0.83437 0.83281,2.08375 1.25,3.75 m 78.125,-13.125 c -1.25,-4.58297 -4.16687,-6.87469 -8.75,-6.875 -0.83281,3.1e-4 -2.29187,0.20937 -4.375,0.625 -1.66687,3.1e-4 -3.95844,0.20937 -6.875,0.625 l 0.625,3.125 -2.5,-0.625 c -1.25,-3.74969 -3.12516,-5.62469 -5.625,-5.625 -1.66687,3.1e-4 -2.50016,1.04219 -2.5,3.125 -1.6e-4,2.08375 1.87484,3.95875 5.625,5.625 5.41656,2.91703 9.58313,4.37531 12.5,4.375 2.49984,3.1e-4 6.45813,-1.45781 11.875,-4.375 m 30.625,-6.875 -5,6.875 -9.375,10 c -1.25,0.83437 -2.91687,1.87531 -5,3.125 -1.66687,1.25 -3.54187,2.70875 -5.625,4.375 l -11.875,6.25 c -6.25016,3.33375 -9.37516,7.91703 -9.375,13.75 -1.6e-4,7.91703 3.12484,11.45859 9.375,10.625 l 3.125,-0.625 c -3.33344,-4.58297 -5.00016,-7.91641 -5,-10 -1.6e-4,-2.49969 5.83313,-7.49969 17.5,-15 13.74984,-9.16625 20.83313,-18.95797 21.25,-29.375 m 229.375,27.5 -1.25,0 c -5.83375,3.1e-4 -8.75047,-2.49969 -8.75,-7.5 -4.7e-4,-6.24969 1.66625,-9.37469 5,-9.375 l 3.125,0 0,2.5 -3.125,3.125 c -0.83437,0.83437 -1.25,1.45937 -1.25,1.875 -4.7e-4,1.25 0.83281,1.87531 2.5,1.875 l 6.25,-4.375 c 1.25,-2.49969 1.87453,-4.58297 1.875,-6.25 -4.7e-4,-2.49969 -1.87547,-3.74969 -5.625,-3.75 -8.33375,3.1e-4 -12.50047,4.58375 -12.5,13.75 -4.7e-4,7.91703 3.33297,11.87531 10,11.875 2.49953,3.1e-4 3.74953,-1.25 3.75,-3.75 m -91.875,-15 -3.75,3.75 1.875,3.75 1.875,4.375 c 2.91625,-1.66625 4.99969,-2.49969 6.25,-2.5 1.25,3.1e-4 2.91625,0.625 5,1.875 l 0,0.625 c -3.1e-4,5.00031 -6.45875,7.50031 -19.375,7.5 -2.91703,3.1e-4 -8.75031,-0.625 -17.5,-1.875 -1.25,-0.41563 -2.50031,-0.83281 -3.75,-1.25 -0.83437,-0.41563 -1.66703,-0.83281 -2.5,-1.25 -7.08359,-2.91625 -11.87531,-4.37469 -14.375,-4.375 -2.50031,3.1e-4 -3.75031,1.45937 -3.75,4.375 l -5,0 -10,-1.25 -1.25,0 -2.5,0 -3.75,1.875 c -2.50031,1.25 -3.75031,2.29203 -3.75,3.125 -3.1e-4,1.25 0.83281,2.70875 2.5,4.375 l 2.5,3.75 5.625,1.875 0.625,1.875 c -2.91703,0.41719 -4.37531,1.45781 -4.375,3.125 -3.1e-4,2.50031 2.91641,3.75031 8.75,3.75 l 10,0 c 0.83281,-0.83281 3.12469,-2.49969 6.875,-5 0.41719,0.41719 0.625,1.04219 0.625,1.875 -3.1e-4,1.25 -1.45937,2.08359 -4.375,2.5 -3.33359,0.83437 -6.04203,1.66703 -8.125,2.5 -1.66703,0.41719 -2.50031,0.625 -2.5,0.625 l -3.75,3.125 -4.375,1.25 c -0.83437,0.83437 -2.08359,2.70859 -3.75,5.625 l -3.75,6.25 0.625,4.375 6.25,-1.25 0.625,11.25 c 3.33297,4.58359 6.04141,6.87531 8.125,6.875 l 0.625,0 c 2.49969,-0.41719 5.62469,-1.04063 9.375,-1.875 -2.91703,-2.91641 -4.37531,-6.45797 -4.375,-10.625 -3.1e-4,-9.58297 6.45797,-17.70797 19.375,-24.375 12.91641,-6.66641 28.54125,-9.99969 46.875,-10 11.24969,3.1e-4 22.91625,1.25 35,3.75 2.49953,0.83281 3.54125,1.25 3.125,1.25 0.41562,3.1e-4 1.66625,-0.625 3.75,-1.875 2.08297,-1.25 6.45797,-1.87469 13.125,-1.875 l -15,-6.25 -11.25,-6.875 -8.75,-8.75 c -4.16703,-0.83281 -6.87531,-1.45781 -8.125,-1.875 -8.75031,-2.91625 -14.16703,-4.37469 -16.25,-4.375 -2.08375,3.1e-4 -5.20875,-1.25 -9.375,-3.75 m -268.125,20.625 1.25,0 1.25,-3.75 0.625,0 0.625,0 2.5,0 6.25,3.125 -4.375,-6.25 c -0.83281,-0.83281 -2.08344,-1.25 -3.75,-1.25 -2.91672,3.1e-4 -4.37516,1.66703 -4.375,5 l 0,3.125 m 35,-5.625 c 0.83281,2.08375 1.87484,3.12531 3.125,3.125 l 4.375,0 1.875,-0.625 c 4.58312,3.1e-4 10.41656,2.91703 17.5,8.75 4.99984,5.83359 7.70813,9.16703 8.125,10 l 4.375,11.25 c 1.25,3.33359 1.87484,6.66703 1.875,10 l 0,1.25 -1.875,15.625 -1.25,8.125 -3.75,10.625 1.875,4.375 c 5.41656,-10.83313 8.12484,-22.29141 8.125,-34.375 -1.6e-4,-13.74969 -3.95844,-25.41641 -11.875,-35 -7.50016,-9.58297 -16.87516,-14.37469 -28.125,-14.375 -0.83281,3.1e-4 -1.45781,0.20937 -1.875,0.625 l -2.5,0.625 m 152.5,3.75 -3.125,3.75 c 2.08313,-0.83281 3.12469,-1.87469 3.125,-3.125 l 0,-0.625 m 195.625,8.75 c 0.41563,4.58359 2.29125,8.95859 5.625,13.125 l 5.625,8.125 c 1.25,2.91703 3.33281,5.20859 6.25,6.875 l 5.625,8.125 6.25,10.625 9.375,15 0,-0.625 c -4.7e-4,-4.99969 -2.08391,-10.83297 -6.25,-17.5 l -9.375,-13.75 -13.75,-18.125 c -2.08375,-3.33297 -3.12547,-5.83297 -3.125,-7.5 -4.7e-4,-0.83281 -4.7e-4,-1.66625 0,-2.5 0.41563,-1.25 0.83281,-2.70797 1.25,-4.375 l 5,1.875 2.5,3.75 1.875,-4.375 c -2.50047,-4.58297 -5.20875,-6.87469 -8.125,-6.875 -5.41719,3.1e-4 -8.33375,2.70875 -8.75,8.125 m -251.875,8.75 -1.25,-1.875 c -3.33359,1.66703 -6.87516,2.50031 -10.625,2.5 -6.66687,3.1e-4 -10.00016,-2.29141 -10,-6.875 l 0,-0.625 5,-6.25 -5,-0.625 c -1.66687,3.1e-4 -3.12516,1.04219 -4.375,3.125 -0.83437,1.66703 -1.25,3.12531 -1.25,4.375 -1.6e-4,6.66703 3.95813,10.00031 11.875,10 2.91641,3.1e-4 8.12484,-1.25 15.625,-3.75 m 48.75,-7.5 -18.125,10.625 -14.375,12.5 -5.625,4.375 -6.25,8.75 -5.625,4.375 -1.25,3.125 -3.75,5 c -3.75016,5.83359 -8.75016,16.45859 -15,31.875 l -1.25,3.125 -0.625,5 -5.625,25 c -0.41719,1.66687 -0.83438,3.54187 -1.25,5.625 -1.6e-4,2.08359 -1.6e-4,4.79187 0,8.125 l 0,8.125 c 4.99984,-0.83281 7.08312,-2.49984 6.25,-5 l 0,-3.125 c -0.83281,-19.99984 4.16641,-40.41641 15,-61.25 10.41641,-20.83297 23.12484,-36.45797 38.125,-46.875 l 18.125,-11.875 c 1.25,-0.83281 3.95812,-2.08297 8.125,-3.75 4.16641,-1.66625 6.24969,-2.70797 6.25,-3.125 -3.1e-4,-2.49969 -0.83438,-3.95797 -2.5,-4.375 l -1.25,-0.625 -0.625,0 -8.75,4.375 m -170.625,8.75 -0.625,0.625 -0.625,7.5 c -0.41719,8.33359 2.29156,16.25031 8.125,23.75 6.24984,7.08359 13.54156,11.66703 21.875,13.75 l 6.875,1.875 0,-2.5 -6.875,-3.125 c -17.91672,-7.91641 -26.87516,-19.79141 -26.875,-35.625 -1.6e-4,-3.74969 0.625,-6.66641 1.875,-8.75 2.49984,-3.74969 3.74984,-6.24969 3.75,-7.5 l 0,-0.625 c -1.6e-4,-1.25 -0.625,-1.87469 -1.875,-1.875 -0.41719,3.1e-4 -2.29172,4.16703 -5.625,12.5 m 409.375,-4.375 -0.625,3.125 c -4.7e-4,2.50031 1.87453,3.75031 5.625,3.75 l 0.625,0 5,0 0,2.5 -8.75,-0.625 -1.875,-1.25 c 0.83281,6.25031 6.04109,10.20859 15.625,11.875 1.66609,-2.49969 3.12453,-3.74969 4.375,-3.75 2.08281,3.1e-4 4.58281,0.83281 7.5,2.5 l 6.25,7.5 c 0.41563,-1.25 0.625,-3.95797 0.625,-8.125 -4.7e-4,-6.24969 -1.25,-9.79141 -3.75,-10.625 l -6.875,-2.5 1.875,-8.125 c -0.41719,-0.41563 -1.25,-0.625 -2.5,-0.625 -2.08391,3.1e-4 -5.00047,1.04219 -8.75,3.125 -3.33391,1.66703 -5.83391,2.50031 -7.5,2.5 -0.83438,3.1e-4 -1.87547,3.1e-4 -3.125,0 -0.83437,-0.41719 -2.08391,-0.83281 -3.75,-1.25 m -233.75,10.625 c -0.41719,2.08359 -0.83438,3.95859 -1.25,5.625 -3.1e-4,1.25 -3.1e-4,2.29203 0,3.125 -3.1e-4,2.08359 0.625,4.37531 1.875,6.875 l 4.375,4.375 c -2.08359,-7.08297 -3.12531,-11.66641 -3.125,-13.75 -3.1e-4,-4.16641 0.83281,-7.08297 2.5,-8.75 3.33313,-3.33297 4.99969,-5.20797 5,-5.625 -3.1e-4,-0.83281 -0.41719,-1.25 -1.25,-1.25 -1.25,3.1e-4 -3.95859,3.12531 -8.125,9.375 m 110,8.75 c -2.08375,2.08359 -3.75031,3.12531 -5,3.125 -1.25,3.1e-4 -3.12531,-0.625 -5.625,-1.875 -0.83438,-4.16641 -1.25,-6.24969 -1.25,-6.25 -3.1e-4,-6.24969 6.04125,-9.37469 18.125,-9.375 1.25,3.1e-4 3.12453,0.41719 5.625,1.25 2.91625,0.83437 4.99953,1.25 6.25,1.25 0.83281,3.1e-4 1.66625,-1.04063 2.5,-3.125 -4.16703,-0.83281 -7.91703,-1.45781 -11.25,-1.875 -3.33375,-0.83281 -6.66703,-1.25 -10,-1.25 -15.00031,3.1e-4 -22.50031,4.79203 -22.5,14.375 -3.1e-4,8.75031 4.79125,13.12531 14.375,13.125 5.83297,3.1e-4 8.74969,-3.12469 8.75,-9.375 m -212.5,-0.625 1.875,5 1.875,0.625 10,-1.25 15.625,-3.125 13.125,-5 c 4.58312,-1.25 6.87484,-3.12469 6.875,-5.625 -1.6e-4,-2.08297 -1.04219,-3.12469 -3.125,-3.125 -1.25,3.1e-4 -2.08359,0.625 -2.5,1.875 l -1.875,2.5 c -0.41719,0.41719 -1.66688,0.625 -3.75,0.625 -1.66688,3.1e-4 -6.04188,1.25 -13.125,3.75 -7.08359,2.50031 -13.75016,3.75031 -20,3.75 l -5,0 m 165.625,-11.25 c -3.33359,4.58359 -5.00031,7.50031 -5,8.75 -3.1e-4,1.25 1.04062,4.37531 3.125,9.375 l -1.25,1.875 -0.625,0 c -2.50031,-0.41719 -3.75031,0.41719 -3.75,2.5 -3.1e-4,3.75031 2.49969,6.87531 7.5,9.375 2.49969,1.25 4.58297,1.87531 6.25,1.875 l 1.875,-0.625 15.625,-4.375 1.875,0 c 2.91625,3.1e-4 4.37469,0.83281 4.375,2.5 -3.1e-4,1.66703 -0.20938,2.70859 -0.625,3.125 l -8.125,0 c -5.00031,3.1e-4 -10.83375,2.70859 -17.5,8.125 l 0,7.5 c 6.66625,-3.74969 10.62469,-5.62469 11.875,-5.625 l 23.75,0.625 c 9.58297,0.83437 14.37469,-2.91641 14.375,-11.25 -3.1e-4,-6.24969 -4.16703,-9.37469 -12.5,-9.375 l -16.25,-3.125 -10,-3.75 c -7.50031,-4.58297 -11.45875,-8.33297 -11.875,-11.25 l -0.625,-5 c -3.1e-4,3.1e-4 -0.20938,3.1e-4 -0.625,0 -0.41719,-0.41719 -1.04219,-0.83281 -1.875,-1.25 m -70,0.625 c -2.91688,0.41719 -4.37531,1.66703 -4.375,3.75 l 0.625,11.875 -0.625,6.875 0.625,9.375 0,16.875 4.375,1.25 -0.625,-50 m -152.5,15.625 -0.625,-2.5 c -1.6e-4,-4.16641 2.08328,-6.24969 6.25,-6.25 l 2.5,0 28.75,9.375 8.75,1.25 0,-1.875 -26.875,-8.125 -8.75,-4.375 c -0.41719,-0.41719 -2.08344,-0.625 -5,-0.625 -6.25016,3.1e-4 -9.37516,2.50031 -9.375,7.5 -1.6e-4,3.75031 1.45781,5.62531 4.375,5.625 m 120,10.625 -3.75,5 -3.125,3.75 -3.125,3.75 c -0.83437,0.83281 -1.25,2.70859 -1.25,5.625 l 0,2.5 c 0.41563,0.41719 0.625,1.87531 0.625,4.375 l 0.625,17.5 -2.5,172.5 c -1.6e-4,7.08344 -4.58359,13.33344 -13.75,18.75 -8.75016,5.41672 -18.54187,8.125 -29.375,8.125 -8.33344,0 -12.50016,2.08344 -12.5,6.25 -1.6e-4,3.33344 5.41656,4.58344 16.25,3.75 l 5.625,0 c 17.49984,-0.83281 30.41641,-1.45781 38.75,-1.875 8.74969,-0.41719 13.33312,-0.625 13.75,-0.625 l 64.375,3.75 c 9.16641,0 13.74969,-1.45781 13.75,-4.375 l 0,-1.875 -1.25,-0.625 -0.625,-0.625 -28.125,-4.375 c -4.58359,-0.83281 -10.00031,-3.54156 -16.25,-8.125 l -2.5,-1.875 c -7.91687,-10.41656 -11.87531,-23.54156 -11.875,-39.375 l 0,-4.375 0.625,-25 0,-16.875 0.625,-76.25 0,-13.125 c 0.83281,-6.66641 3.12469,-10.20813 6.875,-10.625 l 13.125,-1.25 c 1.25,3.1e-4 3.74969,-3.95813 7.5,-11.875 0.41719,-1.66641 1.66641,-3.54141 3.75,-5.625 l -26.875,-0.625 c -3.33359,-1.25 -4.58359,-2.91641 -3.75,-5 l 0,-1.875 0,-40.625 c -10.00031,7.08359 -18.54188,14.16703 -25.625,21.25 m -36.25,-3.75 -8.75,6.875 c -1.6e-4,0.83437 0.20781,1.25 0.625,1.25 0.41562,3.1e-4 2.91641,-1.25 7.5,-3.75 l 5.625,-3.75 12.5,-10.625 3.75,-1.875 0,-1.25 c -1.6e-4,-1.25 -0.41719,-1.87469 -1.25,-1.875 -1.66688,3.1e-4 -4.37516,2.08359 -8.125,6.25 -3.75016,4.16703 -6.45859,6.66703 -8.125,7.5 l -3.75,1.25 m 225,17.5 -5,7.5 c -2.91703,2.08359 -6.66703,3.75031 -11.25,5 -4.16703,0.83281 -7.29203,1.25 -9.375,1.25 l -5.625,-0.625 -18.75,0.625 -51.875,-1.25 c -4.58359,-0.83281 -9.79203,5.62531 -15.625,19.375 l 91.875,1.25 c 17.91625,3.1e-4 27.70797,13.33359 29.375,40 0.83281,6.66687 3.12453,11.87516 6.875,15.625 l 3.125,-4.375 -1.875,-51.875 1.875,-22.5 0,-19.375 0.625,-13.125 c 0.83281,-4.99969 -0.20938,-7.91641 -3.125,-8.75 -2.50047,3.1e-4 -4.58375,6.25031 -6.25,18.75 -0.41719,1.66703 -1.04219,3.54203 -1.875,5.625 -0.41719,2.08359 -1.45938,4.37531 -3.125,6.875 m 16.25,-29.375 0,26.25 -1.25,20.625 1.25,64.375 -1.875,6.875 -0.625,0.625 3.125,0.625 c 2.91625,1.6e-4 4.37453,-1.66641 4.375,-5 l -1.25,-32.5 0.625,-5 -0.625,-18.75 1.25,-18.75 0.625,-6.25 -0.625,-20.625 0,-5 c -4.7e-4,-2.91641 -1.66703,-5.41641 -5,-7.5 m -219.375,3.125 -3.125,1.875 -3.125,3.125 c -6.25016,6.25031 -9.79187,10.62531 -10.625,13.125 l -2.5,4.375 -7.5,11.875 -6.25,13.75 -16.25,57.5 c -2.50016,8.75016 -7.91687,16.25016 -16.25,22.5 -7.91687,6.25016 -16.25016,9.37516 -25,9.375 -13.33344,1.6e-4 -23.33344,-5.62484 -30,-16.875 -2.50016,-3.74984 -3.75016,-7.70813 -3.75,-11.875 -1.6e-4,-2.08313 0.20781,-3.54141 0.625,-4.375 l 5.625,-10.625 -0.625,-3.125 -5,6.875 c -2.08344,3.33359 -3.12516,6.66687 -3.125,10 -1.6e-4,9.58359 3.33328,17.50016 10,23.75 6.66656,6.25016 15.20828,9.37516 25.625,9.375 9.58313,1.6e-4 18.54156,-2.70813 26.875,-8.125 8.33313,-5.83313 13.74984,-12.70813 16.25,-20.625 l 17.5,-60 c 4.99984,-17.91641 14.99984,-33.54141 30,-46.875 l 0.625,-5 m -30,6.875 c -0.83437,-1.25 -1.66687,-1.87469 -2.5,-1.875 -2.50016,3.1e-4 -3.75016,1.04219 -3.75,3.125 -1.6e-4,1.66703 0.83281,2.50031 2.5,2.5 1.66641,3.1e-4 2.91641,-1.25 3.75,-3.75 m -69.375,8.75 4.375,-3.125 c 0.83281,-0.83281 2.08328,-1.25 3.75,-1.25 8.33313,3.1e-4 12.49984,3.12531 12.5,9.375 -1.6e-4,3.75031 -1.66687,8.54187 -5,14.375 l -2.5,3.75 -1.25,1.25 -0.625,0.625 c -1.6e-4,1.25 0.625,1.87531 1.875,1.875 2.49984,3.1e-4 4.99984,-3.33313 7.5,-10 2.08313,-7.08297 3.12484,-11.45797 3.125,-13.125 -1.6e-4,-8.33297 -4.79187,-12.49969 -14.375,-12.5 -8.33344,3.1e-4 -12.50016,2.50031 -12.5,7.5 -1.6e-4,0.83281 0.20781,1.25 0.625,1.25 l 2.5,0 m 56.25,-5.625 c -2.50016,3.1e-4 -3.75016,1.87531 -3.75,5.625 -1.6e-4,3.75031 1.87484,5.62531 5.625,5.625 3.33313,3.1e-4 4.99984,-1.66641 5,-5 -1.6e-4,-4.16641 -2.29187,-6.24969 -6.875,-6.25 m 96.25,20 c 4.16641,4.16687 8.95813,6.25031 14.375,6.25 4.16641,3.1e-4 7.70797,-0.83281 10.625,-2.5 l 2.5,-1.875 -5.625,-0.625 -6.25,0.625 -1.25,0.625 c -6.25031,0.83437 -9.37531,-1.87469 -9.375,-8.125 -3.1e-4,-1.25 0.625,-2.91641 1.875,-5 1.66641,1.25 3.33312,1.87531 5,1.875 l 1.25,-1.25 c -3.1e-4,-3.33297 -1.87531,-4.99969 -5.625,-5 -5.41688,3.1e-4 -7.91688,3.33359 -7.5,10 l 0,5 m 268.125,-14.375 -11.25,7.5 -0.625,1.875 -2.5,-1.25 -1.25,-3.125 -1.875,0.625 -3.75,5 -4.375,14.375 3.75,2.5 c 0.83281,4.16687 1.25,6.25031 1.25,6.25 -4.7e-4,1.25 -2.08391,4.58359 -6.25,10 -4.58391,1.25 -7.50047,1.87531 -8.75,1.875 -4.58391,3.1e-4 -7.50047,-2.70813 -8.75,-8.125 l -1.875,-1.25 c -2.08375,0.41719 -3.54219,1.04219 -4.375,1.875 -1.25,-0.41719 -5.00047,-1.04063 -11.25,-1.875 l -3.125,-0.625 c -0.41719,3.1e-4 -2.29219,0.41719 -5.625,1.25 l -3.75,2.5 -3.125,3.125 c 0.41562,0.41719 0.625,0.83281 0.625,1.25 0.41562,0.41719 0.83281,0.83281 1.25,1.25 l 0.625,2.5 -7.5,3.75 c -4.16719,4.16687 -6.25047,7.50031 -6.25,10 -4.7e-4,2.08359 2.70781,3.12531 8.125,3.125 l 5,0 7.5,0.625 c -0.83438,3.33359 -1.25,4.79187 -1.25,4.375 -4.7e-4,2.08359 1.25,3.12516 3.75,3.125 8.33281,1.6e-4 14.99953,-4.99984 20,-15 l 2.5,-1.875 0.625,1.875 c -2.50047,5.00031 -3.75047,8.75016 -3.75,11.25 -4.7e-4,3.33359 0.83281,6.66687 2.5,10 1.66609,3.33359 3.33281,5.00016 5,5 l 1.25,0 c 0.41562,-2.91641 1.66609,-4.37484 3.75,-4.375 0.83281,1.6e-4 1.25,0.20937 1.25,0.625 l 0.625,4.375 0.625,0.625 5,6.25 c 0.41562,1.25 2.91609,3.12516 7.5,5.625 l 0.625,-4.375 3.125,-8.75 8.125,-8.75 1.875,-5.625 4.375,-1.25 c -0.41719,-15.41641 -5.83391,-23.12469 -16.25,-23.125 -2.50047,3.1e-4 -5.62547,2.08359 -9.375,6.25 l 1.25,3.125 2.5,1.875 0.625,1.875 c -0.41719,0.41719 -0.625,1.45781 -0.625,3.125 -4.7e-4,2.50031 0.83281,5.20859 2.5,8.125 l -3.125,1.875 1.875,-0.625 -2.5,-0.625 -1.25,-6.875 -1.875,-6.25 c -1.25,-3.33313 -2.50047,-4.99969 -3.75,-5 -1.66719,3.1e-4 -2.50047,0.625 -2.5,1.875 -4.7e-4,0.83437 0.20781,1.45781 0.625,1.875 l -0.625,4.375 c -0.41719,-0.41563 -1.04219,-0.625 -1.875,-0.625 l -0.625,-2.5 c -4.7e-4,0.41719 -0.41719,-1.04063 -1.25,-4.375 l -6.25,-1.25 -5.625,-5.625 -6.25,1.875 -5.625,0 6.25,-3.125 c 2.91625,-0.41563 4.58281,-0.625 5,-0.625 l 9.375,5.625 c 2.49953,0.83281 4.16609,1.25 5,1.25 4.58281,3.1e-4 8.74953,-1.87469 12.5,-5.625 3.74953,-3.74969 5.62453,-7.70813 5.625,-11.875 -4.7e-4,-0.83281 -0.20938,-1.87469 -0.625,-3.125 -4.7e-4,-1.25 -0.20938,-2.91641 -0.625,-5 l 3.75,-5.625 1.875,0.625 -2.5,5.625 1.25,6.875 -3.125,10 c 12.08281,-2.08313 18.12453,-8.95813 18.125,-20.625 l -3.75,-1.875 1.875,-6.875 1.25,-11.875 c -4.7e-4,-0.41563 -0.20938,-0.83281 -0.625,-1.25 m -259.375,87.5 c 3.33312,2.08359 5.41641,3.12516 6.25,3.125 1.66641,1.6e-4 2.49969,-1.25 2.5,-3.75 l 0,-1.25 c -3.33359,-5.83313 -5.00031,-11.87484 -5,-18.125 -3.1e-4,-13.74969 3.12469,-24.58313 9.375,-32.5 6.24969,-8.33313 17.91641,-16.87469 35,-25.625 1.66641,-0.41719 3.74969,-1.45781 6.25,-3.125 -2.08359,-2.08297 -3.54203,-2.70797 -4.375,-1.875 l -10,3.125 -27.5,18.75 c -3.33359,2.08359 -7.08359,8.12531 -11.25,18.125 -3.33359,8.75031 -5.00031,15.83359 -5,21.25 -3.1e-4,4.16687 1.25,11.45859 3.75,21.875 m 121.875,-83.125 -1.25,5.625 c 5.41625,2.91703 9.16625,4.37531 11.25,4.375 2.08297,3.1e-4 3.12453,-0.83281 3.125,-2.5 -4.7e-4,-1.25 -4.37547,-3.74969 -13.125,-7.5 m -217.5,1.25 c -2.08359,0.83281 -3.12516,2.29203 -3.125,4.375 -1.6e-4,2.91703 1.45781,4.37531 4.375,4.375 2.91641,3.1e-4 4.37484,-1.66641 4.375,-5 -1.6e-4,-2.49969 -1.45937,-3.74969 -4.375,-3.75 l -1.25,0 m -77.5,2.5 -3.125,7.5 -2.5,5.625 -1.25,3.125 0,0.625 c -1.6e-4,1.25 0.625,1.87531 1.875,1.875 l 1.25,-0.625 4.375,-10.625 1.875,-4.375 -2.5,-3.125 m -7.5,2.5 c -7.91672,2.91687 -11.87516,6.45859 -11.875,10.625 -1.6e-4,4.16687 2.49984,7.91687 7.5,11.25 5.41656,2.91687 10.41656,4.37531 15,4.375 6.66656,3.1e-4 9.99984,-1.25 10,-3.75 -0.83281,-0.83281 -1.45781,-1.25 -1.875,-1.25 l -11.875,1.25 c -9.58344,0.83437 -14.37516,-3.74969 -14.375,-13.75 -1.6e-4,-2.49969 2.49984,-4.16641 7.5,-5 l 0,-3.75 m 368.125,0.625 c -0.41719,1.66703 -0.83437,2.91687 -1.25,3.75 -4.7e-4,0.83437 -4.7e-4,1.66687 0,2.5 -4.7e-4,7.08359 3.12453,11.45859 9.375,13.125 -1.66719,-1.66641 -2.50047,-3.54141 -2.5,-5.625 -4.7e-4,-2.49969 1.66625,-3.74969 5,-3.75 2.49953,3.1e-4 4.99953,1.87531 7.5,5.625 l 4.375,5 1.25,-0.625 c 0.41563,-0.41719 0.625,-1.04063 0.625,-1.875 l 0,-1.875 c -0.41719,-0.41719 -1.25,-1.25 -2.5,-2.5 -1.25,-1.66641 -2.91719,-3.54141 -5,-5.625 l -3.125,-3.75 c -2.91719,-2.91641 -6.87547,-4.37469 -11.875,-4.375 l -1.875,0 m -18.75,13.75 1.25,5 2.5,3.75 4.375,6.25 c -4.7e-4,-4.16641 -0.625,-7.49969 -1.875,-10 -1.25,-2.49969 -1.87547,-4.58313 -1.875,-6.25 -4.7e-4,-2.49969 0.83281,-3.74969 2.5,-3.75 1.66625,3.1e-4 2.70781,0.20937 3.125,0.625 l 2.5,3.125 0.625,-3.75 c -4.7e-4,-4.58313 -2.08375,-6.87469 -6.25,-6.875 -5.41719,3.1e-4 -8.12547,2.08359 -8.125,6.25 -4.7e-4,0.41719 0.41563,2.29187 1.25,5.625 m -336.875,-8.125 c 8.74984,4.58359 13.12484,10.83359 13.125,18.75 -1.6e-4,8.75031 -4.58344,13.33359 -13.75,13.75 2.91656,1.66687 5.20828,2.50031 6.875,2.5 7.49984,3.1e-4 11.24984,-4.99969 11.25,-15 -1.6e-4,-8.74969 -3.12516,-14.99969 -9.375,-18.75 l -6.875,-3.75 -1.25,2.5 m 30.625,4.375 c 9.58313,7.91687 14.79156,21.04187 15.625,39.375 2.49984,-0.41719 3.74984,-1.66641 3.75,-3.75 -1.6e-4,-7.91641 -1.66687,-14.79141 -5,-20.625 l -4.375,-9.375 c -3.33344,-4.99969 -5.83344,-7.70813 -7.5,-8.125 l -1.25,0 -1.25,2.5 m 72.5,-0.625 -5.625,12.5 c -4.58359,11.66687 -6.87516,24.16687 -6.875,37.5 -1.6e-4,9.58359 2.91641,14.37516 8.75,14.375 1.66641,1.6e-4 3.33313,-0.83281 5,-2.5 -6.25016,-2.49984 -9.37516,-7.70813 -9.375,-15.625 -1.6e-4,-5.83313 0.625,-11.87469 1.875,-18.125 l 5.625,-21.875 0.625,-6.25 m 96.875,0 -5,3.75 -10.625,10.625 -1.875,6.875 -1.875,3.75 c -0.41719,0.41719 -0.625,1.66687 -0.625,3.75 -3.1e-4,7.91687 3.95797,11.87531 11.875,11.875 4.16641,3.1e-4 6.24969,-1.25 6.25,-3.75 l -0.625,-3.75 -5.625,2.5 -0.625,0 c -2.91703,3.1e-4 -4.37531,-2.91641 -4.375,-8.75 -3.1e-4,-5.83313 4.37469,-14.79141 13.125,-26.875 m -129.375,10.625 -3.125,6.25 -8.75,18.125 c -3.33344,7.50031 -8.54187,11.25016 -15.625,11.25 -5.00016,1.6e-4 -7.08344,-2.29141 -6.25,-6.875 l 0,-3.125 c -4.16687,1.66687 -6.25016,3.75031 -6.25,6.25 -1.6e-4,5.83359 3.74984,8.75016 11.25,8.75 2.08313,1.6e-4 5.20813,-1.45781 9.375,-4.375 l 5.625,-3.125 3.125,-5 5,-12.5 4.375,-10 1.25,-5.625 m 263.75,1.25 0,5.625 c -0.41719,1.25 -4.7e-4,3.54187 1.25,6.875 l 2.5,5.625 c 3.33281,-2.08313 4.99953,-3.74969 5,-5 -4.7e-4,-0.83281 -0.625,-2.29141 -1.875,-4.375 l -1.875,-3.75 -5,-5 m -298.75,3.75 c -10.83344,14.58359 -21.45844,23.95859 -31.875,28.125 -2.91672,0.41719 -4.37516,1.25 -4.375,2.5 -1.6e-4,1.25 0.20781,2.08359 0.625,2.5 2.08328,-0.83281 3.95828,-1.66641 5.625,-2.5 1.66656,-0.83281 3.54156,-1.66641 5.625,-2.5 l 3.75,-4.375 3.75,-1.25 9.375,-8.125 3.75,-3.125 3.125,-5 2.5,-2.5 -1.875,-3.75 m -50,2.5 c -0.41719,1.25 -0.625,3.12531 -0.625,5.625 l 0,4.375 c -1.6e-4,15.00031 6.04156,26.66687 18.125,35 l 0,1.25 c 6.24984,3.33359 13.33328,5.20859 21.25,5.625 l 2.5,-0.625 3.75,-2.5 6.875,-2.5 3.125,-3.75 3.75,-3.75 0,-0.625 c -0.83281,-0.83281 -1.45781,-1.25 -1.875,-1.25 -0.83281,1.6e-4 -1.45781,0.20937 -1.875,0.625 l -10,8.75 c -1.66687,1.66687 -5.00016,2.50016 -10,2.5 -11.25016,1.6e-4 -19.79172,-5.41641 -25.625,-16.25 -4.58344,-9.99969 -6.87516,-17.29141 -6.875,-21.875 l 0.625,-2.5 0,-3.75 c -1.6e-4,-2.08313 -1.04219,-3.54141 -3.125,-4.375 m 205.625,6.875 -0.625,4.375 105.625,0.625 c -4.58375,-3.33313 -9.79203,-4.99969 -15.625,-5 l -5,0 -84.375,0 m -42.5,154.375 c -3.1e-4,6.66672 1.25,12.50016 3.75,17.5 l 3.125,5 -1.875,-11.875 0,-152.5 c -3.1e-4,-4.99969 3.12469,-7.91641 9.375,-8.75 l 1.25,-4.375 -3.75,0 c -7.91687,-0.41719 -11.87531,1.25 -11.875,5 l 0,150 m 88.75,-136.875 1.25,-1.875 2.5,0.625 c -0.83437,-4.99969 -2.50031,-7.49969 -5,-7.5 -2.50031,3.1e-4 -3.75031,1.45781 -3.75,4.375 -3.1e-4,0.83437 1.66625,2.29187 5,4.375 m 15.625,-3.75 c -6.66703,0.41719 -10.00031,3.33359 -10,8.75 -3.1e-4,2.91687 0.625,4.37516 1.875,4.375 -0.41719,1.6e-4 0.625,-0.41563 3.125,-1.25 l 0,1.875 c -0.41719,1.66687 -3.1e-4,2.50016 1.25,2.5 1.66625,1.6e-4 2.91625,-0.20781 3.75,-0.625 l 0,-1.25 c -0.83437,-1.25 -3.1e-4,-1.87484 2.5,-1.875 l 0,1.875 c -3.1e-4,1.25 0.41563,1.87516 1.25,1.875 1.66625,1.6e-4 2.70797,-1.45781 3.125,-4.375 l 2.5,0 0,2.5 c 2.91625,-1.25 4.79125,-3.54141 5.625,-6.875 l 1.25,0 0,3.75 c -3.1e-4,1.66687 0.625,3.33359 1.875,5 l 4.375,-2.5 c -0.83437,2.50016 -1.25,3.75016 -1.25,3.75 -3.1e-4,1.66687 0.83281,2.50016 2.5,2.5 0.83281,-0.41563 1.45781,-0.83281 1.875,-1.25 0.41563,-0.41719 0.83281,-0.83281 1.25,-1.25 l 0,4.375 3.75,0 2.5,0.625 c 2.08297,1.6e-4 3.12453,-2.08313 3.125,-6.25 -4.7e-4,-5.41641 -1.66703,-8.74984 -5,-10 l -8.125,-3.75 -3.75,-6.25 c -0.83437,3.1e-4 -1.66703,0.41719 -2.5,1.25 -0.41719,0.41719 -5.41703,1.25 -15,2.5 l -1.875,0 m -66.875,5 c 2.91641,2.91687 4.37469,5.83359 4.375,8.75 -3.1e-4,2.50016 -1.66703,5.62516 -5,9.375 -3.33359,3.33359 -5.00031,6.25016 -5,8.75 -3.1e-4,5.00016 1.45781,7.50016 4.375,7.5 l 0.625,0 10,-1.875 14.375,-0.625 c 4.16641,1.6e-4 9.79141,0.625 16.875,1.875 l 1.875,-2.5 -3.125,0 0.625,-3.125 3.75,1.875 1.875,-1.875 -3.125,-3.125 0.625,-1.875 5,1.25 -1.25,-4.375 -3.125,-2.5 c -0.83437,-0.41719 -3.33375,-1.04063 -7.5,-1.875 -3.75031,-0.83281 -5.62531,-1.66641 -5.625,-2.5 -3.1e-4,-1.25 0.83281,-1.87484 2.5,-1.875 -0.41719,1.6e-4 1.04219,0.41719 4.375,1.25 4.99969,2.08359 7.70797,3.12516 8.125,3.125 0.83281,1.6e-4 1.66625,1.6e-4 2.5,0 1.25,-0.41719 2.70797,-0.83281 4.375,-1.25 l -5,-5.625 5,1.875 1.875,1.25 0,-0.625 c 0.41563,-4.16641 -0.625,-6.87484 -3.125,-8.125 -2.08375,-1.66641 -4.37531,-3.12469 -6.875,-4.375 l -3.75,-0.625 c -2.08359,-0.41719 -3.75031,-0.625 -5,-0.625 -0.83437,-0.41563 -1.45781,-0.625 -1.875,-0.625 -2.08359,3.1e-4 -5.41703,0.83281 -10,2.5 -4.16703,1.25 -7.29203,1.87516 -9.375,1.875 l -1.25,0 c -0.83437,1.6e-4 -1.87531,1.6e-4 -3.125,0 -0.83437,1.6e-4 -2.08359,-0.20781 -3.75,-0.625 l -6.25,-0.625 m 163.125,33.75 5.625,0.625 0,-6.25 c -4.7e-4,-3.74984 -0.625,-8.54141 -1.875,-14.375 -0.41719,-1.66641 -0.83437,-3.12484 -1.25,-4.375 -0.41719,-1.66641 -0.83437,-3.12484 -1.25,-4.375 l -5,-1.25 3.75,30 m -46.875,-28.75 -5,0.625 1.25,1.875 c -3.75047,2.08359 -5.62547,3.95859 -5.625,5.625 l 0,2.5 6.25,-3.125 2.5,-3.75 1.25,-1.25 -0.625,-2.5 m 56.25,29.375 1.875,0.625 0,-5.625 c -0.83437,-8.74984 1.87453,-13.12484 8.125,-13.125 3.74953,1.6e-4 5.62453,1.87516 5.625,5.625 -4.7e-4,2.08359 -1.25,4.37516 -3.75,6.875 0.41563,0.41719 1.45781,0.625 3.125,0.625 4.58281,1.6e-4 6.87453,-2.91641 6.875,-8.75 -4.7e-4,-6.24984 -3.75047,-9.37484 -11.25,-9.375 -7.08375,1.6e-4 -10.62547,7.70859 -10.625,23.125 m -90.625,-20.625 c -1.25,1.6e-4 -1.87531,0.83437 -1.875,2.5 -3.1e-4,2.08359 1.04063,3.12516 3.125,3.125 1.25,1.6e-4 1.87469,-0.83281 1.875,-2.5 -3.1e-4,-1.25 -1.04219,-2.29141 -3.125,-3.125 m -15.625,10 c 2.08297,2.08359 3.54125,3.12516 4.375,3.125 3.33297,1.6e-4 5.41625,-3.12484 6.25,-9.375 -3.1e-4,-2.08313 -1.66703,-3.12484 -5,-3.125 -4.58375,1.6e-4 -6.45875,2.29187 -5.625,6.875 l 0,2.5 m 81.875,-2.5 2.5,0 c 3.74953,1.6e-4 6.87453,1.66687 9.375,5 -1.25,-6.66641 -3.75047,-9.99984 -7.5,-10 -2.91719,1.6e-4 -4.37547,1.45781 -4.375,4.375 l 0,0.625 m -91.25,-5 -2.5,1.875 c -0.41719,0.41719 -0.625,1.04219 -0.625,1.875 -3.1e-4,4.58359 2.29125,6.87516 6.875,6.875 1.66625,1.6e-4 2.49969,-2.08313 2.5,-6.25 -3.1e-4,-2.08313 -0.625,-3.12484 -1.875,-3.125 l -4.375,-1.25 m 47.5,2.5 c -0.83437,3.33359 -1.25,5.41687 -1.25,6.25 -4.7e-4,1.66687 1.25,3.12516 3.75,4.375 l 0,2.5 c -4.7e-4,2.08359 1.66625,3.12516 5,3.125 l -0.625,5 c 0.41563,0.41719 1.45781,0.625 3.125,0.625 l 3.125,0 c 0.41563,1.6e-4 0.625,0.20781 0.625,0.625 -4.7e-4,0.83437 -0.20937,1.25 -0.625,1.25 l -3.75,0.625 0,2.5 3.125,3.125 c -2.91703,1.25 -4.37547,2.29187 -4.375,3.125 0.41563,0.41719 0.625,0.83437 0.625,1.25 0.41563,0.41719 1.04063,1.04219 1.875,1.875 l 0,1.875 -0.625,0 c -1.66703,1.6e-4 -2.50047,0.41719 -2.5,1.25 -4.7e-4,1.66687 1.25,3.95844 3.75,6.875 l -1.875,0 0,2.5 c 1.66625,1.66687 3.33297,2.50016 5,2.5 1.25,1.6e-4 2.70797,-1.45781 4.375,-4.375 1.66625,-2.91656 2.70797,-5.62484 3.125,-8.125 l 1.875,-12.5 1.25,-5.625 -3.75,-3.125 -8.125,-12.5 c -2.50047,-3.74984 -6.04203,-5.62484 -10.625,-5.625 l -1.25,0 -1.25,0.625 m -13.125,1.25 -0.625,0 c -2.08375,1.6e-4 -3.12531,2.29187 -3.125,6.875 -3.1e-4,1.25 0.625,1.87516 1.875,1.875 2.08297,1.6e-4 3.33297,-1.45781 3.75,-4.375 l 0.625,-1.875 c -4.7e-4,-1.25 -0.83437,-2.08313 -2.5,-2.5 m -10.625,1.875 c -2.50031,0.83437 -3.75031,2.91687 -3.75,6.25 -3.1e-4,2.91687 0.625,4.37516 1.875,4.375 3.33297,1.6e-4 4.99969,-2.29141 5,-6.875 -3.1e-4,-2.49984 -0.83437,-3.74984 -2.5,-3.75 l -0.625,0 m 148.75,0.625 c -1.66719,3.33359 -2.50047,6.87516 -2.5,10.625 l 0,4.375 -3.75,1.25 c 1.25,7.50016 1.87453,12.50016 1.875,15 l 0,12.5 0,7.5 1.875,5 1.875,3.125 1.25,0.625 1.25,-4.375 0.625,-6.875 1.25,-15 c 0.41563,-9.16641 -0.83437,-20.41641 -3.75,-33.75 m 5.625,56.25 0.625,0 c 1.25,1.6e-4 2.29109,-1.66656 3.125,-5 l 0.625,-4.375 c 0.41563,-1.25 0.625,-2.70813 0.625,-4.375 -4.7e-4,-1.66656 0.20781,-3.12484 0.625,-4.375 l -0.625,-8.125 0.625,-5 0,-9.375 1.875,-5 0.625,-3.125 3.75,-3.75 -1.875,-1.25 -0.625,-0.625 c -1.66719,1.6e-4 -3.54219,1.25 -5.625,3.75 -1.66719,2.50016 -2.50047,4.58359 -2.5,6.25 l -0.625,36.875 -0.625,7.5 m -135,-52.5 c -5.00047,2.08359 -7.50047,5.00016 -7.5,8.75 -4.7e-4,2.91687 1.25,4.37516 3.75,4.375 3.33297,1.6e-4 4.99953,-2.91641 5,-8.75 -4.7e-4,0.41719 -0.41719,-1.04063 -1.25,-4.375 m -222.5,0 -4.375,12.5 -4.375,8.75 c -0.83281,3.33359 -1.25,5.41687 -1.25,6.25 -1.6e-4,5.00016 2.49984,7.50016 7.5,7.5 2.08313,1.6e-4 3.54156,-1.66656 4.375,-5 -4.58344,-0.83281 -6.87516,-2.91656 -6.875,-6.25 -1.6e-4,-3.33313 0.83281,-6.87484 2.5,-10.625 1.66656,-3.74984 2.49984,-6.87484 2.5,-9.375 l 0,-3.75 m 173.75,15 c 0.83281,-2.08313 1.45781,-3.95813 1.875,-5.625 0.41563,-2.08313 0.83281,-4.16641 1.25,-6.25 -3.1e-4,-1.25 -0.83437,-1.87484 -2.5,-1.875 -1.66703,1.6e-4 -2.50031,0.625 -2.5,1.875 l -1.25,3.125 -1.25,0 -0.625,6.25 c -3.1e-4,1.66687 1.66625,2.50016 5,2.5 m 143.125,9.375 c 0.41563,-9.99984 3.33281,-14.99984 8.75,-15 -4.7e-4,1.6e-4 1.25,0.41719 3.75,1.25 4.99953,3.33359 7.91609,6.04187 8.75,8.125 l 3.75,15.625 3.75,6.875 -0.625,-8.125 c -2.08391,-20.83313 -8.54219,-31.24984 -19.375,-31.25 -8.75047,1.6e-4 -13.12547,4.37516 -13.125,13.125 -4.7e-4,3.33359 1.45781,6.45859 4.375,9.375 m -295,-13.75 9.375,-3.125 c -1.6e-4,-3.33313 -1.87516,-4.99984 -5.625,-5 -2.91687,1.6e-4 -6.04187,1.04219 -9.375,3.125 -4.58359,3.33359 -6.87516,6.25016 -6.875,8.75 0.83281,1.25 1.45781,1.66687 1.875,1.25 l 0.625,0 1.25,0 8.75,-5 m 78.125,-6.875 c 0.83281,7.08359 3.54141,10.62516 8.125,10.625 -3.1e-4,1.6e-4 2.08297,-0.41719 6.25,-1.25 l -0.625,-2.5 3.125,-0.625 c -3.33359,-4.99984 -7.29203,-7.49984 -11.875,-7.5 -1.66687,1.6e-4 -2.70859,0.20937 -3.125,0.625 l -1.875,0.625 m 78.75,9.375 c 0.41563,0.41719 1.45781,0.625 3.125,0.625 3.33297,1.6e-4 4.99969,-2.49984 5,-7.5 -3.1e-4,-2.08313 -1.04219,-3.12484 -3.125,-3.125 -3.75031,1.6e-4 -5.41703,2.70859 -5,8.125 l 0,1.875 m 14.375,-8.125 c -1.25,1.6e-4 -2.50031,1.66687 -3.75,5 -0.41719,0.83437 -0.625,2.08359 -0.625,3.75 -3.1e-4,2.08359 1.04063,3.12516 3.125,3.125 4.16625,1.6e-4 6.24969,-2.29141 6.25,-6.875 -3.1e-4,-3.33313 -1.66703,-4.99984 -5,-5 m 16.25,13.75 c 1.66625,-2.91641 2.49969,-5.41641 2.5,-7.5 -3.1e-4,-2.91641 -1.04219,-4.37484 -3.125,-4.375 -5.00031,1.6e-4 -7.50031,3.33359 -7.5,10 -3.1e-4,2.08359 1.04063,3.12516 3.125,3.125 -3.1e-4,1.6e-4 1.66625,-0.41563 5,-1.25 m -235,-1.25 c -6.25016,2.08359 -10.41687,3.12516 -12.5,3.125 -5.83344,1.6e-4 -9.16672,-1.04063 -10,-3.125 l 0,-1.875 0.625,-6.875 -1.25,0 c -3.33344,1.6e-4 -5.00016,2.08359 -5,6.25 -1.6e-4,5.83359 4.16656,8.75016 12.5,8.75 4.99984,1.6e-4 10.20813,-2.08313 15.625,-6.25 m 170,-7.5 -6.25,0 -1.875,1.25 -6.875,-0.625 -6.25,3.125 -4.375,1.25 -1.25,2.5 -4.375,2.5 -2.5,5.625 -1.25,9.375 c 0.83281,7.08344 1.45781,12.08344 1.875,15 0.83281,2.50016 1.25,3.12516 1.25,1.875 -3.1e-4,2.50016 -0.83281,4.58344 -2.5,6.25 l -8.125,6.875 -1.875,4.375 c 4.16641,-1.25 7.49969,-1.87484 10,-1.875 6.24969,1.6e-4 10.41641,3.12516 12.5,9.375 l 5.625,9.375 c 6.66641,4.16672 12.91641,6.25016 18.75,6.25 10.83297,1.6e-4 20.20797,-6.45828 28.125,-19.375 3.33297,-5.83313 4.99969,-10.41656 5,-13.75 -3.1e-4,-1.25 -1.25,-2.29156 -3.75,-3.125 2.08297,-1.25 3.12469,-2.29156 3.125,-3.125 -3.1e-4,-3.33313 -1.25,-4.99984 -3.75,-5 -1.25,1.6e-4 -2.50031,0.625 -3.75,1.875 l -1.875,0 -0.625,-1.875 c 2.08297,-0.83281 3.54125,-1.87484 4.375,-3.125 l -5.625,-1.875 -18.125,5 -1.25,1.25 c -1.66703,-0.41719 -2.50031,-1.04219 -2.5,-1.875 -3.1e-4,-2.49984 2.91641,-4.37484 8.75,-5.625 l 8.75,-1.875 3.75,0 c 0.41563,-0.41719 0.83281,-0.625 1.25,-0.625 0.41563,-0.41719 0.83281,-0.83281 1.25,-1.25 l -2.5,-3.125 4.375,-0.625 0.625,-4.375 -5,0 0.625,-1.875 0.625,0 c 2.08297,1.6e-4 3.33297,-0.83281 3.75,-2.5 l -1.25,-1.875 -5.625,0 0,-1.25 c 2.49969,-0.41719 3.74969,-1.04063 3.75,-1.875 -3.1e-4,-1.25 -0.20937,-2.08313 -0.625,-2.5 -1.25,0.41719 -2.29203,0.83437 -3.125,1.25 -0.41719,1.6e-4 -0.625,1.6e-4 -0.625,0 -0.83437,1.6e-4 -1.87531,-0.625 -3.125,-1.875 l 3.125,-1.875 c -1.66703,-0.83281 -3.12531,-1.66641 -4.375,-2.5 -1.25,-0.83281 -2.70859,-1.66641 -4.375,-2.5 l -11.875,-0.625 m 81.875,1.25 c -0.83437,0.83437 -1.45937,2.08359 -1.875,3.75 l 0,1.875 c -4.7e-4,2.91687 1.25,4.37516 3.75,4.375 2.49953,1.6e-4 3.74953,-1.25 3.75,-3.75 -4.7e-4,-4.16641 -1.87547,-6.24984 -5.625,-6.25 m 33.75,11.875 c 7.08281,-4.58313 15.62453,-6.87484 25.625,-6.875 8.33281,1.6e-4 16.04125,2.50016 23.125,7.5 l 0,-0.625 c 0.83281,-7.08313 -8.33375,-10.62484 -27.5,-10.625 -14.16719,1.6e-4 -21.25047,3.54187 -21.25,10.625 m -233.125,-10.625 c -11.66687,2.91687 -18.12516,9.79187 -19.375,20.625 -0.41719,0.83281 -0.625,3.54187 -0.625,8.125 -1.25,20.41687 -7.08344,30.62516 -17.5,30.625 -6.25016,1.6e-4 -9.37516,-2.70813 -9.375,-8.125 -1.6e-4,-2.49984 0.625,-4.37484 1.875,-5.625 l 11.25,-9.375 c 0.83281,-0.83281 1.25,-1.66656 1.25,-2.5 -1.6e-4,-5.41656 -2.70844,-8.12484 -8.125,-8.125 -5.41687,1.6e-4 -8.12516,1.45781 -8.125,4.375 l 0.625,1.25 0.625,1.25 c 2.91656,-2.49984 5.62484,-3.74984 8.125,-3.75 2.49984,1.6e-4 3.74984,1.45781 3.75,4.375 -1.6e-4,2.50016 -1.66687,4.37516 -5,5.625 -9.16687,3.75016 -13.75016,8.54187 -13.75,14.375 -1.6e-4,10.83344 7.29156,16.66672 21.875,17.5 0.41719,-3.74984 3.74984,-7.29156 10,-10.625 1.66641,-1.25 3.12484,-2.91656 4.375,-5 1.25,-2.49984 2.08313,-3.74984 2.5,-3.75 1.25,1.6e-4 2.29141,0.41719 3.125,1.25 l 3.75,2.5 c 4.16641,-7.91656 6.24984,-13.54156 6.25,-16.875 -1.6e-4,-1.66656 -1.87516,-7.49984 -5.625,-17.5 -0.83281,-3.33313 -1.25,-4.99984 -1.25,-5 -1.6e-4,-2.08313 0.83281,-3.12484 2.5,-3.125 1.25,1.6e-4 2.08313,0.83437 2.5,2.5 l 1.25,6.875 1.25,1.875 2.5,5.625 c 3.33313,3.33344 5.83313,5.00016 7.5,5 4.16641,1.6e-4 6.24984,-1.45781 6.25,-4.375 l -5,-6.25 -0.625,-18.75 c -1.6e-4,-2.49984 -2.91687,-4.16641 -8.75,-5 m 190,3.125 c -2.08375,1.6e-4 -3.12547,1.66687 -3.125,5 -4.7e-4,4.58359 1.04063,6.87516 3.125,6.875 3.33297,1.6e-4 4.99953,-2.29141 5,-6.875 -4.7e-4,-3.33313 -1.66703,-4.99984 -5,-5 m -41.25,3.125 c -0.41719,0.41719 -0.625,1.87516 -0.625,4.375 -3.1e-4,2.50016 1.25,3.75016 3.75,3.75 4.58297,1.6e-4 6.87469,-1.66641 6.875,-5 -3.1e-4,-2.91641 -0.83437,-4.37484 -2.5,-4.375 l -1.875,-0.625 -5.625,1.875 m 100.625,8.75 c 2.49953,-1.25 4.37453,-1.87484 5.625,-1.875 9.58281,1.6e-4 14.37453,1.25 14.375,3.75 -4.7e-4,1.66687 -1.25,2.70844 -3.75,3.125 l 1.25,4.375 9.375,-3.125 c 3.33281,-0.83281 4.99953,-2.70813 5,-5.625 -4.7e-4,-2.91641 -3.95875,-5.83313 -11.875,-8.75 l -4.375,-0.625 c -1.25,-0.41719 -3.33375,-0.625 -6.25,-0.625 l -4.375,0 c -14.16719,1.6e-4 -21.25047,3.12516 -21.25,9.375 -4.7e-4,5.83344 4.58297,8.95844 13.75,9.375 2.08281,1.6e-4 3.12453,-1.45781 3.125,-4.375 -4.7e-4,-2.49984 -0.20937,-4.16656 -0.625,-5 m -87.5,-6.25 -0.625,3.75 c -3.1e-4,3.33344 1.04063,5.00016 3.125,5 3.74969,1.6e-4 5.62469,-1.66656 5.625,-5 -3.1e-4,-1.25 -0.20937,-2.08313 -0.625,-2.5 l -2.5,-2.5 c -0.83437,-0.83281 -1.45937,-1.04063 -1.875,-0.625 l -1.875,0.625 -1.25,1.25 m 10.625,10 c 0.41563,1.66687 1.66625,2.50016 3.75,2.5 4.58297,1.6e-4 6.87469,-2.49984 6.875,-7.5 -3.1e-4,-2.91641 -1.45937,-4.37484 -4.375,-4.375 -4.16703,1.6e-4 -6.25031,3.12516 -6.25,9.375 m 26.875,-5.625 c -2.50047,1.6e-4 -3.75047,1.66687 -3.75,5 -4.7e-4,2.50016 0.41563,3.75016 1.25,3.75 4.16625,1.6e-4 6.24953,-2.08313 6.25,-6.25 -4.7e-4,-1.66641 -1.25,-2.49984 -3.75,-2.5 m -298.75,6.875 c -1.25,-2.91656 -4.37516,-4.37484 -9.375,-4.375 -5.00016,1.6e-4 -7.50016,2.50016 -7.5,7.5 -1.6e-4,2.91687 1.04219,4.37516 3.125,4.375 l 3.75,0.625 -2.5,-3.75 0,-1.875 c -1.6e-4,-2.49984 1.87484,-3.74984 5.625,-3.75 0.83281,1.6e-4 1.66656,0.20781 2.5,0.625 1.25,1.6e-4 2.70828,0.20781 4.375,0.625 m 355,-2.5 -6.875,23.125 -11.875,23.125 -3.75,5 -1.875,2.5 -8.75,11.25 -6.875,6.25 -4.375,3.125 -4.375,3.75 c -0.83437,0.83281 -2.50047,2.08344 -5,3.75 -2.08375,1.25 -4.79203,2.91672 -8.125,5 -0.83437,0.41719 -1.66703,0.83281 -2.5,1.25 -0.83437,0.41719 -1.87547,1.04219 -3.125,1.875 l 1.25,1.875 c -4.7e-4,2.08344 0.625,3.12516 1.875,3.125 0.83281,1.6e-4 1.45781,-0.20781 1.875,-0.625 l 13.75,-8.75 c 10.41625,-6.24984 20.41625,-16.04156 30,-29.375 10.83281,-16.24984 16.87453,-26.45813 18.125,-30.625 l 1.875,-8.75 3.75,-11.25 0.625,-5.625 -5.625,0 m -104.375,0.625 c -2.50031,2.50016 -3.75031,4.79187 -3.75,6.875 -3.1e-4,4.16687 1.25,6.25016 3.75,6.25 3.74969,1.6e-4 5.62469,-2.91656 5.625,-8.75 -3.1e-4,-2.91656 -1.87531,-4.37484 -5.625,-4.375 m 145,0.625 0,5 -9.375,0 c -10.83375,0.83281 -16.25047,4.58344 -16.25,11.25 -4.7e-4,2.91687 0.625,5.83344 1.875,8.75 l 4.375,3.125 3.75,0.625 -3.125,-9.375 c -4.7e-4,-3.74984 2.70781,-5.62484 8.125,-5.625 4.16625,1.6e-4 7.29109,2.50016 9.375,7.5 2.08281,5.00016 3.12453,9.16687 3.125,12.5 -4.7e-4,2.91687 -0.20937,4.58344 -0.625,5 l -9.375,24.375 c -2.08375,6.25016 -3.12547,11.45844 -3.125,15.625 -4.7e-4,3.75016 1.45781,7.08344 4.375,10 5.83281,3.33344 9.79109,5.00016 11.875,5 11.24953,1.6e-4 16.87453,-4.37484 16.875,-13.125 -4.7e-4,-2.08328 -1.87547,-3.12484 -5.625,-3.125 l -2.5,0.625 c -0.41719,0.41719 -1.45937,0.625 -3.125,0.625 -2.08391,1.6e-4 -3.75047,0.20781 -5,0.625 -0.41719,-0.83281 -0.625,-2.49984 -0.625,-5 -4.7e-4,-2.08328 0.625,-4.37484 1.875,-6.875 l 5,-8.125 10.625,-18.75 0,-0.625 0,-4.375 2.5,-7.5 -8.125,-8.75 c -4.16719,-10.83313 -9.79219,-17.29156 -16.875,-19.375 m -115.625,10 c 1.66625,1.25 2.91625,1.87516 3.75,1.875 3.74953,1.6e-4 5.62453,-3.12484 5.625,-9.375 -4.7e-4,-1.66656 -0.83437,-2.49984 -2.5,-2.5 -4.16703,1.6e-4 -6.45875,3.33344 -6.875,10 m -233.125,-9.375 -11.25,5 -27.5,1.875 c -5.41672,0.41719 -10.41672,3.33344 -15,8.75 -4.58344,5.41687 -6.87516,11.25016 -6.875,17.5 -1.6e-4,9.16687 2.29156,15.41672 6.875,18.75 l 6.875,5 5,4.375 c 0.41719,2.50016 1.25,3.75016 2.5,3.75 0.41719,-0.41719 0.83281,-0.625 1.25,-0.625 0.41719,1.6e-4 0.83281,-0.20781 1.25,-0.625 l 1.25,-6.875 13.125,-5.625 c 4.58313,-2.08328 6.87484,-6.45813 6.875,-13.125 -1.6e-4,-8.33313 -3.75016,-12.49984 -11.25,-12.5 -4.16672,1.6e-4 -6.45844,2.50016 -6.875,7.5 1.66656,-2.49984 3.33328,-3.74984 5,-3.75 5.41656,1.6e-4 8.12484,3.12516 8.125,9.375 -1.6e-4,7.08344 -5.00016,10.62516 -15,10.625 -13.33344,1.6e-4 -20.00016,-6.04156 -20,-18.125 -1.6e-4,-4.99984 2.29156,-9.79156 6.875,-14.375 4.58328,-4.58313 9.37484,-6.87484 14.375,-6.875 l 25,-3.125 c 0.83281,1.6e-4 4.37484,-1.87484 10.625,-5.625 l -1.25,-1.25 m 215,0 -1.875,4.375 4.375,-1.875 -2.5,-2.5 m 7.5,6.875 c 1.25,2.08344 2.29125,3.12516 3.125,3.125 2.08297,1.6e-4 3.12469,-0.83281 3.125,-2.5 -0.41719,-0.83281 -0.83437,-1.45781 -1.25,-1.875 -3.1e-4,-0.41719 -3.1e-4,-0.625 0,-0.625 l -4.375,-2.5 -0.625,4.375 m 25,0 c -4.7e-4,5.41687 1.45781,8.12516 4.375,8.125 2.49953,1.6e-4 3.74953,-2.08313 3.75,-6.25 -4.7e-4,-2.08313 -0.83437,-3.12484 -2.5,-3.125 l -1.25,0 -4.375,1.25 m -31.25,2.5 c -5.00031,1.6e-4 -7.50031,1.87516 -7.5,5.625 -3.1e-4,3.75016 1.87469,5.62516 5.625,5.625 4.58297,1.6e-4 6.87469,-2.70813 6.875,-8.125 -3.1e-4,-2.08313 -1.66703,-3.12484 -5,-3.125 m 20,8.75 1.25,0.625 0,1.25 c -3.1e-4,2.91687 0.625,4.37516 1.875,4.375 4.58297,1.6e-4 6.87453,-3.33313 6.875,-10 -4.7e-4,-2.08313 -1.04219,-3.12484 -3.125,-3.125 -2.08375,1.6e-4 -4.37531,2.29187 -6.875,6.875 m 35,-4.375 0,1.875 c -4.7e-4,1.66687 1.45781,2.50016 4.375,2.5 1.66625,1.6e-4 4.99953,-1.04219 10,-3.125 -4.16703,-2.91656 -7.29203,-4.37484 -9.375,-4.375 -0.83437,1.6e-4 -1.66703,0.41719 -2.5,1.25 l -2.5,1.875 m -46.875,4.375 1.875,2.5 c 1.66625,1.25 2.91625,1.87516 3.75,1.875 l 2.5,-0.625 0,-1.875 c -3.1e-4,-4.58313 -0.83437,-7.08313 -2.5,-7.5 l -4.375,-0.625 -1.25,6.25 m 33.75,-1.25 1.25,3.75 -3.75,2.5 1.875,3.75 -4.375,0 -1.875,3.75 8.125,4.375 c 0.41563,0.41719 0.625,0.83281 0.625,1.25 -4.7e-4,0.83281 -0.41719,1.25 -1.25,1.25 -0.83437,1.6e-4 -2.29203,-0.83281 -4.375,-2.5 -2.08375,-2.08313 -3.75047,-3.12484 -5,-3.125 -1.25,1.6e-4 -1.87547,0.83281 -1.875,2.5 l 0,2.5 -5,-1.25 c 0.41563,2.08344 0.625,3.75016 0.625,5 0.41563,1.25 0.625,2.08344 0.625,2.5 l -0.625,9.375 0.625,1.25 c 0.83281,2.08344 2.91625,3.12516 6.25,3.125 1.66625,1.6e-4 2.70797,-0.20781 3.125,-0.625 l 8.75,-9.375 8.75,-0.625 c -2.08375,-3.33313 -3.12547,-5.83313 -3.125,-7.5 -4.7e-4,3.33344 0.625,-0.625 1.875,-11.875 l 0,-3.125 c 0.83281,-5.83313 -1.45937,-8.74984 -6.875,-8.75 -0.41719,0.41719 -0.83437,0.625 -1.25,0.625 -0.41719,1.6e-4 -0.83437,0.20781 -1.25,0.625 l -1.875,0.625 m -9.375,6.875 1.25,-0.625 c 2.08297,-0.83281 3.12453,-1.87484 3.125,-3.125 -4.7e-4,-1.25 -1.04219,-1.87484 -3.125,-1.875 -1.66703,1.6e-4 -2.08375,1.04219 -1.25,3.125 l 0,2.5 m -194.375,-3.125 -0.625,4.375 10.625,15.625 c 0.41563,0.41719 1.04063,0.625 1.875,0.625 0.83281,1.6e-4 1.25,-0.625 1.25,-1.875 -1.6e-4,-2.08313 -2.50016,-5.62484 -7.5,-10.625 -2.08359,-1.25 -3.95859,-3.95813 -5.625,-8.125 m 216.875,4.375 2.5,0 c -0.41719,1.66687 -0.83437,2.91687 -1.25,3.75 -4.7e-4,0.83281 -4.7e-4,1.25 0,1.25 -4.7e-4,-0.41719 0.41563,1.04219 1.25,4.375 l 1.875,0 c 1.25,-3.74984 2.91625,-5.62484 5,-5.625 1.25,1.6e-4 2.49953,1.45781 3.75,4.375 -1.66703,12.50016 -8.75047,23.95844 -21.25,34.375 l -8.125,6.25 -3.75,3.75 c 7.08297,-2.49984 14.79125,-8.54156 23.125,-18.125 9.99953,-11.24984 14.99953,-20.41656 15,-27.5 -4.7e-4,-6.66656 -2.91703,-9.99984 -8.75,-10 l -9.375,3.125 m -56.25,1.875 11.25,1.25 0,-2.5 c 0.41563,-2.91656 -0.83437,-4.37484 -3.75,-4.375 l -0.625,0.625 -0.625,0 -6.25,5 m 156.25,18.75 -2.5,5.625 -5,7.5 0,7.5 10.625,1.25 0.625,-5.625 c 1.66609,-11.24984 4.37453,-19.79156 8.125,-25.625 5.83281,-2.08313 8.74953,-4.58313 8.75,-7.5 -4.7e-4,-2.49984 -2.50047,-3.74984 -7.5,-3.75 -5.00047,1.6e-4 -7.70891,1.45781 -8.125,4.375 l -1.25,9.375 -3.75,6.875 m -126.25,-20.625 c -1.66703,1.25 -2.50047,2.29187 -2.5,3.125 -4.7e-4,0.83281 0.625,1.25 1.875,1.25 1.25,1.6e-4 1.87453,-0.41719 1.875,-1.25 -4.7e-4,0.41719 -0.41719,-0.625 -1.25,-3.125 m -10.625,1.25 c -2.50031,0.83281 -3.75031,1.87516 -3.75,3.125 -3.1e-4,2.50016 1.25,3.75016 3.75,3.75 2.91625,1.6e-4 4.37469,-1.45781 4.375,-4.375 -3.1e-4,-1.66656 -1.25,-2.49984 -3.75,-2.5 l -0.625,0 m 65,19.375 -13.75,18.125 -5,5 c -9.58375,9.58344 -15.62547,15.00016 -18.125,16.25 -5.00047,2.08344 -7.91703,3.75016 -8.75,5 -0.41719,1.25 -0.83437,1.87516 -1.25,1.875 l -1.875,0.625 1.25,1.25 0,0.625 c 2.08297,1.6e-4 4.99953,-1.66656 8.75,-5 4.16625,-3.74984 11.24953,-9.37484 21.25,-16.875 0.83281,1.6e-4 3.33297,-2.70828 7.5,-8.125 l 5.625,-6.25 c 3.74953,-3.74984 6.66625,-8.12484 8.75,-13.125 3.74953,-8.33313 7.91625,-12.49984 12.5,-12.5 2.49953,1.6e-4 3.74953,1.45781 3.75,4.375 -4.7e-4,1.66687 -0.20937,2.91687 -0.625,3.75 l 4.375,0 c 1.66625,-1.66656 2.49953,-3.74984 2.5,-6.25 -4.7e-4,-4.58313 -2.91719,-6.87484 -8.75,-6.875 -5.00047,1.6e-4 -11.04219,6.04187 -18.125,18.125 m -247.5,-17.5 c -0.41719,0.83281 -0.625,2.50016 -0.625,5 -1.6e-4,1.66687 1.25,3.75016 3.75,6.25 1.66641,3.75016 5.20813,8.95844 10.625,15.625 l 1.25,0 0,-8.75 -5,-4.375 -5.625,-8.75 -4.375,-5 m 163.75,2.5 0.625,5 -2.5,-0.625 c -3.1e-4,-2.49984 -0.625,-3.74984 -1.875,-3.75 -0.83437,1.6e-4 -1.66703,0.41719 -2.5,1.25 l -3.75,10 -6.25,8.125 -5.625,5.625 -8.125,8.125 -0.625,3.75 c -3.1e-4,5.41672 4.79125,8.12516 14.375,8.125 l 3.125,0 2.5,6.25 5,-5.625 13.125,-5.625 c 11.24969,-4.99984 16.87453,-13.33328 16.875,-25 -4.7e-4,-0.83281 -0.20937,-1.66656 -0.625,-2.5 -4.7e-4,-1.25 -0.20937,-2.70813 -0.625,-4.375 l -1.875,-1.875 0,4.375 -2.5,-1.25 c -0.41719,-2.49984 -1.66703,-4.16656 -3.75,-5 -2.08375,8.75016 -3.54203,13.12516 -4.375,13.125 -1.25,1.6e-4 -1.87531,-0.41719 -1.875,-1.25 l 0,-0.625 3.125,-5.625 c 0.41563,-0.41719 0.625,-1.45781 0.625,-3.125 -3.1e-4,-1.66656 -1.04219,-2.91656 -3.125,-3.75 l -1.875,-1.25 -3.125,5.625 c 0.41563,-0.83281 0.625,-2.49984 0.625,-5 -3.1e-4,-1.25 -1.66703,-2.29156 -5,-3.125 m -176.875,7.5 4.375,16.875 2.5,8.75 3.125,18.125 0,6.875 c -1.6e-4,2.50016 -0.83437,5.83344 -2.5,10 -1.25,3.75 -1.87516,6.66672 -1.875,8.75 -1.6e-4,0.41719 0.41719,0.625 1.25,0.625 3.74984,0 6.04141,-4.16656 6.875,-12.5 l 1.25,-15 c -1.6e-4,-4.99984 -1.25,-11.04156 -3.75,-18.125 -2.50016,-7.49984 -3.75016,-12.49984 -3.75,-15 -0.83281,-4.16656 -3.33359,-7.29156 -7.5,-9.375 m -3.125,4.375 1.25,7.5 1.875,8.125 c 0.41719,2.08344 0.625,3.95844 0.625,5.625 0.41719,1.66672 0.625,2.91672 0.625,3.75 -1.6e-4,10.00016 -3.95859,15.20844 -11.875,15.625 0.41719,2.91672 1.66656,4.37516 3.75,4.375 7.49984,1.6e-4 11.24984,-5.41656 11.25,-16.25 -1.6e-4,-10.41656 -1.66687,-18.54156 -5,-24.375 l -2.5,-5 0,0.625 m -5,3.75 c 1.25,3.75016 1.87484,7.08344 1.875,10 -1.6e-4,2.08344 -2.29187,3.54172 -6.875,4.375 -1.6e-4,2.50016 1.04219,3.75016 3.125,3.75 1.66656,1.6e-4 3.74984,-1.45781 6.25,-4.375 l -0.625,-9.375 -3.125,-4.375 -0.625,0 m 264.375,16.25 -11.875,11.875 c 0.41563,0.41719 0.83281,0.625 1.25,0.625 0.41563,1.6e-4 0.83281,0.20781 1.25,0.625 1.25,1.6e-4 2.49953,-1.25 3.75,-3.75 1.66625,-4.16656 4.58281,-6.24984 8.75,-6.25 l 10,-5.625 c 0.83281,-0.83281 2.49953,-1.25 5,-1.25 3.33281,1.6e-4 6.66625,1.87516 10,5.625 1.25,2.50016 1.87453,4.58344 1.875,6.25 -4.7e-4,4.58344 -3.12547,7.70844 -9.375,9.375 -0.41719,0.41719 -1.66719,0.625 -3.75,0.625 -4.16719,1.6e-4 -6.87547,-0.20781 -8.125,-0.625 4.16625,4.16672 7.91625,6.25016 11.25,6.25 4.99953,1.6e-4 9.37453,-1.87484 13.125,-5.625 4.16625,-3.74984 6.24953,-7.91656 6.25,-12.5 -4.7e-4,-2.08328 -0.83437,-4.58328 -2.5,-7.5 2.49953,-0.41719 3.74953,-1.87484 3.75,-4.375 -5.83375,-5.83328 -10.83375,-8.74984 -15,-8.75 -8.33375,1.6e-4 -15.83375,3.75016 -22.5,11.25 l -3.125,3.75 m -165.625,0.625 c 2.91641,-2.91656 5.62469,-4.37484 8.125,-4.375 5.41641,1.6e-4 8.12469,2.70844 8.125,8.125 -3.1e-4,7.08344 -4.79203,10.62516 -14.375,10.625 -3.33359,1.6e-4 -7.29187,-0.83281 -11.875,-2.5 -3.1e-4,5.83344 4.58313,8.75016 13.75,8.75 4.99969,1.6e-4 9.37469,-1.66656 13.125,-5 4.16641,-3.33328 6.24969,-7.29156 6.25,-11.875 -3.1e-4,-9.16656 -5.00031,-13.74984 -15,-13.75 -5.41687,1.6e-4 -8.12531,2.70844 -8.125,8.125 l 0,1.875 m 114.375,-4.375 -1.25,3.75 -1.25,0 -1.25,-2.5 c -2.50031,3.33344 -3.75031,6.45844 -3.75,9.375 -3.1e-4,3.33344 1.87469,6.45844 5.625,9.375 l 2.5,-6.875 3.125,-5 c 0.41563,-0.41719 0.625,-1.45781 0.625,-3.125 -4.7e-4,-2.08328 -1.45937,-3.74984 -4.375,-5 m -64.375,7.5 -7.5,3.75 -0.625,-2.5 4.375,-1.875 c -0.83437,-0.83281 -1.87531,-1.25 -3.125,-1.25 -3.75031,1.6e-4 -6.87531,1.66672 -9.375,5 -1.25,2.08344 -1.87531,3.75016 -1.875,5 -3.1e-4,2.08344 0.625,3.12516 1.875,3.125 l 1.875,0 7.5,-3.75 6.25,-1.875 0.625,-5.625 m -241.25,10 c 0.41719,-4.16656 2.29156,-6.24984 5.625,-6.25 4.99984,1.6e-4 7.49984,2.91672 7.5,8.75 -1.6e-4,1.25 -0.20781,2.08344 -0.625,2.5 -1.66672,5.41672 -2.50016,10.83344 -2.5,16.25 l 0,5 c -1.6e-4,2.5 0.20781,4.375 0.625,5.625 0.41719,-4.58328 1.04219,-9.16656 1.875,-13.75 1.25,-4.58328 2.70828,-9.16656 4.375,-13.75 0.83281,-3.33328 1.25,-4.99984 1.25,-5 -1.6e-4,-7.08328 -3.95844,-10.62484 -11.875,-10.625 -5.00016,1.6e-4 -7.50016,1.87516 -7.5,5.625 -1.6e-4,0.41719 0.41719,2.29172 1.25,5.625 m 52.5,-9.375 c 2.91656,2.08344 5.41656,3.33344 7.5,3.75 6.66656,2.91672 9.99984,5.62516 10,8.125 -1.6e-4,1.66672 -0.41719,2.50016 -1.25,2.5 -1.25,-0.41719 -3.75016,-2.29156 -7.5,-5.625 -3.75016,-3.74984 -9.37516,-5.83328 -16.875,-6.25 l -1.875,0 c -10.83344,-0.83281 -18.12516,3.75016 -21.875,13.75 5.41656,-2.91656 10.41656,-4.37484 15,-4.375 4.99984,1.6e-4 9.58313,2.08344 13.75,6.25 l 0,3.125 1.875,1.25 0,5.625 -1.25,1.25 -0.625,3.75 -3.75,1.875 0,0.625 c -1.6e-4,4.16672 2.29156,6.25 6.875,6.25 l 7.5,0.625 0,12.5 8.75,6.25 0,-3.75 0,-3.125 c -1.6e-4,-1.66656 0.41719,-2.91656 1.25,-3.75 l 11.25,-11.875 c 3.33313,-3.33328 4.99984,-7.49984 5,-12.5 l 0,-2.5 -3.75,-9.375 3.125,-6.25 0.625,-5 -21.25,-0.625 c -4.16687,-2.08328 -7.29187,-2.91656 -9.375,-2.5 l -3.125,0 m 368.125,6.25 c 10.41609,2.08344 17.70781,5.20844 21.875,9.375 l 1.875,5 c -4.16719,1.6e-4 -7.29219,1.25 -9.375,3.75 -1.66719,2.50016 -2.70891,3.75016 -3.125,3.75 -4.7e-4,1.6e-4 -1.25,-0.41719 -3.75,-1.25 1.25,5.00016 3.12453,7.5 5.625,7.5 2.08281,0 4.99953,-1.875 8.75,-5.625 l 3.75,0.625 0,1.875 c -0.83437,3.75 1.45781,6.66672 6.875,8.75 l -0.625,-8.125 0.625,-5.625 -2.5,-4.375 -2.5,-1.25 c -2.08391,-8.33328 -5.00047,-13.12484 -8.75,-14.375 l -8.125,-2.5 -8.75,0 -1.875,2.5 m -174.375,3.125 -3.125,3.75 c -6.66703,8.33344 -18.54203,12.91672 -35.625,13.75 l -10.625,-2.5 c -1.66687,-0.41719 -3.12531,-0.83281 -4.375,-1.25 -1.25,-0.41719 -2.70859,-1.04219 -4.375,-1.875 l -6.25,-3.125 c 1.66641,10.41672 4.99969,16.66672 10,18.75 2.91641,0.83281 6.45797,1.66672 10.625,2.5 4.16641,0.83281 9.16641,2.08344 15,3.75 5.41641,0.83281 9.37469,1.66672 11.875,2.5 2.91641,0.41719 4.79141,0.625 5.625,0.625 l 48.125,-0.625 c 12.49969,0 21.24953,1.45781 26.25,4.375 5.41625,2.91672 8.12453,7.70844 8.125,14.375 l 0,1.25 1.25,0.625 c 4.16625,-5.41656 6.24953,-9.58328 6.25,-12.5 -4.7e-4,0.41719 -0.41719,-1.45781 -1.25,-5.625 l 5.625,-0.625 c -2.08375,-11.25 -10.20875,-16.87484 -24.375,-16.875 -2.91703,1.6e-4 -5.83375,0.83281 -8.75,2.5 l -1.25,0 c -1.25,0.41719 -2.08375,-0.20781 -2.5,-1.875 2.08297,-1.25 3.95797,-3.33328 5.625,-6.25 -3.33375,-1.66656 -6.87531,-2.49984 -10.625,-2.5 -5.41703,1.6e-4 -10.20875,1.45781 -14.375,4.375 l -4.375,0.625 -4.375,3.75 c -4.16703,2.91672 -10.62531,4.79172 -19.375,5.625 l -1.25,0 -3.75,0 -1.25,-2.5 c 7.08297,0 11.66625,-3.12484 13.75,-9.375 l -3.75,0 -1.25,-2.5 c 2.08297,-3.33328 3.12469,-5.83328 3.125,-7.5 -3.1e-4,-1.25 -1.45937,-3.12484 -4.375,-5.625 m 73.125,18.75 c 0.41563,0.41719 1.25,0.625 2.5,0.625 0.41563,1.6e-4 2.08297,-1.25 5,-3.75 2.91625,-2.91656 4.79125,-4.58328 5.625,-5 7.08297,-3.33328 10.62453,-5.83328 10.625,-7.5 -4.7e-4,-1.66656 -0.625,-2.49984 -1.875,-2.5 -0.41719,1.6e-4 -1.25,0.83281 -2.5,2.5 -1.66703,2.08344 -4.16703,4.58344 -7.5,7.5 -2.91703,2.50016 -6.87547,5.20844 -11.875,8.125 m -58.125,0.625 c 9.16625,-5.41656 17.91625,-8.12484 26.25,-8.125 l 2.5,0 c 1.66625,1.6e-4 3.12469,0.20781 4.375,0.625 -2.50031,-3.33328 -5.41703,-4.99984 -8.75,-5 -6.25031,1.6e-4 -11.04203,1.04219 -14.375,3.125 l -6.25,5 c -1.25,0.83281 -2.29203,1.45781 -3.125,1.875 -0.41719,0.41719 -0.625,0.625 -0.625,0.625 l 0,1.875 m -235,-11.25 -0.625,-0.625 -1.25,0.625 c -6.66672,6.66672 -10.00016,13.54172 -10,20.625 -1.6e-4,12.08344 4.37484,22.70844 13.125,31.875 9.16656,8.75 19.99984,13.125 32.5,13.125 2.91656,0 9.37484,-1.66656 19.375,-5 6.24984,-1.66656 9.37484,-3.54156 9.375,-5.625 -1.6e-4,-1.66656 -0.83281,-2.29156 -2.5,-1.875 l -0.625,0 -2.5,0 -17.5,5.625 c -1.25,0.41719 -3.33344,0.625 -6.25,0.625 -10.83344,0 -20.20844,-3.54156 -28.125,-10.625 -7.91672,-7.5 -11.87516,-16.04156 -11.875,-25.625 -1.6e-4,-7.08328 2.29156,-14.79156 6.875,-23.125 m 371.25,3.125 c -1.25,2.50016 -1.87547,4.58344 -1.875,6.25 -4.7e-4,1.25 1.04063,2.91672 3.125,5 -4.7e-4,-2.49984 1.04063,-4.16656 3.125,-5 l 0,4.375 c -0.83437,3.33344 2.49953,5.41672 10,6.25 l 0.625,-2.5 1.875,0 -0.625,3.125 c 3.74953,-1.25 5.62453,-2.91656 5.625,-5 -4.7e-4,-2.08328 -1.87547,-3.12484 -5.625,-3.125 l -0.625,0 c -5.83391,-1.66656 -11.04219,-4.79156 -15.625,-9.375 m -58.75,1.875 -1.25,1.875 1.875,0 c 4.16625,-0.41719 7.08297,1.45781 8.75,5.625 0.41563,-0.83281 0.625,-2.70828 0.625,-5.625 -4.7e-4,-2.49984 -1.45937,-3.74984 -4.375,-3.75 -1.25,1.6e-4 -2.08375,0.20781 -2.5,0.625 l -3.125,1.25 m 44.375,-1.25 c 1.25,7.91672 3.33281,11.875 6.25,11.875 l 3.75,-0.625 0,-2.5 -1.875,-1.875 1.25,-0.625 0.625,-1.875 0,-0.625 c -4.7e-4,-2.91656 -3.12547,-4.16656 -9.375,-3.75 l -0.625,0 m -48.125,1.875 -3.125,4.375 5,-2.5 -1.875,-1.875 m 30.625,16.25 c 2.49953,3.33344 3.74953,6.25 3.75,8.75 -4.7e-4,7.08344 -3.33375,11.875 -10,14.375 l -16.875,5.625 -2.5,3.125 c 23.33281,-3.75 34.99953,-12.08328 35,-25 -4.7e-4,-10.83328 -5.62547,-16.24984 -16.875,-16.25 -7.91703,1.6e-4 -11.87547,4.58344 -11.875,13.75 -4.7e-4,6.25 2.49953,9.375 7.5,9.375 l 0.625,0 c -0.41719,-0.41719 -1.25,-3.54156 -2.5,-9.375 l 0,-1.875 c -4.7e-4,-3.75 2.08281,-5.625 6.25,-5.625 1.66625,0 4.16625,1.04219 7.5,3.125 m 75.625,-5.625 0.625,0.625 c -2.91719,0.41719 -4.37547,1.875 -4.375,4.375 -4.7e-4,3.75 1.45781,5.83344 4.375,6.25 2.08281,0 3.12453,-1.45781 3.125,-4.375 -4.7e-4,-3.75 -1.25,-6.04156 -3.75,-6.875 m -49.375,2.5 c -2.08375,2.08344 -3.12547,3.95844 -3.125,5.625 -4.7e-4,0.41719 -4.7e-4,1.25 0,2.5 0.41563,1.25 0.83281,2.91672 1.25,5 l 1.25,3.75 0.625,1.875 6.875,0 c 9.16609,0.41719 13.74953,-1.875 13.75,-6.875 -4.7e-4,-2.08328 -1.66719,-4.16656 -5,-6.25 l -3.75,-1.25 -2.5,3.125 0,-4.375 -1.875,-1.875 -7.5,-1.25 m -360,23.75 c 7.91656,8.75 17.49984,12.70844 28.75,11.875 l 2.5,0 3.125,-0.625 10.625,-3.125 c -0.83281,-0.83281 -1.66687,-1.25 -2.5,-1.25 -0.83281,0.41719 -1.87516,0.83281 -3.125,1.25 -0.83281,0 -2.08344,0.41719 -3.75,1.25 l -5.625,0 c -18.75016,0 -28.12516,-6.04156 -28.125,-18.125 -1.6e-4,-4.58328 2.91656,-6.875 8.75,-6.875 l 1.25,0.625 c -2.08344,-5 -4.58344,-7.5 -7.5,-7.5 -6.25016,0 -9.37516,3.95844 -9.375,11.875 -1.6e-4,2.5 1.66656,6.04172 5,10.625 m 395,-21.875 -8.125,0.625 0,3.125 -3.125,1.875 c 0.41563,3.75 1.87453,5.625 4.375,5.625 2.08281,0 3.33281,-0.20781 3.75,-0.625 4.58281,-2.5 6.87453,-5 6.875,-7.5 -0.41719,-1.66656 -0.83437,-2.5 -1.25,-2.5 l -3.75,-1.25 1.25,0.625 m -40.625,31.875 c -6.66719,2.08344 -11.45875,4.16672 -14.375,6.25 -2.91719,1.66672 -4.79219,2.5 -5.625,2.5 l -24.375,5 2.5,1.875 10,-0.625 4.375,0 5.625,-1.875 12.5,-5 30.625,-13.75 10,-1.875 c 2.08281,-0.41719 3.54109,-0.625 4.375,-0.625 1.25,-0.41719 1.66609,-0.625 1.25,-0.625 1.66609,0 4.16609,1.04219 7.5,3.125 2.49953,3.33344 3.74953,6.25 3.75,8.75 -4.7e-4,4.16672 -2.70891,6.25 -8.125,6.25 -2.50047,0 -6.04219,-2.29156 -10.625,-6.875 -2.08391,-2.08328 -3.54219,-3.125 -4.375,-3.125 l -1.25,0 -3.75,0.625 -4.375,0 c -1.66719,0 -3.33375,2.08344 -5,6.25 -1.25,2.08344 -1.87547,4.16672 -1.875,6.25 -4.7e-4,7.08328 3.33281,10.625 10,10.625 2.49953,0 3.95781,-1.45781 4.375,-4.375 -6.25047,0 -9.37547,-2.5 -9.375,-7.5 -4.7e-4,-4.16656 2.29125,-6.25 6.875,-6.25 l 1.875,0.625 13.75,10 c 1.66609,1.25 3.74953,1.875 6.25,1.875 4.58281,0 7.29109,-0.625 8.125,-1.875 l 5,-7.5 5,-3.125 0,-5 -2.5,-6.25 c -2.50047,-6.25 -8.95891,-9.375 -19.375,-9.375 -6.66719,0 -17.91719,4.16672 -33.75,12.5 -0.83437,0.83281 -2.50047,1.875 -5,3.125 m 0,-15.625 c -15.41719,11.66672 -27.70875,18.125 -36.875,19.375 -9.16703,1.25 -13.75047,2.91672 -13.75,5 -4.7e-4,2.5 1.25,3.75 3.75,3.75 2.08297,0 3.54125,-0.20781 4.375,-0.625 l 7.5,-1.25 c 3.33281,-0.83281 6.24953,-1.66656 8.75,-2.5 2.91625,-0.83281 5.41625,-1.66656 7.5,-2.5 l 23.75,-12.5 5,-4.375 -3.125,0.625 c -2.50047,0 -4.79219,-1.66656 -6.875,-5 m -153.75,1.875 c -3.33359,4.58344 -9.37531,6.875 -18.125,6.875 l -9.375,0 c -9.16687,-0.83281 -16.66687,-1.45781 -22.5,-1.875 -5.41687,-0.41719 -9.16687,-0.625 -11.25,-0.625 l -20,-0.625 -56.875,1.875 c -4.58344,0 -10.41687,-1.04219 -17.5,-3.125 1.25,5 5.83313,7.5 13.75,7.5 l 12.5,0.625 27.5,-2.5 63.75,1.25 15.625,1.875 4.375,0.625 c 14.58297,0.83281 21.87469,-1.875 21.875,-8.125 -3.1e-4,-0.41719 -1.25,-1.66656 -3.75,-3.75 m 71.25,15.625 1.25,-2.5 c -11.66703,-7.91656 -20.41703,-11.875 -26.25,-11.875 -10.83375,0 -16.25031,5.83344 -16.25,17.5 -3.1e-4,4.16672 1.45781,7.91672 4.375,11.25 3.33297,3.33328 6.87469,5 10.625,5 8.33297,0 13.12469,-2.91672 14.375,-8.75 l 1.25,-8.125 0,-1.875 -1.875,-0.625 -1.875,6.875 -0.625,1.25 -3.125,5 -1.875,1.875 -1.25,0.625 -0.625,-0.625 -1.875,-0.625 -6.875,-0.625 c -4.58375,-0.83281 -6.87531,-4.375 -6.875,-10.625 -3.1e-4,-8.33328 4.79125,-12.5 14.375,-12.5 1.66625,0 7.49969,2.29172 17.5,6.875 0.83281,0.41719 1.66625,0.83281 2.5,1.25 0.83281,0.41719 1.87453,0.83281 3.125,1.25 m -5,-11.25 2.5,1.875 5.625,1.875 c 1.25,0.41719 2.29125,2.08344 3.125,5 0.83281,2.5 1.25,4.375 1.25,5.625 -4.7e-4,3.75 -3.54203,7.29172 -10.625,10.625 1.66625,1.25 3.33297,1.875 5,1.875 6.24953,0 9.37453,-4.16656 9.375,-12.5 -4.7e-4,-10.41656 -3.95875,-15.625 -11.875,-15.625 l -1.25,0 -3.125,1.25 m -133.125,9.375 c -1.66687,1.66672 -3.33359,3.33344 -5,5 -1.66687,1.25 -3.33359,2.91672 -5,5 0.41563,1.25 1.04063,2.70844 1.875,4.375 -2.91687,2.91672 -6.25031,4.375 -10,4.375 -12.50016,0 -22.08359,-5 -28.75,-15 -0.83437,-2.5 -1.87516,-3.75 -3.125,-3.75 -1.25,0 -1.87516,0.625 -1.875,1.875 -1.6e-4,0.41719 0.625,1.45781 1.875,3.125 l 3.75,5.625 3.125,1.875 8.125,5.625 10.625,2.5 c 4.16641,0.83281 6.45813,1.25 6.875,1.25 1.25,0 2.91641,-0.41719 5,-1.25 2.08313,-0.83281 3.33313,-1.25 3.75,-1.25 -0.41719,0 0.625,0.41719 3.125,1.25 l 3.75,1.875 10.625,-1.875 10,0 0,-1.875 -1.25,-1.25 -3.75,-1.875 -11.25,-3.75 1.25,-6.875 -3.75,-5 m -65.625,12.5 c -0.41719,5.41672 -2.08359,8.125 -5,8.125 -4.58344,0 -6.87516,-2.5 -6.875,-7.5 -1.6e-4,-1.25 0.20781,-1.875 0.625,-1.875 l 8.125,-9.375 -1.25,-1.25 -5,4.375 -3.75,5 c -1.25,1.25 -1.87516,2.91672 -1.875,5 -1.6e-4,6.25 3.12484,9.375 9.375,9.375 5.41641,0 8.12484,-2.91672 8.125,-8.75 -1.6e-4,-1.66656 -0.83281,-2.70828 -2.5,-3.125 m -97.5,3.125 c 1.66656,-6.66656 5.41656,-10 11.25,-10 0.41719,0 2.70828,0.41719 6.875,1.25 l 15,5 6.875,0.625 -5,-3.125 -5.625,-1.25 -11.875,-5.625 c -2.50016,-1.25 -5.20844,-1.875 -8.125,-1.875 -7.08344,0 -10.62516,2.5 -10.625,7.5 -1.6e-4,0.41719 -1.6e-4,1.25 0,2.5 0.41719,1.25 0.83281,2.91672 1.25,5 m 143.125,-14.375 c 0.83281,3.33344 1.25,4.79172 1.25,4.375 -3.1e-4,3.33344 -2.70859,5.625 -8.125,6.875 3.33313,0.83281 4.99984,1.25 5,1.25 4.16641,0 6.24969,-3.33328 6.25,-10 -3.1e-4,-1.25 -1.45781,-2.08328 -4.375,-2.5 m 55.625,0 -0.625,0.625 0,0.625 c -3.1e-4,2.08344 0.625,3.125 1.875,3.125 2.08297,0 3.12469,-0.83281 3.125,-2.5 l -0.625,-0.625 c -3.1e-4,-0.41719 -0.20937,-0.83281 -0.625,-1.25 l -2.5,0 -0.625,0 m 14.375,2.5 c -0.83281,-0.83281 -1.66703,-1.25 -2.5,-1.25 -0.41719,-0.41719 -0.625,-0.625 -0.625,-0.625 -1.66703,0 -2.50031,1.04219 -2.5,3.125 -3.1e-4,2.08344 1.04219,3.125 3.125,3.125 1.25,0 2.08297,-1.45781 2.5,-4.375 m -41.25,2.5 0,2.5 6.25,-2.5 c 0.41719,-0.41719 1.87469,-0.625 4.375,-0.625 2.08313,0 6.04141,0.625 11.875,1.875 -0.83437,-3.75 -4.79187,-5.625 -11.875,-5.625 l -3.125,0.625 -7.5,3.75 m 51.875,9.375 -1.25,1.875 5,1.25 1.875,-1.25 3.125,0 9.375,-9.375 c 1.25,-1.25 3.33297,-1.875 6.25,-1.875 2.91625,0 4.37469,1.45781 4.375,4.375 -3.1e-4,0.41719 -0.41719,2.29172 -1.25,5.625 l 1.875,0.625 c 2.08297,0 3.12469,-2.29172 3.125,-6.875 -3.1e-4,-4.58328 -3.12531,-6.875 -9.375,-6.875 -3.33359,0 -7.08359,2.5 -11.25,7.5 -3.33359,3.33344 -6.25031,5 -8.75,5 l -3.125,0 m -9.375,-5 c -1.66703,0 -2.50031,0.83281 -2.5,2.5 -3.1e-4,1.66672 1.04063,2.5 3.125,2.5 2.08297,0 3.12469,-1.04219 3.125,-3.125 -3.1e-4,-1.25 -1.04219,-1.875 -3.125,-1.875 l -0.625,0 m -25,0.625 -0.625,0 c -0.41719,0.41719 -0.625,1.04219 -0.625,1.875 -0.41719,1.66672 0.41563,2.5 2.5,2.5 1.66641,0 2.49969,-0.625 2.5,-1.875 -3.1e-4,-1.66656 -1.25,-2.5 -3.75,-2.5 m 18.75,6.25 c -1.66703,0 -2.50031,0.625 -2.5,1.875 -3.1e-4,1.66672 1.04063,2.5 3.125,2.5 2.08297,0 3.12469,-0.83281 3.125,-2.5 -3.1e-4,-2.08328 -1.04219,-2.70828 -3.125,-1.875 l -0.625,0 m -10.625,0 c -0.41719,0 -1.04219,0.41719 -1.875,1.25 l 0,1.25 c -3.1e-4,2.08328 1.04219,3.125 3.125,3.125 1.66641,0 2.49969,-0.625 2.5,-1.875 l 0,-1.25 c -0.41719,-1.66672 -1.66703,-2.5 -3.75,-2.5 m 16.25,-134.375 c 0.41719,1.6e-4 1.87469,-0.41719 4.375,-1.25 2.91641,-1.25 4.37469,-1.66656 4.375,-1.25 -3.1e-4,0.83281 -1.25,2.29187 -3.75,4.375 -2.50031,2.08344 -3.95859,3.12516 -4.375,3.125 -2.08359,1.6e-4 -3.12531,-0.83281 -3.125,-2.5 -3.1e-4,-1.66656 0.83281,-2.49984 2.5,-2.5 m -146.875,71.25 c 3.74984,1.6e-4 5.62484,0.625 5.625,1.875 -1.6e-4,3.33344 -1.66687,5.00016 -5,5 -1.66687,1.6e-4 -2.70844,-0.83281 -3.125,-2.5 l 0,-0.625 c -1.6e-4,-2.49984 0.83281,-3.74984 2.5,-3.75 m 307.5,-386.875 5.625,1.875 c -4.7e-4,2.50047 -2.08375,3.75047 -6.25,3.75 -1.66719,4.7e-4 -2.50047,-0.83281 -2.5,-2.5 0.83281,-2.08281 1.45781,-3.12453 1.875,-3.125 l 1.25,0 m 11.25,1.875 -5,1.875 c -4.7e-4,1.66719 -1.04219,2.91719 -3.125,3.75 l 1.25,-0.625 -1.875,-0.625 1.875,-4.375 6.875,0 m 5.625,5.625 -8.125,1.25 0.625,-4.375 7.5,3.125 m 40,11.875 -5.625,3.75 1.875,-3.75 -0.625,3.125 -8.75,-0.625 0.625,-3.125 12.5,0.625 m -36.875,3.125 3.125,5 1.875,4.375 6.25,1.875 c -4.7e-4,-0.41563 -1.45937,0.625 -4.375,3.125 -4.7e-4,0.83437 -0.83437,1.45937 -2.5,1.875 l -3.125,-10.625 -4.375,-4.375 -0.625,-0.625 0,-0.625 1.25,-1.25 2.5,1.25 m -349.375,23.75 8.125,5 -6.25,4.375 -1.875,-9.375 m 30,1.875 6.875,6.875 -0.625,4.375 -6.25,-11.25 m 3.75,16.25 4.375,4.375 -10,4.375 5.625,-8.75 m 325,11.875 -4.375,10 -0.625,-4.375 2.5,-6.875 2.5,1.25 m 3.75,2.5 0,3.125 c -4.7e-4,0.83437 0.625,1.66703 1.875,2.5 1.25,0.41719 1.45781,0.83437 0.625,1.25 l -2.5,-6.875 m 14.375,8.125 6.25,-1.25 -5.625,-0.625 3.125,-0.625 -3.75,2.5 m 3.75,4.375 -6.875,-0.625 3.125,-0.625 3.75,1.25 m 2.5,7.5 10.625,-4.375 c -1.66719,1.66703 -3.33391,3.33375 -5,5 -1.66719,1.25 -3.33391,2.91703 -5,5 -0.41719,4.16703 -3.12547,6.25031 -8.125,6.25 0.41563,3.1e-4 1.66609,-1.25 3.75,-3.75 2.49953,-2.49969 3.74953,-5.20797 3.75,-8.125 m -15,2.5 3.125,-0.625 6.875,-1.25 -10,1.875 m -9.375,7.5 4.375,7.5 c -4.58391,3.1e-4 -6.87547,-0.20781 -6.875,-0.625 l 0,-1.25 1.25,-9.375 1.25,3.75 m -88.125,6.25 -0.625,1.25 c -6.25047,-5.41625 -9.37547,-8.74969 -9.375,-10 -4.7e-4,-0.41563 0.20781,-0.625 0.625,-0.625 l 0.625,0 8.75,9.375 m -85,-8.125 4.375,1.25 10,1.25 -1.25,1.875 0,1.875 -3.125,0 -3.125,-1.875 -6.25,-2.5 -0.625,-1.875 m 52.5,7.5 c 0.83281,2.91703 -1.45937,6.45875 -6.875,10.625 l 3.125,-5.625 0.625,-5.625 3.125,0.625 m 3.125,1.25 5,0 c 0.83281,3.33375 -0.83437,6.45875 -5,9.375 l 0,-9.375 m 8.75,4.375 -1.25,-1.875 c 0.41563,0.41719 -3.1e-4,1.66703 -1.25,3.75 -1.25,2.08375 -1.87531,3.33375 -1.875,3.75 -3.1e-4,0.41719 1.66625,-0.41563 5,-2.5 0.41563,-0.41563 0.83281,-0.625 1.25,-0.625 0.41563,-0.41563 1.04063,-1.04062 1.875,-1.875 l -3.75,-0.625 m 5.625,3.75 c -4.7e-4,-1.66625 1.04063,-2.49969 3.125,-2.5 3.74953,3.1e-4 5.62453,1.04219 5.625,3.125 -4.7e-4,2.08375 -3.54203,3.12531 -10.625,3.125 -0.83437,3.1e-4 -1.25,-0.41562 -1.25,-1.25 -3.1e-4,1.66703 1.04063,0.83438 3.125,-2.5 m -88.125,0.625 31.875,-1.875 -5,2.5 -5.625,0.625 -11.25,1.875 -3.125,-0.625 -5,0 -3.125,0 c -2.08359,0.83438 -3.12531,0.625 -3.125,-0.625 l 0,-1.25 4.375,-0.625 m 30.625,1.875 -2.5,2.5 -1.25,3.125 3.75,-5.625 m -6.25,3.75 c -3.1e-4,3.1e-4 -0.41719,0.41719 -1.25,1.25 -0.41719,0.41719 -1.04219,1.45938 -1.875,3.125 -3.1e-4,0.83438 -0.41719,1.66703 -1.25,2.5 l -1.875,-3.125 1.25,-2.5 5,-1.25 m -11.875,3.125 c 2.49969,2.08359 3.74969,2.70859 3.75,1.875 -3.1e-4,2.08359 -0.625,3.12531 -1.875,3.125 l -1.25,-0.625 -0.625,-4.375 m 109.375,8.75 3.125,2.5 -11.25,1.25 8.125,-3.75 m -113.75,6.25 c -1.66703,1.66703 -3.33359,3.54203 -5,5.625 -1.66703,2.08359 -3.54203,4.16703 -5.625,6.25 -0.83437,3.75031 -1.66703,5.62531 -2.5,5.625 -1.25,3.1e-4 -1.87531,-0.625 -1.875,-1.875 -3.1e-4,2.91703 1.66641,3.1e-4 5,-8.75 0.41563,-1.66641 1.04063,-2.49969 1.875,-2.5 l 8.125,-4.375 m 58.75,25 c 0.83281,3.1e-4 1.25,-0.41719 1.25,-1.25 -3.1e-4,-0.41719 -0.83437,-0.83281 -2.5,-1.25 -1.66703,-0.41562 -2.50031,-0.41562 -2.5,0 0.83281,0.83438 2.08297,1.66703 3.75,2.5 -12.08375,-6.66641 -22.70875,-11.04141 -31.875,-13.125 13.33297,3.33359 19.99969,5.62531 20,6.875 l 10.625,3.125 c -0.83437,0.41719 -1.66703,0.625 -2.5,0.625 -2.08375,-0.83281 -4.16703,-1.45781 -6.25,-1.875 -1.66703,-0.83281 -2.91703,-1.66641 -3.75,-2.5 11.24969,3.75031 15.83297,6.04203 13.75,6.875 m 5.625,1.875 4.375,0.625 -2.5,4.375 -1.875,-5 m 98.125,48.75 -6.875,3.125 -0.625,1.25 -3.125,0.625 c -0.41719,1.66688 -1.04219,2.50031 -1.875,2.5 l -1.25,0 c 0.41563,-0.41719 1.66625,-1.25 3.75,-2.5 2.49953,-1.25 5.83281,-2.91641 10,-5 m 53.75,17.5 c 0.41563,-0.83281 1.04063,-0.625 1.875,0.625 0.83281,0.83438 1.25,1.87516 1.25,3.125 -4.7e-4,2.08359 -1.66719,3.12516 -5,3.125 -0.41719,1.6e-4 -1.25,-0.625 -2.5,-1.875 l 1.875,-3.125 1.25,-1.875 1.25,0 m -23.75,7.5 0,3.125 c -2.50047,-2.49984 -3.75047,-4.58312 -3.75,-6.25 -4.7e-4,-1.66641 0.625,-2.49984 1.875,-2.5 l 1.875,5.625 m -178.125,-3.125 -5,1.875 -2.5,1.875 7.5,-3.75 m -20,18.75 c -4.16703,2.50016 -7.29203,4.16688 -9.375,5 -3.1e-4,-0.83281 1.87469,-2.70812 5.625,-5.625 4.16641,-2.91641 6.66641,-4.37484 7.5,-4.375 l 0.625,0 c -0.41719,0.83438 -0.83437,1.66688 -1.25,2.5 -0.41719,0.41719 -0.83281,1.04219 -1.25,1.875 l 0,1.25 -3.75,0 c -3.1e-4,-1.66641 -0.625,-2.29141 -1.875,-1.875 -0.83281,0.83438 0.41719,1.25 3.75,1.25 m -8.75,23.75 -1.875,-2.5 6.25,-4.375 c 1.25,-1.25 2.49969,-1.87484 3.75,-1.875 5.83297,1.6e-4 8.74969,-0.20781 8.75,-0.625 -3.1e-4,1.66688 -3.95859,3.33359 -11.875,5 -1.66703,0.41719 -3.33359,1.87516 -5,4.375 m -99.375,-3.75 c 2.49984,-1.25 6.45813,-1.45781 11.875,-0.625 -0.83437,-0.41562 -2.91687,1.6e-4 -6.25,1.25 -2.91687,0.83281 -4.37516,1.25 -4.375,1.25 l -1.25,0 -0.625,0.625 c -1.25,1.6e-4 -1.87516,-0.20781 -1.875,-0.625 l 0,-1.875 2.5,0 m -3.125,28.125 0.625,6.25 0,1.25 c -1.6e-4,1.25 0.83281,1.66688 2.5,1.25 1.66641,-1.25 1.87484,-1.87484 0.625,-1.875 l -6.25,5 1.875,-8.125 0.625,-3.75 m 128.125,-3.75 -8.75,7.5 0,-1.875 8.75,-5.625 m 184.375,28.75 5.625,-7.5 -2.5,8.125 -1.25,1.25 -1.875,-1.875 m 11.875,-8.125 0,1.875 c -4.7e-4,2.08344 -0.83437,4.37516 -2.5,6.875 -1.25,2.50016 -2.08391,4.16688 -2.5,5 -1.25,3.33344 -2.29219,5.00016 -3.125,5 -1.25,-0.41719 -1.87547,-1.04219 -1.875,-1.875 l 0.625,-0.625 5.625,-10 1.25,-4.375 2.5,-1.875 m -121.25,12.5 5.625,0 -0.625,3.75 -1.875,0 c -1.66703,-0.83281 -2.70875,-2.08328 -3.125,-3.75 m -69.375,1.25 -3.125,2.5 -9.375,0 1.25,0 -2.5,-1.25 0.625,-1.875 13.125,0.625 m 12.5,-1.25 -5,5.625 c -1.25,3.75016 -5.41703,5.62516 -12.5,5.625 -11.25031,1.6e-4 -16.87531,-2.29156 -16.875,-6.875 l 1.25,-1.25 c 1.25,1.6e-4 3.12469,1.25 5.625,3.75 2.49969,2.08344 5.20797,3.12516 8.125,3.125 -3.1e-4,1.6e-4 1.45781,-0.83281 4.375,-2.5 3.33297,-1.66656 8.33297,-4.16656 15,-7.5 m 22.5,18.75 11.25,-8.125 c -1.66703,4.16672 -5.41703,6.87516 -11.25,8.125 m 16.25,-6.25 -0.625,2.5 c -2.08375,3.75016 -5.20875,6.25016 -9.375,7.5 l -2.5,1.875 -1.25,-1.875 c 5.41625,-2.49984 9.99969,-5.83328 13.75,-10 m 118.75,22.5 5,3.125 5.625,0 0,1.875 -1.875,0 c -3.75047,0.83281 -6.66719,-0.83281 -8.75,-5 m -330.625,20 -1.25,-1.25 c 1.25,-2.08328 1.66656,-3.74984 1.25,-5 -0.83281,-2.49984 -1.04219,-3.95828 -0.625,-4.375 l 3.75,-2.5 0,8.125 -3.125,5 m 151.875,-1.875 1.875,0 0,5.625 0,0.625 -2.5,-0.625 0.625,-5.625 m -18.75,1.25 c 1.66641,-0.41719 2.49969,0.41719 2.5,2.5 -3.1e-4,1.25 -0.625,1.875 -1.875,1.875 -1.25,0 -1.87531,-1.04219 -1.875,-3.125 -3.1e-4,-0.83281 0.41563,-1.25 1.25,-1.25 m 5.625,0 c 1.66641,0.41719 2.49969,1.04219 2.5,1.875 -3.1e-4,1.25 -0.625,1.875 -1.875,1.875 2.49969,0 2.08297,-0.41719 -1.25,-1.25 l 0.625,-2.5 m 93.75,2.5 6.25,3.125 1.25,3.125 -5.625,-2.5 -5.625,-3.75 3.75,0"
       id="path3016"
       style="font-size:40px;font-style:normal;font-variant:normal;font-weight:normal;font-stretch:normal;line-height:125%;letter-spacing:0px;word-spacing:0px;fill:#000000;fill-opacity:1;stroke:none;font-family:Goudy Initialen;-inkscape-font-specification:Goudy Initialen" />
  </g>
</svg>
