<?xml version="1.0" encoding="UTF-8" standalone="no"?>
<!-- Created with Inkscape (http://www.inkscape.org/) -->

<svg
   xmlns:dc="http://purl.org/dc/elements/1.1/"
   xmlns:cc="http://creativecommons.org/ns#"
   xmlns:rdf="http://www.w3.org/1999/02/22-rdf-syntax-ns#"
   xmlns:svg="http://www.w3.org/2000/svg"
   xmlns="http://www.w3.org/2000/svg"
   version="1.1"
   width="500"
   height="500"
   id="svg3068">
  <defs
     id="defs3070" />
  <metadata
     id="metadata3073">
    <rdf:RDF>
      <cc:Work
         rdf:about="">
        <dc:format>image/svg+xml</dc:format>
        <dc:type
           rdf:resource="http://purl.org/dc/dcmitype/StillImage" />
        <dc:title></dc:title>
      </cc:Work>
    </rdf:RDF>
  </metadata>
  <g
     transform="translate(-146.85715,-119.79075)"
     id="layer1">
    <path
       d="m 146.85715,619.79075 0,-500 500,0 0,500 -500,0 m 7.5,-7.5 485,0 0,-485 -485,0 0,485 m 7.5,-7.5 0,-469.375 469.375,0 0,469.375 -469.375,0 m 434.375,-460 -1.875,3.125 0.625,0 -1.25,5.625 1.875,3.75 0,1.25 c -4.7e-4,1.25 -0.83438,1.87547 -2.5,1.875 -4.7e-4,4.7e-4 -1.66719,-0.41562 -5,-1.25 l 1.25,0.625 -1.25,0 0,5 3.75,6.25 3.125,2.5 5.625,7.5 7.5,11.25 3.125,5 2.5,3.125 1.875,5 2.5,6.875 1.875,13.75 1.25,4.375 -1.875,18.75 0.625,6.25 c -0.83438,3.33375 -2.08391,5.00031 -3.75,5 -1.25,-0.41562 -1.87547,-1.25 -1.875,-2.5 -4.7e-4,3.1e-4 -4.7e-4,-0.41562 0,-1.25 0.41562,-1.25 0.83281,-2.91625 1.25,-5 l 0.625,-2.5 c -4.7e-4,-5.41625 -1.04219,-10.83297 -3.125,-16.25 -3.75047,-9.58297 -7.70891,-15.20797 -11.875,-16.875 l -4.375,-1.875 -6.25,-3.75 -0.625,1.25 1.875,7.5 -3.75,0 -3.75,-6.875 -10.625,-2.5 -6.25,-6.875 c -2.50047,2.08375 -4.37547,5.20875 -5.625,9.375 1.66625,11.25047 6.66625,19.16703 15,23.75 l 0,2.5 -6.875,-0.625 c 0.83281,7.08375 2.49953,11.66703 5,13.75 5.83281,3.33375 11.87453,7.91703 18.125,13.75 6.24953,5.41703 9.37453,13.54203 9.375,24.375 -4.7e-4,2.50031 -1.25,7.70859 -3.75,15.625 l -4.375,3.125 c -0.83438,-3.33297 -1.25,-4.37469 -1.25,-3.125 0.41562,-1.25 1.45781,-2.91641 3.125,-5 2.08281,-2.49969 3.12453,-6.04141 3.125,-10.625 l -0.625,-1.875 1.875,-1.25 c -2.50047,-6.66641 -5.62547,-11.87469 -9.375,-15.625 l 0,6.875 -1.875,0.625 c -2.50047,-5.41625 -4.79219,-8.54125 -6.875,-9.375 l -6.25,-0.625 -5,-3.125 -1.25,10.625 1.875,4.375 c 1.66625,2.91703 3.95781,5.20859 6.875,6.875 l -0.625,3.125 -2.5,-0.625 1.25,0 -6.25,-2.5 -1.875,0.625 c -4.7e-4,6.25031 0.625,11.45859 1.875,15.625 2.08281,10.41703 3.12453,16.04203 3.125,16.875 -4.7e-4,3.33359 -1.87547,7.29203 -5.625,11.875 -3.75047,4.58359 -7.08375,7.50031 -10,8.75 l -29.375,13.125 -3.75,2.5 8.125,0 14.375,-6.875 5.625,-1.25 c 0.41562,-0.41719 1.04062,-0.83281 1.875,-1.25 0.83281,-0.83281 2.08281,-1.87469 3.75,-3.125 l 10,-8.75 c 1.25,-0.83281 2.49953,-2.70813 3.75,-5.625 1.66609,-3.33297 2.91609,-4.99969 3.75,-5 l 1.875,0 -10,15.625 c 9.58281,-5.41641 15.41609,-16.45797 17.5,-33.125 l 0.625,-1.25 c 2.08281,3.1e-4 3.12453,0.625 3.125,1.875 -4.7e-4,4.58359 -2.91719,12.29203 -8.75,23.125 0.83281,-0.83281 1.66609,-1.45781 2.5,-1.875 0.83281,-0.83281 1.45781,-1.66641 1.875,-2.5 1.66609,-2.08297 2.70781,-3.74969 3.125,-5 0.83281,-1.25 1.45781,-2.08297 1.875,-2.5 l 0.625,-0.625 c 0.83281,3.1e-4 1.25,0.41719 1.25,1.25 -4.7e-4,-0.41719 -0.41719,1.04219 -1.25,4.375 5.41609,-4.16641 9.16609,-8.95797 11.25,-14.375 l 6.25,-13.125 0.625,-10 0.625,-10 c 0.41562,-4.58297 -0.625,-8.95797 -3.125,-13.125 -2.08391,-4.16625 -3.12547,-6.66625 -3.125,-7.5 0.41562,-1.25 1.04062,-1.87469 1.875,-1.875 1.66609,3.1e-4 3.12453,2.29203 4.375,6.875 l 2.5,8.75 0.625,13.125 -1.875,12.5 -3.75,11.25 3.75,-5.625 1.875,-5.625 c 2.08281,-4.99969 3.12453,-7.49969 3.125,-7.5 l -0.625,-1.25 c -0.41719,-1.25 -0.625,-3.12469 -0.625,-5.625 -4.7e-4,-2.91625 0.625,-4.37469 1.875,-4.375 1.25,3.1e-4 1.87453,0.83437 1.875,2.5 l 0,1.875 -0.625,2.5 c 5.41609,-11.24969 8.12453,-24.99969 8.125,-41.25 -4.7e-4,-23.74953 -2.70891,-41.66625 -8.125,-53.75 -4.58391,-10.83297 -7.70891,-19.79125 -9.375,-26.875 -0.83438,-3.33281 -1.25,-5.41625 -1.25,-6.25 -4.7e-4,-1.25 1.04062,-3.54125 3.125,-6.875 l 8.75,-1.25 0,0.625 c -4.7e-4,3.33375 -2.08391,6.25047 -6.25,8.75 l 0,1.25 c -0.83438,3.33375 -1.25,4.79219 -1.25,4.375 -4.7e-4,2.08375 0.20781,3.54219 0.625,4.375 l 1.25,3.125 1.25,2.5 7.5,1.875 0.625,-1.875 c -2.50047,-2.91625 -3.75047,-4.79125 -3.75,-5.625 l 0,-0.625 0,-0.625 0.625,-0.625 2.5,-4.375 1.875,-5 1.875,-0.625 -2.5,0 1.875,-5 0,-0.625 c -4.7e-4,-1.66625 -0.83438,-2.70781 -2.5,-3.125 l 2.5,-0.625 -1.875,0 c -4.16719,-5.41625 -8.95891,-8.12453 -14.375,-8.125 -5.83391,4.7e-4 -10.00047,2.50047 -12.5,7.5 m -196.875,6.875 c -0.41719,4.16719 -3.12531,6.25047 -8.125,6.25 -8.75031,4.7e-4 -13.54203,-1.66625 -14.375,-5 3.74969,1.25 6.66641,1.87547 8.75,1.875 4.99969,4.7e-4 7.49969,-2.08281 7.5,-6.25 -3.1e-4,-0.83281 -0.625,-1.66625 -1.875,-2.5 -2.08359,3.33375 -3.54203,5.00047 -4.375,5 -1.25,4.7e-4 -3.33359,-0.625 -6.25,-1.875 -2.08359,-4.58281 -4.58359,-6.87453 -7.5,-6.875 -2.50031,4.7e-4 -3.95859,1.87547 -4.375,5.625 0.83281,7.08375 4.99969,10.83375 12.5,11.25 l 15,1.25 c 4.99969,0.41719 7.70797,-0.83281 8.125,-3.75 l 0.625,-1.25 -1.25,-8.75 c -0.83438,-3.74953 0.625,-5.62453 4.375,-5.625 1.66641,4.7e-4 4.58297,1.45937 8.75,4.375 1.25,4.16719 2.91625,6.25047 5,6.25 0.83281,-0.83281 1.25,-1.45781 1.25,-1.875 -3.1e-4,-2.08281 -0.20938,-3.54125 -0.625,-4.375 l -2.5,-3.125 -6.875,-3.125 -8.75,-0.625 c -5.41703,0.41719 -8.12531,1.87547 -8.125,4.375 -3.1e-4,-0.41563 1.04062,2.50047 3.125,8.75 m -98.125,-13.125 -5,2.5 -7.5,12.5 c -1.25,1.66719 -2.91688,2.50047 -5,2.5 l -0.625,0 c -2.50016,4.7e-4 -3.75016,-0.625 -3.75,-1.875 l 0,-10.625 c -1.6e-4,-2.91625 -3.54188,-4.37453 -10.625,-4.375 -12.50016,4.7e-4 -18.33344,5.41719 -17.5,16.25 l 0,3.75 3.125,0 c 1.66656,-11.66625 6.04156,-17.49953 13.125,-17.5 0.83281,4.7e-4 2.91641,1.04219 6.25,3.125 l 0.625,2.5 c -0.83438,3.33375 -1.25,5.00047 -1.25,5 -1.6e-4,5.41719 2.91641,8.12547 8.75,8.125 2.91641,4.7e-4 4.99984,-0.83281 6.25,-2.5 l 11.25,-14.375 c 0.41719,-1.66625 2.08312,-2.49953 5,-2.5 2.08312,4.7e-4 4.37484,1.25 6.875,3.75 l -1.25,4.375 1.875,3.125 c 0.41719,0.41719 0.625,0.83437 0.625,1.25 -1.6e-4,0.41719 -1.04219,2.29219 -3.125,5.625 0.41719,0.41719 1.45781,0.625 3.125,0.625 2.91641,4.7e-4 4.37469,-1.66625 4.375,-5 l 0,-0.625 -1.875,-3.75 0,-3.125 5.625,2.5 1.25,0 c 2.49969,4.7e-4 4.16641,-1.66625 5,-5 l 0,-1.25 -5.625,0.625 -3.75,-3.125 -1.25,1.25 -2.5,0 c -2.91688,-2.91625 -5.83359,-4.37453 -8.75,-4.375 l -3.75,0.625 m 220.625,1.25 -33.125,8.125 -10.625,6.875 -5,3.125 c -7.08375,4.58375 -13.75031,13.12547 -20,25.625 -5.41703,12.50047 -8.54203,24.16703 -9.375,35 l 6.875,-1.875 -1.875,7.5 c -3.33375,4.58375 -5.00031,7.70875 -5,9.375 -3.1e-4,2.91703 2.70797,4.58375 8.125,5 l -0.625,5.625 6.875,3.75 c -3.75031,-10.41625 -5.62531,-18.95797 -5.625,-25.625 -3.1e-4,-20.83297 7.70797,-38.95797 23.125,-54.375 15.41625,-15.83281 32.70797,-23.54125 51.875,-23.125 l 1.875,0 2.5,0 6.875,0.625 c 9.58281,4.7e-4 19.16625,2.08375 28.75,6.25 l 6.875,3.125 10.625,6.25 2.5,-5.625 c -0.83438,-0.83281 -2.08391,-1.66625 -3.75,-2.5 -1.25,-1.25 -2.70891,-2.29125 -4.375,-3.125 l -20.625,-7.5 c -7.08375,-3.33281 -14.79219,-4.58281 -23.125,-3.75 l -3.75,0 -10,1.25 m -315,-0.625 c -9.58344,2.08375 -17.91672,7.08375 -25,15 -7.08344,7.50047 -10.62516,15.62547 -10.625,24.375 -1.6e-4,10.00047 5.20828,15.00047 15.625,15 0.41719,4.7e-4 2.29156,-0.41563 5.625,-1.25 l 16.875,-5 1.875,0 c 7.49984,4.7e-4 11.24984,2.91703 11.25,8.75 -1.6e-4,3.75047 -1.87516,7.70875 -5.625,11.875 -3.33344,3.75047 -6.87516,5.62547 -10.625,5.625 -2.50016,4.7e-4 -4.16672,-1.04063 -5,-3.125 l -3.125,-11.875 c -1.6e-4,-1.25 -0.83281,-1.87453 -2.5,-1.875 -1.6e-4,4.7e-4 -2.70844,1.04219 -8.125,3.125 l 6.25,3.125 5,12.5 c 0.41719,1.66703 2.49984,2.50047 6.25,2.5 4.99984,4.7e-4 9.58312,-2.29125 13.75,-6.875 4.16656,-4.58297 6.24984,-9.79125 6.25,-15.625 -1.6e-4,-8.74953 -4.16688,-13.12453 -12.5,-13.125 -1.25,4.7e-4 -2.08344,0.20937 -2.5,0.625 l -20.625,6.25 -1.875,0 c -7.08344,4.7e-4 -10.62516,-4.37453 -10.625,-13.125 -1.6e-4,-8.74953 3.95828,-16.45781 11.875,-23.125 7.91656,-7.08281 16.87484,-10.62453 26.875,-10.625 12.49984,4.7e-4 21.45812,4.58375 26.875,13.75 0.83281,2.08375 1.87484,3.12547 3.125,3.125 l 2.5,-0.625 c -5.83344,-13.33281 -15.83344,-19.79125 -30,-19.375 l -0.625,0 -10.625,0 m 234.375,0.625 -0.625,0 c -3.33375,-0.83281 -5.00031,0.20937 -5,3.125 -3.1e-4,4.16719 1.87469,6.25047 5.625,6.25 3.74969,4.7e-4 5.62469,-1.66625 5.625,-5 -3.1e-4,-2.91625 -1.87531,-4.37453 -5.625,-4.375 m 146.25,0.625 -4.375,1.875 0.625,6.25 6.875,6.25 c -2.08391,-5.41625 -3.12547,-9.58281 -3.125,-12.5 l 0,-1.875 m -418.125,0.625 c -2.50016,2.50047 -3.75016,4.79219 -3.75,6.875 -1.6e-4,3.33375 2.70828,5.00047 8.125,5 1.66656,4.7e-4 3.12484,-0.625 4.375,-1.875 1.66656,-1.66625 2.70828,-2.49953 3.125,-2.5 2.49984,-0.41563 3.74984,-1.04063 3.75,-1.875 l -0.625,-1.25 c -3.75016,2.50047 -6.66672,3.75047 -8.75,3.75 0.41719,4.7e-4 -1.04219,-0.41563 -4.375,-1.25 l -1.875,-6.875 m 281.875,5.625 c 3.33297,2.08375 4.99969,3.12547 5,3.125 1.25,4.7e-4 2.70797,-1.45781 4.375,-4.375 -2.08375,-3.33281 -3.95875,-4.99953 -5.625,-5 -2.50031,4.7e-4 -3.75031,1.04219 -3.75,3.125 l 0,3.125 m -21.875,-2.5 c -1.66703,4.7e-4 -2.50031,1.04219 -2.5,3.125 -3.1e-4,2.91719 1.25,4.37547 3.75,4.375 2.49969,4.7e-4 3.74969,-1.25 3.75,-3.75 -3.1e-4,-2.91625 -1.45938,-4.16625 -4.375,-3.75 l -0.625,0 m -231.875,24.375 c -3.33344,-2.08281 -5.00016,-3.95781 -5,-5.625 -1.6e-4,-1.25 0.625,-2.49953 1.875,-3.75 4.99984,-7.49953 12.49984,-11.24953 22.5,-11.25 6.66656,4.7e-4 11.45812,1.45937 14.375,4.375 l 6.25,4.375 0.625,-0.625 c -5.83344,-7.08281 -12.70844,-10.62453 -20.625,-10.625 -20.41672,4.7e-4 -30.62516,6.66719 -30.625,20 -1.6e-4,4.58375 1.66656,6.87547 5,6.875 1.66656,4.7e-4 3.54156,-1.25 5.625,-3.75 m 334.375,-21.875 -29.375,8.75 -1.25,3.125 -1.875,0.625 -0.625,2.5 -2.5,3.75 -2.5,7.5 7.5,0 -1.25,2.5 -0.625,1.875 c -0.41719,0.83437 -0.83438,2.50047 -1.25,5 -0.41719,2.08375 -1.04219,4.79203 -1.875,8.125 l 1.875,-0.625 c 3.33297,7.08375 8.12453,10.62547 14.375,10.625 3.33297,4.7e-4 6.45797,-0.83281 9.375,-2.5 l -2.5,-5 7.5,-0.625 c 2.08281,-0.83281 3.12453,-2.70797 3.125,-5.625 -4.7e-4,-0.41563 -0.20938,-1.25 -0.625,-2.5 -4.7e-4,-1.25 -0.20938,-2.91625 -0.625,-5 -0.41719,0.41719 -2.29219,1.87547 -5.625,4.375 l -2.5,0 c -8.33375,0.83437 -12.50047,-3.54125 -12.5,-13.125 -4.7e-4,-4.16625 2.29125,-7.91625 6.875,-11.25 6.66625,-5.41625 14.79125,-8.12453 24.375,-8.125 2.08281,4.7e-4 4.79125,0.41719 8.125,1.25 l 12.5,2.5 5.625,-0.625 c -4.7e-4,-2.08281 -3.95875,-3.74953 -11.875,-5 l -16.25,-1.875 -5.625,-0.625 m -189.375,3.125 c -1.66688,0.41719 -2.50031,1.25 -2.5,2.5 -3.1e-4,1.66719 1.04062,2.50047 3.125,2.5 1.66641,4.7e-4 2.49969,-0.83281 2.5,-2.5 l -0.625,-0.625 -2.5,-1.875 m -8.75,1.25 c -1.66688,1.25 -2.50031,2.50047 -2.5,3.75 -3.1e-4,2.08375 1.04219,3.12547 3.125,3.125 1.66641,4.7e-4 2.49969,-0.83281 2.5,-2.5 l 0,-1.25 -3.125,-3.125 m -9.375,1.25 c -1.25,4.7e-4 -2.08359,0.625 -2.5,1.875 l -0.625,1.25 c -3.1e-4,2.08375 1.25,3.12547 3.75,3.125 2.08312,4.7e-4 3.12469,-1.25 3.125,-3.75 -3.1e-4,-1.66625 -1.25,-2.49953 -3.75,-2.5 m 151.25,0 c -5.00047,1.25 -9.16703,1.87547 -12.5,1.875 l -5.625,0 c -2.50031,4.7e-4 -4.37531,-0.20781 -5.625,-0.625 l -5,-1.25 c 0.83281,2.91719 1.45781,4.58375 1.875,5 l 5.625,1.25 5,0.625 1.875,-1.25 8.125,-1.25 6.25,-4.375 m -37.5,0 c -2.91703,4.7e-4 -4.37531,1.45937 -4.375,4.375 -3.1e-4,2.50047 1.25,3.75047 3.75,3.75 2.91625,4.7e-4 4.37469,-1.66625 4.375,-5 -3.1e-4,-2.08281 -1.25,-3.12453 -3.75,-3.125 m -12.5,2.5 c -2.08375,4.7e-4 -3.33375,1.25 -3.75,3.75 -3.1e-4,2.91719 1.45781,4.37547 4.375,4.375 2.91625,4.7e-4 4.37469,-1.25 4.375,-3.75 -0.41719,-2.91625 -2.08375,-4.37453 -5,-4.375 m 60,7.5 c -4.16703,2.91719 -6.04203,5.83375 -5.625,8.75 l 0,0.625 0,5 0.625,1.25 5,0.625 -0.625,-9.375 8.75,-12.5 -4.375,1.875 -3.75,3.75 m 74.375,0 2.5,2.5 0.625,2.5 c -2.08375,-0.41563 -3.95875,-0.625 -5.625,-0.625 -1.66719,-0.41563 -3.12547,-0.625 -4.375,-0.625 -2.91719,4.7e-4 -4.79219,0.20937 -5.625,0.625 l -5,2.5 -3.125,4.375 -2.5,1.25 -3.125,4.375 c 1.66625,1.66703 3.54125,2.50047 5.625,2.5 2.49953,4.7e-4 4.16625,-0.20781 5,-0.625 l 0,1.875 0,-0.625 -5,5.625 c -1.25,2.50047 -1.87547,4.37547 -1.875,5.625 l 0,3.125 c 2.91625,7.91703 7.49953,11.87547 13.75,11.875 3.74953,4.7e-4 6.04125,-1.25 6.875,-3.75 -4.58375,-3.33297 -6.87547,-6.24953 -6.875,-8.75 -4.7e-4,-9.16625 6.45781,-13.74953 19.375,-13.75 11.24953,4.7e-4 22.08281,6.45875 32.5,19.375 l 1.25,1.875 3.75,6.25 5.625,14.375 3.125,9.375 c 0.41562,-1.25 0.625,-3.33297 0.625,-6.25 -4.7e-4,-11.24953 -2.50047,-19.79125 -7.5,-25.625 l -5,-6.875 1.25,-1.875 c -1.66719,-0.83281 -3.33391,-1.87453 -5,-3.125 -1.25,-1.25 -2.70891,-2.49953 -4.375,-3.75 0.41562,-0.41563 1.45781,-1.04063 3.125,-1.875 -2.08391,-2.08297 -4.58391,-3.54125 -7.5,-4.375 -0.83438,-3.74953 -2.91719,-6.45781 -6.25,-8.125 l 1.25,-1.25 c -1.66719,-9.16625 -8.95891,-13.74953 -21.875,-13.75 -4.58375,4.7e-4 -6.87547,0.625 -6.875,1.875 -4.7e-4,4.7e-4 -4.7e-4,0.41719 0,1.25 0.41562,0.41719 0.83281,1.25 1.25,2.5 m -114.375,-1.25 c -2.08375,4.7e-4 -3.12531,0.83437 -3.125,2.5 -3.1e-4,2.91719 1.45781,4.37547 4.375,4.375 2.91625,4.7e-4 4.37469,-1.04063 4.375,-3.125 l 0,-1.25 -5.625,-2.5 m -201.25,20.625 10.625,10.625 1.875,3.75 c 2.91656,3.33375 4.99984,7.70875 6.25,13.125 l 1.25,5.625 1.875,6.25 -0.625,9.375 6.25,1.25 c 4.16641,0.83437 12.29141,3.95875 24.375,9.375 l 4.375,3.125 1.25,-31.875 1.25,-12.5 c 0.83281,-10.83297 7.29141,-17.70797 19.375,-20.625 5.41641,-1.25 16.04141,-1.87453 31.875,-1.875 32.91641,4.7e-4 62.49969,7.50047 88.75,22.5 l 10.625,-23.75 c -7.91703,-2.91625 -15.41703,-5.20781 -22.5,-6.875 -7.08375,-1.66625 -13.54203,-2.70781 -19.375,-3.125 l 1.25,0 -70,-1.875 -72.5,1.25 -61.875,-3.125 c -4.16672,4.7e-4 -6.25016,1.45937 -6.25,4.375 l 0,1.25 1.25,1.25 21.875,3.75 6.875,2.5 6.25,3.75 5.625,2.5 m -33.125,-8.125 c 18.33312,7.91703 33.54156,17.91703 45.625,30 -7.08344,-17.49953 -22.29188,-27.49953 -45.625,-30 m 251.25,15.625 c -0.83437,2.08375 -1.66703,4.16703 -2.5,6.25 -0.83437,2.08375 -1.66703,4.16703 -2.5,6.25 l -1.875,13.125 c -0.41719,1.25 -0.625,3.54203 -0.625,6.875 l 0,6.25 c -3.1e-4,2.08375 0.41563,3.54203 1.25,4.375 l 1.25,0.625 2.5,5 c 0.83281,2.08375 2.29125,3.12531 4.375,3.125 1.25,3.1e-4 2.49969,-1.45781 3.75,-4.375 -7.08375,-8.33297 -10.62531,-14.79125 -10.625,-19.375 -3.1e-4,-9.16625 1.87469,-17.49953 5.625,-25 l 6.875,-15.625 -7.5,12.5 m -20.625,14.375 0,-1.875 c -24.58359,-14.58297 -54.58359,-21.87453 -90,-21.875 -17.50031,4.7e-4 -31.45859,2.70875 -41.875,8.125 -0.83437,0.83437 -1.25,1.66703 -1.25,2.5 l -2.5,15.625 -1.25,3.75 -1.875,32.5 c -1.6e-4,1.25 0.20781,2.08375 0.625,2.5 l 3.75,5.625 2.5,-49.375 1.875,-3.75 0.625,-3.75 2.5,-1.875 1.25,-2.5 4.375,0 c 17.91641,-3.74953 28.54141,-5.62453 31.875,-5.625 36.24969,4.7e-4 66.04125,6.66703 89.375,20 m 30,-21.25 -4.375,9.375 c -1.66703,4.58375 -3.12531,8.95875 -4.375,13.125 -0.83437,4.16703 -1.45937,8.33375 -1.875,12.5 l 5.625,7.5 10,16.875 c 3.33297,10.00031 4.99953,18.54203 5,25.625 -4.7e-4,21.25031 -7.29203,39.79203 -21.875,55.625 l -5.625,5 -4.375,3.125 -5,3.75 c -1.66703,0.83437 -3.95875,1.87531 -6.875,3.125 -2.50031,1.25 -5.41703,2.29187 -8.75,3.125 l -8.125,1.25 c -17.08359,2.50031 -27.91703,3.75031 -32.5,3.75 l -86.875,0 -0.625,-42.5 0,-6.25 c -0.41719,-1.25 -0.625,-2.91641 -0.625,-5 -1.6e-4,-2.08297 0.20781,-5.62469 0.625,-10.625 0.41719,-4.99969 0.625,-8.74969 0.625,-11.25 -1.6e-4,-5.83297 -2.70859,-10.62469 -8.125,-14.375 l -6.25,-4.375 -5,-1.875 c -0.83281,-0.41563 -2.08359,-0.83281 -3.75,-1.25 -1.66688,-0.41563 -3.54188,-1.04063 -5.625,-1.875 -2.08359,-2.08297 -4.16688,-3.12469 -6.25,-3.125 l 0,19.375 -0.625,29.375 0.625,7.5 0,9.375 -0.625,184.375 -3.125,22.5 c -0.41719,4.16672 -1.66688,7.91672 -3.75,11.25 -2.08344,3.33344 -3.54188,6.04172 -4.375,8.125 -4.58344,6.25 -8.33344,10 -11.25,11.25 l -23.75,10 c -0.41719,0.41719 -0.625,1.04219 -0.625,1.875 -1.6e-4,4.16672 3.95812,6.04172 11.875,5.625 l 4.375,0 20.625,-3.125 c 10.83312,-2.08328 19.16641,-2.70828 25,-1.875 l 2.5,0 62.5,2.5 -3.75,-16.875 c -4.16688,-0.41719 -8.33359,-1.04219 -12.5,-1.875 -4.16688,-1.25 -8.54188,-2.70828 -13.125,-4.375 -7.50016,-5.41656 -11.87516,-13.12484 -13.125,-23.125 l -2.5,-21.875 0,-131.25 58.125,0 c 47.49969,0.41719 80.62469,6.87531 99.375,19.375 6.66625,4.58359 10.41625,7.08359 11.25,7.5 l 1.25,0 c 2.49953,1.6e-4 7.08297,-0.625 13.75,-1.875 6.66625,-1.66641 11.87453,-2.49984 15.625,-2.5 2.49953,1.6e-4 5.20797,0.20937 8.125,0.625 3.33297,1.6e-4 6.87453,0.20937 10.625,0.625 -0.83438,-2.08313 -1.66703,-3.33313 -2.5,-3.75 -0.41719,-0.83281 -2.50047,-2.70813 -6.25,-5.625 -0.41719,-0.41719 -1.04219,-1.04219 -1.875,-1.875 -0.83438,-0.83281 -2.08375,-1.87469 -3.75,-3.125 -4.58375,-4.58313 -10.62547,-8.33313 -18.125,-11.25 -3.75047,-1.66641 -8.75047,-3.33313 -15,-5 -3.75031,-1.25 -8.33375,-1.87469 -13.75,-1.875 -2.08375,-2.08313 -3.12531,-3.74969 -3.125,-5 l 0,-1.875 1.25,-1.25 c 22.49953,-12.49969 37.91625,-25.41641 46.25,-38.75 8.33297,-13.33297 12.49953,-30.62469 12.5,-51.875 -4.7e-4,-29.99953 -11.66703,-52.49953 -35,-67.5 l -8.125,-5 m -107.5,10 -1.25,6.875 0.625,8.125 3.125,4.375 c 2.08297,2.50047 4.37469,4.58375 6.875,6.25 l -5.625,-15 0.625,-0.625 6.875,9.375 0,-5 c 0.83281,-4.58297 -2.91703,-9.37453 -11.25,-14.375 m 126.875,1.25 10.625,13.125 6.25,9.375 c 2.08297,2.50047 3.95797,7.08375 5.625,13.75 2.49953,9.58375 3.74953,17.70875 3.75,24.375 -4.7e-4,22.91703 -6.45875,43.95859 -19.375,63.125 l -7.5,8.75 c -1.25,0.83437 -2.91703,2.08359 -5,3.75 -1.66703,1.25 -3.54203,2.70859 -5.625,4.375 l -5,2.5 -10,6.875 -6.25,2.5 -1.25,3.125 3.75,1.875 3.125,-3.125 18.125,-9.375 c 5.83297,-2.91641 11.24953,-7.29141 16.25,-13.125 4.99953,-6.24969 9.37453,-13.12469 13.125,-20.625 3.74953,-7.91641 6.45797,-16.24969 8.125,-25 2.08281,-8.74969 3.12453,-17.49969 3.125,-26.25 l 0,-7.5 c -0.41719,-1.66625 -0.83438,-3.33297 -1.25,-5 -0.41719,-2.08297 -1.04219,-4.37469 -1.875,-6.875 l -8.125,-18.75 c -3.33375,-7.91625 -10.20875,-15.20797 -20.625,-21.875 m -114.375,36.25 c 2.49969,-7.91625 3.95797,-11.87453 4.375,-11.875 1.25,4.7e-4 1.87469,0.625 1.875,1.875 -3.1e-4,1.25 -0.625,2.70875 -1.875,4.375 l 3.75,0.625 c 0.83281,-3.33297 2.08297,-4.99953 3.75,-5 l -0.625,5.625 1.875,0.625 3.125,-6.25 c 0.41719,-0.41563 0.83281,-0.625 1.25,-0.625 1.25,4.7e-4 1.87469,0.625 1.875,1.875 l 0,0.625 -3.125,6.25 2.5,1.25 1.875,-4.375 5,-8.75 c 1.66641,-2.91625 3.12469,-4.99953 4.375,-6.25 l 2.5,0 -4.375,26.25 3.75,-5 1.25,-6.25 c 0.41719,-0.41563 0.83281,-0.625 1.25,-0.625 l 0.625,-0.625 c 1.25,4.7e-4 1.87469,0.83437 1.875,2.5 -3.1e-4,1.25 -0.625,2.91703 -1.875,5 -1.25,1.66703 -1.87531,2.91703 -1.875,3.75 -3.1e-4,1.25 0.625,2.08375 1.875,2.5 l 0.625,8.125 c 10.41625,-6.66625 15.62469,-16.45797 15.625,-29.375 -3.1e-4,-2.08297 -0.625,-3.12453 -1.875,-3.125 -2.91703,4.7e-4 -5.20875,1.87547 -6.875,5.625 l -2.5,-0.625 c 1.66625,-5.41625 2.49969,-9.16625 2.5,-11.25 -3.1e-4,-6.24953 -1.45938,-9.58297 -4.375,-10 l -3.75,-0.625 -9.375,4.375 -10,3.125 c -0.83281,0.83437 -1.25,1.45937 -1.25,1.875 l -0.625,0.625 -1.875,6.875 -5.625,-4.375 c -2.08359,4.7e-4 -4.16703,2.91703 -6.25,8.75 -0.41719,1.25 -0.625,3.54203 -0.625,6.875 -3.1e-4,-0.41563 0.41719,1.45937 1.25,5.625 m -148.75,-24.375 1.25,0 c 4.99984,4.7e-4 7.49984,1.25 7.5,3.75 l 0,0.625 c -0.41719,2.91703 -2.50016,6.45875 -6.25,10.625 -5.41688,6.66703 -9.16688,10.83375 -11.25,12.5 -2.08344,1.25 -3.12516,2.91703 -3.125,5 l 5,-4.375 3.75,-2.5 5,-5.625 6.875,-6.875 c 2.49984,-2.91625 3.74984,-6.04125 3.75,-9.375 -1.6e-4,-6.66625 -2.70844,-9.99953 -8.125,-10 -2.50016,4.7e-4 -3.95844,2.08375 -4.375,6.25 m 20,-3.75 c -0.83281,2.08375 -1.66688,4.16703 -2.5,6.25 -0.83281,2.08375 -1.66688,4.16703 -2.5,6.25 l -16.875,19.375 3.75,-1.25 c 0.83281,-0.41563 1.66656,-1.04063 2.5,-1.875 0.83281,-0.83281 1.66656,-1.66625 2.5,-2.5 10.83312,-14.58297 16.24984,-21.45797 16.25,-20.625 l 0,-1.875 -3.125,-3.75 m -72.5,3.125 c -7.08344,4.58375 -10.62516,9.16703 -10.625,13.75 -1.6e-4,4.16703 0.625,6.87547 1.875,8.125 l 8.125,8.75 2.5,5.625 c 1.66656,-2.91625 2.49984,-5.41625 2.5,-7.5 l 0,-1.25 c -0.83281,-0.83281 -2.08344,-1.87469 -3.75,-3.125 -1.66672,-1.25 -3.95844,-2.91625 -6.875,-5 -0.41719,-0.41563 -0.625,-1.04063 -0.625,-1.875 -1.6e-4,-4.99953 2.08328,-7.49953 6.25,-7.5 1.66656,4.7e-4 3.95828,0.83437 6.875,2.5 3.33328,5.41703 4.79156,9.58375 4.375,12.5 l 0,4.375 c -1.25,6.66703 -3.75016,12.70875 -7.5,18.125 l -5,7.5 c -3.33344,5.00031 -5.20844,10.20875 -5.625,15.625 -0.41719,0.41719 -0.625,2.29203 -0.625,5.625 0.41719,15.00031 5.41656,22.50031 15,22.5 3.33328,3.1e-4 6.66656,-0.83281 10,-2.5 13.33328,-17.08297 24.58312,-25.62469 33.75,-25.625 6.24984,3.1e-4 9.37484,2.50031 9.375,7.5 l -0.625,0.625 -5,5.625 5,1.25 0.625,0 c 4.99984,3.1e-4 7.49984,-3.33297 7.5,-10 -1.6e-4,-3.33297 -1.45781,-6.24969 -4.375,-8.75 -4.58344,-3.74969 -8.33344,-5.62469 -11.25,-5.625 l -3.125,0 c -2.08344,3.1e-4 -3.75016,0.20937 -5,0.625 1.66656,-1.66625 2.49984,-3.33297 2.5,-5 -1.6e-4,-1.25 -0.625,-1.87469 -1.875,-1.875 l -3.125,0.625 -10,1.25 -4.375,3.75 -3.75,3.75 -4.375,6.25 -2.5,6.25 -3.75,6.875 c -1.25,2.50031 -2.70844,3.75031 -4.375,3.75 -3.33344,3.1e-4 -5.00016,-2.08297 -5,-6.25 -1.6e-4,-0.41719 0.20781,-0.83281 0.625,-1.25 14.99984,-11.24969 22.49984,-22.49969 22.5,-33.75 -1.6e-4,-2.49969 -0.20781,-3.95797 -0.625,-4.375 l -1.875,-5 -4.375,6.25 -1.25,0.625 c -1.66672,3.1e-4 -2.50016,-0.625 -2.5,-1.875 -1.6e-4,-1.66625 1.25,-4.16625 3.75,-7.5 1.25,-1.66625 1.87484,-4.99969 1.875,-10 -1.6e-4,-14.58297 -7.08344,-22.70797 -21.25,-24.375 m 170,1.875 -0.625,3.125 c -3.1e-4,-0.41563 -3.1e-4,4.7e-4 0,1.25 0.41719,0.83437 0.83281,2.29203 1.25,4.375 -2.08359,-0.41563 -3.95859,-0.625 -5.625,-0.625 -1.66688,-0.41563 -3.12531,-0.625 -4.375,-0.625 -0.41719,4.7e-4 -2.29188,0.41719 -5.625,1.25 l -8.125,3.125 -5.625,-1.25 c -1.25,4.58375 -1.87531,7.91703 -1.875,10 -3.1e-4,0.83437 -3.1e-4,1.87531 0,3.125 0.41719,1.25 0.83281,2.91703 1.25,5 l 2.5,3.75 c 1.66641,2.08375 4.58312,4.16703 8.75,6.25 l 0,1.875 c -6.66688,0.41719 -10.00031,1.66703 -10,3.75 -3.1e-4,0.83437 0.83281,2.08375 2.5,3.75 2.08312,1.25 3.74969,2.29203 5,3.125 l 1.25,0.625 3.75,-0.625 -0.625,1.875 c 1.66641,0.41719 3.74969,0.625 6.25,0.625 l 4.375,0 c 1.25,3.1e-4 2.70812,3.1e-4 4.375,0 2.08312,-0.41563 4.16641,-0.83281 6.25,-1.25 -1.25,-2.49969 -2.70859,-3.74969 -4.375,-3.75 -2.50031,3.1e-4 -4.16688,0.20937 -5,0.625 l -1.25,-1.875 0.625,-1.25 6.25,0 3.75,0.625 c 0.41719,3.1e-4 1.66641,-1.04063 3.75,-3.125 l -10.625,-3.75 2.5,0 c 1.66641,3.1e-4 3.95812,0.41719 6.875,1.25 3.33313,0.83437 5.62469,1.25 6.875,1.25 l 0,-1.25 -26.875,-13.75 1.25,-0.625 6.875,0.625 10,-0.625 c 2.91641,3.1e-4 6.87469,0.83437 11.875,2.5 l -0.625,-3.125 -6.25,-3.75 c 0.41719,-1.25 0.83281,-1.87469 1.25,-1.875 l 2.5,0.625 c 1.66641,2.50031 3.33312,3.95875 5,4.375 1.25,3.1e-4 1.87469,-0.625 1.875,-1.875 -3.1e-4,-1.66625 -1.66688,-3.74969 -5,-6.25 l 0,-1.875 3.125,0 3.75,5 5,3.125 c -4.58359,-14.16625 -9.79188,-21.45797 -15.625,-21.875 l -9.375,-0.625 -3.125,-1.25 m 206.25,19.375 -2.5,0 -5,-5.625 -10,-3.125 -4.375,-2.5 c -2.91719,4.7e-4 -4.37547,3.33375 -4.375,10 -4.7e-4,10.41703 5.62453,17.08375 16.875,20 l 0,3.75 -6.875,-1.875 5,0 c -6.25047,0.83437 -9.37547,2.08375 -9.375,3.75 -4.7e-4,0.83437 -4.7e-4,1.66703 0,2.5 0.41563,0.83437 0.83281,2.08375 1.25,3.75 l 0.625,2.5 2.5,4.375 c 2.91625,2.91703 4.37453,5.83375 4.375,8.75 -4.7e-4,4.16703 -3.75047,9.37531 -11.25,15.625 12.49953,-4.58297 18.33281,-10.41625 17.5,-17.5 l 0,-0.625 -1.25,-9.375 2.5,1.25 c 0.41563,0.41719 0.625,1.87531 0.625,4.375 -4.7e-4,5.83375 -1.45937,10.83375 -4.375,15 6.24953,-1.66641 9.37453,-8.33297 9.375,-20 -4.7e-4,-4.16625 -1.25,-9.99969 -3.75,-17.5 l 2.5,-0.625 c 1.25,3.1e-4 2.08281,2.08375 2.5,6.25 l 1.875,8.75 0,2.5 c -4.7e-4,2.91703 -1.25,7.70875 -3.75,14.375 4.99953,-4.16625 7.49953,-9.99969 7.5,-17.5 -4.7e-4,-3.74969 -0.625,-8.12469 -1.875,-13.125 l 2.5,0 1.875,13.125 1.25,1.25 c 1.66625,-4.58297 2.49953,-9.16625 2.5,-13.75 -4.7e-4,-2.91625 -0.20938,-4.58297 -0.625,-5 l -6.25,-19.375 -1.25,-6.25 c -0.83438,-0.83281 -1.66719,-1.25 -2.5,-1.25 -3.33375,4.7e-4 -4.58375,3.54203 -3.75,10.625 l 0,2.5 m -299.375,-8.125 c 0.41719,0.83437 0.625,2.08375 0.625,3.75 -1.6e-4,2.50047 -2.08344,4.58375 -6.25,6.25 l 3.75,0 c 6.24984,3.1e-4 9.37484,-2.29125 9.375,-6.875 -1.6e-4,-2.91625 -1.45781,-4.37453 -4.375,-4.375 l -1.25,0.625 -1.875,0.625 m 151.875,0 c -4.16703,7.91703 -6.25031,12.29203 -6.25,13.125 -3.1e-4,1.66703 0.625,3.95875 1.875,6.875 3.33297,-6.66625 4.79141,-11.66625 4.375,-15 l 0,-5 m 22.5,16.25 c 2.49969,-3.33297 5.83297,-5.83297 10,-7.5 l 0.625,1.875 c -4.58375,2.08375 -7.70875,5.41703 -9.375,10 10.41625,-2.91625 16.66625,-9.16625 18.75,-18.75 l -1.25,0.625 c -3.33375,0.83437 -6.87531,2.08375 -10.625,3.75 -3.75031,1.25 -6.45875,4.58375 -8.125,10 m -221.875,-9.375 c 3.33328,3.33375 4.99984,5.20875 5,5.625 l 0,2.5 -0.625,0.625 c -3.33344,4.58375 -4.79172,7.08375 -4.375,7.5 l 1.875,2.5 0.625,-1.875 5.625,-5.625 c 1.25,-1.25 1.87484,-3.54125 1.875,-6.875 -1.6e-4,-4.16625 -1.87516,-6.24953 -5.625,-6.25 -0.83281,4.7e-4 -1.45781,0.20937 -1.875,0.625 l -2.5,1.25 m 178.125,2.5 -3.125,3.75 c -1.66703,1.66703 -3.12531,2.50031 -4.375,2.5 -1.66703,3.1e-4 -3.75031,-0.625 -6.25,-1.875 -1.66703,1.66703 -2.50031,4.16703 -2.5,7.5 -3.1e-4,5.83375 4.37469,10.00031 13.125,12.5 l -0.625,-6.875 c 2.49969,5.00031 4.79141,7.50031 6.875,7.5 0.83281,3.1e-4 1.25,-0.625 1.25,-1.875 l -2.5,-8.75 2.5,0 c -3.1e-4,3.1e-4 0.20781,0.83437 0.625,2.5 0.41562,1.25 1.04062,3.54203 1.875,6.875 l 1.25,-0.625 -0.625,-11.25 2.5,0.625 1.875,5.625 0.625,-1.875 0.625,-5 -2.5,-5 -3.75,-4.375 -5,-1.25 -1.875,-0.625 m -176.875,28.125 6.25,-2.5 15,-8.75 c 7.91656,-3.33297 15.62484,-4.99969 23.125,-5 18.33312,3.1e-4 32.91641,4.37531 43.75,13.125 l 5,4.375 6.25,6.25 2.5,3.75 2.5,3.75 c 2.91641,-2.49969 4.37469,-4.37469 4.375,-5.625 l 0,-2.5 c -16.25016,-19.99969 -37.50016,-29.99969 -63.75,-30 -7.50016,3.1e-4 -14.37516,1.04219 -20.625,3.125 l -8.75,4.375 -7.5,3.125 c -5.41672,1.66703 -8.12516,5.00031 -8.125,10 l 0,2.5 m 140,-19.375 c 0.83281,0.83437 2.70812,2.29203 5.625,4.375 2.91641,1.66703 7.08312,4.16703 12.5,7.5 l -1.25,-4.375 0,-3.125 c 0.41719,-2.49969 -5.20859,-3.95797 -16.875,-4.375 m 87.5,3.75 c -7.08375,2.08375 -12.91703,4.79203 -17.5,8.125 l 0,1.25 7.5,0 c -3.1e-4,1.66703 0.20781,2.50031 0.625,2.5 l -1.875,6.875 3.75,-1.875 0.625,1.875 3.125,0 c 2.91625,1.25 8.54125,2.29203 16.875,3.125 l 0.625,1.875 c -8.75031,4.58375 -15.41703,6.66703 -20,6.25 l -5.625,0 3.125,4.375 c 0.83281,3.33375 1.25,5.00031 1.25,5 -3.1e-4,1.25 -2.29203,2.29203 -6.875,3.125 l 0,1.875 c 5.83297,2.91703 11.04125,4.37531 15.625,4.375 5.41625,3.1e-4 10.83297,-1.45781 16.25,-4.375 0.83281,-0.83281 1.25,-1.66641 1.25,-2.5 -3.1e-4,-2.08297 -1.66703,-4.16625 -5,-6.25 l 0.625,-2.5 c 2.91625,1.25 5.20797,1.87531 6.875,1.875 7.49969,3.1e-4 13.74969,-4.79125 18.75,-14.375 l -9.375,-2.5 -4.375,-4.375 c -2.08375,-3.74969 -4.16703,-5.83297 -6.25,-6.25 l -2.5,0 -6.25,0.625 3.75,-7.5 -1.875,0 -5,-1.25 -3.125,0 -3.125,-0.625 -1.875,1.25 m -26.25,0 c -6.66703,1.66703 -10.00031,5.62531 -10,11.875 -3.1e-4,0.83437 0.20781,1.45937 0.625,1.875 0.83281,-3.33297 2.29141,-4.99969 4.375,-5 0.83281,3.1e-4 1.25,0.625 1.25,1.875 l -4.375,5 0,1.25 1.25,1.25 4.375,-5 2.5,0 -5,8.75 1.25,0 c 1.66641,-2.91625 3.54141,-4.37469 5.625,-4.375 0.83281,3.1e-4 1.45781,0.20937 1.875,0.625 l -5,4.375 2.5,0.625 c 8.33297,3.1e-4 12.49969,-3.95797 12.5,-11.875 l -10,-1.25 -3.75,-10 m -193.125,14.375 -1.25,1.875 6.25,-2.5 11.25,-4.375 c 3.33312,-0.83281 5.41656,-1.25 6.25,-1.25 4.99984,3.1e-4 9.58312,1.45937 13.75,4.375 4.16656,2.91703 6.24984,6.04203 6.25,9.375 -1.6e-4,5.00031 -2.29188,7.50031 -6.875,7.5 -3.33344,3.1e-4 -5.41688,-0.20781 -6.25,-0.625 0.41719,2.91703 2.70812,4.37531 6.875,4.375 7.91656,3.1e-4 11.87484,-4.58297 11.875,-13.75 -1.6e-4,-9.58297 -6.45844,-14.37469 -19.375,-14.375 -7.50016,3.1e-4 -17.08344,3.12531 -28.75,9.375 m 140.625,6.25 0.625,5.625 -3.75,7.5 c -3.1e-4,2.08375 2.49969,3.12531 7.5,3.125 4.16641,3.1e-4 7.91641,-1.66625 11.25,-5 l -6.25,1.25 0.625,-1.875 c 4.16641,-0.41563 6.24969,-1.87469 6.25,-4.375 -0.83438,-0.83281 -2.70859,-1.25 -5.625,-1.25 l -1.875,-1.25 10.625,-5 -10,1.875 1.25,-2.5 c 3.74969,-0.41563 6.24969,-1.66625 7.5,-3.75 -2.08359,-1.25 -4.16703,-1.87469 -6.25,-1.875 -8.75031,3.1e-4 -13.12531,1.66703 -13.125,5 -3.1e-4,3.1e-4 -3.1e-4,0.20937 0,0.625 0.41719,0.41719 0.83281,1.04219 1.25,1.875 m 31.875,-5.625 -1.25,1.875 4.375,2.5 0.625,-2.5 c -3.1e-4,-1.25 -1.25,-1.87469 -3.75,-1.875 m -11.25,6.875 c 2.49969,0.83437 3.74969,1.25 3.75,1.25 2.08297,3.1e-4 3.12469,-1.04063 3.125,-3.125 -3.1e-4,-2.08297 -0.83438,-3.12469 -2.5,-3.125 l -2.5,0 -1.875,5 m 18.125,-2.5 c -0.41719,0.41719 -0.625,1.25 -0.625,2.5 -3.1e-4,1.66703 0.625,2.50031 1.875,2.5 1.25,-0.41563 1.87469,-1.25 1.875,-2.5 -3.1e-4,-0.83281 -0.41719,-1.66625 -1.25,-2.5 l -1.25,0 -0.625,0 m 27.5,6.875 c 2.08297,0.41719 4.58297,0.625 7.5,0.625 l 4.375,0 c 1.66625,3.1e-4 4.16625,-0.625 7.5,-1.875 -3.75031,-1.25 -9.37531,-2.49969 -16.875,-3.75 -1.25,3.1e-4 -2.08375,1.25 -2.5,3.75 l 0,1.25 m -33.75,-3.75 c -1.25,3.1e-4 -1.87531,0.41719 -1.875,1.25 -3.1e-4,2.50031 1.04062,3.75031 3.125,3.75 1.66641,3.1e-4 2.49969,-0.83281 2.5,-2.5 -3.1e-4,-2.49969 -1.04219,-3.33297 -3.125,-2.5 l -0.625,0 m -47.5,3.75 -6.875,0 -6.25,2.5 -2.5,0 6.875,-4.375 c -3.33359,-0.83281 -5.00031,-1.25 -5,-1.25 -5.00031,3.1e-4 -8.33359,1.87531 -10,5.625 l -0.625,1.25 c -3.1e-4,1.66703 1.66641,2.50031 5,2.5 4.99969,3.1e-4 11.45812,-2.08297 19.375,-6.25 m -35.625,1.25 0,61.25 0.625,5.625 0,9.375 3.75,-0.625 0,-67.5 c -1.6e-4,-3.74969 -1.45781,-6.45797 -4.375,-8.125 m 73.75,-0.625 c -1.25,0.83437 -1.87531,1.87531 -1.875,3.125 -3.1e-4,2.08375 1.04219,3.12531 3.125,3.125 2.08297,3.1e-4 3.12469,-1.04063 3.125,-3.125 -3.1e-4,-2.08297 -1.25,-3.12469 -3.75,-3.125 l -0.625,0 m 18.125,0.625 c -1.25,3.1e-4 -1.87531,0.625 -1.875,1.875 -3.1e-4,1.25 0.83281,1.87531 2.5,1.875 1.25,3.1e-4 1.87469,-0.83281 1.875,-2.5 -3.1e-4,-0.83281 -0.83438,-1.25 -2.5,-1.25 m 5.625,5 c 0.83281,0.41719 1.66641,0.83437 2.5,1.25 1.25,0.41719 2.29141,0.83437 3.125,1.25 l 0.625,1.25 c -0.83438,0.83437 -1.45781,1.25 -1.875,1.25 -0.41719,3.1e-4 -1.25,3.1e-4 -2.5,0 -1.25,-0.41563 -2.91703,-0.83281 -5,-1.25 l -1.25,-0.625 c -1.66703,3.1e-4 -2.50031,0.625 -2.5,1.875 -3.1e-4,3.33359 2.91641,7.50031 8.75,12.5 l 8.75,0.625 2.5,-8.125 8.125,-3.75 c -3.75031,-7.49969 -7.70859,-11.24969 -11.875,-11.25 -5.00031,3.1e-4 -8.12531,1.66703 -9.375,5 m -77.5,9.375 -3.125,5.625 c 3.33312,0.83437 4.99969,1.25 5,1.25 1.25,3.1e-4 2.70812,-0.83281 4.375,-2.5 l 2.5,1.25 c -2.08359,3.33359 -3.12531,5.62531 -3.125,6.875 -3.1e-4,0.83437 -3.1e-4,1.87531 0,3.125 0.41719,1.25 0.83281,2.91703 1.25,5 l 0,9.375 -3.125,12.5 c 1.25,0.41719 3.95812,0.625 8.125,0.625 4.16641,3.1e-4 7.49969,-1.87469 10,-5.625 2.49969,-4.16641 3.95812,-6.24969 4.375,-6.25 l 3.125,0 -2.5,8.125 0.625,5 c 12.91641,-3.74969 20.20797,-10.62469 21.875,-20.625 l 0.625,-6.25 -1.875,0 c 0.41562,0.41719 0.625,1.25 0.625,2.5 -3.1e-4,2.50031 -0.83438,4.58359 -2.5,6.25 l -2.5,0 2.5,-7.5 0,-6.875 -2.5,8.75 -2.5,5 -2.5,-0.625 c 1.66641,-2.91641 2.49969,-4.99969 2.5,-6.25 -3.1e-4,-1.66641 -0.20781,-2.91641 -0.625,-3.75 l -4.375,6.25 c -1.66688,3.1e-4 -2.50031,-0.41563 -2.5,-1.25 -3.1e-4,-2.49969 1.45781,-4.58297 4.375,-6.25 -7.08359,2.08359 -12.08359,5.83359 -15,11.25 l -3.125,-0.625 1.875,-6.25 4.375,-7.5 4.375,-9.375 -8.125,6.25 -1.25,-1.25 -0.625,-0.625 0.625,-0.625 7.5,-6.25 -2.5,-0.625 c -0.41719,3.1e-4 -1.45781,0.83281 -3.125,2.5 -1.66688,1.66703 -2.91688,2.50031 -3.75,2.5 -0.83438,3.1e-4 -1.66688,-0.41719 -2.5,-1.25 l 7.5,-5.625 -1.875,-3.75 -5,3.75 -2.5,0 0,-2.5 13.75,-6.875 -5,0 -11.25,3.75 c -2.50031,0.41719 -6.66688,3.54203 -12.5,9.375 m 62.5,-10.625 c -0.41719,3.1e-4 -0.625,0.625 -0.625,1.875 -0.83438,2.08375 0.20781,3.12531 3.125,3.125 1.25,3.1e-4 1.87469,-0.83281 1.875,-2.5 -3.1e-4,-2.08297 -1.04219,-3.12469 -3.125,-3.125 l -1.25,0.625 m 85,0 c -2.50031,1.25 -3.75031,2.50031 -3.75,3.75 -3.1e-4,0.83437 1.04062,1.87531 3.125,3.125 l 5,3.125 1.25,-5 c -0.41719,-2.49969 -2.29203,-4.16625 -5.625,-5 m -159.375,0.625 c 0.41719,2.08375 0.83281,3.95875 1.25,5.625 0.41719,1.66703 0.83281,2.91703 1.25,3.75 2.49969,8.75031 3.74969,15.20859 3.75,19.375 -3.1e-4,4.58359 -1.45781,10.41703 -4.375,17.5 l -0.625,19.375 c 0.83281,-1.25 1.87469,-2.49969 3.125,-3.75 1.25,-1.66641 2.29141,-3.33297 3.125,-5 l 0,-3.75 3.75,-12.5 c 0.41562,-0.41719 0.625,-1.45781 0.625,-3.125 -3.1e-4,-2.49969 0.20781,-4.37469 0.625,-5.625 l 0,-7.5 c 0.83281,-2.49969 0.41719,-3.95797 -1.25,-4.375 l -5,-3.75 3.75,-10.625 c -3.1e-4,-3.33297 -3.33359,-5.20797 -10,-5.625 m 223.75,1.25 -4.375,3.125 -6.25,3.125 -1.875,8.125 c 7.08281,-2.91641 11.66625,-6.66641 13.75,-11.25 l -1.25,-3.125 m -76.875,5.625 5,13.75 c -1.66703,5.41703 -5.00031,8.54203 -10,9.375 2.49969,3.75031 4.79125,5.62531 6.875,5.625 6.24969,3.1e-4 9.37453,-4.16641 9.375,-12.5 -4.7e-4,-0.83281 -0.41719,-2.91641 -1.25,-6.25 l -2.5,-5 -4.375,-6.25 -3.125,1.25 m -81.875,1.25 -4.375,3.125 c -0.41719,-0.41719 -0.625,-1.04219 -0.625,-1.875 -3.1e-4,-1.66641 0.20781,-2.70797 0.625,-3.125 -2.91703,2.91703 -4.37531,6.04203 -4.375,9.375 -3.1e-4,2.91703 0.20781,4.79203 0.625,5.625 l 0,1.875 c 1.25,-0.41719 3.12469,-0.625 5.625,-0.625 2.49969,3.1e-4 5.41641,1.25 8.75,3.75 l 2.5,5 c 4.58297,-4.58297 6.87469,-8.95797 6.875,-13.125 -3.1e-4,-3.74969 -1.45781,-7.08297 -4.375,-10 l 3.125,8.75 -3.125,0.625 c -0.41719,-2.08297 -1.04219,-3.74969 -1.875,-5 -0.83438,-1.66641 -1.66703,-3.33297 -2.5,-5 l 0,7.5 -2.5,-5 -1.875,0 -1.875,2.5 -1.875,-2.5 1.25,-1.875 m 143.75,15.625 8.125,-0.625 6.25,-1.25 c 1.25,-0.41719 3.33281,-0.625 6.25,-0.625 11.66625,3.1e-4 17.49953,3.33359 17.5,10 -4.7e-4,5.00031 -2.08375,7.50031 -6.25,7.5 -1.66719,3.1e-4 -3.54219,-1.66641 -5.625,-5 -2.08375,3.33359 -3.12547,5.20859 -3.125,5.625 -4.7e-4,5.00031 3.33281,7.50031 10,7.5 7.91625,3.1e-4 11.87453,-4.16641 11.875,-12.5 -4.7e-4,-6.66641 -2.70875,-10.20797 -8.125,-10.625 l 0,-1.875 c 3.74953,-0.41719 5.62453,-1.45781 5.625,-3.125 -4.7e-4,-4.58297 -4.16719,-6.87469 -12.5,-6.875 -3.33375,3.1e-4 -7.29219,1.25 -11.875,3.75 -4.16719,2.08359 -7.29219,3.12531 -9.375,3.125 -1.25,0.41719 -2.91719,0.625 -5,0.625 l -1.25,0 c -1.25,0.41719 -2.08375,1.87531 -2.5,4.375 m -170,0 0,2.5 12.5,-6.875 -0.625,-7.5 c -3.75031,1.66703 -7.70859,5.62531 -11.875,11.875 m 65,-9.375 -0.625,6.875 c -4.16703,0.83437 -6.04203,1.25 -5.625,1.25 -2.08359,3.1e-4 -3.54203,-0.20781 -4.375,-0.625 0.83281,2.50031 1.66641,5.00031 2.5,7.5 0.83281,2.50031 1.66641,5.20859 2.5,8.125 l 3.75,5 c 0.41719,0.41719 0.625,0.83281 0.625,1.25 -3.1e-4,0.83437 -0.41719,1.25 -1.25,1.25 -5.41703,3.1e-4 -10.20859,-3.12469 -14.375,-9.375 l -5.625,-8.125 0,3.75 5,10.625 -8.75,-10.625 c -2.08359,2.08359 -3.12531,3.54203 -3.125,4.375 -3.1e-4,0.83281 0.625,2.50031 1.875,5 l -2.5,0 c -0.83438,-2.91641 -1.87531,-5.62469 -3.125,-8.125 -0.83438,-2.49969 -2.08359,-4.79141 -3.75,-6.875 -0.41719,2.08359 -0.83438,3.95859 -1.25,5.625 -3.1e-4,1.25 -3.1e-4,2.29203 0,3.125 -3.1e-4,4.16703 3.33297,11.45859 10,21.875 3.33297,-3.33297 4.99969,-7.29141 5,-11.875 l 2.5,0.625 4.375,5.625 11.25,3.125 4.375,3.125 c 0.83281,1.66703 1.45781,3.12531 1.875,4.375 0.83281,0.83437 1.45781,1.45781 1.875,1.875 3.33297,3.1e-4 4.99969,-4.16641 5,-12.5 -3.1e-4,-4.16641 -0.83438,-7.91641 -2.5,-11.25 l 2.5,-1.25 c 0.83281,1.66703 2.70797,2.70859 5.625,3.125 -3.1e-4,-9.99969 -4.58375,-18.95797 -13.75,-26.875 m -20.625,6.25 0,1.875 c -3.1e-4,1.66703 0.20781,2.70859 0.625,3.125 l 3.75,6.875 9.375,7.5 -2.5,-5.625 -1.875,-5 c -1.25,-4.99969 -2.70859,-7.70797 -4.375,-8.125 l -4.375,-2.5 -0.625,1.875 m 31.875,0.625 c 2.49969,0.83437 4.37469,1.45781 5.625,1.875 3.74969,2.50031 5.83297,3.75031 6.25,3.75 l 1.25,0.625 c -3.1e-4,1.25 -0.625,1.87531 -1.875,1.875 -0.41719,3.1e-4 -1.66703,-0.83281 -3.75,-2.5 -2.08375,-1.66641 -3.95875,-2.70797 -5.625,-3.125 2.91625,7.08359 9.79125,10.83359 20.625,11.25 -1.66703,-2.08297 -2.70875,-3.95797 -3.125,-5.625 -4.58375,-7.49969 -9.79203,-11.24969 -15.625,-11.25 -1.25,3.1e-4 -1.87531,0.20937 -1.875,0.625 l -1.875,2.5 m -211.25,-1.25 c 0.41719,2.08359 0.625,3.95859 0.625,5.625 0.41719,1.25 0.625,2.29203 0.625,3.125 -1.6e-4,3.33359 -1.25,7.70859 -3.75,13.125 -0.41719,0.83437 -0.83281,1.66703 -1.25,2.5 -1.6e-4,0.83281 -0.41719,2.08359 -1.25,3.75 -2.91672,9.16703 -4.37516,13.33359 -4.375,12.5 -1.6e-4,-1.25 1.45781,2.29187 4.375,10.625 -1.66688,3.1e-4 -3.95844,-0.83281 -6.875,-2.5 l 0.625,6.25 c 5.83312,10.83359 14.99984,16.04187 27.5,15.625 l 0.625,0 5,-0.625 6.875,0 c 0.83281,2.50031 1.25,3.54187 1.25,3.125 -1.6e-4,1.66687 -1.04219,2.50031 -3.125,2.5 -2.91688,3.1e-4 -5.83344,-0.625 -8.75,-1.875 -5.83344,-0.83281 -10.20844,-1.45781 -13.125,-1.875 -2.91688,-0.83281 -4.16688,-1.25 -3.75,-1.25 -2.50016,3.1e-4 -6.45844,1.25 -11.875,3.75 l 7.5,5 1.25,2.5 c -7.08344,3.33359 -10.62516,6.87531 -10.625,10.625 -1.6e-4,1.66687 0.83281,3.95859 2.5,6.875 3.33312,-4.99984 6.66656,-7.91641 10,-8.75 l 30,-1.875 8.125,-1.875 4.375,-1.25 c 2.08312,-0.83281 3.12484,-2.08313 3.125,-3.75 -1.6e-4,-2.08313 -0.20938,-3.33313 -0.625,-3.75 l -8.125,1.875 -6.875,0.625 0.625,-1.875 15,-3.75 0,-7.5 -12.5,0 -6.875,-1.875 -6.25,-5.625 1.875,-1.875 c 5.83312,4.58359 11.87484,6.87531 18.125,6.875 l 5.625,0 0,-3.75 -2.5,0 c -2.50016,3.1e-4 -5.20844,-1.25 -8.125,-3.75 -2.50016,-2.91641 -3.75016,-5.62469 -3.75,-8.125 -1.6e-4,-1.66641 0.83281,-2.49969 2.5,-2.5 0.83281,3.1e-4 1.25,0.83281 1.25,2.5 l 0,1.875 c 2.49984,5.00031 6.04156,7.50031 10.625,7.5 l 0,-5 c -1.6e-4,-2.08313 -0.625,-5.41641 -1.875,-10 1.25,-2.49969 1.87484,-4.37469 1.875,-5.625 -1.6e-4,-1.66641 -0.20938,-2.91641 -0.625,-3.75 -1.25,2.08359 -2.50016,3.12531 -3.75,3.125 -1.25,3.1e-4 -1.87516,-0.625 -1.875,-1.875 -1.6e-4,-0.41563 0.625,-1.87469 1.875,-4.375 1.25,-2.49969 1.87484,-4.58297 1.875,-6.25 -1.6e-4,-6.24969 -2.70844,-9.58297 -8.125,-10 -0.83281,1.25 -1.66688,2.91703 -2.5,5 -0.83281,1.66703 -1.66688,3.54203 -2.5,5.625 l 0,1.25 c -1.6e-4,-0.41563 0.41719,1.45937 1.25,5.625 -0.41719,0.41719 -1.25,0.625 -2.5,0.625 -0.83281,3.1e-4 -1.87516,-0.625 -3.125,-1.875 -1.66688,2.91703 -2.50016,5.20859 -2.5,6.875 -1.6e-4,1.66687 0.625,3.95859 1.875,6.875 l -2.5,0.625 -2.5,-10 2.5,-11.875 -3.125,-6.875 c -1.66688,1.66703 -3.12516,3.33359 -4.375,5 -1.25,1.25 -2.70844,2.29203 -4.375,3.125 l -1.25,-2.5 c 2.91656,-4.16641 4.37484,-7.29141 4.375,-9.375 -1.6e-4,-7.08297 -4.58344,-11.45797 -13.75,-13.125 m -47.5,5 c -0.83281,4.16703 -1.25,6.04203 -1.25,5.625 -1.6e-4,5.83359 3.54156,8.75031 10.625,8.75 1.25,3.1e-4 3.54156,-1.66641 6.875,-5 l -8.125,-1.25 -2.5,-1.25 -5.625,-6.875 m 363.125,11.25 -1.25,1.25 c -2.08375,-0.41719 -3.75047,-0.625 -5,-0.625 -1.25,-0.41719 -2.29219,-0.625 -3.125,-0.625 -9.58375,3.1e-4 -14.37547,5.62531 -14.375,16.875 -4.7e-4,4.16703 3.54125,6.66687 10.625,7.5 -3.33375,-3.33297 -5.00047,-5.62469 -5,-6.875 -4.7e-4,-4.58297 2.49953,-6.87469 7.5,-6.875 0.83281,3.1e-4 1.66625,0.20937 2.5,0.625 1.25,3.1e-4 2.70781,0.20937 4.375,0.625 l 3.75,4.375 c -0.83438,10.00031 -6.87547,17.29187 -18.125,21.875 l -18.75,6.875 -6.25,3.125 c 1.66625,1.25 3.12453,1.87531 4.375,1.875 l 0.625,0 c 2.49953,3.1e-4 10.20797,-2.91641 23.125,-8.75 l 10.625,-5 c 10.83281,-4.99969 16.24953,-12.49969 16.25,-22.5 -4.7e-4,-2.91641 -1.04219,-6.04141 -3.125,-9.375 l -5,-6.875 -1.875,-3.75 -0.625,-0.625 c -1.66719,3.1e-4 -2.50047,1.04219 -2.5,3.125 -4.7e-4,3.1e-4 0.41562,1.25 1.25,3.75 m 75.625,4.375 -5,3.75 -13.125,11.875 c -10.41719,9.16687 -19.16719,15.20859 -26.25,18.125 l -11.25,5 -7.5,4.375 6.875,-1.875 10.625,-5 5.625,-1.875 48.125,-32.5 3.125,-0.625 6.875,1.875 -0.625,-7.5 c -4.7e-4,-2.49969 -1.87547,-3.74969 -5.625,-3.75 -1.25,3.1e-4 -3.54219,0.83281 -6.875,2.5 -2.91719,1.66703 -4.58391,2.91703 -5,3.75 l 0,1.875 m -279.375,-7.5 -1.875,6.875 -5,16.875 c -0.41719,0.83281 -0.625,2.29187 -0.625,4.375 -3.1e-4,5.41687 2.49969,8.12531 7.5,8.125 4.58312,3.1e-4 7.08312,-2.08313 7.5,-6.25 -2.50031,1.25 -4.58359,1.87531 -6.25,1.875 -2.91688,3.1e-4 -4.37531,-2.91641 -4.375,-8.75 l 0,-1.875 3.75,-15.625 -0.625,-5.625 m -140,8.125 c -5.00016,4.16703 -8.33344,9.16703 -10,15 l -1.25,5 0.625,8.125 1.875,13.125 1.25,1.25 -0.625,-12.5 0,-5 2.5,-9.375 0,-3.125 3.75,-2.5 5.625,-4.375 7.5,3.75 0,1.25 c 0.83281,2.50031 -1.6e-4,3.95859 -2.5,4.375 0.83281,0.83281 1.66656,1.25 2.5,1.25 3.74984,3.1e-4 5.62484,-2.91641 5.625,-8.75 -1.6e-4,-2.91641 -1.87516,-6.04141 -5.625,-9.375 -2.50016,-0.83281 -3.54172,-1.25 -3.125,-1.25 l -0.625,0 -1.875,0 -5.625,3.125 m -20,-0.625 -1.25,6.25 c -0.41719,3.33359 -0.83281,6.25031 -1.25,8.75 -1.6e-4,2.50031 -1.6e-4,4.58359 0,6.25 l 0,1.25 0,1.875 c 0.41719,1.66687 0.83281,3.95859 1.25,6.875 0.41719,2.50031 0.83281,5.41687 1.25,8.75 2.08328,12.50031 7.08328,25.20859 15,38.125 l 5,6.25 c 2.08328,2.08359 4.16656,4.16687 6.25,6.25 2.08328,1.66687 4.16656,2.91687 6.25,3.75 l 11.25,6.875 c 2.49984,1.66687 3.95812,2.70859 4.375,3.125 0.83281,0.41719 2.49984,1.04219 5,1.875 2.08312,-3.33313 3.12484,-4.99984 3.125,-5 -1.6e-4,-1.25 -3.33344,-2.70813 -10,-4.375 -10.83344,-3.33313 -20.62516,-12.49984 -29.375,-27.5 -8.33344,-15.83313 -12.50016,-31.45813 -12.5,-46.875 -1.6e-4,-2.91641 0.625,-7.49969 1.875,-13.75 0.41719,-0.83281 0.625,-2.29141 0.625,-4.375 -1.6e-4,-2.08297 -2.29172,-3.54141 -6.875,-4.375 m 196.25,25 c 9.16641,-2.91641 13.74969,-8.74969 13.75,-17.5 -3.1e-4,-1.66641 -0.625,-2.49969 -1.875,-2.5 -1.66703,3.1e-4 -2.70859,2.70859 -3.125,8.125 -0.83438,1.25 -1.45781,1.87531 -1.875,1.875 l -1.25,0 3.125,-9.375 -0.625,-3.125 -4.375,6.25 -1.25,9.375 -2.5,6.875 m 62.5,-1.875 c 5.41625,-0.41719 8.12469,-1.45781 8.125,-3.125 -3.1e-4,-8.33297 -1.25,-12.91641 -3.75,-13.75 l -2.5,-0.625 -1.875,17.5 m 141.875,-9.375 c -2.08375,1.66703 -3.75047,2.91703 -5,3.75 -0.83438,0.41719 -1.66719,0.83281 -2.5,1.25 -0.83438,0.41719 -2.70875,1.45781 -5.625,3.125 -2.50047,1.25 -6.04219,3.12531 -10.625,5.625 -2.08375,0.83437 -4.58375,2.08359 -7.5,3.75 2.08281,2.08359 3.54125,3.12531 4.375,3.125 1.25,3.1e-4 3.74953,-1.25 7.5,-3.75 l 12.5,-7.5 c 2.49953,-1.25 4.79125,-4.37469 6.875,-9.375 m 25.625,18.125 3.75,1.875 c 4.16609,-7.91641 9.37453,-11.87469 15.625,-11.875 5.41609,3.1e-4 8.12453,3.33359 8.125,10 l 0,1.25 -1.875,6.875 -0.625,3.125 -4.375,4.375 3.125,5.625 c 5.41609,-5.41641 8.12437,-12.70813 8.125,-21.875 -6.3e-4,-9.99969 -4.37547,-14.99969 -13.125,-15 -7.50047,3.1e-4 -13.75047,5.20859 -18.75,15.625 m 11.875,-1.875 -2.5,4.375 c 2.08281,2.08359 3.12453,3.75031 3.125,5 -4.7e-4,3.75031 -1.87547,6.45859 -5.625,8.125 -3.33391,1.25 -5.00047,3.54187 -5,6.875 10.83281,-2.08313 16.24953,-7.49969 16.25,-16.25 -4.7e-4,-4.16641 -2.08391,-6.87469 -6.25,-8.125 m -71.25,3.125 -3.125,0 -0.625,1.875 c -3.33375,3.1e-4 -6.66719,1.04219 -10,3.125 -0.83438,0.41719 -7.08375,2.70859 -18.75,6.875 -1.25,0.41719 -2.50047,0.83437 -3.75,1.25 -0.83438,0.41719 -1.66703,0.83438 -2.5,1.25 3.33297,2.08359 4.99953,3.12531 5,3.125 2.49953,3.1e-4 9.99953,-3.12469 22.5,-9.375 0.83281,-0.41719 1.66625,-0.83281 2.5,-1.25 1.25,-0.41719 2.70781,-0.83281 4.375,-1.25 l 4.375,-5.625 m -348.125,29.375 5,9.375 3.75,3.75 c 8.74984,10.00016 17.91656,16.66687 27.5,20 l 0,-1.25 c -22.91672,-9.99984 -34.37516,-23.74984 -34.375,-41.25 -1.6e-4,-8.74969 2.91656,-13.12469 8.75,-13.125 2.91656,3.1e-4 4.37484,1.25 4.375,3.75 -1.6e-4,1.66687 -0.83281,3.33359 -2.5,5 3.74984,-1.66641 5.62484,-3.33313 5.625,-5 -1.6e-4,-6.66641 -3.33344,-9.99969 -10,-10 -7.91672,3.1e-4 -11.87516,5.41687 -11.875,16.25 -1.6e-4,4.16687 1.25,8.33359 3.75,12.5 m 395.625,-8.75 c -8.75047,3.1e-4 -13.12547,-2.49969 -13.125,-7.5 -4.7e-4,-4.58313 5.20781,-6.87469 15.625,-6.875 -1.25,3.1e-4 3.54109,1.66687 14.375,5 0.41562,-1.25 0.625,-2.08313 0.625,-2.5 0.41562,-0.83281 0.625,-1.25 0.625,-1.25 -4.7e-4,-3.74969 -5.83391,-5.62469 -17.5,-5.625 -13.75047,3.1e-4 -20.62547,4.16687 -20.625,12.5 -4.7e-4,6.25031 5.41625,9.79187 16.25,10.625 2.49953,3.1e-4 3.74953,-0.83281 3.75,-2.5 l 0,-1.875 m -39.375,-11.875 0,0.625 -5,1.875 5,-0.625 0,-1.875 m 45,1.875 -1.25,5.625 0,8.75 -0.625,2.5 0.625,0.625 c 0.41562,3.1e-4 0.83281,0.20937 1.25,0.625 0.83281,3.1e-4 2.08281,-3.33313 3.75,-10 0.83281,-3.33313 1.25,-4.99969 1.25,-5 -4.7e-4,-1.25 -1.66719,-2.29141 -5,-3.125 m -83.75,10 c 1.66625,1.25 3.12453,1.87531 4.375,1.875 0.41562,3.1e-4 2.29125,-0.83281 5.625,-2.5 3.74953,-1.66641 7.29125,-2.49969 10.625,-2.5 6.24953,3.1e-4 13.54125,2.29187 21.875,6.875 l 8.125,0.625 -0.625,-2.5 c -8.33375,-5.83313 -16.66719,-8.74969 -25,-8.75 -6.66719,3.1e-4 -15.00047,2.29187 -25,6.875 m 84.375,21.25 c 4.16609,14.16687 10.62453,21.25016 19.375,21.25 9.16609,1.6e-4 13.74953,-6.24984 13.75,-18.75 -4.7e-4,-6.66641 -2.08391,-13.33313 -6.25,-20 -2.08391,-3.74969 -3.33391,-5.62469 -3.75,-5.625 l -1.25,-0.625 -0.625,0 c -1.66719,3.1e-4 -2.50047,1.04219 -2.5,3.125 -4.7e-4,0.41719 1.45781,3.12531 4.375,8.125 3.33281,4.58359 4.99953,9.58359 5,15 -4.7e-4,8.75016 -3.33391,13.12516 -10,13.125 -4.58391,1.6e-4 -7.91719,-2.91641 -10,-8.75 -1.25,-4.58313 -3.33391,-6.87484 -6.25,-6.875 l -1.875,0 m -271.25,-22.5 -12.5,1.875 -0.625,4.375 0.625,46.875 -0.625,18.75 0.625,14.375 -0.625,26.25 1.25,26.875 2.5,16.25 c 0.41562,1.66672 1.04062,3.33344 1.875,5 0.83281,1.25 1.66641,2.70844 2.5,4.375 l 3.125,5 -4.375,-20 -2.5,-64.375 0,-65 -0.625,-14.375 13.125,-1.25 52.5,0 c 19.16641,3.1e-4 34.79141,1.45781 46.875,4.375 l 6.25,1.25 c 12.91625,2.91687 20.83297,5.00031 23.75,6.25 l 4.375,1.875 6.875,2.5 -13.75,-7.5 -6.875,-1.875 -5.625,-2.5 c -1.25,-0.83281 -4.79203,-1.66641 -10.625,-2.5 l -20.625,-3.75 c -0.83438,3.1e-4 -2.91703,-0.41719 -6.25,-1.25 -3.33359,-0.83281 -5.20859,-1.04219 -5.625,-0.625 l -3.125,0.625 -20,-1.875 -51.875,0 m 288.125,6.875 c -7.08391,4.58359 -14.79219,6.87531 -23.125,6.875 l -5.625,0 c -2.08391,3.1e-4 -3.75047,-0.20781 -5,-0.625 l -31.25,-4.375 c -1.25,-0.41719 -3.75047,-0.625 -7.5,-0.625 l -4.375,0 c -2.50047,3.1e-4 -4.37547,0.20938 -5.625,0.625 l -6.875,1.25 3.125,3.75 21.25,0 41.875,5 c 2.49953,1.6e-4 7.29109,-0.625 14.375,-1.875 7.08281,-2.08312 10.62453,-3.95812 10.625,-5.625 -4.7e-4,-0.83281 -0.625,-2.29141 -1.875,-4.375 m -243.75,6.25 0.625,1.25 -1.875,1.25 c -4.58359,-3.74969 -9.58359,-5.62469 -15,-5.625 -7.50031,3.1e-4 -14.16688,2.50031 -20,7.5 -5.83359,5.00016 -8.75031,10.62516 -8.75,16.875 -3.1e-4,3.33359 2.29141,7.29188 6.875,11.875 3.33312,2.08359 5.41641,3.12516 6.25,3.125 2.08312,1.6e-4 4.37469,-0.625 6.875,-1.875 7.91641,-4.16641 13.54141,-6.24984 16.875,-6.25 7.08312,1.6e-4 10.62469,3.95859 10.625,11.875 l 0,1.875 c -3.1e-4,5.00016 -2.50031,7.50016 -7.5,7.5 -1.66688,1.6e-4 -2.91688,-0.41719 -3.75,-1.25 l -5.625,-6.25 -1.25,-1.25 -1.25,0 -1.875,0.625 -2.5,2.5 6.25,2.5 5,9.375 c 0.41719,0.41719 1.66641,0.625 3.75,0.625 3.74969,1.6e-4 7.08312,-1.87484 10,-5.625 3.33297,-3.74984 4.99969,-7.91641 5,-12.5 -3.1e-4,-4.99984 -3.75031,-9.16641 -11.25,-12.5 l 4.375,-4.375 c -2.91688,-2.91641 -5.83359,-4.37484 -8.75,-4.375 -3.33359,1.6e-4 -6.45859,1.25 -9.375,3.75 l -7.5,6.25 c -2.08359,2.08359 -4.16688,3.12516 -6.25,3.125 -5.83359,1.6e-4 -8.75031,-3.12484 -8.75,-9.375 -3.1e-4,-10.83312 7.08312,-16.24969 21.25,-16.25 6.66641,3.1e-4 13.33312,2.70859 20,8.125 l 4.375,5.625 3.125,6.25 0.625,-0.625 -0.625,1.25 c 1.25,6.25016 1.87469,10.83359 1.875,13.75 l 0,4.375 -3.75,10 -2.5,9.375 -1.875,3.75 c -3.1e-4,0.41719 1.04062,2.29188 3.125,5.625 l 8.75,8.75 2.5,3.125 c 1.25,-2.91656 3.33297,-7.08312 6.25,-12.5 l 9.375,-12.5 4.375,-7.5 2.5,-7.5 1.25,-11.875 -5,0 1.875,-3.125 c 0.41719,-0.41719 0.625,-1.25 0.625,-2.5 -3.1e-4,-2.49984 -0.625,-4.37484 -1.875,-5.625 l -1.25,-1.875 -1.25,-3.75 c -5.41703,1.66688 -8.12531,4.79188 -8.125,9.375 l -3.75,0.625 0,-10.625 -1.25,-3.125 -5,-7.5 -6.875,-5 -1.25,-1.25 -8.125,-1.875 -0.625,4.375 m 28.125,8.125 3.125,3.125 3.125,-4.375 c 0.83281,-0.83281 1.87469,-1.25 3.125,-1.25 4.58297,1.6e-4 7.70797,3.95859 9.375,11.875 l -1.875,10 1.25,0 c 3.74969,-4.16641 5.62469,-8.74984 5.625,-13.75 -3.1e-4,-10.83312 -5.00031,-16.24969 -15,-16.25 -5.83359,3.1e-4 -8.75031,3.54188 -8.75,10.625 m 32.5,-6.25 c -2.50031,12.08359 -7.08359,22.08359 -13.75,30 l 13.75,-13.125 0,-2.5 c 3.74969,-3.74984 6.04125,-7.91641 6.875,-12.5 l -6.875,-1.875 m -15,40 1.25,0.625 c 1.66641,-3.74984 3.54141,-6.24984 5.625,-7.5 -3.1e-4,1.6e-4 0.41719,-0.20781 1.25,-0.625 0.83281,-0.83281 2.08297,-1.66641 3.75,-2.5 l 10,-7.5 4.375,-2.5 11.875,-8.125 6.25,-3.125 c -5.41703,-2.91641 -8.75031,-4.37484 -10,-4.375 -2.50031,1.6e-4 -5.83375,2.29188 -10,6.875 -3.75031,4.58359 -9.79203,10.20859 -18.125,16.875 -3.75031,3.75016 -5.83359,7.70859 -6.25,11.875 m 128.125,-33.125 -7.5,0 0.625,1.25 27.5,3.125 c 4.16625,0.83281 6.45781,1.25 6.875,1.25 4.16625,1.6e-4 6.24953,-0.83281 6.25,-2.5 -4.7e-4,1.6e-4 -0.20938,-0.20781 -0.625,-0.625 -4.7e-4,-0.41719 -0.20938,-1.04219 -0.625,-1.875 l -0.625,1.875 -31.875,-2.5 m -302.5,26.25 0.625,1.875 c -4.16688,0.83281 -7.70844,2.70859 -10.625,5.625 4.99984,5.83359 11.45812,8.75016 19.375,8.75 5.41656,1.6e-4 11.66656,-0.625 18.75,-1.875 l 0.625,-15 -7.5,-0.625 c -12.91688,-1.25 -19.37516,-5.20812 -19.375,-11.875 -1.6e-4,-1.66641 1.04219,-3.54141 3.125,-5.625 0.41719,0.41719 1.45781,0.625 3.125,0.625 1.25,1.6e-4 1.87484,-0.625 1.875,-1.875 -1.6e-4,-2.49984 -2.08344,-3.74984 -6.25,-3.75 -3.75016,1.6e-4 -6.87516,2.08359 -9.375,6.25 -0.83281,3.33359 -1.25,5.41688 -1.25,6.25 -1.6e-4,4.16688 2.29156,7.91688 6.875,11.25 m 261.875,-22.5 c -39.58375,3.33359 -66.45875,13.33359 -80.625,30 l 6.25,-2.5 21.25,-10 c 3.33297,-1.66641 14.16625,-4.37484 32.5,-8.125 5.83297,-0.83281 11.24953,-1.45781 16.25,-1.875 4.99953,-0.83281 9.58297,-1.25 13.75,-1.25 17.08297,1.6e-4 33.33281,3.95859 48.75,11.875 l 6.875,-9.375 c -1.66719,-0.83281 -3.12547,-1.25 -4.375,-1.25 -1.25,-0.41719 -2.29219,-0.83281 -3.125,-1.25 -5.41719,-1.66641 -10.00047,-2.91641 -13.75,-3.75 -3.33375,-0.83281 -5.83375,-1.45781 -7.5,-1.875 l -7.5,-0.625 -5.625,-0.625 -15.625,-0.625 -7.5,1.25 m -328.75,7.5 c 2.91656,-1.25 5.41656,-1.87484 7.5,-1.875 1.66656,1.6e-4 3.12484,0.625 4.375,1.875 l 12.5,9.375 10,6.25 3.125,3.125 c 1.66656,1.66688 4.99984,3.33359 10,5 l 6.25,1.875 c -0.41719,-2.49984 -1.87516,-3.95812 -4.375,-4.375 -2.50016,-0.41562 -4.37516,-1.25 -5.625,-2.5 l -8.75,-6.875 -10.625,-6.875 -9.375,-10 c -1.66672,-1.66641 -3.95844,-2.49984 -6.875,-2.5 -3.75016,1.6e-4 -6.45844,2.50016 -8.125,7.5 m 333.125,2.5 -3.75,0.625 -1.25,0 -10.625,0.625 3.75,4.375 2.5,2.5 c 9.99953,14.58359 14.99953,29.37516 15,44.375 l 0.625,10.625 c -4.7e-4,2.08344 -0.20938,4.16688 -0.625,6.25 -4.7e-4,1.66688 -0.20938,3.54188 -0.625,5.625 l -1.875,7.5 -1.25,6.25 c -0.83438,1.66672 -1.87547,3.54172 -3.125,5.625 -1.25,2.08344 -2.50047,4.37516 -3.75,6.875 l -11.25,15.625 c -21.25031,18.75016 -44.79203,28.125 -70.625,28.125 l -2.5,0 c -3.33359,0 -5.00031,0.625 -5,1.875 l 0,1.875 1.875,11.25 c 39.16625,-1.25 71.45797,-11.875 96.875,-31.875 25.83281,-19.99984 38.74953,-44.37484 38.75,-73.125 -4.7e-4,-14.99984 -1.87547,-27.70812 -5.625,-38.125 -3.33375,-10.41641 -7.70875,-15.41641 -13.125,-15 l -1.25,0 c -3.33375,-1.25 -6.87547,-1.87484 -10.625,-1.875 l -12.5,0 m 62.5,20 c 0.41562,-7.08312 3.95781,-13.54141 10.625,-19.375 l -1.875,0 c -9.58375,1.6e-4 -14.37547,4.58359 -14.375,13.75 -4.7e-4,3.33359 1.87453,5.20859 5.625,5.625 m 1.875,2.5 c 2.91625,6.66688 7.49953,12.08344 13.75,16.25 l 8.125,6.875 4.375,8.125 c 2.91609,4.16688 4.37453,7.91688 4.375,11.25 -4.7e-4,5.83344 -2.08391,8.75016 -6.25,8.75 -2.50047,1.6e-4 -3.75047,-1.45781 -3.75,-4.375 l 1.25,-15.625 -2.5,-3.125 -1.875,-4.375 -2.5,-3.125 c -4.16719,-2.91656 -7.91719,-4.37484 -11.25,-4.375 -8.75047,1.6e-4 -13.12547,4.37516 -13.125,13.125 -4.7e-4,3.33344 1.45781,6.45844 4.375,9.375 -0.41719,-0.83281 -0.625,-2.70812 -0.625,-5.625 -4.7e-4,-6.66656 3.54125,-9.99984 10.625,-10 6.66609,1.6e-4 9.99953,3.95844 10,11.875 l 0,14.375 c 0.83281,3.75016 2.70781,7.08344 5.625,10 1.25,1.25 2.91609,1.87516 5,1.875 9.99953,1.6e-4 14.99953,-5.41656 15,-16.25 -4.7e-4,-0.83281 -0.625,-2.91656 -1.875,-6.25 -3.33391,-1.25 -5.00047,-2.70812 -5,-4.375 l 0.625,-0.625 1.25,-1.25 c 0.41562,1.6e-4 1.45781,0.83281 3.125,2.5 2.08281,1.66688 3.74953,2.50016 5,2.5 0.83281,1.6e-4 1.25,-1.87484 1.25,-5.625 -4.7e-4,-9.99984 -4.79219,-17.91656 -14.375,-23.75 l -6.875,-3.75 c -1.25,-0.41719 -1.87547,-1.45781 -1.875,-3.125 -4.7e-4,-2.49984 1.04062,-3.74984 3.125,-3.75 1.25,1.6e-4 2.49953,0.625 3.75,1.875 l 3.125,4.375 c 6.24953,6.66688 13.12453,10.00016 20.625,10 l 1.875,0 -1.25,-6.875 -1.25,-4.375 5,-1.25 c 3.74953,-1.25 5.62437,-5.83313 5.625,-13.75 -6.3e-4,-1.66641 -1.04219,-3.54141 -3.125,-5.625 l -1.875,5 -4.375,4.375 -1.25,1.875 -5,1.25 c -2.50047,-0.41562 -4.58391,-1.04062 -6.25,-1.875 -1.66719,-1.25 -4.58391,-3.12484 -8.75,-5.625 -6.25047,-4.99984 -11.45891,-7.49984 -15.625,-7.5 -10.41719,1.6e-4 -15.83375,6.87516 -16.25,20.625 m -383.125,-16.25 -0.625,-0.625 c -2.08344,-1.25 -3.54172,-1.87484 -4.375,-1.875 -2.08344,1.6e-4 -3.12516,1.04219 -3.125,3.125 -1.6e-4,2.50016 1.25,3.75016 3.75,3.75 0.83281,1.6e-4 1.66656,-0.41719 2.5,-1.25 l 1.875,-3.125 m 353.75,-1.875 3.125,8.125 c 5.41625,14.58359 8.12453,26.66688 8.125,36.25 -4.7e-4,20.83344 -5.00047,38.33344 -15,52.5 l -2.5,5.625 -4.375,5.625 -3.125,3.75 -5.625,6.25 -6.875,6.875 c -1.66703,1.25 -3.54203,2.70844 -5.625,4.375 -2.08375,1.25 -4.37547,2.91672 -6.875,5 l -5,2.5 -8.125,5 c -1.25,0 -5.41703,1.45781 -12.5,4.375 -3.33375,1.25 -6.66703,2.29172 -10,3.125 -3.33375,0.83281 -5.20875,1.45781 -5.625,1.875 l -11.25,3.125 -26.25,3.75 -8.75,0 c 0.41719,2.5 1.04062,3.75 1.875,3.75 l 7.5,0 15.625,-0.625 c 30.83297,-2.08328 57.91625,-14.375 81.25,-36.875 24.16625,-22.91656 36.24953,-48.33312 36.25,-76.25 -4.7e-4,-28.74984 -5.41719,-44.79141 -16.25,-48.125 m -77.5,1.25 c -5.83375,0.83281 -13.12531,3.33359 -21.875,7.5 l 8.125,-0.625 10,-3.125 c 0.41562,-0.41719 1.66625,-0.625 3.75,-0.625 11.24969,1.6e-4 16.87453,2.91688 16.875,8.75 -4.7e-4,2.08359 -0.625,3.12516 -1.875,3.125 -1.66703,1.6e-4 -3.33375,-0.625 -5,-1.875 l -0.625,3.75 c 1.66625,2.91688 3.54125,4.37516 5.625,4.375 l 4.375,-0.625 c 3.74953,-2.49984 5.62453,-4.99984 5.625,-7.5 -4.7e-4,-9.16641 -6.66703,-13.74984 -20,-13.75 l -5,0.625 m -290,3.125 -0.625,0.625 c -0.41719,0.41719 -0.625,0.83281 -0.625,1.25 -1.6e-4,0.41719 0.41719,1.04219 1.25,1.875 l 1.25,0.625 c 1.25,1.6e-4 1.87484,-0.625 1.875,-1.875 -1.6e-4,-1.66641 -0.83281,-2.49984 -2.5,-2.5 l -0.625,0 m 18.75,0.625 c -1.25,1.6e-4 -2.29172,1.04219 -3.125,3.125 l -0.625,1.25 c -1.6e-4,3.33359 1.66656,5.00016 5,5 2.49984,1.6e-4 3.74984,-1.45781 3.75,-4.375 -1.6e-4,-3.33312 -1.66672,-4.99984 -5,-5 m 160.625,24.375 c -7.08359,-4.58312 -12.50031,-7.91641 -16.25,-10 -3.33359,-2.08312 -5.41688,-3.54141 -6.25,-4.375 l -7.5,-8.75 0,5.625 c -3.1e-4,1.66688 3.12469,4.37516 9.375,8.125 6.24969,3.75016 13.12469,6.87516 20.625,9.375 m -168.125,-11.875 c -1.6e-4,-4.58312 -1.25,-6.87484 -3.75,-6.875 -2.08344,1.6e-4 -3.12516,1.25 -3.125,3.75 -1.6e-4,2.50016 1.45781,3.54188 4.375,3.125 l 2.5,0 m 16.25,-3.75 c -1.25,1.6e-4 -2.29172,1.04219 -3.125,3.125 l 0,1.25 c -1.6e-4,2.50016 1.25,3.75016 3.75,3.75 3.33328,1.6e-4 4.99984,-1.25 5,-3.75 -1.6e-4,-2.91641 -1.87516,-4.37484 -5.625,-4.375 m 196.25,29.375 c -3.33359,5.83344 -6.87531,14.79188 -10.625,26.875 l -0.625,14.375 -2.5,5.625 -4.375,0 -1.25,-7.5 1.25,-3.125 -4.375,-6.875 -4.375,-4.375 -4.375,-4.375 c -2.50031,10.83344 -3.75031,20.83344 -3.75,30 -3.1e-4,6.25016 0.625,13.12516 1.875,20.625 4.16641,-2.91656 7.29141,-4.37484 9.375,-4.375 2.08297,1.6e-4 3.33297,1.45781 3.75,4.375 l 6.875,9.375 3.125,-6.25 5.625,-5.625 0,-5.625 0,-1.25 2.5,-13.75 5,-16.875 c 2.08297,-7.91656 6.66641,-14.58312 13.75,-20 7.08297,-5.41656 14.37469,-8.12484 21.875,-8.125 6.66625,1.6e-4 12.49969,2.50016 17.5,7.5 0.41562,0.83281 0.625,2.70844 0.625,5.625 -3.1e-4,1.6e-4 -0.41719,1.66688 -1.25,5 -2.91703,2.91688 -5.83375,4.37516 -8.75,4.375 l -2.5,0 -20,-8.125 -1.875,0 c -8.75031,1.6e-4 -13.12531,5.00016 -13.125,15 -3.1e-4,3.33344 2.08297,7.08344 6.25,11.25 l -1.875,5 3.125,4.375 0,6.875 c 4.16641,-2.49984 6.24969,-4.99984 6.25,-7.5 -3.1e-4,-2.91656 -0.83438,-5.83328 -2.5,-8.75 l 3.75,-0.625 3.125,1.25 1.875,0 c 3.33297,1.6e-4 5.41625,-1.25 6.25,-3.75 l 0,-3.75 -6.25,0 -6.875,-2.5 -4.375,4.375 -0.625,0 c -2.50031,1.6e-4 -3.75031,-1.66656 -3.75,-5 -3.1e-4,-7.49984 3.12469,-11.24984 9.375,-11.25 2.08297,1.6e-4 4.16625,0.625 6.25,1.875 l 15.625,11.875 c 1.66625,1.25 4.16625,1.87516 7.5,1.875 10.83297,1.6e-4 16.24969,-5.20812 16.25,-15.625 l 1.875,-1.25 c 2.49969,2.50016 4.37469,3.75016 5.625,3.75 1.25,1.6e-4 3.12453,-0.625 5.625,-1.875 -2.08375,-9.16656 -2.91703,-14.37484 -2.5,-15.625 l 0,-0.625 1.25,-15 c -4.7e-4,-2.91656 -1.66703,-4.37484 -5,-4.375 l -5.625,0 4.375,-4.375 c 0.41562,-0.41562 0.625,-1.04062 0.625,-1.875 -3.1e-4,-3.33312 -4.79203,-6.04141 -14.375,-8.125 l -6.875,-1.875 c -0.83438,-0.41562 -3.33375,-0.625 -7.5,-0.625 -15.00031,1.6e-4 -30.41703,9.79188 -46.25,29.375 m -223.125,-27.5 c -1.25,0.83281 -1.87516,1.66688 -1.875,2.5 -1.6e-4,1.25 0.20781,2.08359 0.625,2.5 1.66656,-0.41719 2.49984,-1.04219 2.5,-1.875 -1.6e-4,0.41719 -0.41719,-0.625 -1.25,-3.125 m 147.5,2.5 -0.625,16.25 c 4.16641,0.83281 7.08312,1.66688 8.75,2.5 1.66641,0.41719 3.95812,1.25 6.875,2.5 l 8.75,3.125 c 9.58312,3.75016 19.37469,10.62516 29.375,20.625 0.41719,0.41719 0.83281,1.04219 1.25,1.875 0.83281,0.83281 1.66641,1.66688 2.5,2.5 l 2.5,4.375 1.25,0 c 0.41719,-2.08312 0.625,-3.74984 0.625,-5 0.41719,-1.66656 0.625,-2.91656 0.625,-3.75 -3.1e-4,-2.91656 -1.66703,-6.24984 -5,-10 -3.33359,-3.74984 -7.91688,-7.70812 -13.75,-11.875 -5.41688,-4.16656 -11.87531,-8.12484 -19.375,-11.875 -7.50031,-4.16641 -15.41688,-7.91641 -23.75,-11.25 m -133.75,6.875 c 0.41719,0.41719 1.45781,0.625 3.125,0.625 1.66656,1.6e-4 2.49984,-1.04062 2.5,-3.125 -1.6e-4,-2.49984 -1.04219,-3.74984 -3.125,-3.75 -1.66672,1.6e-4 -2.50016,1.25 -2.5,3.75 l 0,2.5 m -5.625,-2.5 -4.375,1.875 4.375,-1.875 m 46.875,1.875 -0.625,-0.625 -0.625,0 -16.875,5 -0.625,-0.625 -9.375,-2.5 c -2.08344,1.6e-4 -3.12516,1.04219 -3.125,3.125 -1.6e-4,2.50016 3.12484,3.75016 9.375,3.75 7.91656,1.6e-4 15.20812,-2.70812 21.875,-8.125 m 266.875,0 -1.875,4.375 c 0.83281,0.83438 1.25,1.45781 1.25,1.875 -0.83438,0.83281 -1.45938,1.25 -1.875,1.25 l -6.25,-1.25 c -4.58375,1.6e-4 -6.87547,3.95844 -6.875,11.875 -4.7e-4,2.91688 1.66625,5.41688 5,7.5 l 0,-3.75 c -0.41719,-5.41656 1.04062,-8.12484 4.375,-8.125 2.49953,1.6e-4 4.79125,1.66688 6.875,5 l 0,4.375 c 0.83281,5.00016 -0.41719,9.16688 -3.75,12.5 l -15.625,20.625 c -2.50031,2.50016 -4.79203,6.66672 -6.875,12.5 l 4.375,-5 4.375,-5.625 17.5,-17.5 c 6.24953,-5.41656 9.37453,-12.29156 9.375,-20.625 -4.7e-4,-8.33312 -3.33375,-14.99984 -10,-20 m -230,1.25 c -6.25016,2.08359 -11.04188,2.70859 -14.375,1.875 -1.66688,-0.41719 -2.91688,-0.625 -3.75,-0.625 -0.83281,-0.41719 -1.66688,-0.625 -2.5,-0.625 -1.25,1.6e-4 -2.50016,1.45938 -3.75,4.375 -1.25,0.41719 -3.12516,1.45781 -5.625,3.125 -2.50016,1.66688 -3.95844,2.50016 -4.375,2.5 -0.83281,1.6e-4 -1.25,-0.625 -1.25,-1.875 -1.6e-4,0.41719 3.54156,-1.87484 10.625,-6.875 -0.83281,-1.25 -1.66688,-1.87484 -2.5,-1.875 -7.08344,1.6e-4 -11.25016,5.00016 -12.5,15 l 5.625,2.5 c -8.33344,5.83344 -12.50016,11.87516 -12.5,18.125 -1.6e-4,3.75016 1.87484,7.70844 5.625,11.875 0.41719,-3.74984 1.04219,-5.62484 1.875,-5.625 1.25,1.6e-4 2.08312,0.20781 2.5,0.625 1.66656,7.50016 5.41656,11.25016 11.25,11.25 2.08312,1.6e-4 4.79156,-0.625 8.125,-1.875 4.16656,-1.66656 6.66656,-4.16656 7.5,-7.5 l 0,-1.875 0,-1.25 -4.375,-12.5 -0.625,-1.25 c -1.6e-4,-5.83312 2.08312,-8.74984 6.25,-8.75 2.08312,1.6e-4 3.95812,0.83281 5.625,2.5 l 0.625,3.125 -2.5,5 0.625,5 c 4.16656,-5.41656 6.24984,-9.58312 6.25,-12.5 -1.6e-4,-4.58312 -2.70844,-6.87484 -8.125,-6.875 -2.50016,1.6e-4 -5.41688,1.25 -8.75,3.75 -3.33344,2.50016 -5.00016,5.00016 -5,7.5 -1.6e-4,2.08344 0.83281,5.20844 2.5,9.375 1.66656,3.75016 2.49984,5.62516 2.5,5.625 -1.6e-4,2.08344 -1.66688,4.16688 -5,6.25 -0.83281,0.83281 -2.08344,1.25 -3.75,1.25 -6.25016,1.6e-4 -9.37516,-4.16656 -9.375,-12.5 -1.6e-4,-3.33312 1.45781,-7.08312 4.375,-11.25 2.91656,-4.16656 5.83312,-6.87484 8.75,-8.125 l 21.875,-6.875 0.625,-5 0.625,-3.75 c -1.6e-4,-0.83281 -1.04219,-1.25 -3.125,-1.25 m -92.5,3.125 0,3.75 c 0.41719,0.41719 1.25,0.625 2.5,0.625 1.66656,1.6e-4 2.49984,-0.83281 2.5,-2.5 -1.6e-4,-0.83281 -0.625,-1.66641 -1.875,-2.5 l -1.25,0 -1.875,0.625 m 11.25,0 -0.625,3.125 2.5,-1.25 -1.875,-1.875 m 6.25,4.375 c -1.66672,0.41719 -2.50016,1.45781 -2.5,3.125 -1.6e-4,2.08344 1.25,3.12516 3.75,3.125 2.91656,1.6e-4 4.37484,-1.04219 4.375,-3.125 -1.6e-4,-2.49984 -1.45781,-3.74984 -4.375,-3.75 l -1.25,0.625 m -14.375,6.25 c -2.91672,1.66688 -4.37516,3.75016 -4.375,6.25 -1.6e-4,5.83344 4.37484,8.75016 13.125,8.75 4.16656,1.6e-4 7.08328,-0.83281 8.75,-2.5 l 18.75,-12.5 9.375,-3.75 c -1.6e-4,-0.83281 -0.20781,-1.25 -0.625,-1.25 l -4.375,1.875 -9.375,3.125 -12.5,6.875 c -2.91672,1.66688 -5.83344,2.50016 -8.75,2.5 -4.16672,1.6e-4 -7.50016,-3.12484 -10,-9.375 m -2.5,92.5 0.625,1.25 c 4.16656,-0.41719 6.24984,-1.66656 6.25,-3.75 l -3.125,-13.75 0,-6.25 c -1.6e-4,-12.91656 3.54156,-25.62484 10.625,-38.125 7.49984,-12.49984 16.24984,-20.83312 26.25,-25 4.16656,-1.66656 6.24984,-3.33312 6.25,-5 -1.6e-4,-1.25 -0.625,-1.87484 -1.875,-1.875 -5.83344,1.6e-4 -11.66672,3.54188 -17.5,10.625 -4.58344,5.83344 -7.50016,8.95844 -8.75,9.375 l -2.5,1.25 c -2.08344,1.25 -4.58344,5.00016 -7.5,11.25 l -5,9.375 c -4.16672,7.91672 -6.25016,16.04172 -6.25,24.375 l 0,2.5 c 0.41719,2.08344 0.83281,5.20844 1.25,9.375 0.41719,3.75016 0.83281,8.54172 1.25,14.375 m 445,-92.5 c 2.49953,6.25016 5.20781,9.37516 8.125,9.375 2.91609,1.6e-4 4.79109,-2.91656 5.625,-8.75 -4.16719,0.83281 -6.04219,1.25 -5.625,1.25 -1.66719,1.6e-4 -4.37547,-0.625 -8.125,-1.875 m -288.75,33.75 c -3.75031,-2.91656 -5.62531,-5.62484 -5.625,-8.125 -3.1e-4,-1.66656 1.25,-4.79156 3.75,-9.375 1.66641,0.41719 2.91641,0.83281 3.75,1.25 0.83281,1.6e-4 1.25,1.6e-4 1.25,0 l 0.625,0 c 0.83281,-0.41719 2.08312,-0.83281 3.75,-1.25 2.08312,-0.83281 4.79141,-1.66656 8.125,-2.5 0.41562,-0.41719 1.66641,-0.625 3.75,-0.625 -3.1e-4,1.6e-4 2.08312,0.41719 6.25,1.25 -2.08359,-4.58312 -5.83359,-7.49984 -11.25,-8.75 l -5.625,-0.625 -4.375,-1.25 -0.625,-0.625 c -9.16688,1.6e-4 -13.75031,2.50016 -13.75,7.5 l 0,0.625 3.75,2.5 -3.75,4.375 c -0.83281,0.83281 -1.25,2.08344 -1.25,3.75 -1.6e-4,9.16688 2.91641,13.33344 8.75,12.5 l 2.5,-0.625 m -110.625,-26.25 c -25.00016,15.83344 -37.50016,34.16688 -37.5,55 l 0,5 3.125,8.75 0.625,3.75 8.75,10 c 2.08328,2.08344 3.54156,3.12516 4.375,3.125 1.66656,1.6e-4 2.49984,-1.04219 2.5,-3.125 -1.6e-4,-2.49984 -0.83281,-4.58328 -2.5,-6.25 8.33328,-0.83281 12.49984,-4.58328 12.5,-11.25 -1.6e-4,-3.33328 -1.04219,-5.62484 -3.125,-6.875 l -7.5,-5 -2.5,-5 c -1.66672,1.25 -2.50016,2.29172 -2.5,3.125 -1.6e-4,1.25 0.20781,1.87516 0.625,1.875 l 8.75,6.25 c 1.25,0.83281 1.87484,1.87516 1.875,3.125 -1.6e-4,2.91672 -1.25,4.37516 -3.75,4.375 -1.6e-4,1.6e-4 -1.66672,-0.41719 -5,-1.25 -5.83344,-4.58328 -8.75016,-10.20828 -8.75,-16.875 -1.6e-4,-15.83312 8.54156,-30.41656 25.625,-43.75 1.25,-0.41719 2.91656,-1.66656 5,-3.75 l -0.625,-1.25 m 138.125,5.625 0,3.125 c 9.16641,5.83344 16.66641,12.70844 22.5,20.625 -3.33359,-7.91656 -10.83359,-15.83312 -22.5,-23.75 m 261.875,1.25 0.625,2.5 c -4.7e-4,2.08344 -1.25,3.33344 -3.75,3.75 l 5,15.625 c 2.49953,8.33344 3.74953,15.00016 3.75,20 -4.7e-4,8.33344 -1.87547,18.95844 -5.625,31.875 -0.83438,2.08344 -1.66719,4.79172 -2.5,8.125 -0.83438,2.91672 -2.08391,6.25 -3.75,10 -1.25,2.91672 -5.20891,8.33344 -11.875,16.25 l -3.75,1.875 -10,6.875 -5.625,2.5 -3.125,1.875 -5.625,1.25 -5.625,2.5 -11.875,1.25 -10.625,1.25 c -5.41719,0.83281 -11.25047,-0.83281 -17.5,-5 l -6.875,-5 c -1.66703,-2.91656 -2.50047,-5.41656 -2.5,-7.5 -4.7e-4,-4.16656 2.29125,-6.25 6.875,-6.25 5.41625,0 8.12453,2.08344 8.125,6.25 l 0,0.625 0,0.625 0.625,1.25 4.375,2.5 c -0.83438,-1.66656 -1.66719,-3.75 -2.5,-6.25 -0.83438,-2.5 -2.08375,-5.41656 -3.75,-8.75 -2.50047,-4.16656 -6.66703,-6.25 -12.5,-6.25 -8.75047,0 -13.75047,5.83344 -15,17.5 l -2.5,0 c -0.41719,-2.5 -1.87547,-4.16656 -4.375,-5 -1.25,3.33344 -1.87547,6.04172 -1.875,8.125 -4.7e-4,0 -4.7e-4,0.41719 0,1.25 0.41562,0.83281 0.83281,2.08344 1.25,3.75 l 1.875,2.5 5,5 c 3.33297,3.75 8.74953,6.66672 16.25,8.75 l 0,2.5 c -6.25047,-0.83281 -12.08375,-3.54172 -17.5,-8.125 l -5.625,-5.625 c -7.50047,-8.33328 -15.20875,-12.5 -23.125,-12.5 l -9.375,0 3.75,4.375 c -3.1e-4,1.66672 -0.83438,2.5 -2.5,2.5 l 0,-0.625 c -0.83438,0 -2.70875,-0.83281 -5.625,-2.5 -2.50031,-1.66656 -5.41703,-2.5 -8.75,-2.5 -6.25031,0 -11.66703,1.875 -16.25,5.625 -4.58375,3.33344 -6.87531,7.5 -6.875,12.5 -3.1e-4,7.08328 4.37469,10.625 13.125,10.625 2.91625,0 6.24969,-1.25 10,-3.75 0.41562,-2.5 2.70797,-3.75 6.875,-3.75 2.91625,0 5.41625,1.875 7.5,5.625 2.08297,-3.33328 3.12469,-5.41672 3.125,-6.25 -3.1e-4,-3.33328 -3.33375,-5 -10,-5 -2.91703,0 -4.58375,0.20781 -5,0.625 l -12.5,7.5 -1.25,0 c -4.16703,0 -6.25031,-1.875 -6.25,-5.625 -3.1e-4,-5.41656 5.41625,-8.125 16.25,-8.125 4.99969,0 9.16625,0.625 12.5,1.875 l 33.75,12.5 15.625,3.125 c 2.08297,0.41719 3.74953,0.83281 5,1.25 1.25,0 2.29125,0 3.125,0 2.49953,0 5.62453,-3.125 9.375,-9.375 1.66625,0.41719 2.49953,1.25 2.5,2.5 l 0,0.625 -0.625,2.5 c -4.7e-4,3.75 3.12453,5.625 9.375,5.625 3.33281,0 5.41625,-0.20781 6.25,-0.625 0.83281,-0.41719 4.58281,-0.83281 11.25,-1.25 6.66625,-0.83281 12.29125,-3.125 16.875,-6.875 16.66609,-3.75 30.20781,-13.75 40.625,-30 10.83281,-16.66656 16.24953,-36.24984 16.25,-58.75 -4.7e-4,-16.24984 -4.16719,-31.66656 -12.5,-46.25 m -58.75,9.375 -1.875,5.625 c 10.83281,5.83344 16.24953,12.91688 16.25,21.25 -4.7e-4,1.6e-4 -0.41719,1.25 -1.25,3.75 l -5.625,8.75 c -1.66719,2.50016 -3.95875,3.95844 -6.875,4.375 -2.91719,0.41719 -5.83375,1.04219 -8.75,1.875 -2.50047,0.83281 -5.20875,1.66672 -8.125,2.5 -0.41719,0.41719 -0.625,1.25 -0.625,2.5 -4.7e-4,2.50016 0.83281,5.20844 2.5,8.125 l 2.5,2.5 c 0.41562,0.41719 0.625,1.04219 0.625,1.875 -4.7e-4,0.41719 -0.625,0.625 -1.875,0.625 -5.83375,0.41719 -10.20875,2.50016 -13.125,6.25 -2.50047,3.33344 -3.75047,5.83344 -3.75,7.5 -4.7e-4,2.91672 0.83281,5.83344 2.5,8.75 2.91625,-1.25 5.41625,-1.875 7.5,-1.875 0.83281,0 2.91625,0.41719 6.25,1.25 l 11.875,6.875 c 2.49953,1.25 6.24953,1.875 11.25,1.875 10.83281,0 17.29109,-3.54156 19.375,-10.625 0.83281,-3.33328 1.66609,-5 2.5,-5 l 1.875,0 c 1.25,4.58344 3.33281,6.875 6.25,6.875 2.49953,0 5.20781,-0.83281 8.125,-2.5 -2.91719,-5.41656 -4.37547,-10 -4.375,-13.75 l -0.625,-25.625 c -4.7e-4,-2.91656 -1.87547,-7.29156 -5.625,-13.125 0.41562,0.83281 0.625,2.91672 0.625,6.25 -4.7e-4,2.91672 -0.625,4.37516 -1.875,4.375 l 0,-0.625 -1.875,-1.25 1.25,-6.875 -1.25,-3.125 -1.25,-4.375 -5,-5 c 2.49953,7.08344 3.74953,11.87516 3.75,14.375 -4.7e-4,16.66672 -4.16719,25.62516 -12.5,26.875 l 3.125,-6.25 c 4.58281,-10.83328 6.87453,-20.20828 6.875,-28.125 -4.7e-4,-3.33328 -0.20938,-5.83328 -0.625,-7.5 -4.7e-4,-2.08312 0.41562,-3.54156 1.25,-4.375 -4.7e-4,-0.41719 -1.04219,-1.04219 -3.125,-1.875 -2.50047,-0.41719 -6.87547,-2.70812 -13.125,-6.875 l 3.75,5 4.375,8.75 c 1.25,2.08344 1.87453,3.33344 1.875,3.75 -4.7e-4,0.83281 -0.625,1.45781 -1.875,1.875 l -1.25,-1.25 -3.125,-7.5 c -2.50047,-6.24984 -8.12547,-11.87484 -16.875,-16.875 m 53.125,1.25 3.125,13.125 c 0.41562,2.08344 0.625,3.95844 0.625,5.625 0.41562,1.66672 0.625,3.12516 0.625,4.375 -4.7e-4,2.08344 -1.04219,5.83344 -3.125,11.25 l -8.75,4.375 1.25,2.5 c 2.49953,4.58344 4.79109,6.87516 6.875,6.875 4.99953,1.6e-4 7.49953,-5.20828 7.5,-15.625 -4.7e-4,-12.49984 -2.70891,-23.33312 -8.125,-32.5 m -149.375,58.75 9.375,-5 2.5,-13.125 c 0.83281,-4.16656 2.91625,-7.91656 6.25,-11.25 l 3.75,-3.75 4.375,-3.75 9.375,-3.75 c 3.33297,-0.83281 5.20797,-4.79156 5.625,-11.875 l 1.25,0 0,-1.875 c -4.7e-4,-1.66656 -0.41719,-2.49984 -1.25,-2.5 -4.16703,1.6e-4 -9.58375,3.33344 -16.25,10 -9.58375,8.75016 -16.25031,16.25016 -20,22.5 -3.33375,5.83344 -5.00031,13.95844 -5,24.375 m -128.125,-40.625 c 2.49969,-2.91656 4.79141,-4.37484 6.875,-4.375 5.83312,1.6e-4 9.79141,4.16672 11.875,12.5 l 3.125,15.625 1.875,4.375 c -0.41719,-2.91656 -0.83438,-6.24984 -1.25,-10 -0.41719,-3.74984 -0.83438,-7.91656 -1.25,-12.5 l 0.625,-5.625 c -3.1e-4,-4.16656 -2.29188,-7.91656 -6.875,-11.25 -2.50031,-0.83281 -4.16688,-1.25 -5,-1.25 -7.08359,1.6e-4 -10.62531,3.12516 -10.625,9.375 l 0.625,3.125 m 222.5,-11.25 -1.875,6.875 c 7.08281,2.50016 11.66625,8.12516 13.75,16.875 l -0.625,-9.375 -5,-6.25 2.5,-1.875 c -3.33375,-3.33312 -6.25047,-5.41656 -8.75,-6.25 m -314.375,11.875 c -1.66688,0.41719 -3.54188,0.83281 -5.625,1.25 -2.08344,0.41719 -4.58344,1.04219 -7.5,1.875 -1.6e-4,1.6e-4 -1.45781,1.04219 -4.375,3.125 -2.50016,2.08344 -4.37516,3.12516 -5.625,3.125 -0.83281,1.6e-4 -1.66688,-0.41719 -2.5,-1.25 0.41719,-0.41719 0.625,-0.83281 0.625,-1.25 0.41719,-0.41719 1.04219,-0.83281 1.875,-1.25 l -8.125,0 c -1.66672,-0.41719 -2.91672,-0.625 -3.75,-0.625 -0.83281,-0.41719 -1.66672,-0.625 -2.5,-0.625 -2.08344,1.6e-4 -3.12516,1.25 -3.125,3.75 -1.6e-4,4.58344 2.91656,6.87516 8.75,6.875 2.91656,1.6e-4 4.79156,-0.20781 5.625,-0.625 l 0.625,3.125 c -2.91688,2.91672 -4.37516,5.41672 -4.375,7.5 -1.6e-4,-0.83281 0.20781,1.6e-4 0.625,2.5 0.41719,2.50016 1.04219,6.66672 1.875,12.5 -0.41719,5.41672 -2.50016,9.58344 -6.25,12.5 3.33328,2.08344 5.41656,3.125 6.25,3.125 9.16656,0 14.37484,-5.41656 15.625,-16.25 l 2.5,-1.25 1.875,3.75 c 3.33312,3.33344 6.04156,5.00016 8.125,5 7.91656,1.6e-4 12.70812,-3.95828 14.375,-11.875 -0.83281,0.41719 -2.70844,0.625 -5.625,0.625 -7.50016,1.6e-4 -11.25016,-4.58328 -11.25,-13.75 -1.6e-4,-9.58328 8.33312,-15.62484 25,-18.125 l 0,-2.5 c 0.41562,-1.66656 -1.04219,-2.49984 -4.375,-2.5 -14.16688,1.6e-4 -22.70844,3.33344 -25.625,10 l -5,11.25 c -0.41719,0.41719 -1.04219,0.625 -1.875,0.625 -1.25,1.6e-4 -1.87516,-0.83281 -1.875,-2.5 l 0.625,-1.25 1.25,-2.5 4.375,-6.875 4.375,-3.75 5,-3.75 m 10.625,9.375 11.25,0 0.625,-2.5 -1.875,-0.625 -10,3.125 m 140.625,15 -0.625,1.875 3.125,-1.25 c 0.41719,-6.24984 1.87469,-8.95828 4.375,-8.125 l 5,0 c -3.1e-4,-6.66656 -1.66703,-9.99984 -5,-10 -4.16703,1.6e-4 -6.45859,5.83344 -6.875,17.5 m 28.75,-16.25 c 2.49969,2.50016 6.04125,3.95844 10.625,4.375 l -10.625,-4.375 m 11.25,3.125 c 0.41562,1.25 1.66625,1.87516 3.75,1.875 l 1.875,0 c 0.83281,1.6e-4 2.49969,0.625 5,1.875 l 2.5,6.875 c 0.83281,0.83281 1.45781,1.25 1.875,1.25 1.66625,1.6e-4 2.49969,-1.66656 2.5,-5 -3.1e-4,-5.83328 -3.54203,-8.33328 -10.625,-7.5 l -0.625,0 -6.25,0.625 m 41.25,21.25 c 0.83281,-1.25 1.66625,-2.49984 2.5,-3.75 1.25,-1.66656 2.49953,-3.54156 3.75,-5.625 1.25,-0.41719 3.74953,-1.04219 7.5,-1.875 l 0,-1.25 c 0.41562,-2.49984 -0.83438,-3.74984 -3.75,-3.75 -4.16703,1.6e-4 -7.50047,5.41672 -10,16.25 m -35,-13.125 c -1.25,1.25 -2.08375,2.50016 -2.5,3.75 -3.1e-4,2.08344 1.25,3.12516 3.75,3.125 2.49969,1.6e-4 3.74969,-1.25 3.75,-3.75 -3.1e-4,-2.08328 -1.25,-3.12484 -3.75,-3.125 l -1.25,0 m 16.875,1.25 c -1.25,1.6e-4 -2.08375,0.83281 -2.5,2.5 -3.1e-4,1.66672 0.83281,2.50016 2.5,2.5 1.66625,-0.83281 2.70797,-1.45781 3.125,-1.875 -3.1e-4,-2.08328 -1.04219,-3.12484 -3.125,-3.125 m -130,16.875 11.25,-3.125 c 5.41641,3.75016 9.16641,7.91672 11.25,12.5 l 1.875,5 8.125,25 c -3.1e-4,1.25 1.04062,4.58344 3.125,10 -0.41719,-0.83281 -1.04219,-2.29156 -1.875,-4.375 -0.83438,-2.08328 -1.66688,-4.79156 -2.5,-8.125 l -1.25,-6.875 -1.25,-3.75 0,-0.625 c -3.1e-4,-1.25 0.625,-1.875 1.875,-1.875 0.83281,0 1.45781,0.20781 1.875,0.625 l 3.125,18.125 c 0.83281,1.66672 1.66641,3.54172 2.5,5.625 1.25,1.66672 2.70812,3.75 4.375,6.25 l 0.625,1.875 -2.5,0.625 -5,-7.5 c 6.24969,15.41672 14.58297,23.125 25,23.125 17.08297,0 25.62469,-6.04172 25.625,-18.125 -3.1e-4,-0.83281 -2.29203,-7.70828 -6.875,-20.625 -1.66703,-2.91656 -2.50031,-6.66656 -2.5,-11.25 -3.1e-4,-4.16656 0.83281,-7.08328 2.5,-8.75 l 1.875,-3.125 1.875,-3.75 c 1.66641,-2.91656 5.83297,-4.37484 12.5,-4.375 2.49969,1.6e-4 5.41625,1.25 8.75,3.75 -0.41719,-11.66656 -5.62531,-17.49984 -15.625,-17.5 -5.00031,1.6e-4 -8.12531,2.08344 -9.375,6.25 l -1.25,0 c 0.41719,0.83281 0.625,2.70844 0.625,5.625 -3.1e-4,2.50016 -0.83438,3.75016 -2.5,3.75 l -1.25,0 c -0.41719,-0.41719 -0.625,-0.83281 -0.625,-1.25 l 0.625,-8.75 -1.25,-0.625 -2.5,-3.75 c -1.66703,1.6e-4 -3.95859,1.45781 -6.875,4.375 -2.50031,2.91672 -3.95859,4.79172 -4.375,5.625 -2.91703,2.91672 -4.37531,7.91672 -4.375,15 -3.1e-4,2.08344 -3.1e-4,4.375 0,6.875 0.41719,2.5 0.83281,5.20844 1.25,8.125 0.41719,-12.91656 1.45781,-19.37484 3.125,-19.375 0.41562,0.41719 1.25,0.625 2.5,0.625 -2.08359,8.33344 -3.12531,13.125 -3.125,14.375 -3.1e-4,3.33344 0.83281,6.875 2.5,10.625 l -3.125,0.625 c 0.83281,3.75 2.91641,7.29172 6.25,10.625 1.25,2.5 1.87469,4.16672 1.875,5 -0.41719,0.41719 -1.87531,1.04219 -4.375,1.875 l -3.125,-3.125 -3.125,-11.25 -3.125,-8.75 c -0.83438,-4.16656 -1.25,-8.33328 -1.25,-12.5 l 0,-11.25 c -2.08359,-6.24984 -5.41703,-11.04156 -10,-14.375 -4.16688,1.66672 -6.25031,5.62516 -6.25,11.875 l -2.5,0 c -1.25,1.6e-4 -2.08359,-1.45781 -2.5,-4.375 -2.50031,-9.58328 -8.12531,-14.37484 -16.875,-14.375 -7.50031,1.6e-4 -12.08359,4.58344 -13.75,13.75 m 121.25,-9.375 c -2.08375,1.6e-4 -3.12531,0.83281 -3.125,2.5 -3.1e-4,2.50016 1.25,3.75016 3.75,3.75 2.08297,1.6e-4 3.12469,-1.04219 3.125,-3.125 -3.1e-4,-2.91656 -1.04219,-3.95828 -3.125,-3.125 l -0.625,0 m -8.125,1.875 c -0.41719,-0.41719 -1.25,-0.625 -2.5,-0.625 -2.50031,1.6e-4 -3.75031,1.04219 -3.75,3.125 -3.1e-4,2.50016 1.04062,3.75016 3.125,3.75 1.66625,1.6e-4 2.70797,-2.08328 3.125,-6.25 m 16.875,9.375 c -0.83438,-1.25 -1.66703,-1.87484 -2.5,-1.875 -2.08375,1.6e-4 -3.12531,1.25 -3.125,3.75 -3.1e-4,2.08344 0.83281,3.12516 2.5,3.125 1.25,1.6e-4 2.29125,-1.66656 3.125,-5 m -14.375,-0.625 c -1.66703,1.6e-4 -2.50031,0.625 -2.5,1.875 -3.1e-4,1.66672 1.04062,2.50016 3.125,2.5 1.25,1.6e-4 2.29125,-0.625 3.125,-1.875 l 0,-0.625 c -3.1e-4,-1.25 -1.04219,-1.87484 -3.125,-1.875 l -0.625,0 m 185.625,9.375 -5,14.375 c -5.41719,13.33344 -13.54219,26.04172 -24.375,38.125 -1.66719,1.66672 -2.50047,2.91672 -2.5,3.75 l 0,1.25 5,6.875 c 2.08281,-1.25 3.12453,-2.5 3.125,-3.75 l 0,-3.125 1.875,-1.25 1.875,5 2.5,1.25 1.875,2.5 c 0.83281,0.83281 1.66609,1.25 2.5,1.25 7.91609,0 11.87453,-3.54172 11.875,-10.625 -4.7e-4,-2.91656 -0.20938,-4.79156 -0.625,-5.625 -1.66719,5.41672 -4.16719,8.125 -7.5,8.125 -2.50047,0 -4.37547,-1.45781 -5.625,-4.375 -1.25,-2.91656 -1.87547,-5.20828 -1.875,-6.875 -4.7e-4,-2.08328 0.625,-4.16656 1.875,-6.25 l 7.5,-11.25 3.125,-7.5 c 0.83281,-3.33328 1.66609,-6.66656 2.5,-10 0.83281,-3.75 1.45781,-7.70828 1.875,-11.875 m -448.125,4.375 -8.125,8.125 c 4.16656,-3.75 7.49984,-5.625 10,-5.625 l 4.375,0.625 -0.625,-1.875 -5.625,-1.25 m -6.875,53.75 c 2.49984,2.5 5.62484,3.95828 9.375,4.375 4.16656,-2.91672 6.24984,-5.41672 6.25,-7.5 -1.6e-4,-2.91656 -0.20781,-4.79156 -0.625,-5.625 0.41719,-0.41719 1.04219,-0.625 1.875,-0.625 0.83281,0 2.29156,0.625 4.375,1.875 l 0,-3.125 c -1.6e-4,-4.16656 -1.25,-8.125 -3.75,-11.875 l -6.875,-6.25 0,-0.625 c -1.6e-4,-2.5 1.04219,-3.75 3.125,-3.75 1.25,0 2.70828,0.83281 4.375,2.5 l 6.875,16.25 c 4.16656,6.25 11.66656,10.41672 22.5,12.5 l -0.625,-6.25 13.75,1.25 c 3.33312,0 5.83312,-3.33328 7.5,-10 l -1.875,-0.625 c -3.75016,2.5 -7.08344,3.75 -10,3.75 -7.91688,0 -14.58344,-3.33328 -20,-10 l -16.875,-20.625 c -1.66672,-2.91656 -4.79172,-4.375 -9.375,-4.375 -7.08344,0 -10.62516,3.75 -10.625,11.25 -1.6e-4,2.91672 0.20781,5 0.625,6.25 l 5,23.75 c -1.6e-4,1.66672 -1.66672,4.16672 -5,7.5 m 316.25,-21.25 c -1.66703,-2.91656 -2.50047,-5.625 -2.5,-8.125 -4.7e-4,-2.91656 2.29125,-4.79156 6.875,-5.625 -2.08375,-2.08328 -3.75047,-3.125 -5,-3.125 -4.16703,0 -6.25047,2.08344 -6.25,6.25 -4.7e-4,2.5 2.29125,6.04172 6.875,10.625 m -13.125,-11.875 c -3.33375,0.83281 -5.00031,1.66672 -5,2.5 -3.1e-4,2.08344 1.45781,3.125 4.375,3.125 l 3.125,0 -2.5,-5.625 m -253.125,3.75 c 4.58312,3.33344 8.95812,5 13.125,5 5.41656,0 11.66656,0 18.75,0 7.08312,-0.41719 15.20812,-0.83281 24.375,-1.25 10.41641,-0.41719 19.16641,-0.625 26.25,-0.625 7.08312,-0.41719 12.70812,-0.625 16.875,-0.625 l 30,-0.625 -65,-4.375 c -2.91688,-0.41719 -8.75016,0 -17.5,1.25 -13.33344,2.5 -23.95844,3.75 -31.875,3.75 -5.41688,0 -10.41688,-0.83281 -15,-2.5 m 355,11.25 -4.375,-0.625 c -9.58375,-0.83281 -14.58375,-2.5 -15,-5 l -0.625,-1.875 0.625,-4.375 c -0.83438,-0.83281 -2.08375,-1.25 -3.75,-1.25 l -0.625,0 c -3.75047,-0.41719 -5.62547,1.25 -5.625,5 -4.7e-4,7.91672 5.20781,11.875 15.625,11.875 3.33281,0 7.91625,-1.25 13.75,-3.75 m -321.875,5.625 c 2.08312,-4.58328 4.37484,-6.875 6.875,-6.875 4.16641,0 6.24984,1.66672 6.25,5 -1.6e-4,7.91672 -5.83344,11.875 -17.5,11.875 l -4.375,0 -3.75,0 -5.625,-1.25 c -1.25,0.83281 -1.87516,1.45781 -1.875,1.875 0.83281,0.83281 2.70812,1.25 5.625,1.25 l 14.375,1.25 c 5.41656,0 10.20812,-1.45781 14.375,-4.375 4.16641,-3.33328 6.24984,-7.08328 6.25,-11.25 -1.6e-4,-5.83328 -4.37516,-8.75 -13.125,-8.75 -6.25016,0 -9.37516,1.66672 -9.375,5 -1.6e-4,1.66672 0.625,3.75 1.875,6.25 m -30.625,10.625 -1.25,4.375 c 8.33312,2.91672 17.08312,4.375 26.25,4.375 26.66641,0 46.66641,-10 60,-30 l -5,-0.625 -5.625,0 c -1.25,-0.41719 -4.37516,3.54172 -9.375,11.875 -5.83359,10 -18.54188,15 -38.125,15 -6.66688,0 -15.62516,-1.66672 -26.875,-5 m 57.5,6.25 -0.625,1.25 c 9.99984,-0.83281 20.20812,-4.58328 30.625,-11.25 6.24969,-3.75 10.62469,-5.625 13.125,-5.625 2.91641,0 5.83312,0.83281 8.75,2.5 l 3.125,3.75 c 0.83281,3.33328 1.25,4.79172 1.25,4.375 -3.1e-4,3.33328 -1.66688,5 -5,5 -3.1e-4,0 -1.25,-0.41719 -3.75,-1.25 l -7.5,-6.25 -5.625,2.5 8.75,3.75 6.25,3.75 c 3.33312,0.83281 5.20812,1.25 5.625,1.25 7.08312,0 10.62469,-3.33328 10.625,-10 -3.1e-4,-3.33328 -2.91688,-6.25 -8.75,-8.75 l 0,-1.875 c 4.16641,0 6.66641,-1.66656 7.5,-5 l -6.25,-0.625 -4.375,-1.875 c -0.83438,-0.41719 -4.16688,-0.625 -10,-0.625 -2.50031,0 -5.20859,0.83281 -8.125,2.5 -2.91688,1.25 -5.41688,2.70844 -7.5,4.375 -2.08359,1.66672 -3.95859,3.33344 -5.625,5 -1.66688,1.25 -2.50016,1.875 -2.5,1.875 -0.83438,0.83281 -2.50016,1.875 -5,3.125 -2.08359,1.25 -5.20859,2.91672 -9.375,5 -1.66688,0.41719 -3.54188,1.45781 -5.625,3.125 m -81.875,-10 c 0.83281,1.66672 1.66656,3.54172 2.5,5.625 0.83281,1.66672 1.45781,3.54172 1.875,5.625 3.74984,-1.25 5.62484,-2.91672 5.625,-5 -1.6e-4,-0.83281 -1.87516,-1.875 -5.625,-3.125 -1.25,-0.41719 -2.70844,-1.45781 -4.375,-3.125 m 187.5,11.875 20,-1.25 -3.125,-3.125 -9.375,3.75 -7.5,0.625 m 180.625,-426.875 6.25,-0.625 c 6.66609,4.7e-4 6.45781,1.04219 -0.625,3.125 -4.58375,1.66703 -7.70875,2.50047 -9.375,2.5 1.25,4.7e-4 3.54125,-0.625 6.875,-1.875 3.33281,-1.25 6.04109,-1.87453 8.125,-1.875 -2.91719,4.7e-4 -5.41719,0.625 -7.5,1.875 -1.66719,1.25 -2.70875,1.87547 -3.125,1.875 l -2.5,1.25 c -2.08375,4.7e-4 -6.25047,1.87547 -12.5,5.625 0.83281,-0.83281 1.45781,-2.49953 1.875,-5 0.83281,-2.91625 2.29125,-3.95797 4.375,-3.125 l 8.125,-3.75 m 33.75,52.5 6.875,5 c 5.41609,5.41703 8.12453,9.16703 8.125,11.25 -0.83438,-0.83281 -1.87547,-1.45781 -3.125,-1.875 -4.7e-4,1.25 -0.41719,1.87531 -1.25,1.875 -1.25,3.1e-4 -2.50047,-2.08297 -3.75,-6.25 -0.41719,-2.08297 -1.87547,-4.37469 -4.375,-6.875 l -2.5,-3.125 m -20,1.875 1.875,6.25 1.875,-3.125 -3.75,-3.125 m -33.75,16.25 -4.375,-6.25 0,-0.625 c -4.7e-4,-0.41562 0.41562,-1.04062 1.25,-1.875 l 0,0.625 3.125,8.125 m 45,-13.125 c 0.41562,0.41719 0.83281,0.83438 1.25,1.25 0.83281,0.41719 1.66609,1.04219 2.5,1.875 -0.83438,3.33375 -2.29219,5.20875 -4.375,5.625 -2.08391,0.41719 -2.70891,1.25 -1.875,2.5 l 0,-6.25 2.5,-5 m -39.375,0.625 -5,17.5 c 2.08281,-4.58297 2.49953,-6.87469 1.25,-6.875 l 0,-3.75 c -0.41719,-1.25 -0.625,-2.08297 -0.625,-2.5 1.66625,-2.49969 3.12453,-3.95797 4.375,-4.375 l -3.75,7.5 3.75,-7.5 m 46.25,9.375 1.875,0 -3.125,10 -3.75,-7.5 5,-2.5 m 3.125,5.625 -0.625,1.25 1.25,-0.625 -0.625,2.5 0.625,0.625 -0.625,-3.75 m -404.375,6.875 -1.875,6.25 -1.875,5 -1.25,5 -0.625,0 c -1.66672,3.1e-4 -2.50016,-0.625 -2.5,-1.875 l 0,-0.625 5,-13.125 2.5,-1.25 0.625,0.625 m 425,16.25 -2.5,-3.75 -1.25,1.25 -1.25,0 -1.25,-1.25 -0.625,-2.5 4.375,2.5 0,-1.875 2.5,5.625 m 0,6.875 -7.5,-5.625 4.375,-2.5 3.125,8.125 m -448.75,13.125 -1.25,-5 1.25,7.5 10,8.75 7.5,-6.875 c -1.25,0.83438 -3.33344,1.45938 -6.25,1.875 -0.83281,3.1e-4 -2.70844,-0.83281 -5.625,-2.5 -4.58344,-5.41641 -6.45844,-6.66641 -5.625,-3.75 m 415.625,14.375 0,-3.75 -1.875,0 1.875,3.75 m 7.5,15 3.125,-8.125 c -0.83438,2.08359 -1.66719,3.12531 -2.5,3.125 -0.41719,1.25 -0.625,2.50031 -0.625,3.75 l 0,1.25 m -364.375,11.875 -8.125,7.5 -0.625,-11.875 1.875,0 -3.125,-1.25 10,5.625 m -6.875,3.125 c 1.66656,3.1e-4 2.49984,-2.49969 2.5,-7.5 -1.6e-4,2.50031 1.45781,3.95859 4.375,4.375 l -8.125,7.5 1.25,-4.375 m 7.5,7.5 0.625,-6.875 1.875,6.25 -2.5,0.625 m 0,1.25 2.5,3.125 c -0.83281,1.25 -2.29188,1.87531 -4.375,1.875 l -0.625,0 2.5,-5 m 19.375,25 -2.5,0.625 -1.875,-0.625 2.5,-0.625 -1.875,-5 1.875,-0.625 1.875,6.25 m 4.375,-5.625 0.625,3.125 -5.625,1.25 3.75,-5 1.25,0.625 m 140.625,48.125 -1.875,5 0,8.75 -2.5,8.125 -1.25,4.375 -1.25,0.625 -5,0 c 1.25,-0.83281 2.49969,-2.08312 3.75,-3.75 1.66641,-2.08312 2.91641,-4.99984 3.75,-8.75 l 1.25,-11.875 -0.625,-2.5 3.75,0 m 183.75,4.375 14.375,0 -16.25,-1.25 -1.875,1.875 c 0.83281,-2.08312 2.70781,-3.12484 5.625,-3.125 l -5.625,3.125 3.75,-0.625 m 8.75,-1.875 -6.875,-0.625 14.375,3.125 c 0.83281,1.6e-4 1.45781,-0.20781 1.875,-0.625 -4.7e-4,-0.41719 -2.29219,-1.04062 -6.875,-1.875 -4.16719,-0.83281 -7.29219,-1.04062 -9.375,-0.625 l 4.375,0.625 3.125,1.875 c 6.66609,1.25 10.41609,1.45781 11.25,0.625 0.83281,-0.41562 -0.625,-1.25 -4.375,-2.5 -3.33391,-1.25 -6.66719,-1.87484 -10,-1.875 -5.41719,1.6e-4 -8.75047,1.45781 -10,4.375 l 8.75,-3.125 -10,1.875 c 1.25,-0.41562 3.54109,-1.04062 6.875,-1.875 -4.7e-4,1.6e-4 -4.7e-4,1.6e-4 0,0 0.41562,1.6e-4 1.04062,0.20938 1.875,0.625 l 5,0 m -201.875,3.125 -4.375,14.375 4.375,-14.375 m -155,5.625 17.5,5 -2.5,-1.25 -10.625,0 -4.375,-3.75 m 350,11.25 c 7.91609,7.91688 13.12453,11.87516 15.625,11.875 0.41562,1.6e-4 0.625,-0.41719 0.625,-1.25 -6.25047,-3.74984 -8.75047,-5.62484 -7.5,-5.625 1.25,1.66688 2.91609,2.70844 5,3.125 l 2.5,2.5 -8.75,-7.5 -15,-10.625 7.5,7.5 m -143.75,5.625 10.625,-5 -1.875,10 -8.75,-2.5 -3.125,0 c -1.25,1.6e-4 -2.50031,0.20781 -3.75,0.625 l -4.375,0 -0.625,-1.25 1.25,-1.25 1.875,-0.625 8.75,0 m 11.875,18.125 0,-0.625 c -1.66703,-2.49984 -3.54203,-4.79156 -5.625,-6.875 -1.66703,-2.49984 -5.83375,-3.54156 -12.5,-3.125 l -6.25,0.625 -3.125,-1.25 c 2.91625,-1.66656 5.41625,-2.49984 7.5,-2.5 6.66625,1.6e-4 13.33297,4.58344 20,13.75 m -78.75,40 6.875,0 c -3.1e-4,1.6e-4 -0.20781,0.20781 -0.625,0.625 -3.1e-4,0.41719 -0.41719,1.04219 -1.25,1.875 l 0,0.625 c -0.41719,0.41719 -1.04219,0.625 -1.875,0.625 -1.66703,1.6e-4 -3.33359,-0.83281 -5,-2.5 l 1.875,-1.25 m 6.25,5.625 -5,4.375 0.625,-0.625 -1.25,0 c -0.83438,1.6e-4 -1.66703,-0.41719 -2.5,-1.25 l 0,-1.25 c -3.1e-4,-0.83281 0.20781,-1.25 0.625,-1.25 l 7.5,0 m -8.125,5 3.125,2.5 -3.125,0 0,-2.5 m 193.75,5.625 1.25,2.5 c -9.16719,3.33344 -12.70875,5.00016 -10.625,5 l 0,-1.875 9.375,-5.625 m -5.625,11.875 10,-5.625 -0.625,6.25 -2.5,-2.5 c -0.83438,3.33344 -2.29219,5.00016 -4.375,5 -0.83438,1.6e-4 -1.66719,-1.04219 -2.5,-3.125 m 8.75,8.75 5.625,0 -3.125,3.75 -2.5,-1.25 0,-2.5 m -6.25,0.625 3.75,5.625 -2.5,0 c -1.25,0 -2.08375,-0.20781 -2.5,-0.625 -4.7e-4,-1.66656 0.625,-2.49984 1.875,-2.5 l -0.625,-2.5 m -171.25,10 -1.875,8.75 c 0.41562,2.08344 0.625,3.75 0.625,5 0.41719,0.83281 0.625,1.66672 0.625,2.5 l -1.25,1.25 c -2.08359,0 -2.70859,-1.66656 -1.875,-5 l 0,-0.625 0,-1.875 0.625,-8.75 1.25,-1.25 1.875,0 m 186.875,3.125 0.625,1.875 -3.75,1.875 1.25,-1.25 c -4.7e-4,-0.41719 -2.08375,0 -6.25,1.25 -4.16719,0.83281 -7.29219,1.66672 -9.375,2.5 0.41562,0.41719 1.04062,0.625 1.875,0.625 0.41562,0 0.83281,0.20781 1.25,0.625 l 0,-2.5 c 7.08281,0 11.24953,-0.83281 12.5,-2.5 0.83281,-0.83281 0.83281,-1.875 0,-3.125 l 1.875,0.625 m -391.25,9.375 -8.75,2.5 c 0.41719,-0.41719 0.625,-1.45781 0.625,-3.125 -1.6e-4,-1.66656 0.20781,-2.91656 0.625,-3.75 l 5,1.25 2.5,3.125 m 175.625,2.5 4.375,1.25 3.125,13.75 -2.5,0.625 -1.875,-5 -3.125,-10.625 m -162.5,15.625 4.375,10.625 1.25,-0.625 -5,-5.625 c -1.66672,-1.66656 -2.50016,-2.70828 -2.5,-3.125 l 0.625,-1.25 1.25,0 m 286.25,5.625 -6.25,3.75 1.875,-3.125 1.875,-1.25 -5.625,-1.875 -6.25,-1.25 0.625,-1.875 13.75,5.625 m 17.5,0.625 8.75,3.125 2.5,3.125 c 0.41562,0.41719 0.625,0.83281 0.625,1.25 -4.7e-4,0.83281 0.20781,1.45781 0.625,1.875 -4.7e-4,0.83281 -1.25,1.25 -3.75,1.25 0.41562,0 -2.08375,-2.08328 -7.5,-6.25 -0.83438,-0.83281 -2.08375,-1.875 -3.75,-3.125 -1.25,-1.25 -1.87547,-2.08328 -1.875,-2.5 0.41562,-1.25 1.04062,-1.875 1.875,-1.875 0.83281,0 1.66625,1.04219 2.5,3.125 m -108.75,0 2.5,3.125 -9.375,4.375 1.25,-4.375 5.625,-3.125 m -1.25,8.75 6.25,-3.125 c -0.83438,2.08344 -1.45781,3.75 -1.875,5 -3.1e-4,1.25 -3.1e-4,1.875 0,1.875 3.33297,-0.83281 2.49969,-1.25 -2.5,-1.25 -1.25,0 -1.87531,-0.41719 -1.875,-1.25 l 0,-1.25 m 138.125,0.625 c 2.08281,2.08328 3.12453,3.33328 3.125,3.75 l 0,1.25 c -4.7e-4,0.83281 -0.20938,1.875 -0.625,3.125 l -2.5,-8.125 m 5.625,1.25 c 3.33281,0 5.20781,0.83281 5.625,2.5 0.41562,1.66672 1.25,2.91672 2.5,3.75 -0.83438,0.83281 -2.91719,1.25 -6.25,1.25 l -1.875,-0.625 0,-6.875 m 6.875,0 1.25,1.875 5.625,3.125 -6.25,1.25 -0.625,-6.25"
       id="path3036"
       style="font-size:40px;font-style:normal;font-variant:normal;font-weight:normal;font-stretch:normal;line-height:125%;letter-spacing:0px;word-spacing:0px;fill:#000000;fill-opacity:1;stroke:none;font-family:Goudy Initialen;-inkscape-font-specification:Goudy Initialen" />
  </g>
</svg>
