<?xml version="1.0" encoding="UTF-8" standalone="no"?>
<!-- Created with Inkscape (http://www.inkscape.org/) -->

<svg
   xmlns:dc="http://purl.org/dc/elements/1.1/"
   xmlns:cc="http://creativecommons.org/ns#"
   xmlns:rdf="http://www.w3.org/1999/02/22-rdf-syntax-ns#"
   xmlns:svg="http://www.w3.org/2000/svg"
   xmlns="http://www.w3.org/2000/svg"
   version="1.1"
   width="500"
   height="500"
   id="svg3068">
  <defs
     id="defs3070" />
  <metadata
     id="metadata3073">
    <rdf:RDF>
      <cc:Work
         rdf:about="">
        <dc:format>image/svg+xml</dc:format>
        <dc:type
           rdf:resource="http://purl.org/dc/dcmitype/StillImage" />
        <dc:title></dc:title>
      </cc:Work>
    </rdf:RDF>
  </metadata>
  <g
     transform="translate(-146.85715,-119.79075)"
     id="layer1">
    <path
       d="m 146.85715,619.79075 0,-500 500,0 0,500 -500,0 m 7.5,-7.5 485,0 0,-485 -485,0 0,485 m 7.5,-7.5 0,-469.375 469.375,0 0,469.375 -469.375,0 m 271.875,-448.125 0.625,-1.875 c 0.41719,0.41719 1.25,0.625 2.5,0.625 1.66641,4.7e-4 3.95797,-1.45781 6.875,-4.375 l -6.875,1.25 -5.625,2.5 c -3.33359,1.25 -6.25031,1.87547 -8.75,1.875 l -3.75,0 c -1.66688,4.7e-4 -3.12531,-0.20781 -4.375,-0.625 l -0.625,-1.875 6.875,0 c 5.83297,4.7e-4 8.74969,-2.08281 8.75,-6.25 -3.1e-4,-5.41625 -5.00031,-8.12453 -15,-8.125 -7.08359,4.7e-4 -11.45859,1.25 -13.125,3.75 l -4.375,5.625 -3.125,4.375 0.625,1.875 10.625,-10 c 1.66641,-1.66625 4.58312,-2.49953 8.75,-2.5 6.66641,4.7e-4 9.99969,1.66719 10,5 -3.1e-4,1.66719 -1.04219,2.50047 -3.125,2.5 l -10.625,0 c -1.66688,4.7e-4 -2.50031,0.83437 -2.5,2.5 -3.1e-4,5.83375 3.33312,8.75047 10,8.75 0.83281,4.7e-4 6.24969,-1.66625 16.25,-5 m 43.75,-4.375 2.5,3.125 c 1.66625,-6.24953 4.37469,-9.37453 8.125,-9.375 7.49969,4.7e-4 11.04125,3.95875 10.625,11.875 l 0,2.5 5,0.625 c 6.66625,0.41719 9.99969,-2.70781 10,-9.375 -3.1e-4,-0.83281 -0.83438,-2.70781 -2.5,-5.625 -1.25,-3.33281 -1.66703,-4.99953 -1.25,-5 l -2.5,0 -1.875,3.75 -1.875,0 -4.375,-3.75 c -0.41719,-0.41563 -2.50031,-0.625 -6.25,-0.625 -10.41703,4.7e-4 -15.62531,3.54219 -15.625,10.625 l 0,1.25 m -281.875,21.875 5,-4.375 3.75,-5.625 3.75,-1.25 c 0.83281,-0.41563 1.66656,-1.04063 2.5,-1.875 0.83281,-0.83281 2.08328,-1.66625 3.75,-2.5 9.99984,-8.74953 24.37484,-13.12453 43.125,-13.125 7.49984,4.7e-4 14.79156,1.45937 21.875,4.375 1.25,-2.91625 1.87484,-4.79125 1.875,-5.625 -1.6e-4,-1.66625 -5.20844,-2.70781 -15.625,-3.125 l -12.5,-0.625 c -7.50016,-0.83281 -19.16672,2.29219 -35,9.375 -1.66672,0.83437 -3.12516,1.66719 -4.375,2.5 -1.25,0.41719 -2.29172,1.04219 -3.125,1.875 l -8.75,6.875 c -4.58344,3.33375 -6.875,6.04219 -6.875,8.125 l 0.625,5 m 377.5,-33.125 c 1.25,0.41719 2.49953,0.625 3.75,0.625 1.66625,4.7e-4 2.70781,0.20937 3.125,0.625 7.08281,0.83437 11.24953,1.45937 12.5,1.875 l 20,6.875 c 4.16625,0.83437 6.45781,1.25 6.875,1.25 4.58281,4.7e-4 6.87453,-2.29125 6.875,-6.875 -4.7e-4,-1.25 -1.04219,-2.29125 -3.125,-3.125 l 1.25,1.25 -1.875,-0.625 c -1.25,1.66719 -2.50047,2.50047 -3.75,2.5 l -4.375,-0.625 c -1.66719,4.7e-4 -3.54219,4.7e-4 -5.625,0 -1.66719,-0.41563 -3.54219,-0.83281 -5.625,-1.25 -4.58375,-0.83281 -8.12547,-1.45781 -10.625,-1.875 -2.50047,-0.83281 -3.75047,-1.25 -3.75,-1.25 l -15.625,0.625 m -273.75,8.75 c 1.25,-1.25 2.29156,-1.87453 3.125,-1.875 0.41719,4.7e-4 1.66656,0.41719 3.75,1.25 2.08312,0.41719 3.74984,0.625 5,0.625 2.49984,4.7e-4 6.87484,-1.25 13.125,-3.75 -5.41688,-0.83281 -8.95844,-1.45781 -10.625,-1.875 -4.16688,-0.83281 -7.29188,-1.45781 -9.375,-1.875 -2.08344,-0.83281 -3.54188,-1.25 -4.375,-1.25 -6.66688,4.7e-4 -10.00016,2.70875 -10,8.125 -1.6e-4,1.25 0.41719,2.29219 1.25,3.125 l 3.75,3.75 1.875,4.375 1.875,0.625 c 2.91656,4.7e-4 4.37484,-1.45781 4.375,-4.375 -1.6e-4,-2.08281 -1.25,-4.37453 -3.75,-6.875 m -101.875,-8.75 c 1.66656,1.66719 2.5,4.16719 2.5,7.5 0,5.00047 -1.25,8.33375 -3.75,10 -2.08344,1.66719 -3.125,2.70875 -3.125,3.125 l 0,1.25 c 7.08328,-6.24953 10.625,-11.24953 10.625,-15 0,-4.16625 -2.08344,-6.45781 -6.25,-6.875 m 130,9.375 c 6.24984,6.66719 15.83312,10.00047 28.75,10 5.83312,4.7e-4 12.91641,-3.54125 21.25,-10.625 1.25,-0.41563 2.91641,-1.66625 5,-3.75 -1.25,-0.41563 -2.29188,-0.625 -3.125,-0.625 -0.41719,-0.41563 -0.625,-0.625 -0.625,-0.625 -1.66688,4.7e-4 -3.95859,0.625 -6.875,1.875 -2.08359,-3.74953 -4.58359,-5.62453 -7.5,-5.625 l -1.875,0 -3.75,1.875 3.75,4.375 0,1.25 c -1.6e-4,5.41719 -5.62516,8.12547 -16.875,8.125 -2.08359,4.7e-4 -6.25016,-1.25 -12.5,-3.75 -0.83281,-0.41563 -1.66688,-0.625 -2.5,-0.625 -0.83438,-0.41563 -1.87516,-1.04063 -3.125,-1.875 m 200.625,-9.375 0,1.875 -15,16.875 3.125,0 c 1.25,-2.08281 3.95797,-4.58281 8.125,-7.5 3.74953,-2.08281 5.83297,-5.41625 6.25,-10 l -2.5,-1.25 m -238.75,0.625 -0.625,0 -1.25,-0.625 c -3.33344,4.7e-4 -5.00016,2.50047 -5,7.5 -1.6e-4,2.91719 1.04219,4.37547 3.125,4.375 0.41719,4.7e-4 1.04219,-0.41563 1.875,-1.25 l 0,-6.25 1.875,-3.75 m 300,59.375 c -2.50047,-6.66625 -6.66719,-9.99953 -12.5,-10 -7.91703,4.7e-4 -12.91703,6.04203 -15,18.125 -2.08375,-0.83281 -3.12547,-2.49953 -3.125,-5 l 0,-2.5 c 0.41562,-2.08297 0.625,-3.74953 0.625,-5 0.41562,-1.66625 0.625,-2.91625 0.625,-3.75 -4.7e-4,-16.24953 -4.79203,-24.37453 -14.375,-24.375 -2.08375,4.7e-4 -3.12547,0.83437 -3.125,2.5 -4.7e-4,4.7e-4 0.625,1.25 1.875,3.75 1.66625,2.50047 2.49953,5.00047 2.5,7.5 l 0,1.25 -1.875,20 c -0.41719,10.83375 3.12453,19.79203 10.625,26.875 7.91625,7.08375 17.91625,10.62531 30,10.625 12.49953,3.1e-4 22.49953,-3.95797 30,-11.875 7.91625,-7.91625 11.87453,-18.12453 11.875,-30.625 -4.7e-4,-15.41625 -6.04219,-28.33281 -18.125,-38.75 -12.08375,-10.83281 -26.87547,-16.24953 -44.375,-16.25 -15.00047,4.7e-4 -28.33375,3.95875 -40,11.875 -2.50031,2.08375 -3.75031,3.54219 -3.75,4.375 -3.1e-4,1.25 0.83281,1.66719 2.5,1.25 l 0.625,0 c 2.49953,4.7e-4 3.95797,-0.20781 4.375,-0.625 l 13.125,-6.875 c 4.16625,-2.49953 11.87453,-3.74953 23.125,-3.75 16.66625,4.7e-4 29.99953,4.37547 40,13.125 10.41625,8.33375 15.62453,19.58375 15.625,33.75 -4.7e-4,8.75047 -3.33375,16.66703 -10,23.75 -6.66719,6.66703 -14.37547,10.00031 -23.125,10 -10.41719,3.1e-4 -15.62547,-4.99953 -15.625,-15 -4.7e-4,-9.58297 5.20781,-14.37453 15.625,-14.375 l 1.875,0 m -423.125,-51.875 c 6.25,2.91719 8.95828,7.50047 8.125,13.75 l -6.875,63.125 1.25,11.25 c 2.91656,27.50031 13.75,50.00031 32.5,67.5 l 13.75,12.5 c 4.16656,3.75031 7.08328,5.62531 8.75,5.625 0.83281,3.1e-4 1.66656,3.1e-4 2.5,0 0.83281,-0.41719 2.08328,-0.83281 3.75,-1.25 l -5,-5 -10.625,-9.375 -3.75,-4.375 c -19.16672,-19.16641 -28.33344,-39.16625 -27.5,-60 l 0,-1.25 1.25,-18.75 c 0.41719,-2.08297 1.04219,-4.37453 1.875,-6.875 1.25,-2.49953 2.70828,-5.20797 4.375,-8.125 l 3.75,-5.625 c 5,-8.33297 11.66656,-12.08297 20,-11.25 l 0.625,0 c 0.83281,4.7e-4 1.66656,0.20937 2.5,0.625 1.25,4.7e-4 2.70828,0.20937 4.375,0.625 -2.50016,-5.41625 -5.83344,-8.12453 -10,-8.125 l -2.5,0 -2.5,0 c -1.66672,4.7e-4 -2.70844,-0.625 -3.125,-1.875 l 2.5,-5.625 c -11.25,2.50047 -18.125,7.91703 -20.625,16.25 l -3.75,11.25 c -0.83281,0.83437 -1.45781,1.25 -1.875,1.25 -1.25,4.7e-4 -1.875,-0.625 -1.875,-1.875 0,4.7e-4 0.41719,-1.25 1.25,-3.75 l 8.75,-23.125 c 0.83281,-3.33281 1.25,-5.20781 1.25,-5.625 0,-2.08281 -0.20781,-3.33281 -0.625,-3.75 l -1.25,-6.875 -3.75,4.375 -2.5,-1.25 0,-9.375 c 0,-5.41625 -3.54172,-8.12453 -10.625,-8.125 l -1.25,0.625 -3.125,2.5 m 73.75,2.5 c 6.24984,4.7e-4 9.99984,1.04219 11.25,3.125 l 2.5,4.375 1.25,0.625 c 2.08328,4.7e-4 3.12484,-1.25 3.125,-3.75 -1.6e-4,-4.58281 -3.33344,-6.87453 -10,-6.875 -1.66672,4.7e-4 -2.70844,0.20937 -3.125,0.625 l -5,1.875 m 216.25,-0.625 c 7.08297,4.16719 11.66641,11.25047 13.75,21.25 -3.1e-4,0.83437 -3.1e-4,1.87547 0,3.125 0.41562,0.83437 0.83281,2.08375 1.25,3.75 l 0,6.875 c -0.41719,2.08375 -0.83438,3.95875 -1.25,5.625 -3.1e-4,1.25 -3.1e-4,2.08375 0,2.5 -3.1e-4,1.25 0.83281,1.87547 2.5,1.875 1.66625,4.7e-4 2.49969,-1.25 2.5,-3.75 l 0,-0.625 -0.625,-11.875 c -0.41719,-12.49953 -4.37531,-21.66625 -11.875,-27.5 -1.25,-1.25 -2.70859,-1.87453 -4.375,-1.875 l -1.875,0.625 m -138.125,3.125 c 2.91641,4.16719 5.62484,6.25047 8.125,6.25 1.25,4.7e-4 1.87484,-0.41563 1.875,-1.25 -1.6e-4,-0.83281 -0.20938,-1.25 -0.625,-1.25 l -3.125,-3.75 -2.5,-1.25 -3.75,1.25 m 244.375,-0.625 4.375,1.25 8.75,1.25 5.625,3.125 c 5.83281,2.08375 8.95781,6.25047 9.375,12.5 -1.25,4.58375 -3.12547,6.87547 -5.625,6.875 -2.91719,4.7e-4 -5.20875,-2.49953 -6.875,-7.5 -1.66719,1.66719 -2.50047,3.54203 -2.5,5.625 -4.7e-4,7.91703 4.16625,11.87547 12.5,11.875 2.91625,4.7e-4 4.79125,-0.41563 5.625,-1.25 l 6.25,-6.25 4.375,5.625 c 0.83281,-0.83281 1.25,-2.91625 1.25,-6.25 l 1.875,-5.625 c -5.41719,-15.41625 -18.54219,-22.70781 -39.375,-21.875 l -0.625,0 -5,0.625 m -252.5,1.25 c 2.08312,3.33375 5.20812,5.00047 9.375,5 -2.08359,-3.74953 -3.95844,-5.62453 -5.625,-5.625 l -1.875,0 -1.875,0.625 m -30,86.875 c 0.41719,3.75031 4.99984,5.62531 13.75,5.625 13.74984,3.1e-4 20.62484,-2.08297 20.625,-6.25 -1.6e-4,-2.49969 -0.20781,-4.37469 -0.625,-5.625 l -0.625,-3.75 0.625,-16.875 0,-6.875 c -0.41719,-2.08297 -0.625,-3.95797 -0.625,-5.625 -1.6e-4,-1.66625 -1.6e-4,-2.91625 0,-3.75 l 0,-1.875 c -1.6e-4,-10.41625 4.16641,-15.62453 12.5,-15.625 l 141.25,-0.625 -3.125,-15 -200.625,0 c -0.41719,0.41719 -3.54172,0.20937 -9.375,-0.625 l -9.375,-0.625 -18.125,-0.625 c -7.50016,-0.41563 -11.25016,1.04219 -11.25,4.375 -1.6e-4,2.50047 4.58328,4.37547 13.75,5.625 27.08328,3.75047 42.49984,13.54203 46.25,29.375 l 1.875,9.375 1.875,4.375 c 0.41719,0.41719 0.625,4.16703 0.625,11.25 l 0,0.625 0,5 c -1.6e-4,0.83437 -1.6e-4,2.08375 0,3.75 -1.6e-4,1.25 0.20781,2.70875 0.625,4.375 m 231.25,-76.25 -3.75,0.625 -31.875,0 3.125,16.25 c 16.24969,0.83437 27.49969,5.20875 33.75,13.125 5.41625,5.41703 9.99969,17.50047 13.75,36.25 4.16625,-0.83281 5.83297,-3.74969 5,-8.75 l 0,-1.875 0,-3.75 c -0.41719,-3.33297 -1.04219,-7.70797 -1.875,-13.125 -0.83438,-5.83297 -2.29203,-12.70797 -4.375,-20.625 -1.25,-3.33297 -1.66703,-6.45797 -1.25,-9.375 l 0,-1.875 c -0.41719,-1.25 -1.04219,-3.54125 -1.875,-6.875 l -3.125,0 -7.5,0 m 14.375,0 c 2.08297,17.91703 3.95797,31.04203 5.625,39.375 2.08297,8.33375 3.12453,14.58375 3.125,18.75 -4.7e-4,4.16703 -2.29203,7.91703 -6.875,11.25 3.33297,0.83437 4.79125,1.25 4.375,1.25 4.58297,3.1e-4 6.87453,-4.58297 6.875,-13.75 -4.7e-4,-2.49953 -0.20938,-4.16625 -0.625,-5 l -6.25,-28.125 -1.875,-15.625 c -0.41719,-3.74953 -1.87547,-6.45781 -4.375,-8.125 m -313.75,5 c 0.83281,3.75047 2.49984,6.25047 5,7.5 2.49984,1.25 9.16656,2.91703 20,5 11.66656,1.66703 21.45828,5.83375 29.375,12.5 -0.83281,-1.66625 -4.58344,-5.20797 -11.25,-10.625 -5.41672,-1.25 -11.66672,-3.12453 -18.75,-5.625 -7.08344,-2.49953 -15.20844,-5.41625 -24.375,-8.75 m 355,10 c -1.25,4.7e-4 -2.08375,0.83437 -2.5,2.5 l -0.625,1.25 c -4.7e-4,2.50047 1.66625,3.75047 5,3.75 2.49953,4.7e-4 3.74953,-1.04063 3.75,-3.125 -4.7e-4,-2.91625 -1.87547,-4.37453 -5.625,-4.375 m -141.875,2.5 -92.5,0.625 c -8.75016,4.7e-4 -13.75016,2.29203 -15,6.875 -0.41719,0.83438 -0.625,3.75047 -0.625,8.75 l 0,31.25 1.25,10 4.375,-4.375 -0.625,-10 0,-18.75 c -0.41719,-7.49953 -1.6e-4,-12.29125 1.25,-14.375 1.66641,-2.49953 4.37484,-3.74953 8.125,-3.75 l 1.875,0 133.75,0 0,-6.25 -41.875,0 m 53.75,2.5 0,3.125 c -3.1e-4,1.25 3.74969,1.87547 11.25,1.875 1.66625,0.41719 3.54125,0.83438 5.625,1.25 2.49969,0.41719 5.41625,0.83438 8.75,1.25 -5.41703,-4.16625 -13.95875,-6.66625 -25.625,-7.5 m -138.75,7.5 c 2.49984,7.08375 3.74984,13.12547 3.75,18.125 -1.6e-4,1.66703 -0.41719,4.16703 -1.25,7.5 l -13.125,43.75 c -0.41719,0.83438 -0.625,2.50031 -0.625,5 -1.6e-4,8.75031 4.37484,14.37531 13.125,16.875 l 6.25,1.875 6.25,1.875 -0.625,-5 c 1.25,0.41719 3.33312,0.625 6.25,0.625 6.66641,3.1e-4 11.66641,-4.37469 15,-13.125 0.41562,-1.25 0.83281,-2.29125 1.25,-3.125 0.41562,-1.25 0.83281,-2.29125 1.25,-3.125 l -5,0 c 0.41719,-0.83281 0.625,-2.49969 0.625,-5 -3.1e-4,-8.33297 -3.95859,-12.49969 -11.875,-12.5 -5.41688,3.1e-4 -9.79188,4.79203 -13.125,14.375 l -3.75,1.875 c 1.25,3.33375 2.70812,5.00031 4.375,5 2.91641,3.1e-4 4.79141,-4.79125 5.625,-14.375 1.66641,-2.49969 3.54141,-3.74969 5.625,-3.75 2.08312,3.1e-4 3.95812,1.66703 5.625,5 1.66641,2.91703 2.49969,5.83375 2.5,8.75 -3.1e-4,9.16703 -4.79188,13.75031 -14.375,13.75 -10.41688,3.1e-4 -15.62516,-4.79125 -15.625,-14.375 -1.6e-4,-5.41625 1.87484,-16.66625 5.625,-33.75 0.41562,-2.08297 0.625,-3.95797 0.625,-5.625 0.41562,-1.66625 0.625,-2.91625 0.625,-3.75 l 0,-3.125 c -0.41719,-1.25 -0.625,-3.12453 -0.625,-5.625 -1.6e-4,-1.25 -1.6e-4,-2.49953 0,-3.75 -1.6e-4,-1.66625 -0.20938,-3.33297 -0.625,-5 -1.6e-4,-4.16625 -1.25,-7.29125 -3.75,-9.375 m -7.5,0.625 c 1.25,9.58375 1.87484,15.00047 1.875,16.25 -1.6e-4,0.41719 -0.625,5.20875 -1.875,14.375 4.58312,-7.08297 6.87484,-13.74953 6.875,-20 -1.6e-4,-7.08297 -1.25,-10.62453 -3.75,-10.625 l -3.125,0 m 12.5,0.625 c 6.66641,27.91703 16.04141,43.75031 28.125,47.5 l 13.125,4.375 -3.125,6.875 1.25,1.875 0,2.5 c -3.1e-4,0.83437 1.66641,2.29203 5,4.375 l 19.375,8.75 c 4.99969,2.08375 7.49969,5.62531 7.5,10.625 -3.1e-4,3.75031 -0.20937,6.25031 -0.625,7.5 l 3.125,0.625 c 4.16641,3.1e-4 6.24969,-2.08297 6.25,-6.25 -3.1e-4,-0.83281 -0.20937,-1.45781 -0.625,-1.875 l -2.5,-6.25 8.125,-2.5 c 1.66641,-0.41563 1.25,-2.91625 -1.25,-7.5 l -0.625,-1.25 c -2.08359,-3.33297 -3.95859,-4.99969 -5.625,-5 l -18.125,-0.625 c -2.50031,3.1e-4 -3.75031,-1.04063 -3.75,-3.125 l 0,-0.625 2.5,-1.875 0.625,-3.125 6.875,-0.625 4.375,-2.5 1.25,0 c 1.66641,3.1e-4 2.49969,0.41719 2.5,1.25 -3.1e-4,0.83437 -0.20937,1.25 -0.625,1.25 l -10.625,3.125 2.5,2.5 c 0.83281,0.83437 1.66641,1.25 2.5,1.25 1.66641,3.1e-4 2.91641,-0.625 3.75,-1.875 l 3.125,-4.375 c 0.41719,-0.41563 0.83281,-0.625 1.25,-0.625 0.83281,3.1e-4 1.25,0.41719 1.25,1.25 l 0,1.875 13.125,-13.125 c -3.75031,-8.74969 -9.58359,-13.12453 -17.5,-13.125 -1.25,4.7e-4 -3.54188,0.625 -6.875,1.875 -2.91688,1.25 -5.00031,1.87531 -6.25,1.875 -1.66688,3.1e-4 -2.50031,-0.83281 -2.5,-2.5 -3.1e-4,-2.08297 0.625,-3.12453 1.875,-3.125 l 11.875,-0.625 7.5,-3.75 c 0.83281,-0.41563 1.45781,-0.625 1.875,-0.625 0.41563,-0.41563 0.625,-0.625 0.625,-0.625 -3.1e-4,-0.83281 -0.625,-1.66625 -1.875,-2.5 l -4.375,-1.875 3.75,-6.25 c 0.41563,-0.41563 0.625,-1.87453 0.625,-4.375 -3.1e-4,-2.08297 -1.87531,-4.79125 -5.625,-8.125 -2.08359,7.08375 -4.79188,11.25047 -8.125,12.5 l -15.625,6.25 c -7.08359,3.33375 -10.62531,7.91703 -10.625,13.75 -3.1e-4,1.25 1.66641,4.16703 5,8.75 l -1.25,2.5 -1.875,0.625 -0.625,0 c -8.33359,3.1e-4 -15.20859,-3.33297 -20.625,-10 -9.58359,-10.41625 -14.58359,-20.41625 -15,-30 -1.6e-4,-3.74953 -0.625,-5.62453 -1.875,-5.625 l -2.5,0.625 m 30,0.625 c 0.41562,0.83438 0.625,2.70875 0.625,5.625 -3.1e-4,4.58375 -2.70859,6.87547 -8.125,6.875 -4.58359,4.7e-4 -7.50016,-1.25 -8.75,-3.75 -3.33359,-5.41625 -5.20859,-8.54125 -5.625,-9.375 l -1.875,-0.625 1.875,8.125 c 2.49984,10.83375 8.74984,16.25047 18.75,16.25 8.33312,4.7e-4 12.49969,-4.58297 12.5,-13.75 -3.1e-4,-4.16625 -3.12531,-7.29125 -9.375,-9.375 m 110.625,1.25 c -1.25,2.50047 -1.87531,4.58375 -1.875,6.25 l 0,6.25 0.625,13.125 c 0.41563,1.25 0.625,2.70875 0.625,4.375 -3.1e-4,1.25 0.20781,2.08375 0.625,2.5 0.83281,5.83375 2.70797,9.37531 5.625,10.625 -0.83437,-2.08297 -1.45937,-4.16625 -1.875,-6.25 -0.41719,-2.49969 -0.83437,-4.99969 -1.25,-7.5 l -0.625,-5.625 0,-16.25 c 1.25,-1.66625 1.87469,-3.33297 1.875,-5 -3.1e-4,-0.83281 -1.25,-1.66625 -3.75,-2.5 m 130.625,-0.625 c -3.33375,10.83375 -8.33375,16.25047 -15,16.25 -2.08375,4.7e-4 -4.37547,-1.66625 -6.875,-5 -5.00047,1.25 -7.50047,3.33375 -7.5,6.25 -4.7e-4,5.00047 3.33281,7.50047 10,7.5 4.16625,4.7e-4 8.54125,-2.29125 13.125,-6.875 4.58281,-4.99953 6.66625,-9.37453 6.25,-13.125 l 0,-5 m -117.5,2.5 c -2.08375,-1.25 -3.75031,-1.87453 -5,-1.875 -1.25,4.7e-4 -1.87531,0.41719 -1.875,1.25 l -1.25,5.625 0,11.875 c -0.83437,20.83375 1.87469,31.25031 8.125,31.25 0.83281,3.1e-4 1.45781,-0.20781 1.875,-0.625 l 0.625,-3.125 -3.75,-15 c -0.41719,-0.83281 -0.625,-2.70797 -0.625,-5.625 l 0,-4.375 c -3.1e-4,-2.49953 0.20781,-4.37453 0.625,-5.625 l 1.25,-13.75 m -31.875,1.875 c -2.08359,0.83437 -3.12531,1.66703 -3.125,2.5 -3.1e-4,2.91703 1.45781,4.37547 4.375,4.375 2.08297,4.7e-4 3.12469,-1.04063 3.125,-3.125 l 0,-0.625 -0.625,-0.625 c -3.1e-4,-0.41563 -0.20937,-0.83281 -0.625,-1.25 l -3.125,-1.25 m -14.375,3.125 c -2.08359,2.08375 -3.12531,3.33375 -3.125,3.75 -3.1e-4,2.08375 1.25,3.12547 3.75,3.125 2.91641,4.7e-4 4.37469,-1.45781 4.375,-4.375 -3.1e-4,-0.83281 -0.41719,-1.66625 -1.25,-2.5 l -2.5,-1.875 -1.25,1.875 m -247.5,1.875 5,5.625 1.25,11.875 3.75,8.125 -8.125,1.875 c 5.83328,11.25031 12.91656,18.54203 21.25,21.875 l 13.125,5 c 3.33328,1.25 4.99984,2.70875 5,4.375 -1.6e-4,2.50031 -0.83281,3.95875 -2.5,4.375 l -1.25,0.625 -1.875,-1.25 -10.625,-8.125 c -1.66672,-1.66625 -3.95844,-2.49969 -6.875,-2.5 l -1.25,0 -0.625,0 -6.25,0 1.875,5 -1.25,1.875 c -4.16672,-0.83281 -6.25,-1.25 -6.25,-1.25 -2.08344,3.1e-4 -4.375,2.08375 -6.875,6.25 l 6.875,2.5 10,8.75 9.375,1.875 -5,5 c -0.41719,0.41719 -0.625,1.04219 -0.625,1.875 l 0,0.625 c 0.41719,0.41719 0.625,0.83437 0.625,1.25 0.41719,0.41719 0.83281,0.83437 1.25,1.25 l 1.875,0 8.125,-3.125 19.375,1.25 c 16.66656,0.41719 33.74984,-4.79141 51.25,-15.625 16.24984,-11.66625 25.83312,-24.58297 28.75,-38.75 -10.83359,22.08375 -29.58344,35.62531 -56.25,40.625 -4.58344,0.83437 -7.08344,1.45937 -7.5,1.875 -3.33344,0.83281 -4.79188,1.25 -4.375,1.25 -2.08344,3.1e-4 -3.12516,-0.83281 -3.125,-2.5 -1.6e-4,-1.66625 1.45781,-2.29125 4.375,-1.875 l 1.875,0 c 2.91656,3.1e-4 9.79156,-1.87469 20.625,-5.625 l -5,0 c -4.58344,3.1e-4 -9.58344,-1.04063 -15,-3.125 l -17.5,-10.625 c -2.50016,-1.25 -3.75016,-2.29125 -3.75,-3.125 -1.6e-4,-1.66625 0.625,-2.49969 1.875,-2.5 l 0.625,0 0.625,0 8.125,6.875 c 0.83281,0.83438 2.49984,1.45937 5,1.875 7.08312,3.33375 11.45812,5.41703 13.125,6.25 2.08312,0.41719 4.99984,0.625 8.75,0.625 22.08312,3.1e-4 37.91641,-12.29125 47.5,-36.875 -0.83281,1.25 -1.66688,2.29203 -2.5,3.125 -0.83281,0.83437 -1.45781,1.66703 -1.875,2.5 -9.58359,12.50031 -21.45844,18.75031 -35.625,18.75 -15.41688,3.1e-4 -23.12516,-6.24969 -23.125,-18.75 -1.6e-4,-3.74969 0.20781,-6.24969 0.625,-7.5 l -8.75,3.125 c 0.41719,-2.08297 0.625,-3.74953 0.625,-5 0.41719,-1.25 0.625,-2.29125 0.625,-3.125 -1.6e-4,-3.74953 -0.83281,-7.08297 -2.5,-10 -1.25,-2.08297 -2.29172,-3.12453 -3.125,-3.125 -6.66672,4.7e-4 -9.79172,4.58375 -9.375,13.75 l 0,4.375 -4.375,-1.25 -2.5,-11.875 c -1.25,-5.83297 -3.75016,-8.74953 -7.5,-8.75 -0.83281,0.83438 -1.45781,2.70875 -1.875,5.625 -3.33344,0.83438 -4.37516,1.25 -3.125,1.25 -0.83281,4.7e-4 -2.29172,-1.45781 -4.375,-4.375 -2.08344,-3.33297 -5.41672,-4.99953 -10,-5 -1.66672,4.7e-4 -2.70844,0.20938 -3.125,0.625 l -7.5,1.875 m 268.75,4.375 c -1.66703,0.41719 -2.50031,1.66703 -2.5,3.75 -3.1e-4,2.91703 1.04063,4.37547 3.125,4.375 3.74969,4.7e-4 5.62469,-1.66625 5.625,-5 -3.1e-4,-2.08297 -1.66703,-3.12453 -5,-3.125 l -1.25,0 m -12.5,0 c -1.25,1.25 -2.08359,2.50047 -2.5,3.75 l -0.625,1.25 c -3.1e-4,3.33375 1.66641,5.00047 5,5 2.91641,4.7e-4 4.37469,-1.45781 4.375,-4.375 -3.1e-4,-3.74953 -1.87531,-5.62453 -5.625,-5.625 l -0.625,0 m 41.875,30.625 1.25,-1.25 c -1.25,-3.74969 -1.87531,-6.45797 -1.875,-8.125 -3.1e-4,-4.58297 1.87469,-7.91625 5.625,-10 l 0.625,-0.625 0.625,0.625 5,2.5 c 1.25,4.7e-4 1.87469,-0.625 1.875,-1.875 -3.1e-4,-5.83297 -2.29203,-8.74953 -6.875,-8.75 -5.83375,4.7e-4 -8.75031,4.37547 -8.75,13.125 -3.1e-4,5.00031 0.83281,9.79203 2.5,14.375 m -53.75,-25 c -2.50031,4.7e-4 -3.75031,1.45938 -3.75,4.375 -3.1e-4,3.75047 1.87469,5.62547 5.625,5.625 2.91641,4.7e-4 4.37469,-1.87453 4.375,-5.625 -3.1e-4,-2.91625 -2.08359,-4.37453 -6.25,-4.375 m -15,5 c 2.91641,2.91703 4.37469,5.41703 4.375,7.5 -3.1e-4,1.25 -0.625,3.33375 -1.875,6.25 3.33297,-4.58297 4.99969,-8.12453 5,-10.625 -3.1e-4,-2.91625 -1.45937,-4.37453 -4.375,-4.375 l -0.625,0 -2.5,1.25 m 36.875,10 c 1.25,-1.66625 1.87469,-3.33297 1.875,-5 -3.1e-4,-2.49953 -1.66703,-3.74953 -5,-3.75 -2.50031,4.7e-4 -3.75031,1.25 -3.75,3.75 -3.1e-4,2.50031 2.29141,4.16703 6.875,5 m -35.625,15.625 c 6.24969,-1.25 12.08297,-3.74969 17.5,-7.5 4.16641,-2.91625 6.24969,-5.20797 6.25,-6.875 l 0,-0.625 c -0.41719,-1.66625 -1.04219,-2.49969 -1.875,-2.5 -3.33359,3.1e-4 -6.45859,1.87531 -9.375,5.625 -3.75031,5.00031 -6.25031,7.91703 -7.5,8.75 -1.25,0.83437 -2.91703,1.87531 -5,3.125 m 130.625,61.25 1.25,0 0,3.125 c -4.7e-4,2.50031 0.83281,4.58359 2.5,6.25 1.66625,-1.25 2.49953,-2.49969 2.5,-3.75 -4.7e-4,-0.41719 -0.83437,-2.29141 -2.5,-5.625 -1.25,-3.74969 -1.87547,-6.87469 -1.875,-9.375 -4.7e-4,-6.24969 1.87453,-14.16641 5.625,-23.75 4.58281,-9.58297 8.54125,-14.37469 11.875,-14.375 l 10.625,-6.25 16.25,-13.75 6.25,-6.875 0.625,-3.75 -9.375,9.375 -26.875,17.5 c -12.50047,8.33375 -18.75047,20.62531 -18.75,36.875 -4.7e-4,2.91703 0.625,7.70859 1.875,14.375 m -21.25,-75.625 -3.75,3.125 c 0.41563,2.91703 1.66625,5.00031 3.75,6.25 -4.7e-4,-4.58297 2.70797,-7.08297 8.125,-7.5 l -8.125,-1.875 m -81.875,18.125 1.875,1.25 3.125,-2.5 c 0.83281,-0.83281 1.45781,-1.25 1.875,-1.25 2.91625,3.1e-4 5.41625,1.04219 7.5,3.125 l 18.125,25 c 2.91625,3.75031 6.66625,5.62531 11.25,5.625 7.91625,3.1e-4 11.87469,-3.54125 11.875,-10.625 -3.1e-4,-2.91625 -0.20937,-4.79125 -0.625,-5.625 l -5,-10.625 0,-1.875 c -3.1e-4,-2.08297 1.87469,-4.79125 5.625,-8.125 l 7.5,3.125 c 0.83281,-0.83281 1.25,-1.66625 1.25,-2.5 -4.7e-4,-4.16625 -2.91703,-6.24969 -8.75,-6.25 -3.75031,3.1e-4 -7.50031,1.66703 -11.25,5 -3.33375,3.33375 -5.00031,7.08375 -5,11.25 l 0,2.5 3.125,5 -1.25,1.875 c -3.1e-4,1.25 -0.41719,1.87531 -1.25,1.875 -1.66703,3.1e-4 -2.70875,-2.08297 -3.125,-6.25 -1.25,-7.08297 -6.04203,-12.91625 -14.375,-17.5 -2.91703,-1.66625 -6.25031,-2.49969 -10,-2.5 -7.91703,3.1e-4 -12.08359,3.33375 -12.5,10 m 98.125,-8.75 c -1.25,0.83438 -1.87547,1.66703 -1.875,2.5 -4.7e-4,1.25 1.04063,1.87531 3.125,1.875 1.66625,3.1e-4 2.49953,-0.83281 2.5,-2.5 -4.7e-4,-1.25 -1.04219,-1.87469 -3.125,-1.875 l -0.625,0 m 33.125,1.875 -2.5,0.625 -10,1.875 -12.5,1.25 c -1.66703,3.1e-4 -2.50047,0.41719 -2.5,1.25 -4.7e-4,2.08375 1.45781,3.12531 4.375,3.125 2.49953,3.1e-4 3.95797,-0.20781 4.375,-0.625 l 14.375,-5.625 3.75,-0.625 0.625,-1.25 m -39.375,3.75 -2.5,6.25 8.75,0 -6.25,-6.25 m -125,5.625 c 1.25,-0.41562 3.54141,-0.625 6.875,-0.625 12.91641,3.1e-4 19.37469,4.58375 19.375,13.75 -3.1e-4,5.41703 -2.50031,8.12531 -7.5,8.125 -2.91703,3.1e-4 -5.00031,-2.29125 -6.25,-6.875 l -0.625,5 c -0.83437,5.00031 1.66641,7.50031 7.5,7.5 9.16641,3.1e-4 13.74969,-5.20797 13.75,-15.625 -3.1e-4,-3.74969 -1.87531,-7.08297 -5.625,-10 -3.75031,-3.33297 -7.70859,-4.99969 -11.875,-5 -1.25,3.1e-4 -3.12531,0.20938 -5.625,0.625 -2.08359,0.41719 -3.54203,0.625 -4.375,0.625 l -1.25,0 -3.125,0 c -3.1e-4,3.1e-4 -0.20937,0.20938 -0.625,0.625 -3.1e-4,0.41719 -0.20781,1.04219 -0.625,1.875 m 137.5,1.875 -2.5,-1.25 -0.625,0 c -1.25,3.1e-4 -2.08375,0.83438 -2.5,2.5 l -0.625,1.25 c -4.7e-4,2.91703 1.25,4.37531 3.75,4.375 2.49953,3.1e-4 3.74953,-1.45781 3.75,-4.375 -4.7e-4,-0.83281 -0.41719,-1.66625 -1.25,-2.5 m 38.125,1.875 c -11.25047,4.58375 -16.87547,12.70875 -16.875,24.375 -4.7e-4,10.83359 5.62453,20.62531 16.875,29.375 1.66625,-1.66641 2.49953,-2.91641 2.5,-3.75 -4.7e-4,-1.25 -0.20937,-2.08297 -0.625,-2.5 l -8.75,-9.375 c -2.91719,-2.91641 -4.37547,-8.12469 -4.375,-15.625 -4.7e-4,-4.99969 0.41563,-7.91625 1.25,-8.75 l 3.125,-3.75 3.125,-3.125 c 0.41563,-1.25 1.87453,-1.87469 4.375,-1.875 10.41625,3.1e-4 15.62453,5.83375 15.625,17.5 -4.7e-4,5.00031 -1.25,10.83359 -3.75,17.5 -4.7e-4,3.1e-4 -0.83437,1.66703 -2.5,5 -1.66719,2.91703 -4.16719,7.50031 -7.5,13.75 -4.7e-4,0.83281 0.83281,1.45781 2.5,1.875 l 3.125,-5 1.875,0 1.25,-2.5 6.25,-12.5 c 2.91625,-4.16641 4.37453,-10.41641 4.375,-18.75 -4.7e-4,-14.58297 -7.29219,-21.87469 -21.875,-21.875 m -58.75,5 c -11.25047,5.83375 -16.87547,12.50031 -16.875,20 -4.7e-4,11.25031 4.79125,22.91703 14.375,35 l 24.375,30 c 0.41563,0.83281 1.45781,2.50031 3.125,5 1.66625,2.08359 4.16625,5.20859 7.5,9.375 0.41563,2.08359 1.66625,3.95859 3.75,5.625 l -3.125,-6.875 -20,-26.875 c -12.50047,-16.66641 -18.75047,-30.20797 -18.75,-40.625 -4.7e-4,-8.33297 2.91625,-12.49969 8.75,-12.5 2.91625,3.1e-4 5.62453,2.70859 8.125,8.125 2.49953,-2.49969 3.74953,-4.79141 3.75,-6.875 -4.7e-4,-7.91625 -3.54203,-11.45797 -10.625,-10.625 l -5,0.625 0.625,-9.375 m -224.375,80 0,-53.75 1.25,-6.25 -1.875,-14.375 -4.375,4.375 1.25,36.25 -1.25,21.875 c -1.6e-4,4.58359 1.66641,8.54188 5,11.875 m 65.625,-38.75 0,2.5 c -2.91688,1.25 -4.79188,3.54203 -5.625,6.875 l 6.875,1.875 8.75,3.125 6.25,0.625 4.375,0.625 6.875,-1.25 5.625,-3.125 c 0.83281,-0.41719 2.29141,-0.625 4.375,-0.625 2.49969,3.1e-4 3.74969,1.25 3.75,3.75 -3.1e-4,2.08359 -1.04219,3.12531 -3.125,3.125 l -13.75,0 c -3.1e-4,3.1e-4 -1.04219,0.41719 -3.125,1.25 -1.66688,0.41719 -4.58359,1.25 -8.75,2.5 2.91641,0.41719 4.58312,1.87531 5,4.375 -3.33359,2.50031 -5.00031,5.00031 -5,7.5 -3.1e-4,2.50031 0.83281,3.75031 2.5,3.75 l 7.5,-5.625 21.875,-4.375 c 6.24969,-0.41719 9.37469,-6.04141 9.375,-16.875 -3.1e-4,-2.08297 -1.25,-4.37469 -3.75,-6.875 -2.08359,-2.49969 -4.16703,-3.95797 -6.25,-4.375 l -36.25,-2.5 c -1.66688,3.1e-4 -3.95859,-1.45781 -6.875,-4.375 -2.91688,-3.33297 -4.37531,-6.66641 -4.375,-10 -3.1e-4,-5.41625 2.29141,-8.12469 6.875,-8.125 2.49969,3.1e-4 5.20812,1.45938 8.125,4.375 l 0.625,-1.25 c -0.83281,-5.83297 -4.16688,-8.74969 -10,-8.75 -4.16688,3.1e-4 -8.12531,1.87531 -11.875,5.625 -3.75031,3.75031 -5.62531,7.70859 -5.625,11.875 -3.1e-4,7.91703 5.20812,12.70859 15.625,14.375 m 98.125,-17.5 1.25,-0.625 c 2.91625,-1.25 4.37469,-2.49969 4.375,-3.75 -3.1e-4,-5.83297 -3.33375,-8.74969 -10,-8.75 -7.08375,3.1e-4 -10.62531,3.75031 -10.625,11.25 -3.1e-4,3.33359 0.83281,6.66703 2.5,10 2.08297,3.33359 4.16625,5.00031 6.25,5 2.08297,3.1e-4 3.12469,-0.83281 3.125,-2.5 -3.1e-4,-1.25 -1.04219,-3.12469 -3.125,-5.625 -1.66703,-2.91641 -2.50031,-5.20797 -2.5,-6.875 -3.1e-4,-2.91641 1.66625,-4.37469 5,-4.375 2.49969,3.1e-4 3.74969,1.04219 3.75,3.125 l 0,3.125 m -171.875,-10 -5.625,3.125 c -5.41688,2.91703 -10.62516,5.41703 -15.625,7.5 -4.58344,2.08359 -8.95844,3.95859 -13.125,5.625 l 0,223.75 c -1.6e-4,19.16672 -9.37516,30.83344 -28.125,35 l -21.25,5 c -2.91672,0.41719 -4.37516,1.66672 -4.375,3.75 -1.6e-4,1.25 0.20781,2.08344 0.625,2.5 l 288.75,3.125 5.625,-4.375 31.875,-52.5 c 1.25,-1.66656 1.87453,-3.12484 1.875,-4.375 -4.7e-4,-1.25 -0.625,-1.87484 -1.875,-1.875 -1.25,1.6e-4 -4.37547,2.50016 -9.375,7.5 -1.66703,1.66672 -3.12547,3.33344 -4.375,5 -1.25,1.25 -2.70875,2.70844 -4.375,4.375 -7.08375,6.66672 -16.45875,11.87516 -28.125,15.625 -5.00031,2.91672 -9.79203,4.58344 -14.375,5 l -5,0 -20,3.75 c -0.41719,0.41719 -3.54203,0.625 -9.375,0.625 -2.50031,0 -5.62531,0 -9.375,0 -3.75031,0 -7.91703,0.20781 -12.5,0.625 l -16.875,0 -5,0.625 -0.625,0 -2.5,-0.625 -5.625,0 -3.125,0 -72.5,-0.625 c -0.83281,-1.66656 -1.87516,-3.54156 -3.125,-5.625 -1.25,-2.08328 -2.50016,-4.16656 -3.75,-6.25 -0.83281,-1.25 -1.45781,-2.49984 -1.875,-3.75 -0.41719,-1.25 -0.83281,-2.29156 -1.25,-3.125 l -1.25,-6.25 -1.875,-7.5 -1.25,-55.625 -0.625,-70 c -0.41719,-1.66641 -0.625,-3.12469 -0.625,-4.375 -1.6e-4,-1.66641 -1.6e-4,-3.12469 0,-4.375 l 0,-5.625 c -1.6e-4,-7.49969 2.08312,-11.24969 6.25,-11.25 l 26.875,0.625 c 0.83281,-1.66641 1.66641,-3.33312 2.5,-5 1.25,-1.66641 2.49984,-3.54141 3.75,-5.625 0.83281,-0.83281 1.45781,-1.66641 1.875,-2.5 0.83281,-0.83281 1.66641,-1.66641 2.5,-2.5 l -13.75,0.625 -6.25,0 c -15.83359,3.1e-4 -23.75016,-3.95812 -23.75,-11.875 l 0,-58.125 m 206.875,0.625 c -0.83437,0.83438 -2.50031,2.29203 -5,4.375 -2.08375,1.66703 -5.00031,3.54203 -8.75,5.625 l 1.875,3.125 0.625,0 0.625,0 c 2.08297,3.1e-4 4.58297,-1.04062 7.5,-3.125 3.33297,-2.49969 4.99969,-4.79141 5,-6.875 -3.1e-4,-0.83281 -0.625,-1.87469 -1.875,-3.125 m -303.125,9.375 c -1.66672,-1.66641 -3.54172,-2.49969 -5.625,-2.5 -4.16672,3.1e-4 -6.25,2.29203 -6.25,6.875 0,-0.41719 0.41719,1.04219 1.25,4.375 1.25,5.00031 2.91656,7.50031 5,7.5 l 17.5,16.875 0.625,-1.875 -11.25,-11.25 c -3.33344,-3.33297 -5.00016,-7.91641 -5,-13.75 -1.6e-4,-1.66641 1.25,-3.74969 3.75,-6.25 m 302.5,1.875 -5.625,3.75 3.75,5 13.75,16.875 9.375,13.75 28.75,33.75 18.125,27.5 1.25,-3.125 -5.625,-9.375 -2.5,-6.25 -36.875,-48.125 -24.375,-33.75 m -60.625,22.5 c 1.25,0.83438 1.87469,1.45781 1.875,1.875 -3.1e-4,1.25 -2.08359,1.87531 -6.25,1.875 l -0.625,0 c -3.75031,3.1e-4 -7.50031,2.91703 -11.25,8.75 l 10.625,-1.875 -4.375,1.875 c -4.16703,1.25 -6.25031,2.91703 -6.25,5 -3.1e-4,5.00031 3.33297,7.50031 10,7.5 4.16641,3.1e-4 8.33297,-2.08312 12.5,-6.25 -5.41703,-0.41562 -8.12531,-1.66641 -8.125,-3.75 -3.1e-4,-0.83281 2.49969,-2.91641 7.5,-6.25 2.91641,-1.66641 5.41641,-5.20797 7.5,-10.625 -10.41703,-4.58297 -14.16703,-6.87469 -11.25,-6.875 l -4.375,0.625 -1.875,-1.875 5.625,-5.625 c 0.83281,-0.83281 1.25,-1.45781 1.25,-1.875 l 0.625,-1.875 c -3.1e-4,-0.83281 -0.625,-1.25 -1.875,-1.25 l -1.875,0 -11.875,-1.25 c -4.58359,-0.83281 -6.87531,2.08359 -6.875,8.75 -3.1e-4,5.00031 1.45781,7.70859 4.375,8.125 l 8.125,0 0,1.875 -6.25,0.625 c -0.41719,0.41719 -0.625,0.83438 -0.625,1.25 l 0,0.625 c 0.41719,1.25 1.87469,1.87531 4.375,1.875 1.25,3.1e-4 2.49969,3.1e-4 3.75,0 1.66641,-0.41562 3.54141,-0.83281 5.625,-1.25 m -286.25,-1.875 c -1.25,-2.49969 -1.875,-4.58297 -1.875,-6.25 0,-2.49969 1.45781,-3.74969 4.375,-3.75 5,3.1e-4 9.58328,2.08359 13.75,6.25 5.41656,4.58359 9.58328,8.12531 12.5,10.625 2.91656,2.50031 4.58328,3.95859 5,4.375 l 6.25,3.75 5.625,4.375 -6.875,-6.875 -6.25,-4.375 -4.375,-4.375 -8.75,-9.375 -5.625,-6.875 -3.75,-2.5 -3.125,-3.125 c -0.83281,-0.83281 -2.29172,-1.25 -4.375,-1.25 -6.66672,3.1e-4 -10,3.33359 -10,10 0,4.58359 2.5,7.70859 7.5,9.375 m 211.875,10 c -1.25,-0.41562 -3.75031,-0.625 -7.5,-0.625 -6.66688,-0.41719 -10.83359,0.20938 -12.5,1.875 l -12.5,-1.875 -6.25,-1.875 c -5.00016,-1.25 -7.50016,-5.41641 -7.5,-12.5 -1.6e-4,-4.16641 1.87484,-6.24969 5.625,-6.25 1.66641,3.1e-4 3.95812,0.83281 6.875,2.5 -1.6e-4,-6.24969 -3.54188,-9.37469 -10.625,-9.375 -8.75016,3.1e-4 -13.12516,4.58359 -13.125,13.75 -1.6e-4,5.41703 2.70812,10.20859 8.125,14.375 5.41641,4.16703 11.66641,6.25031 18.75,6.25 6.24984,3.1e-4 13.95812,-1.45781 23.125,-4.375 1.66641,-0.41562 4.16641,-1.04062 7.5,-1.875 m 63.75,25 -65,1.875 c -4.58359,3.1e-4 -7.50031,0.41719 -8.75,1.25 -1.25,0.41719 -3.54188,3.12531 -6.875,8.125 -0.41719,0.41719 -1.04219,1.04219 -1.875,1.875 -0.41719,0.83438 -1.25,1.87531 -2.5,3.125 l 76.25,0 c 6.66641,3.1e-4 13.95797,1.87531 21.875,5.625 7.91641,3.75031 12.70797,8.33359 14.375,13.75 l 10.625,30 c 0.41563,1.25 1.45781,1.87516 3.125,1.875 l 0.625,-0.625 c 2.49969,-0.83281 3.33297,-1.66641 2.5,-2.5 l -3.75,-56.875 1.875,-13.75 0.625,-11.25 1.25,-5 c 0.83281,-4.16641 1.25,-6.87469 1.25,-8.125 -3.1e-4,-11.66641 -1.66703,-17.49969 -5,-17.5 -2.50031,3.1e-4 -3.95875,1.25 -4.375,3.75 l -5.625,18.75 c -2.91703,7.50031 -6.25031,12.91703 -10,16.25 -3.33359,3.33359 -8.12531,5.83359 -14.375,7.5 -1.66703,0.41719 -3.75031,1.04219 -6.25,1.875 m 47.5,-44.375 c 0.41563,2.08359 0.625,4.58359 0.625,7.5 l 0,5.625 0,5.625 c -3.1e-4,2.50031 -0.20937,4.37531 -0.625,5.625 l -2.5,18.75 -0.625,8.125 0,5.625 0.625,8.125 0,6.25 2.5,36.875 c 0.41563,3.33359 -1.45937,5.83359 -5.625,7.5 l 0.625,1.875 1.875,0 1.875,0 c 4.16625,0.41719 6.24969,-1.87484 6.25,-6.875 l 0,-2.5 c -0.41719,-0.83281 -0.625,-2.70812 -0.625,-5.625 l -0.625,-10 -0.625,-6.25 -0.625,-18.125 -1.25,-16.25 c -3.1e-4,-1.25 0.625,-6.87469 1.875,-16.875 1.25,-10.41641 1.87469,-17.29141 1.875,-20.625 -3.1e-4,-4.99969 -1.66703,-9.79141 -5,-14.375 m -261.25,11.875 1.25,11.875 16.25,5.625 c 1.25,0.83281 1.87484,1.87531 1.875,3.125 -1.6e-4,2.50031 -1.66672,3.75031 -5,3.75 l -1.25,0 -11.875,-5.625 c -2.08344,-1.25 -4.16672,-1.87469 -6.25,-1.875 -4.58344,3.1e-4 -7.70844,1.25 -9.375,3.75 l 5.625,5 c -7.08344,0.83438 -10.20844,3.54188 -9.375,8.125 l 0,1.875 5.625,-1.875 28.125,-1.25 c 3.33328,-0.41719 6.66656,-3.12469 10,-8.125 1.66656,-1.66641 2.49984,-3.95797 2.5,-6.875 -1.6e-4,0.41719 -0.41719,-0.625 -1.25,-3.125 -6.25016,-8.33297 -9.58344,-13.33297 -10,-15 l -1.25,-1.875 0,-1.25 1.25,-7.5 c -0.83281,-0.83281 -1.66672,-1.25 -2.5,-1.25 -4.16672,3.1e-4 -6.25016,2.29203 -6.25,6.875 l 1.25,8.125 -2.5,0.625 -3.125,-1.875 -3.75,-1.25 m 352.5,-4.375 c 4.16625,3.75031 6.24953,7.91703 6.25,12.5 l -0.625,1.875 -5.625,9.375 c -4.7e-4,1.66703 0.625,2.50031 1.875,2.5 1.66625,3.1e-4 3.33281,-1.45781 5,-4.375 1.66625,-2.91641 2.49953,-6.24969 2.5,-10 -4.7e-4,-5.83297 -3.12547,-9.79141 -9.375,-11.875 m -81.25,6.875 -1.25,4.375 21.25,8.75 c -0.41719,-0.41719 -1.66703,-1.25 -3.75,-2.5 -2.08375,-1.25 -5.20875,-3.33297 -9.375,-6.25 -0.83437,-0.83281 -1.87531,-1.45781 -3.125,-1.875 -0.83437,-0.83281 -2.08375,-1.66641 -3.75,-2.5 m 66.875,26.25 1.25,-3.75 c -2.08375,-2.08312 -3.12547,-3.74969 -3.125,-5 -4.7e-4,-4.16641 5.62453,-7.91641 16.875,-11.25 l 0.625,-5 -1.875,0 -6.875,2.5 c -9.16703,2.91703 -13.75047,7.70859 -13.75,14.375 -4.7e-4,2.91687 2.29125,5.62531 6.875,8.125 m -397.5,-3.75 0,1.875 0,1.875 c 0,0.41719 -0.83281,1.25 -2.5,2.5 -1.25,1.25 -1.875,2.50031 -1.875,3.75 0,1.25 0.625,1.87531 1.875,1.875 l 1.25,-0.625 3.125,-5 1.875,-3.75 1.25,-3.125 -0.625,-0.625 0,-0.625 -3.75,-5.625 0,-1.875 c 0,-4.58297 2.5,-6.87469 7.5,-6.875 4.16656,3.1e-4 6.25,1.04219 6.25,3.125 l 0.625,2.5 -3.125,5 1.875,2.5 5,-8.125 c 0,-0.41719 -0.41719,-1.87469 -1.25,-4.375 -2.08344,-3.33297 -5,-4.99969 -8.75,-5 -2.91672,3.1e-4 -6.04172,1.45781 -9.375,4.375 -2.91672,2.50031 -4.375,5.20859 -4.375,8.125 0,2.08359 1.66656,4.79187 5,8.125 m 440,-15.625 c 5.41625,5.00031 8.12453,10.41703 8.125,16.25 -4.7e-4,1.66687 -1.66719,4.16687 -5,7.5 l -3.75,2.5 c -2.08375,2.08359 -4.58375,2.70859 -7.5,1.875 l -6.25,0 c -0.41719,0.83437 -0.625,1.87531 -0.625,3.125 -4.7e-4,0.83437 1.04063,1.25 3.125,1.25 16.24953,3.1e-4 24.37453,-6.66641 24.375,-20 -4.7e-4,-10.83297 -3.12547,-16.24969 -9.375,-16.25 -0.41719,3.1e-4 -0.83437,0.20937 -1.25,0.625 l -1.875,3.125 m -13.75,-1.25 0.625,3.75 c 0.41563,0.83281 1.04063,1.66703 1.875,2.5 1.25,0.83437 2.70781,2.08359 4.375,3.75 1.25,1.25 3.74953,5.00031 7.5,11.25 1.25,-1.66641 1.87453,-3.12469 1.875,-4.375 -4.7e-4,-2.49969 -2.08375,-5.83297 -6.25,-10 -2.91719,-2.91641 -6.25047,-5.20797 -10,-6.875 m -273.75,18.75 7.5,-0.625 c 1.25,-0.41719 2.91641,-0.625 5,-0.625 l 3.125,0 8.75,-2.5 8.125,-1.25 c 1.66641,-0.41719 4.79141,-1.25 9.375,-2.5 4.58312,-1.66641 10.62469,-3.74969 18.125,-6.25 1.66641,-0.41719 3.74969,-1.04062 6.25,-1.875 -1.66688,-1.66641 -3.33359,-2.49969 -5,-2.5 -2.50031,3.1e-4 -7.08359,1.25 -13.75,3.75 -6.25031,2.08359 -10.62516,3.33359 -13.125,3.75 l -20,3.125 -3.75,-0.625 -7.5,1.875 -3.125,-0.625 0,6.875 m 178.125,-16.875 -0.625,10.625 c 2.49969,0.83281 4.99969,1.66688 7.5,2.5 2.91625,0.41719 5.83297,1.04219 8.75,1.875 l 5,3.75 17.5,10 c 1.66625,0.83438 6.04125,4.58359 13.125,11.25 1.25,1.25 3.12453,3.54188 5.625,6.875 4.16625,5.83359 6.45797,8.75031 6.875,8.75 l 9.375,6.25 5.625,7.5 -3.125,-5.625 -3.125,-3.75 -8.75,-15 -3.125,-2.5 -3.125,-5 -6.25,-5.625 -4.375,-4.375 -20.625,-13.75 -4.375,-3.75 -7.5,-3.125 -2.5,-1.25 -2.5,0 0,-1.875 c -2.50031,-0.41719 -5.62531,-1.66641 -9.375,-3.75 m -166.875,62.5 c -5.00016,14.58359 -7.50016,29.16687 -7.5,43.75 -1.6e-4,6.25016 0.83281,12.29187 2.5,18.125 1.66641,5.83344 3.54141,13.12516 5.625,21.875 l 0,3.75 c -4.58359,0.83281 -6.87516,2.91687 -6.875,6.25 l 0,2.5 c 3.33312,10.00016 4.99984,16.45844 5,19.375 -1.6e-4,2.50016 -1.45781,5.20844 -4.375,8.125 9.16641,-0.41719 13.74984,-5.41656 13.75,-15 -1.6e-4,-1.66656 -0.41719,-3.74984 -1.25,-6.25 -0.83281,-2.91656 -1.25,-4.99984 -1.25,-6.25 -1.6e-4,-0.83281 0.625,-1.25 1.875,-1.25 l 0.625,0 3.125,4.375 c 0.83281,1.66687 3.95812,2.70844 9.375,3.125 1.25,1.6e-4 3.33312,-0.83281 6.25,-2.5 -4.58359,-2.08313 -7.70859,-6.66656 -9.375,-13.75 -1.25,-5.41656 -3.33359,-8.12484 -6.25,-8.125 -1.25,1.6e-4 -2.70859,0.83281 -4.375,2.5 -5.83359,-10.83313 -8.75016,-24.37484 -8.75,-40.625 -1.6e-4,-21.24984 5.83312,-40.20813 17.5,-56.875 l 6.25,-9.375 15,-16.25 20,-13.75 -3.125,-2.5 -1.25,0 c -0.83281,0.41719 -1.87531,0.83281 -3.125,1.25 -0.83281,0.41719 -2.08359,1.04219 -3.75,1.875 l -9.375,5.625 c -7.50031,5.41687 -14.37516,13.12531 -20.625,23.125 l -8.75,14.375 c -2.50016,4.16687 -3.95859,6.87531 -4.375,8.125 -1.6e-4,0.83437 -0.83281,2.29187 -2.5,4.375 m -80,-41.875 c 6.66656,-0.41719 9.99984,-4.37469 10,-11.875 -1.6e-4,-2.08297 -1.04219,-3.12469 -3.125,-3.125 -0.41719,3.1e-4 -0.83281,2.08359 -1.25,6.25 -0.83281,2.08359 -2.70844,5.00031 -5.625,8.75 m 319.375,-13.75 c -1.66719,0.41719 -2.50047,1.25 -2.5,2.5 l 0,1.25 c 1.25,2.50031 2.29125,3.75031 3.125,3.75 l 3.125,4.375 5,5 0.625,-4.375 -4.375,-3.125 -1.25,-3.75 -3.75,-5.625 m 22.5,0.625 c -6.66719,10.41687 -10.00047,18.33359 -10,23.75 -4.7e-4,8.75031 2.08281,16.87531 6.25,24.375 4.16625,7.08359 8.74953,10.62516 13.75,10.625 9.16625,1.6e-4 13.74953,-6.87469 13.75,-20.625 l -1.875,-14.375 -2.5,1.875 1.25,14.375 -1.25,3.75 c -2.08375,7.08359 -5.20875,10.62531 -9.375,10.625 -4.16719,3.1e-4 -7.91719,-3.33313 -11.25,-10 -2.91719,-6.66641 -4.37547,-12.49969 -4.375,-17.5 -4.7e-4,-4.99969 1.25,-10.20813 3.75,-15.625 2.49953,-5.83313 3.74953,-8.74969 3.75,-8.75 -4.7e-4,-0.83281 -0.625,-1.66641 -1.875,-2.5 m -329.375,2.5 -3.125,9.375 5.625,0 -0.625,-6.875 -1.875,-2.5 m 237.5,30.625 c -0.83437,-4.16641 -1.25,-6.24969 -1.25,-6.25 -3.1e-4,-6.24969 3.95797,-9.37469 11.875,-9.375 3.33297,3.1e-4 7.29125,1.04219 11.875,3.125 4.99953,1.66687 8.12453,2.91687 9.375,3.75 l 6.25,5.625 7.5,6.25 c 1.25,0.41719 4.16625,4.16687 8.75,11.25 0.41563,-0.41563 0.625,-0.625 0.625,-0.625 -4.7e-4,-0.41719 -4.7e-4,-0.625 0,-0.625 l 0,-0.625 c -1.66703,-1.66641 -3.33375,-3.33313 -5,-5 -1.25,-2.08313 -2.91703,-4.16641 -5,-6.25 -1.25,-1.66641 -2.50047,-2.91641 -3.75,-3.75 -0.83437,-1.25 -1.66703,-2.29141 -2.5,-3.125 l -11.25,-7.5 c -7.08375,-4.99969 -15.00031,-7.49969 -23.75,-7.5 -2.08375,3.1e-4 -3.54203,0.41719 -4.375,1.25 l -0.625,1.875 -3.125,1.25 c -2.08375,0.83281 -3.12531,3.54187 -3.125,8.125 -3.1e-4,3.75031 2.49969,6.45859 7.5,8.125 m -328.75,-11.875 c 0,2.08359 1.04219,3.12531 3.125,3.125 2.5,3.1e-4 3.75,-1.25 3.75,-3.75 0,-2.08313 -0.83281,-3.12469 -2.5,-3.125 l -1.25,0.625 c -2.08344,0.83437 -3.125,1.87531 -3.125,3.125 m 12.5,2.5 c -1.66672,3.1e-4 -2.91672,1.04219 -3.75,3.125 l -0.625,1.25 c 0,2.91687 1.45781,4.37531 4.375,4.375 3.33328,3.1e-4 5,-1.25 5,-3.75 0,-3.33313 -1.66672,-4.99969 -5,-5 m -20,0.625 c -2.5,3.1e-4 -3.75,0.83281 -3.75,2.5 0,1.66687 1.25,2.50031 3.75,2.5 1.66656,3.1e-4 2.5,-0.83281 2.5,-2.5 0,-1.25 -0.83281,-2.08313 -2.5,-2.5 m 92.5,51.875 c -0.41719,-7.08313 -1.04219,-12.29141 -1.875,-15.625 -1.66672,-7.08313 -2.91672,-12.49969 -3.75,-16.25 -0.83281,-3.74969 -1.25,-6.04141 -1.25,-6.875 -1.6e-4,-3.33313 1.25,-5.41641 3.75,-6.25 l 9.375,-2.5 -3.75,-3.125 c -0.83281,-0.83281 -2.08344,-1.25 -3.75,-1.25 -7.08344,3.1e-4 -10.62516,5.20859 -10.625,15.625 -1.6e-4,5.00031 0.625,8.33359 1.875,10 l 3.125,7.5 c 0.41719,0.83437 1.04219,2.50016 1.875,5 0.83281,2.08359 1.66656,4.79187 2.5,8.125 0.41719,0.83437 0.625,1.66687 0.625,2.5 0.41719,0.83437 1.04219,1.87516 1.875,3.125 m 269.375,-47.5 -8.75,0.625 0.625,1.875 -1.25,0 c -0.83437,3.1e-4 -1.66703,0.41719 -2.5,1.25 l 0,1.25 0.625,13.125 -5.625,-1.875 c -0.41719,0.41719 -0.625,1.04219 -0.625,1.875 -3.1e-4,2.08359 1.04063,5.62531 3.125,10.625 l 4.375,5 7.5,6.25 c 4.99953,4.58359 7.49953,8.12516 7.5,10.625 -0.41719,0.41719 -0.83437,0.83281 -1.25,1.25 -0.41719,1.6e-4 -0.83437,0.20937 -1.25,0.625 -4.58375,-7.49984 -10.62547,-12.49984 -18.125,-15 1.25,2.08359 1.87469,3.54187 1.875,4.375 -3.1e-4,0.83437 -0.625,1.45781 -1.875,1.875 l -5.625,-3.125 -2.5,1.25 -1.875,-1.875 -5,1.875 c 0.83281,2.08359 1.66625,3.95859 2.5,5.625 1.25,1.66687 2.29125,3.33359 3.125,5 l 7.5,5.625 0,1.875 -6.25,1.875 2.5,5.625 3.125,3.75 1.875,0 2.5,1.875 4.375,-0.625 c -0.41719,0.41719 -0.625,1.25 -0.625,2.5 -4.7e-4,0.83281 1.04063,1.87516 3.125,3.125 7.08297,4.58344 10.62453,11.04187 10.625,19.375 l 0,4.375 c -4.7e-4,2.08344 -0.20937,3.75016 -0.625,5 l -1.25,6.875 1.25,0 c 1.66625,-7.49984 2.91625,-11.24984 3.75,-11.25 0.83281,0.83281 1.25,1.45781 1.25,1.875 -4.7e-4,1.6e-4 -0.20937,1.04219 -0.625,3.125 -0.41719,2.08344 -1.04219,5.20844 -1.875,9.375 2.49953,-0.41719 3.74953,-2.70812 3.75,-6.875 -4.7e-4,-2.08313 0.20781,-3.33312 0.625,-3.75 1.66625,1.66687 2.70797,2.91688 3.125,3.75 3.33297,-12.08312 4.58297,-23.12484 3.75,-33.125 l 0,-6.25 c -4.7e-4,-0.41562 -0.41719,-1.66641 -1.25,-3.75 -0.41719,-2.49984 -1.04219,-6.04141 -1.875,-10.625 l -2.5,-9.375 -9.375,-18.75 -3.125,-8.75 -1.875,-1.25 0,-5 -0.625,-8.125 3.75,-5 m -355,8.125 2.5,-1.875 c 0.83281,-0.83281 1.25,-1.66641 1.25,-2.5 0,-2.08313 -0.83281,-3.12469 -2.5,-3.125 -1.25,3.1e-4 -2.29172,1.04219 -3.125,3.125 l -0.625,0.625 c 0,2.50031 0.83281,3.75031 2.5,3.75 m 53.75,-3.75 c -2.08344,3.33359 -3.12516,5.62531 -3.125,6.875 -1.6e-4,5.00031 4.16656,11.04187 12.5,18.125 -10.00016,1.66687 -16.04172,6.66687 -18.125,15 1.25,-0.41563 3.33328,-0.625 6.25,-0.625 9.16656,-1.25 13.74984,-3.12484 13.75,-5.625 -1.6e-4,-1.66641 -0.20781,-2.70813 -0.625,-3.125 0.83281,-0.41719 1.45781,-0.625 1.875,-0.625 0.41719,-0.41563 0.625,-0.625 0.625,-0.625 2.91656,1.6e-4 6.04156,2.29187 9.375,6.875 1.66656,2.91688 2.49984,6.25016 2.5,10 -1.6e-4,7.50016 -3.54172,16.66688 -10.625,27.5 -2.50016,3.33344 -4.79172,5.62516 -6.875,6.875 l -15.625,10.625 3.75,-1.875 6.25,-3.125 5,-3.75 6.25,-6.25 6.875,-5.625 c 5.41656,-4.16641 8.12484,-12.08313 8.125,-23.75 -1.6e-4,-12.91641 -5.41672,-21.04141 -16.25,-24.375 -0.41719,-0.41719 -0.625,-1.66641 -0.625,-3.75 l 0,-0.625 c 1.66656,-1.66641 2.70828,-2.91641 3.125,-3.75 -1.6e-4,-1.66641 -1.66672,-3.33312 -5,-5 -3.33344,-1.66641 -6.45844,-4.79141 -9.375,-9.375 m -8.75,15.625 c -5.41672,-2.91641 -8.12516,-6.04141 -8.125,-9.375 -1.6e-4,-0.83281 1.66656,-2.29141 5,-4.375 l -0.625,-1.25 -2.5,0 c -3.75016,3.1e-4 -5.62516,2.08359 -5.625,6.25 -1.6e-4,2.08359 1.04219,4.37531 3.125,6.875 2.08328,2.08359 4.16656,3.12531 6.25,3.125 0.83281,3.1e-4 1.66656,-0.41719 2.5,-1.25 m -23.125,-14.375 c -2.5,3.1e-4 -3.95844,0.83281 -4.375,2.5 l 0,1.25 c 0,2.91688 1.25,4.37531 3.75,4.375 2.91656,3.1e-4 4.375,-1.45781 4.375,-4.375 0,-2.49969 -1.25,-3.74969 -3.75,-3.75 m 158.125,4.375 86.25,0.625 20,4.375 c -9.58359,-5.83313 -19.16703,-8.74969 -28.75,-8.75 l -30.625,-0.625 -22.5,0 -11.25,0 -2.5,0 -2.5,0 -1.875,0 -3.125,0 -3.125,4.375 m -25,173.75 c -0.83281,-2.08328 -1.87516,-4.16656 -3.125,-6.25 -1.25,-2.08328 -2.50016,-4.16656 -3.75,-6.25 l -1.875,-10 -1.875,-6.25 -1.25,-136.25 c -1.6e-4,-5.41641 2.70812,-8.12469 8.125,-8.125 l 0.625,0 c 2.91641,3.1e-4 5.41641,0.20938 7.5,0.625 l 2.5,0 c 1.66641,3.1e-4 2.70812,-1.45781 3.125,-4.375 -0.41719,-0.41719 -1.25,-0.625 -2.5,-0.625 l -0.625,0 -5.625,0.625 -9.375,-0.625 c -3.75016,3.1e-4 -6.25016,0.625 -7.5,1.875 -1.25,0.83438 -1.87516,2.50031 -1.875,5 l 0.625,4.375 c 0.41719,2.08359 0.625,4.16688 0.625,6.25 -1.6e-4,1.66688 -1.6e-4,3.12531 0,4.375 l 0,4.375 0,0.625 -0.625,14.375 0.625,84.375 2.5,26.25 c -1.6e-4,4.16672 0.20781,6.45844 0.625,6.875 l 6.25,13.125 c 1.66641,3.75016 3.54141,5.625 5.625,5.625 l 1.25,0 m -147.5,-175 c -0.41719,0.41719 -0.83281,0.83438 -1.25,1.25 -0.41719,0.41719 -0.83281,1.04219 -1.25,1.875 l 0,1.25 c 0,2.08359 1.25,3.12531 3.75,3.125 2.91656,3.1e-4 4.375,-1.25 4.375,-3.75 0,-2.49969 -1.45781,-3.74969 -4.375,-3.75 l -1.25,0 m -10,3.75 c -3.33344,3.1e-4 -5,2.08359 -5,6.25 0,2.08359 1.45781,3.12531 4.375,3.125 2.5,3.1e-4 3.75,-1.66641 3.75,-5 0,-2.91641 -1.04219,-4.37469 -3.125,-4.375 m 180,1.875 c -6.25016,11.25031 -9.37516,23.33359 -9.375,36.25 l 0,4.375 c -1.6e-4,2.50016 0.20781,4.37516 0.625,5.625 l 7.5,13.75 1.875,-1.25 1.875,-6.25 7.5,3.125 0.625,0 c 6.24969,1.6e-4 9.16641,-3.74984 8.75,-11.25 l 0,-2.5 c -3.33359,2.08359 -6.25031,3.12516 -8.75,3.125 -8.75016,1.6e-4 -13.12516,-7.08312 -13.125,-21.25 -1.6e-4,-6.66641 2.49984,-14.16641 7.5,-22.5 l -5,-1.25 m 146.875,1.875 c -3.1e-4,4.58359 0.41563,7.29188 1.25,8.125 l 5.625,3.75 4.375,3.75 2.5,0 c -1.66703,-3.33312 -3.75031,-6.24969 -6.25,-8.75 -2.08375,-2.49969 -4.58375,-4.79141 -7.5,-6.875 m -63.125,22.5 c 0.41563,-7.49984 4.37469,-13.95812 11.875,-19.375 -2.08359,-1.25 -3.33359,-1.87469 -3.75,-1.875 -3.33359,3.1e-4 -6.25031,1.66688 -8.75,5 -2.50031,2.91688 -3.75031,6.04188 -3.75,9.375 -3.1e-4,2.08359 1.45781,4.37516 4.375,6.875 m -245.625,-20 c 0.83281,7.08359 7.91656,10.62516 21.25,10.625 0.83281,1.6e-4 1.66656,1.6e-4 2.5,0 0.83281,-0.41719 2.08328,-0.83281 3.75,-1.25 -10.00016,-0.83281 -16.66672,-2.70812 -20,-5.625 -2.91672,-2.91641 -5,-4.37469 -6.25,-4.375 l -1.25,0.625 m 133.125,2.5 0,2.5 4.375,1.25 2.5,-1.875 -6.875,-1.875 m 228.75,-1.25 -1.25,4.375 1.875,3.125 -0.625,1.25 -5,1.25 c -2.08375,0.83281 -3.12547,2.29188 -3.125,4.375 -4.7e-4,2.91688 0.625,6.25016 1.875,10 4.16625,-3.74984 7.70797,-5.62484 10.625,-5.625 8.33297,1.6e-4 15.20781,6.45859 20.625,19.375 l 4.375,9.375 2.5,4.375 4.375,13.125 3.125,15.625 4.375,21.875 2.5,7.5 0,-0.625 c -4.7e-4,-4.99984 0.83281,-7.49984 2.5,-7.5 l 2.5,0 -1.25,-6.25 -2.5,-18.125 c -5.83375,-44.16641 -19.58375,-69.16641 -41.25,-75 -0.83437,-0.41719 -1.66703,-0.625 -2.5,-0.625 -0.83437,-0.41562 -2.08375,-1.04062 -3.75,-1.875 m -173.75,0.625 c -2.50031,4.58359 -3.75031,8.12516 -3.75,10.625 -3.1e-4,4.58359 2.08312,8.54188 6.25,11.875 4.16641,3.33359 6.24969,5.41688 6.25,6.25 l 0,0.625 c -0.83438,0.83438 -1.45938,1.25 -1.875,1.25 -0.41719,1.6e-4 -1.45938,-0.20781 -3.125,-0.625 -1.66688,-0.83281 -2.91688,-1.25 -3.75,-1.25 -1.66688,1.6e-4 -2.50031,0.41719 -2.5,1.25 -3.1e-4,2.50016 0.20781,3.95859 0.625,4.375 l 3.75,16.25 c 0.83281,4.16688 3.95812,7.91688 9.375,11.25 5.83312,3.33344 11.24969,5.00016 16.25,5 l 1.25,0.625 c 1.25,1.6e-4 2.29141,-1.04219 3.125,-3.125 -4.16688,-1.25 -7.29188,-2.08312 -9.375,-2.5 -1.66688,-0.83281 -2.50031,-1.25 -2.5,-1.25 -3.1e-4,-1.66656 0.20781,-2.70812 0.625,-3.125 2.08312,0.83438 4.16641,1.66688 6.25,2.5 2.49969,0.83281 5.20812,1.66688 8.125,2.5 1.66641,1.6e-4 2.49969,-0.83281 2.5,-2.5 -3.1e-4,-0.83281 -2.70859,-2.49984 -8.125,-5 -0.83281,-0.83281 -1.25,-1.45781 -1.25,-1.875 -3.1e-4,-0.41719 0.41719,-0.625 1.25,-0.625 2.08312,1.6e-4 5.41641,1.66688 10,5 -2.08359,-4.16641 -5.41688,-7.91641 -10,-11.25 -3.1e-4,-2.08312 0.41563,-3.12484 1.25,-3.125 1.25,1.6e-4 2.29141,0.625 3.125,1.875 l 2.5,2.5 2.5,1.875 -1.875,-5 -6.25,-6.25 3.125,-1.875 10,6.875 -3.125,-2.5 -0.625,-1.875 0.625,-1.25 c 5.83297,3.33359 9.99969,5.00016 12.5,5 0.83281,1.6e-4 1.66641,-0.41719 2.5,-1.25 l -0.625,-1.25 -4.375,-3.75 c -0.41719,-0.41562 -0.625,-0.83281 -0.625,-1.25 -3.1e-4,-0.83281 0.41719,-1.25 1.25,-1.25 1.66641,1.6e-4 3.54141,1.25 5.625,3.75 l -2.5,-5 -6.875,-4.375 0,-0.625 c -3.1e-4,-1.66641 0.625,-2.49984 1.875,-2.5 0.83281,1.6e-4 2.29141,1.04219 4.375,3.125 l 4.375,4.375 c -1.25,-4.99984 -4.58359,-8.74984 -10,-11.25 l 0.625,-1.875 8.75,5.625 -15.625,-20 -1.25,6.25 -1.875,1.875 -5,-5 -3.125,-1.25 -5.625,-3.125 -14.375,0 c -3.33359,-0.83281 -6.87531,-2.08313 -10.625,-3.75 m -195.625,1.25 c -0.41719,0.41719 -0.83281,0.83437 -1.25,1.25 0,0.41719 -0.20781,0.83281 -0.625,1.25 l -0.625,1.25 c 0,2.08359 1.25,3.12516 3.75,3.125 1.66656,1.6e-4 2.5,-0.83281 2.5,-2.5 0,-0.83281 -1.25,-2.29141 -3.75,-4.375 m 408.75,6.25 c -4.16719,1.66688 -6.25047,4.37516 -6.25,8.125 -4.7e-4,2.08359 0.20781,3.33359 0.625,3.75 l 5.625,13.125 c 2.08281,5.83359 4.37453,13.75016 6.875,23.75 2.49953,9.58344 4.99953,21.04188 7.5,34.375 l 3.75,-10 -1.25,-13.125 c -4.7e-4,-0.83281 -0.625,-4.16656 -1.875,-10 l -1.875,-6.875 -13.125,-43.125 m -389.375,13.125 c 0.41719,2.91688 1.45781,4.37516 3.125,4.375 1.66656,1.6e-4 3.33328,-0.83281 5,-2.5 -2.08344,-2.08312 -3.12516,-3.95812 -3.125,-5.625 -1.6e-4,-2.49984 1.45781,-3.74984 4.375,-3.75 l 0.625,0 c 1.66656,1.6e-4 3.54156,-0.625 5.625,-1.875 l -0.625,0 -1.875,0 c -8.75016,1.6e-4 -13.125,2.08359 -13.125,6.25 l 0,3.125 m 3.125,30.625 c -2.91672,-4.99984 -6.875,-8.12484 -11.875,-9.375 l -15,-3.75 c -2.91672,-0.41562 -5.41672,-2.49984 -7.5,-6.25 -0.41719,-0.41719 -0.625,-1.87484 -0.625,-4.375 0,-4.99984 2.70828,-7.49984 8.125,-7.5 3.75,1.6e-4 6.45828,2.70859 8.125,8.125 1.25,-2.49984 1.875,-4.58312 1.875,-6.25 0,-4.99984 -4.16672,-7.49984 -12.5,-7.5 -8.33344,1.6e-4 -12.5,4.16688 -12.5,12.5 0,8.33359 4.375,13.33359 13.125,15 l 23.75,5 5,4.375 m 135.625,-36.875 c -3.33359,10.83359 -5.00016,19.37516 -5,25.625 -1.6e-4,21.25016 5.20812,31.87516 15.625,31.875 6.24984,1.6e-4 9.37484,-2.08312 9.375,-6.25 -1.6e-4,-1.66656 -0.625,-3.74984 -1.875,-6.25 -2.08359,3.75016 -4.16688,5.62516 -6.25,5.625 -9.58359,1.6e-4 -14.37516,-9.16641 -14.375,-27.5 -1.6e-4,-1.66641 -1.6e-4,-3.74984 0,-6.25 0.41562,-2.49984 0.83281,-5.41641 1.25,-8.75 0.41719,-0.41562 0.625,-1.45781 0.625,-3.125 -1.6e-4,-2.08312 0.20781,-3.74984 0.625,-5 m 101.25,11.25 c 1.66641,-1.66641 3.74969,-2.49984 6.25,-2.5 1.25,1.6e-4 1.87469,0.41719 1.875,1.25 -3.1e-4,0.83438 -0.20937,1.45781 -0.625,1.875 l -3.125,0.625 c -0.83281,1.6e-4 -2.08359,0.625 -3.75,1.875 l 0,3.125 c 4.99969,-2.08312 7.49969,-3.12484 7.5,-3.125 2.08297,1.6e-4 3.12469,0.83281 3.125,2.5 l -0.625,0.625 -8.125,1.875 c -2.91703,0.41719 -4.37531,1.87516 -4.375,4.375 -3.1e-4,1.25 0.625,1.87516 1.875,1.875 1.25,1.6e-4 3.12469,-0.625 5.625,-1.875 2.91641,-1.25 5.20797,-1.87484 6.875,-1.875 3.33297,1.6e-4 4.99969,0.83438 5,2.5 -3.1e-4,2.08359 -1.04219,2.70859 -3.125,1.875 l -0.625,0 -0.625,0 c -0.41719,1.6e-4 -1.25,0.20938 -2.5,0.625 -0.83281,1.6e-4 -2.29203,0.20938 -4.375,0.625 3.33297,2.08359 5.41641,2.91688 6.25,2.5 l 1.875,0 c 2.91641,1.6e-4 4.37469,0.41719 4.375,1.25 -3.1e-4,0.83281 -1.04219,1.66688 -3.125,2.5 1.66641,3.75016 4.79141,5.62516 9.375,5.625 0.83281,1.6e-4 2.91625,-0.41562 6.25,-1.25 l 4.375,-1.25 -3.125,-3.75 0,-3.125 c 2.91625,2.08359 5.41625,2.70859 7.5,1.875 l 4.375,-2.5 -6.25,-5.625 -6.25,-7.5 c -0.41719,-1.66641 -3.33375,-2.49984 -8.75,-2.5 l -1.25,-1.875 c 2.91625,-1.66641 4.79125,-3.74984 5.625,-6.25 -7.50031,-2.08313 -11.87531,-3.12484 -13.125,-3.125 -2.91703,1.6e-4 -6.04203,0.625 -9.375,1.875 -3.33359,1.25 -5.00031,2.29187 -5,3.125 l 0,3.75 m 169.375,51.25 c 1.66625,-0.41719 2.49953,-1.04219 2.5,-1.875 -4.7e-4,-0.83281 -0.41719,-3.74984 -1.25,-8.75 -0.83437,-4.99984 -1.25,-8.33313 -1.25,-10 l -1.25,-13.75 c -0.83437,-3.33312 0.20781,-4.99984 3.125,-5 1.25,1.6e-4 2.91625,0.625 5,1.875 l 1.25,-3.75 c -0.41719,-5.41641 -2.29219,-8.12484 -5.625,-8.125 -5.41719,1.6e-4 -8.12547,3.95859 -8.125,11.875 -4.7e-4,4.58359 0.625,8.12516 1.875,10.625 l 1.875,4.375 0.625,6.875 1.875,9.375 -0.625,6.25 m -380.625,-40 c 4.16656,2.91687 6.24984,6.04187 6.25,9.375 -1.6e-4,4.16687 -2.91672,10.41688 -8.75,18.75 9.16656,-6.24984 13.74984,-12.70812 13.75,-19.375 -1.6e-4,-6.66641 -2.08344,-9.99984 -6.25,-10 l -1.25,0 -3.75,1.25 m 316.25,60.625 c 0.83281,-2.49984 1.66625,-5.20812 2.5,-8.125 0.83281,-3.33312 1.45781,-7.08312 1.875,-11.25 0.41563,-16.24984 4.99953,-24.37484 13.75,-24.375 6.24953,1.6e-4 9.37453,2.70859 9.375,8.125 -4.7e-4,2.50016 -0.625,5.20844 -1.875,8.125 6.24953,-2.91656 9.37453,-6.04156 9.375,-9.375 -4.7e-4,-1.25 -0.20937,-2.08312 -0.625,-2.5 l -1.875,-3.75 -1.25,-3.125 -8.75,-6.25 1.875,-6.25 c -0.83437,-0.83281 -2.08375,-1.25 -3.75,-1.25 -12.08375,1.6e-4 -18.33375,13.75016 -18.75,41.25 -4.7e-4,2.50016 -0.83437,5.83344 -2.5,10 -1.25,3.75016 -1.87547,6.04188 -1.875,6.875 -4.7e-4,0.83281 0.83281,1.45781 2.5,1.875 m -111.25,-51.25 c -1.66703,1.25 -2.50031,2.29188 -2.5,3.125 -3.1e-4,2.08359 1.04219,3.12516 3.125,3.125 1.25,1.6e-4 2.29141,-0.625 3.125,-1.875 l 0,-1.25 0,-1.25 -3.75,-1.875 m 9.375,1.25 c -0.41719,1.6e-4 -0.625,0.41719 -0.625,1.25 l -0.625,0.625 c -3.1e-4,1.25 0.625,1.87516 1.875,1.875 1.66641,1.6e-4 2.49969,-0.83281 2.5,-2.5 -3.1e-4,-1.25 -0.83281,-1.87484 -2.5,-1.875 l -0.625,0.625 m -265.625,39.375 c 1.66656,-0.41719 2.91656,-2.08312 3.75,-5 -0.83281,-4.16656 -2.08344,-7.70812 -3.75,-10.625 l 8.125,-2.5 1.875,-4.375 -1.25,0 c -5,1.6e-4 -7.5,-1.87484 -7.5,-5.625 0,-3.74984 2.70828,-5.62484 8.125,-5.625 9.16656,1.6e-4 13.75,4.37516 13.75,13.125 0,8.75016 -3.33344,16.45844 -10,23.125 -8.33344,9.58344 -12.70844,15.00016 -13.125,16.25 -0.41719,0.41719 -0.625,1.25 -0.625,2.5 0,1.25 -0.20781,2.29188 -0.625,3.125 l 4.375,-6.875 6.875,-6.875 4.375,-3.125 5.625,-8.125 1.875,-2.5 c 3.75,-4.16656 5.62484,-9.99984 5.625,-17.5 -1.6e-4,-12.49984 -7.08344,-18.74984 -21.25,-18.75 -13.75,1.6e-4 -20.625,6.45859 -20.625,19.375 0,2.91688 0.625,5.00016 1.875,6.25 l 10.625,10 1.875,3.75 m 273.125,-35.625 c 0.41563,1.25 0.83281,1.87516 1.25,1.875 1.25,1.6e-4 1.87469,-0.41719 1.875,-1.25 -3.1e-4,-0.83281 -0.41719,-1.25 -1.25,-1.25 l -1.875,0.625 m -27.5,1.25 c -1.66703,1.6e-4 -2.70859,0.83438 -3.125,2.5 l 0,1.25 c -3.1e-4,2.08359 1.04219,3.12516 3.125,3.125 2.49969,1.6e-4 3.74969,-1.25 3.75,-3.75 -3.1e-4,-2.08313 -1.25,-3.12484 -3.75,-3.125 m 20,56.25 16.25,23.125 c 4.16641,5.41672 7.08297,12.29172 8.75,20.625 l 0.625,6.25 5,-0.625 1.25,0 c 1.66625,1.6e-4 2.49969,-0.83281 2.5,-2.5 l 0,-3.125 -3.75,-17.5 c -0.83281,-2.49984 -2.08375,-5.20828 -3.75,-8.125 -1.66703,-3.33328 -3.33375,-6.45828 -5,-9.375 -1.25,-3.33328 -2.50031,-6.04156 -3.75,-8.125 -1.25,-2.49984 -1.87531,-3.95812 -1.875,-4.375 l 0,-1.25 c 0.41563,-0.41719 0.83281,-0.625 1.25,-0.625 l 2.5,0 2.5,5 3.125,3.75 1.875,6.875 5.625,11.875 2.5,10.625 2.5,6.25 c 0.83281,5.00016 1.45781,7.70844 1.875,8.125 l 3.75,0 c 2.49969,-0.41719 3.74969,-2.29156 3.75,-5.625 l 0,-1.875 -0.625,-20.625 c -0.41719,-5.83328 -1.25,-11.04156 -2.5,-15.625 -0.83437,-4.58312 -2.08375,-8.54156 -3.75,-11.875 l -3.125,-5.625 -3.75,-10 c -2.50031,-7.49984 -7.29203,-14.16656 -14.375,-20 -6.66703,-5.83312 -13.12531,-8.74984 -19.375,-8.75 -12.91703,1.6e-4 -19.37531,6.66688 -19.375,20 -3.1e-4,7.08344 1.66641,12.91688 5,17.5 l 14.375,15.625 m 28.75,-53.125 -5.625,0.625 2.5,5 -2.5,0 -3.125,-1.25 5,5 4.375,5.625 c 1.25,1.25 3.54125,1.87516 6.875,1.875 2.08297,1.6e-4 3.12469,-0.83281 3.125,-2.5 -3.1e-4,0.41719 -1.66703,-1.66656 -5,-6.25 0.41563,-0.83281 1.87469,-2.08312 4.375,-3.75 l -10,-4.375 m -213.75,6.25 1.25,1.25 -2.5,1.875 c 3.74984,3.33344 5.62484,5.83344 5.625,7.5 -1.6e-4,4.58344 -2.08344,7.50016 -6.25,8.75 l -4.375,1.25 -23.125,-0.625 -10,1.875 11.875,0 5,0 0.625,0 7.5,1.875 5.625,-1.25 0,1.25 c 12.49984,1.6e-4 18.74984,-4.79156 18.75,-14.375 -1.6e-4,-2.49984 -1.45781,-5.20812 -4.375,-8.125 l -5.625,-1.25 m 254.375,9.375 3.75,0 c 4.99953,1.6e-4 7.70797,5.20844 8.125,15.625 l 0,7.5 c 2.08297,-9.16656 3.12453,-14.99984 3.125,-17.5 -4.7e-4,-9.58312 -2.91703,-14.37484 -8.75,-14.375 -4.16703,1.6e-4 -6.25031,1.87516 -6.25,5.625 l 0,3.125 m -95.625,-7.5 c -1.25,1.6e-4 -1.87531,0.625 -1.875,1.875 -3.1e-4,1.66688 0.83281,2.50016 2.5,2.5 2.08297,1.6e-4 3.12469,-1.04219 3.125,-3.125 -3.1e-4,-0.83281 -1.04219,-1.25 -3.125,-1.25 l -0.625,0 m -53.75,13.125 8.125,3.125 -1.25,3.125 -3.75,5 c -1.66688,1.66688 -2.50031,3.95844 -2.5,6.875 l 0,0.625 c -3.1e-4,10.41688 0.41719,16.04172 1.25,16.875 l 1.25,0.625 c 5.83312,1.6e-4 9.58312,-2.08328 11.25,-6.25 l 5,-10 2.5,1.25 -1.25,5 c -3.1e-4,2.08344 0.625,3.33344 1.875,3.75 l 5,-1.875 8.125,-5 c 5.41641,-2.91656 8.74969,-10.41656 10,-22.5 l -3.75,6.25 -1.875,1.25 -3.125,4.375 -1.25,0 c -0.83281,1.6e-4 -1.25,-0.41719 -1.25,-1.25 0.83281,-1.25 1.87469,-2.70812 3.125,-4.375 1.66641,-2.08312 3.33312,-4.37484 5,-6.875 -1.66688,0.83281 -2.91688,1.66688 -3.75,2.5 -4.16688,4.16688 -7.50031,6.25016 -10,6.25 -1.25,1.6e-4 -1.87531,-0.625 -1.875,-1.875 -3.1e-4,-0.83281 3.12469,-3.54156 9.375,-8.125 1.66641,-0.83281 3.33312,-2.70812 5,-5.625 -7.08359,3.75016 -11.87531,5.62516 -14.375,5.625 -1.25,1.6e-4 -1.87531,-0.41719 -1.875,-1.25 -3.1e-4,-0.41719 2.08312,-1.45781 6.25,-3.125 0.41562,-0.41719 0.83281,-0.625 1.25,-0.625 0.41719,-0.41719 0.83281,-0.83281 1.25,-1.25 -8.75031,-3.74984 -13.33359,-5.62484 -13.75,-5.625 -5.41688,1.6e-4 -10.83359,3.12516 -16.25,9.375 l -3.75,3.75 m -147.5,-6.25 -5,2.5 -1.25,1.25 1.25,0.625 5,-4.375 m 280,1.875 0.625,5 -2.5,0 c -7.08375,-0.83281 -10.62531,1.04219 -10.625,5.625 l 0,0.625 3.125,8.125 2.5,-5 1.25,-0.625 1.25,0 c 8.33297,1.6e-4 12.49969,5.83344 12.5,17.5 -3.1e-4,0.83281 -0.41719,2.91688 -1.25,6.25 l -7.5,13.125 0,6.875 0,17.5 c 11.66625,-6.66656 19.37469,-13.12484 23.125,-19.375 0.83281,-0.83281 1.66625,-1.45781 2.5,-1.875 0.83281,-0.83281 1.45781,-1.45781 1.875,-1.875 2.08297,-2.91656 4.58297,-6.04156 7.5,-9.375 2.91625,-3.33328 6.45797,-6.66656 10.625,-10 0.83281,-0.41719 2.91625,-0.625 6.25,-0.625 -3.33375,-3.74984 -5.83375,-5.62484 -7.5,-5.625 -3.33375,1.6e-4 -6.45875,0.83281 -9.375,2.5 -0.41719,0.41719 -0.83437,0.83281 -1.25,1.25 -0.41719,1.6e-4 -0.83437,0.20781 -1.25,0.625 l -8.75,11.875 -0.625,0.625 c -1.66703,1.6e-4 -2.50031,-0.625 -2.5,-1.875 l 0,-0.625 5.625,-11.875 0,-7.5 c -4.7e-4,-3.33312 -0.20937,-5.62484 -0.625,-6.875 l -7.5,3.75 c -1.25,-9.58312 -7.08375,-15.62484 -17.5,-18.125 m -80.625,2.5 c -3.1e-4,1.25 -0.20937,2.08344 -0.625,2.5 l -0.625,1.25 c -3.1e-4,1.66688 1.04063,2.50016 3.125,2.5 1.66641,1.6e-4 2.49969,-1.04219 2.5,-3.125 -3.1e-4,-2.08312 -1.25,-3.12484 -3.75,-3.125 l -0.625,0 m -208.75,7.5 c 1.66656,-0.83281 3.12484,-1.66656 4.375,-2.5 1.66656,-0.83281 3.33328,-1.66656 5,-2.5 l 0,-1.875 -5.625,3.125 -3.75,1.875 0,1.875 m 394.375,21.875 c -1.66719,5.41688 -2.50047,11.25016 -2.5,17.5 -4.7e-4,2.91672 0.20781,4.79172 0.625,5.625 l 4.375,12.5 0.625,6.25 0,6.875 0,6.875 c -0.83437,3.33344 -2.29219,5 -4.375,5 l -0.625,-0.625 -1.875,-1.25 c 1.66625,-1.25 2.49953,-3.54156 2.5,-6.875 l 1.25,-8.75 -2.5,-10.625 -3.125,-3.75 -3.125,-5.625 -3.125,8.75 -2.5,-0.625 c -2.50047,-6.24984 -6.66719,-9.37484 -12.5,-9.375 -4.16719,1.6e-4 -8.54203,1.66672 -13.125,5 -4.58375,3.33344 -6.66703,7.08344 -6.25,11.25 l 0.625,4.375 -0.625,4.375 c 1.66625,3.75016 2.91625,8.33344 3.75,13.75 1.25,5 2.29125,10.83344 3.125,17.5 l 0,4.375 c -3.33375,9.58344 -10.00047,15 -20,16.25 1.66625,2.91672 3.54125,4.375 5.625,4.375 l 0.625,0 3.125,-1.875 5,-1.875 5.625,-5.625 c 4.58297,-4.58328 6.66625,-8.75 6.25,-12.5 l 0,-0.625 -4.375,-28.125 c -0.41719,-0.83281 -0.625,-2.70828 -0.625,-5.625 -4.7e-4,-5.83328 2.08297,-8.74984 6.25,-8.75 7.08281,1.6e-4 10.62453,4.79172 10.625,14.375 -4.7e-4,7.08344 -2.08375,15 -6.25,23.75 l -0.625,10.625 6.875,2.5 0,1.875 -1.25,2.5 -0.625,1.875 -1.875,1.25 -3.125,5.625 -3.125,3.75 -2.5,3.75 -3.75,4.375 0,0.625 c -4.7e-4,2.91672 3.12453,4.375 9.375,4.375 l 0.625,0 6.25,-3.125 c 0.83281,-0.41719 1.45781,-0.83281 1.875,-1.25 0.41563,-0.41719 0.83281,-0.83281 1.25,-1.25 l 9.375,-6.875 c 1.66625,-1.66656 4.58281,-2.5 8.75,-2.5 4.99953,0 7.49953,1.875 7.5,5.625 -4.7e-4,1.25 -0.83437,3.33328 -2.5,6.25 l 6.25,1.875 1.875,-1.875 3.75,-1.25 c 0.83281,-0.83281 1.25,-2.29172 1.25,-4.375 -4.7e-4,-1.25 -0.41719,-2.91656 -1.25,-5 -0.83437,-2.5 -1.25,-3.95828 -1.25,-4.375 -4.7e-4,-0.83281 0.625,-1.875 1.875,-3.125 -5.83375,-2.5 -10.00047,-3.75 -12.5,-3.75 -7.91719,0 -14.79219,3.54172 -20.625,10.625 -2.08375,2.08344 -3.33375,3.125 -3.75,3.125 l -2.5,-0.625 c 2.08281,-2.08328 3.33281,-3.75 3.75,-5 4.16625,-4.16656 6.45781,-7.29156 6.875,-9.375 0.41563,-4.16656 1.66625,-6.25 3.75,-6.25 l 1.25,0 1.25,2.5 c 0.83281,0.83281 1.66625,1.25 2.5,1.25 4.99953,0 9.16625,-4.16656 12.5,-12.5 3.33281,-8.33328 4.79125,-18.54156 4.375,-30.625 l 0,-0.625 -1.25,-37.5 0,-5 -1.25,-15.625 c -4.7e-4,-0.83281 -4.7e-4,-1.87484 0,-3.125 0.41563,-1.66656 0.83281,-3.54156 1.25,-5.625 l 2.5,-7.5 -3.75,2.5 c -3.75047,2.08344 -5.83375,6.87516 -6.25,14.375 l -0.625,1.875 0.625,6.875 c 0.41563,2.50016 -0.41719,3.75016 -2.5,3.75 -0.83437,1.6e-4 -1.87547,-0.625 -3.125,-1.875 m -179.375,-20 -3.75,5 2.5,1.25 1.25,-6.25 m -250.625,50.625 c -2.5,8.75016 -3.75,15.20844 -3.75,19.375 0,15.41672 5,28.33344 15,38.75 -8.33344,-14.58328 -12.5,-28.125 -12.5,-40.625 0,-16.66656 5.41656,-31.04156 16.25,-43.125 10.41656,-12.49984 23.12484,-18.74984 38.125,-18.75 10.41656,1.6e-4 18.74984,2.91688 25,8.75 6.66656,5.41688 9.99984,12.50016 10,21.25 -1.6e-4,7.91672 -2.70844,14.58344 -8.125,20 -5.41672,5.41672 -11.87516,8.12516 -19.375,8.125 -9.58344,1.6e-4 -14.37516,-3.95828 -14.375,-11.875 -1.6e-4,-7.08328 2.91656,-10.62484 8.75,-10.625 3.33328,1.6e-4 7.29156,2.50016 11.875,7.5 0.41719,-2.08328 0.625,-3.74984 0.625,-5 0.41719,-1.25 0.625,-2.08328 0.625,-2.5 -1.6e-4,-2.49984 -1.66672,-4.79156 -5,-6.875 l -4.375,-3.125 3.125,-4.375 0,-3.125 c -1.25,-0.41719 -3.33344,-0.625 -6.25,-0.625 l -3.75,0 c -5.41672,1.6e-4 -10.20844,2.29188 -14.375,6.875 -4.16672,4.58344 -6.25,10.00016 -6.25,16.25 0,6.66672 2.91656,12.70844 8.75,18.125 5.83328,5.00016 12.49984,7.50016 20,7.5 9.58328,1.6e-4 17.70828,-3.54156 24.375,-10.625 6.66656,-7.08328 9.99984,-15.41656 10,-25 -1.6e-4,-9.99984 -4.16688,-18.12484 -12.5,-24.375 -8.33344,-6.66656 -18.75016,-9.99984 -31.25,-10 -2.08344,1.6e-4 -4.79172,0.41719 -8.125,1.25 l -8.125,3.125 -5.625,1.25 -3.75,3.125 -10,7.5 c -2.08344,1.25 -3.95844,3.95844 -5.625,8.125 -4.58344,7.08344 -7.29172,12.91672 -8.125,17.5 0,1.6e-4 -0.20781,0.625 -0.625,1.875 0,0.83281 -0.20781,2.29172 -0.625,4.375 m 239.375,-36.25 c -2.08359,1.6e-4 -3.12531,-0.41719 -3.125,-1.25 l 0.625,-2.5 c -4.16688,4.16688 -6.25031,7.91688 -6.25,11.25 l 0,5 c 1.66641,-2.91656 3.12469,-4.37484 4.375,-4.375 1.25,1.6e-4 2.08312,0.20781 2.5,0.625 0.41563,3.75016 2.49969,7.50016 6.25,11.25 2.91641,-2.91656 4.58297,-6.66656 5,-11.25 l 8.125,2.5 0,-2.5 c -3.1e-4,-4.16656 -1.66703,-7.29156 -5,-9.375 l 0.625,1.875 -2.5,1.25 c -0.41719,-3.74984 -1.87531,-6.04156 -4.375,-6.875 0.83281,3.33344 1.25,5.41688 1.25,6.25 -3.1e-4,2.08344 -1.04219,3.12516 -3.125,3.125 -0.83281,1.6e-4 -1.25,-0.20781 -1.25,-0.625 l 0,-3.125 -1.875,-5 -1.25,3.75 m 178.125,25.625 c 2.49953,-1.66656 3.74953,-3.33328 3.75,-5 -4.7e-4,-4.16656 -2.08375,-10.20812 -6.25,-18.125 -4.16719,-7.91656 -11.45875,-11.87484 -21.875,-11.875 -7.50047,1.6e-4 -11.25047,4.16688 -11.25,12.5 -4.7e-4,5.83344 1.87453,9.37516 5.625,10.625 l 3.75,0.625 -3.125,-5 0,-2.5 c -4.7e-4,-4.99984 2.29125,-7.49984 6.875,-7.5 8.74953,1.6e-4 15.41625,6.66688 20,20 0.41563,1.25 0.83281,2.50016 1.25,3.75 0.41563,0.83281 0.83281,1.66672 1.25,2.5 m -61.25,-25 c 2.49953,-1.25 3.74953,-2.49984 3.75,-3.75 -4.7e-4,-1.25 -0.41719,-1.87484 -1.25,-1.875 l -0.625,0.625 -1.875,5 m -325,0 6.25,-0.625 3.75,-2.5 3.125,0.625 10.625,0 c 9.58328,0.83281 14.37484,3.95844 14.375,9.375 -1.6e-4,3.33344 -0.20781,5.41672 -0.625,6.25 4.99984,-0.41719 7.49984,-2.29156 7.5,-5.625 -1.6e-4,-8.33312 -8.12516,-12.49984 -24.375,-12.5 -4.58344,1.6e-4 -11.45844,1.66688 -20.625,5 m -40.625,1.875 1.875,-0.625 c 4.58328,1.6e-4 6.875,1.87516 6.875,5.625 l -2.5,15 0,6.25 0.625,1.25 0.625,-6.875 3.75,-10 c 0.83281,-4.16656 1.25,-6.87484 1.25,-8.125 0,-5.83312 -2.29172,-8.74984 -6.875,-8.75 -3.33344,1.6e-4 -5.20844,2.08344 -5.625,6.25 m 184.375,8.125 c 18.74969,27.50016 44.58312,41.25016 77.5,41.25 6.66641,1.6e-4 13.95797,-2.08328 21.875,-6.25 l -8.125,-2.5 c 1.25,-2.91656 1.87469,-5.83328 1.875,-8.75 -3.1e-4,-7.08328 -4.16703,-10.62484 -12.5,-10.625 -2.50031,1.6e-4 -3.95859,1.25 -4.375,3.75 4.16641,2.91672 6.24969,5.62516 6.25,8.125 -3.1e-4,2.50016 -1.66703,4.79172 -5,6.875 -3.33359,1.66672 -6.45859,2.50016 -9.375,2.5 l -0.625,0 -14.375,-1.25 -7.5,0 0,-1.875 c -14.58359,-4.58328 -25.83359,-11.04156 -33.75,-19.375 l -6.875,-8.125 -5,-3.75 m 6.875,1.25 c 9.16641,11.25016 18.12469,16.87516 26.875,16.875 5.83312,1.6e-4 8.74969,-2.70828 8.75,-8.125 -3.1e-4,-1.66656 -1.66688,-3.74984 -5,-6.25 -2.08359,6.25016 -5.00031,9.37516 -8.75,9.375 -5.41688,1.6e-4 -12.70859,-3.95828 -21.875,-11.875 m -10,1.25 0,2.5 c -1.6e-4,3.33344 1.04062,6.04172 3.125,8.125 2.49984,2.08344 3.95812,3.12516 4.375,3.125 l 0.625,3.125 c 0.83281,0.83281 2.08312,2.08344 3.75,3.75 2.08312,1.25 4.16641,2.91672 6.25,5 12.91641,15.41672 36.66641,23.12516 71.25,23.125 l 14.375,0 c 4.99969,1.6e-4 8.12469,-0.20781 9.375,-0.625 0.83281,-0.41719 1.66641,-0.625 2.5,-0.625 1.25,-0.41719 2.91641,-1.04219 5,-1.875 l -1.875,-8.75 c -13.75031,4.16672 -24.58359,6.25016 -32.5,6.25 -16.25031,1.6e-4 -31.87531,-3.12484 -46.875,-9.375 -15.00031,-6.66656 -25.83359,-14.99984 -32.5,-25 l -2.5,-3.75 -4.375,-5 m -3.125,15 0.625,5.625 c 0.41562,2.08344 0.625,4.16672 0.625,6.25 -1.6e-4,1.66672 -1.6e-4,3.12516 0,4.375 l 0,2.5 -1.875,15 4.375,0.625 c 1.66641,1.6e-4 2.49984,-1.87484 2.5,-5.625 l 0,-1.875 -0.625,-5 c -1.6e-4,-4.99984 -0.20938,-7.91656 -0.625,-8.75 l -1.875,-7.5 c -0.41719,-2.08328 -1.45938,-3.95828 -3.125,-5.625 m 210.625,1.875 -33.75,56.25 c -2.08375,3.75 -5.62531,5.625 -10.625,5.625 l -0.625,0 -26.875,-1.25 -78.75,-1.875 -179.375,0 7.5,4.375 278.75,3.125 c 0.83281,0.41719 2.29125,0.625 4.375,0.625 4.99969,0 9.79125,-4.79156 14.375,-14.375 0.41563,-1.66656 1.04063,-2.91656 1.875,-3.75 l 10.625,-20.625 7.5,-10.625 3.75,-8.75 c 1.25,-2.91656 1.87453,-4.79156 1.875,-5.625 -4.7e-4,-1.66656 -0.20937,-2.70828 -0.625,-3.125 m -202.5,1.25 3.125,5.625 9.375,9.375 8.125,6.875 c 1.66641,1.25 2.49969,3.95844 2.5,8.125 l 0,1.875 c 3.74969,-1.25 5.62469,-3.12484 5.625,-5.625 -3.1e-4,-3.74984 -3.95859,-7.70828 -11.875,-11.875 -1.66688,-0.41719 -3.75031,-1.66656 -6.25,-3.75 l -10.625,-10.625 m -166.25,51.25 c -2.91672,-7.08328 -4.375,-13.75 -4.375,-20 0,-11.66656 4.16656,-17.49984 12.5,-17.5 2.5,1.6e-4 5.625,1.25 9.375,3.75 0.41719,-0.83281 0.625,-2.29156 0.625,-4.375 0,-1.25 -1.25,-2.91656 -3.75,-5 -0.83281,-1.66656 -1.66672,-2.91656 -2.5,-3.75 l -2.5,0 c -11.25,-0.41719 -16.875,7.70844 -16.875,24.375 0,0.83281 1.25,6.25 3.75,16.25 0.41719,0.83281 0.83281,1.66672 1.25,2.5 0.83281,0.83281 1.66656,2.08344 2.5,3.75 m 155.625,-44.375 c -1.25,6.25016 -3.54188,9.37516 -6.875,9.375 l -2.5,0 c 0.83281,2.08344 2.08312,3.12516 3.75,3.125 l 2.5,-0.625 c 2.91641,-0.41719 4.16641,-2.91656 3.75,-7.5 l -0.625,-4.375 m -83.125,13.75 -3.75,2.5 -16.875,9.375 c -2.08344,1.25 -3.12516,3.33344 -3.125,6.25 l 0,1.25 3.125,-4.375 15,-8.75 5.625,-6.25 m -66.25,19.375 c -0.83281,5.83344 -1.45781,10.20844 -1.875,13.125 -0.41719,2.5 -0.625,3.33344 -0.625,2.5 0,9.58344 3.95828,15.625 11.875,18.125 7.91656,2.08344 12.29156,3.54172 13.125,4.375 l 0,0.625 c 0.41719,0.41719 0.625,0.83281 0.625,1.25 -1.6e-4,2.91672 -1.45781,4.375 -4.375,4.375 l -1.875,-0.625 -1.25,0 -3.125,-2.5 -4.375,-1.25 0,-3.125 c -0.41719,-0.83281 -2.70844,-1.875 -6.875,-3.125 -3.75,-1.66656 -6.45844,-2.5 -8.125,-2.5 -3.33344,0 -8.125,1.875 -14.375,5.625 l 3.75,3.75 -5,5.625 0,0.625 -0.625,0.625 c 0,2.08328 2.91656,3.54172 8.75,4.375 -0.41719,-0.41719 -0.625,-1.875 -0.625,-4.375 0,-3.75 2.70828,-5.625 8.125,-5.625 2.5,0 5.41656,0.41719 8.75,1.25 l 22.5,5.625 12.5,1.875 6.875,0.625 1.25,-0.625 -0.625,-1.875 2.5,-1.875 c 0.83281,3.33328 2.29156,5 4.375,5 l 2.5,0 6.25,-0.625 16.25,0.625 c 9.99984,0 20.62484,-2.29172 31.875,-6.875 11.24984,-5 19.37484,-10.83328 24.375,-17.5 l -3.75,0 -3.75,0.625 c -0.83281,0.41719 -2.50016,1.66672 -5,3.75 -2.08344,1.66672 -5.00016,3.54172 -8.75,5.625 -3.75016,1.66672 -8.54188,3.33344 -14.375,5 -5.83344,1.25 -12.70844,1.875 -20.625,1.875 -8.75016,0 -16.87516,-0.83281 -24.375,-2.5 -7.50016,-1.66656 -14.16672,-3.95828 -20,-6.875 -5.41672,-3.33328 -9.79172,-6.875 -13.125,-10.625 -3.33344,-3.75 -5,-7.91656 -5,-12.5 0,-9.58328 4.16656,-13.95828 12.5,-13.125 l 5,0 c -3.75016,-5.41656 -7.50016,-8.12484 -11.25,-8.125 -6.25,1.6e-4 -10.41672,2.29172 -12.5,6.875 l -1.875,5 c -0.41719,0.41719 -1.25,0.625 -2.5,0.625 -1.25,-0.41719 -2.29172,-1.45781 -3.125,-3.125 m 355.625,17.5 c -2.91703,0.41719 -4.37547,2.08344 -4.375,5 -4.7e-4,3.33344 1.66625,5 5,5 4.16625,0 6.24953,-1.875 6.25,-5.625 -4.7e-4,-2.91656 -2.08375,-4.375 -6.25,-4.375 l -0.625,0 m -19.375,6.875 -1.25,0 c -0.41719,0.41719 -0.625,1.66672 -0.625,3.75 -4.7e-4,3.75 2.29125,5.625 6.875,5.625 4.58297,0 6.87453,-2.29156 6.875,-6.875 -4.7e-4,-4.16656 -2.29203,-6.25 -6.875,-6.25 -3.33375,0 -5.00047,1.25 -5,3.75 m -362.5,3.75 c 2.91656,-2.5 5.41656,-3.75 7.5,-3.75 2.5,0 4.16656,0.20781 5,0.625 -2.5,-2.5 -4.58344,-3.75 -6.25,-3.75 -4.58344,0 -6.875,1.25 -6.875,3.75 l 0.625,3.125 m 191.875,15.625 c 0.83281,2.5 1.25,3.54172 1.25,3.125 -1.6e-4,1.66672 -1.66688,2.5 -5,2.5 l -1.875,0 -14.375,-5.625 c -3.33359,-0.83281 -5.41688,-1.25 -6.25,-1.25 -3.33359,0 -5.00016,1.04219 -5,3.125 l 0,0.625 0.625,3.125 3.75,-3.75 c 0.41719,-0.41719 0.83281,-0.625 1.25,-0.625 0.41562,0 0.83281,-0.20781 1.25,-0.625 l 1.875,0 8.125,3.75 3.125,0 c 4.58312,3.33328 7.29141,5 8.125,5 6.66641,0 9.99969,-2.91672 10,-8.75 -3.1e-4,-0.83281 -0.20781,-1.25 -0.625,-1.25 l -16.875,-3.125 c -1.66688,-0.41719 -2.50016,-1.875 -2.5,-4.375 -1.6e-4,-4.58328 3.74984,-6.875 11.25,-6.875 1.66641,0 3.74984,0.625 6.25,1.875 2.49969,0.83281 4.16641,1.25 5,1.25 l 0.625,-0.625 c 0.41562,0 0.83281,-0.20781 1.25,-0.625 -5.83359,-2.5 -10.62516,-3.75 -14.375,-3.75 -9.58359,0 -14.37516,3.125 -14.375,9.375 -1.6e-4,3.33344 0.83281,5.20844 2.5,5.625 3.74984,0 8.74984,0.625 15,1.875 m 43.75,-13.125 -1.25,0 0,-1.25 c -3.1e-4,-1.66656 -1.04219,-2.5 -3.125,-2.5 -2.91688,0 -4.37531,1.25 -4.375,3.75 -3.1e-4,2.91672 1.45781,4.375 4.375,4.375 1.66641,0 3.12469,-1.45781 4.375,-4.375 m -116.875,8.125 c -5.00016,-1.66656 -8.12516,-5.20828 -9.375,-10.625 l -1.25,-0.625 c -4.16688,0 -6.25016,2.29172 -6.25,6.875 -1.6e-4,3.33344 3.12484,5 9.375,5 3.74984,0 6.24984,-0.20781 7.5,-0.625 m 151.875,-11.25 c -3.33359,2.08344 -5.00031,3.54172 -5,4.375 -3.1e-4,1.25 0.20781,2.08344 0.625,2.5 l 0.625,1.875 3.75,4.375 0,0.625 c -3.1e-4,0.83281 -1.04219,1.66672 -3.125,2.5 l 10.625,0 11.875,-5.625 3.75,-1.25 c 2.08297,-0.83281 2.91641,-2.70828 2.5,-5.625 l 0,-3.75 c -7.08359,5 -12.08359,7.5 -15,7.5 -5.41703,0 -8.95859,-2.5 -10.625,-7.5 m 36.25,1.25 3.75,5 c 2.08297,-2.08328 3.12469,-3.54156 3.125,-4.375 -3.1e-4,-0.83281 -0.625,-1.25 -1.875,-1.25 l -0.625,0 -4.375,0.625 m 26.875,5 c -0.83437,-1.25 -1.45937,-1.875 -1.875,-1.875 -10.41703,0 -15.62531,3.75 -15.625,11.25 -3.1e-4,2.5 1.45781,4.79172 4.375,6.875 3.33297,1.66672 6.24969,2.5 8.75,2.5 l 0.625,0 6.25,-1.25 6.25,0.625 c 4.58297,0 6.87469,-2.70828 6.875,-8.125 -3.1e-4,-1.25 -0.83437,-2.5 -2.5,-3.75 -1.25,-1.25 -1.87531,-2.29156 -1.875,-3.125 -3.1e-4,-0.83281 0.20781,-1.45781 0.625,-1.875 l 8.75,-2.5 c 0.41563,0 0.625,-0.20781 0.625,-0.625 -4.7e-4,-1.66656 -1.04219,-2.5 -3.125,-2.5 -8.75031,0 -13.12531,2.91672 -13.125,8.75 l 0,0.625 3.125,5 0.625,0.625 c -3.1e-4,3.75 -3.33375,5.625 -10,5.625 -7.50031,0 -11.25031,-2.29172 -11.25,-6.875 -3.1e-4,-1.66656 4.16625,-4.79156 12.5,-9.375 m -122.5,1.25 3.75,1.875 1.25,0 c 1.66641,0 2.49969,-1.25 2.5,-3.75 -3.1e-4,-2.08328 -1.25,-3.125 -3.75,-3.125 -2.50031,0 -3.75031,1.25 -3.75,3.75 l 0,1.25 m 28.75,6.25 4.375,-3.75 c -2.08359,-2.08328 -3.33359,-3.125 -3.75,-3.125 -2.91688,0 -4.37531,1.45781 -4.375,4.375 -3.1e-4,1.25 1.25,2.08344 3.75,2.5 m -81.25,-6.25 c -1.66688,2.08344 -3.12516,3.95844 -4.375,5.625 -1.25,1.25 -2.29188,2.29172 -3.125,3.125 -2.91688,2.5 -4.37516,4.16672 -4.375,5 -1.6e-4,1.66672 1.87484,3.33328 5.625,5 l 0,-1.25 c -0.83281,-4.58328 0.41719,-8.54156 3.75,-11.875 l 3.75,-5 -1.25,-0.625 m 135.625,18.125 c 1.25,-2.5 5.62469,-8.125 13.125,-16.875 -2.50031,-0.83281 -3.75031,-1.25 -3.75,-1.25 -2.50031,0 -5.62531,1.45781 -9.375,4.375 -3.75031,2.5 -5.62531,5 -5.625,7.5 -3.1e-4,2.5 1.87469,4.58328 5.625,6.25 m -90,-13.75 c -3.1e-4,0.83281 0.20781,1.45781 0.625,1.875 2.08312,0 3.12469,-0.625 3.125,-1.875 -3.1e-4,-1.66656 -0.625,-2.5 -1.875,-2.5 l -1.25,0.625 -0.625,1.875 m 175,-0.625 c -0.41719,-1.66656 -1.45937,-2.5 -3.125,-2.5 -4.16703,0 -6.25047,1.875 -6.25,5.625 -4.7e-4,3.33328 1.66625,5 5,5 3.33297,0 4.79125,-1.875 4.375,-5.625 l 0,-2.5 m -155.625,0 c -2.08359,0 -3.12531,0.83281 -3.125,2.5 -3.1e-4,2.08344 1.25,3.125 3.75,3.125 1.66641,0 2.49969,-0.625 2.5,-1.875 -3.1e-4,-0.83281 -0.41719,-1.66656 -1.25,-2.5 -0.83438,-0.83281 -1.45938,-1.25 -1.875,-1.25 m -9.375,6.25 -2.5,-1.875 c -2.08359,0 -3.12531,1.45781 -3.125,4.375 -3.1e-4,2.08328 1.04219,3.125 3.125,3.125 2.49969,0 3.74969,-1.25 3.75,-3.75 -3.1e-4,-0.41719 -0.41719,-1.04219 -1.25,-1.875 m 51.25,5.625 10,-1.875 6.875,-3.125 -16.875,5 m -35,-1.25 0,1.875 c 0.83281,0.83281 2.08312,1.25 3.75,1.25 2.49969,0 3.74969,-1.25 3.75,-3.75 -3.1e-4,-1.66672 -1.45781,-2.5 -4.375,-2.5 -2.08359,0 -3.12531,0.83281 -3.125,2.5 l 0,0.625 m -7.5,-1.25 c -1.25,0 -1.87531,0.625 -1.875,1.875 -3.1e-4,1.66672 0.625,2.5 1.875,2.5 1.66641,0 2.49969,-0.83281 2.5,-2.5 -3.1e-4,-1.25 -0.83438,-1.875 -2.5,-1.875 m 41.25,3.125 -13.75,-0.625 -0.625,1.25 c -2.50031,-2.5 -4.37531,-3.75 -5.625,-3.75 -0.83281,0 -1.25,0.20781 -1.25,0.625 -3.1e-4,1.66672 2.91641,2.91672 8.75,3.75 l 6.25,0 6.25,-1.25 m -255.625,-384.375 3.75,1.875 c 0,2.08375 -0.20781,3.12547 -0.625,3.125 -0.41719,4.7e-4 -1.875,-0.41562 -4.375,-1.25 -2.08344,-1.25 -3.125,-2.29125 -3.125,-3.125 l 0.625,-2.5 3.75,1.875 m -5,6.875 0,-1.875 c 0,-0.83281 0.41719,-1.25 1.25,-1.25 l 0.625,0 3.125,2.5 1.875,0 0.625,4.375 -1.25,-1.875 -0.625,0 c -2.08344,4.7e-4 -3.95844,-0.625 -5.625,-1.875 m 394.375,0.625 c -4.7e-4,1.25 -1.66703,1.87547 -5,1.875 -2.50047,4.7e-4 -3.75047,-0.41562 -3.75,-1.25 l -0.625,-2.5 5,0.625 1.875,-1.25 2.5,2.5 m -169.375,5.625 c -3.1e-4,1.25 0.625,2.50031 1.875,3.75 -0.41719,0.83438 -0.83281,1.45938 -1.25,1.875 -3.1e-4,3.1e-4 -3.1e-4,3.1e-4 0,0 -3.1e-4,3.1e-4 -0.625,-1.04062 -1.875,-3.125 -1.25,-2.08297 -1.87531,-2.70797 -1.875,-1.875 l 1.25,-1.25 c -3.1e-4,-0.41562 0.625,-0.625 1.875,-0.625 l 0,1.25 m -140.625,-0.625 3.75,-0.625 c -1.6e-4,0.41719 -0.41719,0.625 -1.25,0.625 -1.25,-1.25 -1.66672,-2.08297 -1.25,-2.5 l -1.25,2.5 m -85,-1.875 7.5,3.75 0.625,1.875 c -0.41719,1.25 -1.04219,1.45938 -1.875,0.625 -0.41719,-0.83281 -0.83281,-1.25 -1.25,-1.25 0,-0.41562 0,-0.625 0,-0.625 0,3.1e-4 -1.66672,-0.41562 -5,-1.25 l 0,-3.125 m 50,2.5 5,0 c -1.25,1.66703 -2.29172,2.50031 -3.125,2.5 -0.41719,-0.41562 -0.83281,-0.83281 -1.25,-1.25 -1.6e-4,-0.41562 -0.20781,-0.83281 -0.625,-1.25 m 338.75,0.625 6.875,-1.875 c -0.83437,2.08375 -1.87547,3.12531 -3.125,3.125 -4.7e-4,3.1e-4 -0.41719,3.1e-4 -1.25,0 -0.41719,-0.41562 -1.25,-0.83281 -2.5,-1.25 m -169.375,1.25 7.5,6.875 c -3.1e-4,3.1e-4 -0.41719,3.1e-4 -1.25,0 -0.41719,-0.41562 -1.25,-0.83281 -2.5,-1.25 -2.91688,-1.66625 -4.58359,-2.49969 -5,-2.5 -3.1e-4,3.1e-4 -0.41719,-0.41562 -1.25,-1.25 l 0,-0.625 0,-0.625 0.625,-1.875 1.875,1.25 m -129.375,5.625 -2.5,1.25 c -1.6e-4,-1.25 -0.20781,-2.08297 -0.625,-2.5 l 0,-1.25 c -1.6e-4,-1.25 0.20781,-1.87469 0.625,-1.875 1.25,3.1e-4 1.87484,0.83438 1.875,2.5 l 0.625,1.875 m 309.375,-3.75 c -1.25,2.08375 -2.70875,3.12531 -4.375,3.125 l -1.25,0 c -0.41719,3.1e-4 -0.625,-0.20781 -0.625,-0.625 l 3.125,-3.125 3.75,-1.25 -0.625,1.875 m -341.25,1.875 c -0.41719,-0.41562 -1.25,-0.625 -2.5,-0.625 -0.83281,3.1e-4 -1.45781,-0.20781 -1.875,-0.625 -1.6e-4,-1.25 1.04219,-1.87469 3.125,-1.875 0.83281,3.1e-4 1.25,0.41719 1.25,1.25 l 0,0.625 0,1.25 m 184.375,-1.875 5.625,1.875 -16.875,2.5 11.25,-4.375 m -238.125,1.875 4.375,4.375 c 0,0.41719 -0.83281,0.20938 -2.5,-0.625 -1.66672,-1.25 -2.70844,-1.87469 -3.125,-1.875 -1.66672,3.1e-4 -2.5,-0.625 -2.5,-1.875 0,-0.83281 0.41719,-1.25 1.25,-1.25 l 2.5,1.25 m 406.875,2.5 -10,0.625 1.25,0 c 1.66625,3.1e-4 3.12453,-0.20781 4.375,-0.625 1.66625,-0.41562 3.12453,-0.41562 4.375,0 -4.7e-4,0.41719 -3.33375,0.625 -10,0.625 -0.83437,3.1e-4 -1.25,-0.41562 -1.25,-1.25 -4.7e-4,-0.83281 1.66625,-0.83281 5,0 1.25,0.41719 2.70781,0.625 4.375,0.625 l 1.875,0 m -328.75,-0.625 c -1.6e-4,1.25 -2.50016,3.12531 -7.5,5.625 l -2.5,-3.125 5.625,-1.875 1.875,-1.875 2.5,1.25 m -21.25,1.875 c -1.6e-4,1.66703 -0.41719,2.50031 -1.25,2.5 -1.66672,3.1e-4 -2.50016,-0.83281 -2.5,-2.5 -1.6e-4,-1.25 0.625,-1.87469 1.875,-1.875 l 1.875,1.875 m 29.375,2.5 c 4.99984,13.75031 12.70812,20.41703 23.125,20 l 1.25,0 2.5,0 2.5,0 0.625,1.875 0,0.625 c -1.25,0.41719 -3.75016,0.625 -7.5,0.625 -2.50016,3.1e-4 -4.58344,-0.625 -6.25,-1.875 l -8.75,-4.375 -3.75,-1.875 -3.75,-6.25 -2.5,-6.875 0.625,-2.5 1.875,0.625 m 166.25,0 c -3.1e-4,0.41719 -2.70859,1.45938 -8.125,3.125 -0.41719,0.41719 -1.87531,1.04219 -4.375,1.875 l -5,1.875 c -3.33359,0.83438 -5.83359,1.25 -7.5,1.25 -1.25,3.1e-4 -2.50031,-0.20781 -3.75,-0.625 -1.25,-0.41562 -1.87531,-0.625 -1.875,-0.625 l -3.125,-3.75 14.375,1.25 11.25,-3.125 8.125,-1.25 m -185.625,6.875 3.125,3.125 c -1.66672,3.1e-4 -3.95844,-0.625 -6.875,-1.875 -2.91672,-1.66625 -4.37516,-3.12469 -4.375,-4.375 -1.6e-4,-1.66625 0.625,-2.49969 1.875,-2.5 2.08328,3.1e-4 4.16656,1.87531 6.25,5.625 m 10,-5 c 1.25,-0.41562 1.87484,3.1e-4 1.875,1.25 -1.6e-4,1.25 1.25,3.33375 3.75,6.25 2.91656,2.91703 4.16656,4.37531 3.75,4.375 -2.08344,3.1e-4 -6.45844,-2.70797 -13.125,-8.125 -0.41719,-0.41562 -0.625,-1.04062 -0.625,-1.875 -1.6e-4,-1.25 1.45781,-1.87469 4.375,-1.875 m 143.125,18.125 c -0.41719,0.41719 -1.04219,0.625 -1.875,0.625 -1.25,3.1e-4 -1.87531,-0.625 -1.875,-1.875 l 1.875,-5 1.875,6.25 m -148.125,11.875 1.875,-5 0.625,0 c 1.66656,3.1e-4 2.49984,0.83438 2.5,2.5 -1.6e-4,4.16703 -1.66672,6.25031 -5,6.25 -1.6e-4,3.1e-4 -0.20781,-0.20781 -0.625,-0.625 -1.6e-4,-0.41562 -0.20781,-1.04062 -0.625,-1.875 l 1.25,-1.25 m 9.375,0 2.5,0 c -0.41719,0.41719 -0.625,0.83438 -0.625,1.25 -1.6e-4,0.41719 -0.20781,0.83438 -0.625,1.25 l -1.25,0 c -1.25,3.1e-4 -1.87516,-0.625 -1.875,-1.875 l 0,-1.25 c 0.83281,3.1e-4 1.45781,0.20938 1.875,0.625 m 246.25,4.375 4.375,-0.625 0.625,-2.5 c -3.1e-4,3.1e-4 0.41563,-0.41562 1.25,-1.25 1.25,-0.83281 1.87469,-1.04062 1.875,-0.625 0.83281,3.1e-4 0.83281,0.41719 0,1.25 -3.1e-4,0.83438 -0.20937,1.45938 -0.625,1.875 -3.1e-4,2.91703 -1.45937,4.37531 -4.375,4.375 l -1.875,-0.625 -1.25,-1.875 m -265.625,0.625 0.625,2.5 c -1.6e-4,0.83438 -0.83281,1.25 -2.5,1.25 -2.08344,3.1e-4 -3.12516,-0.83281 -3.125,-2.5 -1.6e-4,-1.25 0.625,-1.87469 1.875,-1.875 l 0.625,0 2.5,0.625 m 5,1.25 c 1.25,3.1e-4 1.87484,0.41719 1.875,1.25 -1.6e-4,1.25 -0.83281,2.08359 -2.5,2.5 l -1.875,-1.875 -0.625,-0.625 c 0.83281,-0.83281 1.87484,-1.25 3.125,-1.25 m 6.25,5 0,-4.375 0,0.625 c -1.6e-4,0.83438 -0.20781,1.45781 -0.625,1.875 0.41719,0.41719 0.625,1.04219 0.625,1.875 0.83281,-1.25 0.83281,-2.29141 0,-3.125 l 0,3.125 m 8.75,-2.5 c -0.41719,3.1e-4 -1.6e-4,1.04219 1.25,3.125 1.25,2.08359 1.87484,2.91703 1.875,2.5 l -8.125,-6.875 c 0.41719,-0.41562 1.04219,-0.625 1.875,-0.625 l 3.125,1.875 m 138.125,31.25 6.875,1.25 5,0 c 2.49969,-0.83281 3.95812,3.1e-4 4.375,2.5 -3.1e-4,0.41719 -1.87531,0.625 -5.625,0.625 -6.66688,3.1e-4 -10.20859,-1.45781 -10.625,-4.375 m 33.75,-3.125 3.125,3.75 1.875,7.5 -2.5,1.25 -2.5,-12.5 m -9.375,21.875 -3.125,0 c -1.66688,1.66703 -5.20859,3.33359 -10.625,5 l -1.25,-1.25 c -3.1e-4,-1.66641 0.625,-2.49969 1.875,-2.5 l 8.75,-3.125 4.375,1.875 m -188.125,9.375 9.375,1.25 -3.75,1.25 -6.875,0 -2.5,0.625 c -0.41719,-0.41562 -0.83281,-0.625 -1.25,-0.625 l -0.625,-0.625 5.625,-1.875 m 346.25,52.5 -1.25,1.875 c -2.08375,-1.25 -3.95875,-2.49984 -5.625,-3.75 -1.66703,-1.25 -3.33375,-2.49984 -5,-3.75 -4.7e-4,-1.25 0.83281,-1.87484 2.5,-1.875 1.66625,1.6e-4 4.79125,2.50016 9.375,7.5 m -180,-6.25 1.25,0 c 7.49969,-0.41562 11.24969,0.41719 11.25,2.5 -0.83281,1.6e-4 -1.87531,0.625 -3.125,1.875 -2.50031,-1.25 -4.58359,-1.66641 -6.25,-1.25 l -5.625,-0.625 -0.625,-2.5 3.125,0 m 6.25,15 2.5,3.125 c 1.66641,1.6e-4 2.49969,0.83438 2.5,2.5 -3.1e-4,2.08359 -1.04219,3.12516 -3.125,3.125 l -1.25,-1.25 -1.25,-4.375 -3.125,-0.625 1.25,-2.5 2.5,0 m 5,8.125 0.625,0 c 1.25,1.6e-4 1.87469,0.41719 1.875,1.25 l 0,2.5 c -2.50031,1.6e-4 -3.75031,-0.625 -3.75,-1.875 -3.1e-4,-0.41719 0.41563,-1.04062 1.25,-1.875 m 115,1.875 1.25,2.5 c -1.25,1.25 -2.29203,1.87516 -3.125,1.875 0.83281,-1.66641 1.25,-2.70812 1.25,-3.125 0.41563,-0.83281 0.625,-1.25 0.625,-1.25 m 3.125,4.375 c 1.25,1.6e-4 1.87453,0.625 1.875,1.875 -4.7e-4,1.25 -0.625,1.87516 -1.875,1.875 -1.25,1.6e-4 -1.87547,-0.41562 -1.875,-1.25 -4.7e-4,-1.66641 0.625,-2.49984 1.875,-2.5 m -58.75,0 1.875,0 c 0.83281,0.83281 1.25,1.45781 1.25,1.875 0.41563,0.41719 0.83281,0.83438 1.25,1.25 -3.1e-4,0.83281 -1.45937,1.25 -4.375,1.25 l 0,-4.375 m 65,4.375 -1.25,1.25 0,0.625 c -4.7e-4,1.25 -0.41719,1.87516 -1.25,1.875 -1.25,1.6e-4 -1.87547,-0.20781 -1.875,-0.625 -4.7e-4,-2.08312 0.20781,-3.12484 0.625,-3.125 l 3.75,0 m 13.125,3.125 c -4.7e-4,0.83438 0.41563,1.25 1.25,1.25 l -5.625,0 c -4.7e-4,-1.66641 0.625,-2.49984 1.875,-2.5 l 0.625,0 0.625,0.625 1.25,0.625 m 0,26.875 0.625,5.625 -1.875,0.625 -0.625,-3.125 -1.875,-0.625 c -0.41719,-9.16656 -2.50047,-16.24984 -6.25,-21.25 0.83281,1.25 1.45781,2.29188 1.875,3.125 0.41563,0.41719 0.625,0.625 0.625,0.625 -0.83437,-0.83281 -1.87547,-1.66641 -3.125,-2.5 -0.83437,-1.25 -1.66703,-2.70812 -2.5,-4.375 -4.7e-4,0.41719 0.20781,0.20938 0.625,-0.625 0.41563,-1.25 0.625,-1.87484 0.625,-1.875 1.25,1.6e-4 2.91625,1.66688 5,5 l 5,11.875 1.875,7.5 m -76.25,4.375 -6.25,-8.125 c -3.1e-4,-1.25 0.41719,-1.87484 1.25,-1.875 l 1.25,0 3.125,3.125 c 0.83281,2.08344 2.08297,4.58344 3.75,7.5 2.08297,2.50016 4.16625,5.83344 6.25,10 1.66625,1.66688 2.49969,2.91688 2.5,3.75 l 0,0.625 c -3.1e-4,1.6e-4 -3.1e-4,0.625 0,1.875 0.41719,1.25 1.04219,2.91688 1.875,5 0.41563,4.16688 0.41563,6.25016 0,6.25 l -2.5,-8.125 -1.875,-5 -9.375,-15 m -88.125,-4.375 -1.875,1.875 c -0.83438,1.6e-4 -1.45938,0.20781 -1.875,0.625 -0.83281,1.6e-4 -1.25,-0.41719 -1.25,-1.25 -3.1e-4,-0.83281 1.04219,-1.87484 3.125,-3.125 l 4.375,-3.125 0.625,0 c 1.25,1.6e-4 1.87469,0.625 1.875,1.875 l -0.625,0.625 -4.375,2.5 m 88.75,16.875 -1.25,-1.25 -3.75,-5.625 -4.375,-5.625 c -0.41719,-0.41719 -0.625,-0.83281 -0.625,-1.25 -3.1e-4,-1.25 0.625,-1.87484 1.875,-1.875 1.66641,1.6e-4 3.74969,2.50016 6.25,7.5 -3.1e-4,1.66688 0.625,4.37516 1.875,8.125 m -33.125,-6.875 1.875,3.75 0.625,1.25 c -3.1e-4,-1.25 -0.20937,-1.66656 -0.625,-1.25 -2.50031,1.6e-4 -3.95859,-0.625 -4.375,-1.875 l -1.875,-5.625 c -3.1e-4,-0.83281 0.41719,-1.25 1.25,-1.25 0.83281,1.6e-4 1.45781,0.20781 1.875,0.625 l 1.25,4.375 m 11.25,6.875 0,0.625 c -0.83281,1.6e-4 -2.08359,-1.87484 -3.75,-5.625 -0.83281,-1.25 -2.08359,-2.49984 -3.75,-3.75 -1.66703,-1.25 -2.50031,-2.08312 -2.5,-2.5 -3.1e-4,-0.83281 0.20781,-1.25 0.625,-1.25 1.25,1.6e-4 3.12469,2.29188 5.625,6.875 0.41563,2.08344 1.66641,3.95844 3.75,5.625 m -58.125,-2.5 c -0.83281,-2.49984 -1.25,-1.04219 -1.25,4.375 -3.1e-4,1.25 -0.41719,1.87516 -1.25,1.875 -1.66688,1.6e-4 -2.50031,-0.83281 -2.5,-2.5 l 0.625,-0.625 c -3.1e-4,-0.41719 0.20781,-0.83281 0.625,-1.25 l 1.25,-0.625 2.5,-1.25 m -6.875,5 c 1.66641,1.6e-4 2.49969,0.83281 2.5,2.5 -3.1e-4,1.66688 -1.04219,2.50016 -3.125,2.5 -1.25,1.6e-4 -1.87531,-0.625 -1.875,-1.875 -3.1e-4,-1.66656 0.83281,-2.70812 2.5,-3.125 m -4.375,5 0.625,0 c 0.83281,1.6e-4 1.25,0.41719 1.25,1.25 -3.1e-4,1.66688 -0.41719,2.50016 -1.25,2.5 -1.25,1.6e-4 -1.87531,-0.41719 -1.875,-1.25 -3.1e-4,-0.83281 0.41562,-1.66656 1.25,-2.5 m 142.5,1.25 c 2.08297,2.08344 3.12453,3.54188 3.125,4.375 -4.7e-4,3.75016 -0.83437,6.45844 -2.5,8.125 l -3.75,0 3.125,-12.5 m 89.375,17.5 c -0.41719,2.08344 -0.625,4.16672 -0.625,6.25 0.41563,1.66672 0.83281,3.12516 1.25,4.375 0.41563,0.83281 1.04063,1.87516 1.875,3.125 0.83281,1.25 1.25,2.08344 1.25,2.5 -4.7e-4,1.6e-4 -0.41719,0.41719 -1.25,1.25 -0.41719,0.41719 -1.45937,1.04219 -3.125,1.875 l -1.875,-6.875 0,-4.375 1.25,-8.125 1.25,0 m -104.375,15.625 3.125,3.75 0,1.25 0,0.625 c -3.1e-4,0.83281 -0.41719,1.25 -1.25,1.25 -2.08375,1.6e-4 -3.33375,-0.625 -3.75,-1.875 l 0,-1.875 0,-3.125 1.875,0 m 82.5,38.75 -3.125,13.125 c -4.7e-4,1.25 -0.41719,1.875 -1.25,1.875 -1.25,0 -1.87547,-1.04219 -1.875,-3.125 l -0.625,0 c 2.91625,-6.66656 4.16625,-10.83328 3.75,-12.5 l 2.5,-5.625 0,-5 c 1.25,1.6e-4 1.87453,1.45781 1.875,4.375 -4.7e-4,0.41719 -0.20937,1.25 -0.625,2.5 -4.7e-4,0.83281 -0.20937,2.29172 -0.625,4.375 m 3.125,-1.25 1.875,-8.125 c 0.83281,1.6e-4 1.25,1.04219 1.25,3.125 l -0.625,8.125 c -0.41719,2.08344 -0.83437,3.75 -1.25,5 -4.7e-4,0.83281 -4.7e-4,1.04219 0,0.625 -0.83437,5 -2.08375,7.5 -3.75,7.5 -0.83437,0 -1.25,-1.04219 -1.25,-3.125 1.25,-4.16656 1.87453,-6.66656 1.875,-7.5 0.41563,-2.91656 1.04063,-4.79156 1.875,-5.625 m 16.875,1.25 c -1.66719,1.66672 -3.33375,2.70844 -5,3.125 -4.16719,0 -6.25047,-0.625 -6.25,-1.875 0.41563,-1.25 0.83281,-1.875 1.25,-1.875 l 0.625,0 9.375,0.625 m -11.25,5.625 1.875,0.625 c 4.58281,0.83281 6.87453,0.83281 6.875,0 -0.83437,0.41719 -1.66719,0.83281 -2.5,1.25 -0.83437,0.41719 -1.66719,0.83281 -2.5,1.25 -1.25,0 -2.08375,-0.20781 -2.5,-0.625 -4.7e-4,0 -0.20937,0.20781 -0.625,0.625 -4.7e-4,0 -0.41719,0.20781 -1.25,0.625 l 0,-1.875 0.625,-1.875 m 0.625,5.625 0,3.125 c -1.25,0 -1.87547,-0.41719 -1.875,-1.25 -4.7e-4,-0.41719 0.41563,-1.04219 1.25,-1.875 l 0.625,0 m -400.625,1.25 1.25,6.25 0,4.375 c -0.83281,0.83281 -1.45781,1.25 -1.875,1.25 -1.66672,0 -2.5,-1.04219 -2.5,-3.125 l 0,-8.125 1.875,-1.25 1.25,0.625 m 21.875,28.125 2.5,-0.625 c 1.66656,0 2.49984,1.04219 2.5,3.125 -1.6e-4,2.91672 -1.45781,4.375 -4.375,4.375 -0.83281,0 -1.45781,-0.625 -1.875,-1.875 l 2.5,-1.875 -1.25,-3.125 m 8.125,0.625 c 1.66656,0 2.49984,1.04219 2.5,3.125 -1.6e-4,3.33328 -0.83281,5 -2.5,5 -1.66672,0 -2.50016,-0.83281 -2.5,-2.5 l 0.625,-3.125 c 0.41719,-0.41719 0.625,-0.83281 0.625,-1.25 0.41719,-0.41719 0.83281,-0.83281 1.25,-1.25 m 6.25,2.5 c 1.25,0 1.87484,1.04219 1.875,3.125 -1.6e-4,2.08328 -0.83281,3.125 -2.5,3.125 -0.83281,0 -1.25,-0.41719 -1.25,-1.25 l 0,-0.625 c 0.83281,-2.5 1.45781,-3.95828 1.875,-4.375"
       id="path2994"
       style="font-size:40px;font-style:normal;font-variant:normal;font-weight:normal;font-stretch:normal;line-height:125%;letter-spacing:0px;word-spacing:0px;fill:#000000;fill-opacity:1;stroke:none;font-family:Goudy Initialen;-inkscape-font-specification:Goudy Initialen" />
  </g>
</svg>
