<?xml version="1.0" encoding="UTF-8" standalone="no"?>
<!-- Created with Inkscape (http://www.inkscape.org/) -->

<svg
   xmlns:dc="http://purl.org/dc/elements/1.1/"
   xmlns:cc="http://creativecommons.org/ns#"
   xmlns:rdf="http://www.w3.org/1999/02/22-rdf-syntax-ns#"
   xmlns:svg="http://www.w3.org/2000/svg"
   xmlns="http://www.w3.org/2000/svg"
   version="1.1"
   width="500"
   height="500"
   id="svg3068">
  <defs
     id="defs3070" />
  <metadata
     id="metadata3073">
    <rdf:RDF>
      <cc:Work
         rdf:about="">
        <dc:format>image/svg+xml</dc:format>
        <dc:type
           rdf:resource="http://purl.org/dc/dcmitype/StillImage" />
        <dc:title></dc:title>
      </cc:Work>
    </rdf:RDF>
  </metadata>
  <g
     transform="translate(-146.85715,-119.79075)"
     id="layer1">
    <path
       d="m 146.85715,619.79075 0,-500 500,0 0,500 -500,0 m 7.5,-7.5 485,0 0,-485 -485,0 0,485 m 7.5,-7.5 0,-469.375 469.375,0 0,469.375 -469.375,0 m 94.375,-467.5 -10,1.25 c -7.08344,0.83438 -14.37516,2.29219 -21.875,4.375 -7.50016,2.08375 -15.00016,4.58375 -22.5,7.5 l -13.75,0 3.125,-1.25 -0.625,-3.125 8.75,-0.625 5,-6.25 -12.5,-1.25 1.25,-0.625 -3.125,0 -3.125,1.25 c -4.16672,1.66719 -6.45844,5.20875 -6.875,10.625 4.58328,7.08375 9.16656,10.62547 13.75,10.625 -1.6e-4,4.7e-4 5.62484,-1.66625 16.875,-5 l 0,1.875 c -1.6e-4,0.41719 -1.04219,1.04219 -3.125,1.875 l -3.75,3.125 c 12.49984,0.41719 18.33312,1.04219 17.5,1.875 l 18.75,-10.625 6.25,-1.875 c 9.16656,-2.91625 17.70812,-4.37453 25.625,-4.375 l 6.25,0 c 2.91641,4.7e-4 5.20812,0.20938 6.875,0.625 l 15,1.875 c 1.25,0.41719 3.74984,1.25 7.5,2.5 3.74984,0.83438 8.74969,2.29219 15,4.375 1.66641,4.7e-4 3.74969,-1.66625 6.25,-5 l -3.75,-3.125 -16.25,-4.375 -3.75,-1.875 -4.375,-0.625 -12.5,-1.875 -7.5,0 -4.375,-1.25 -20,-0.625 m 120.625,22.5 c 2.08297,4.7e-4 3.54141,-0.20781 4.375,-0.625 -1.66703,-3.33281 -2.50031,-6.45781 -2.5,-9.375 -3.1e-4,-5.41625 2.29141,-8.12453 6.875,-8.125 1.66641,4.7e-4 4.16641,0.625 7.5,1.875 -3.33359,-3.74953 -6.45859,-5.62453 -9.375,-5.625 -7.91703,4.7e-4 -11.87531,3.33375 -11.875,10 -3.1e-4,7.91719 1.66641,11.87547 5,11.875 m 167.5,-19.375 -23.125,-1.25 -1.25,0 -11.875,1.875 c -14.58375,2.08375 -29.58375,8.95875 -45,20.625 l -1.875,1.25 -0.625,1.875 -1.25,0 -1.25,1.875 -1.875,1.25 -6.25,8.75 -2.5,1.875 c -0.83438,4.7e-4 -3.95875,5.20875 -9.375,15.625 l 0,1.25 c -3.1e-4,1.66703 1.45781,3.33375 4.375,5 2.91625,-7.08297 5.20797,-11.45797 6.875,-13.125 l 8.75,-10 2.5,-3.75 6.875,-5.625 18.75,-11.875 c 1.25,-1.25 11.66625,-4.16625 31.25,-8.75 2.08297,-0.41562 3.74953,-0.625 5,-0.625 1.25,-0.41562 2.08281,-0.625 2.5,-0.625 l 1.875,0 12.5,1.25 c 9.58281,0.41719 15.20781,1.45938 16.875,3.125 4.16625,3.33375 6.87453,4.37547 8.125,3.125 l 3.125,-4.375 c 1.25,-1.25 1.87453,-2.08281 1.875,-2.5 -4.7e-4,-0.83281 -1.87547,-1.66625 -5.625,-2.5 -6.66719,-2.91625 -11.45875,-4.16625 -14.375,-3.75 l -5,0 m -100,32.5 -3.75,9.375 4.375,-5.625 4.375,-6.25 c 0.41562,-1.25 4.79125,-5.41625 13.125,-12.5 6.24969,-5.41625 9.37453,-9.99953 9.375,-13.75 -4.7e-4,-3.33281 -2.08375,-4.99953 -6.25,-5 -2.08375,4.7e-4 -3.12531,0.41719 -3.125,1.25 l 1.25,7.5 -0.625,0.625 c -0.41719,0.41719 -1.45938,1.66719 -3.125,3.75 -1.66703,2.08375 -4.16703,5.00047 -7.5,8.75 -1.25,1.25 -3.95875,5.20875 -8.125,11.875 m 176.25,-32.5 -8.75,6.875 4.375,-1.25 c -6.25047,2.08375 -10.20891,3.12547 -11.875,3.125 -1.66719,4.7e-4 -4.16719,-0.20781 -7.5,-0.625 -2.91719,-0.83281 -5.00047,-1.25 -6.25,-1.25 0.41563,4.7e-4 -1.04219,0.41719 -4.375,1.25 -6.25047,4.58375 -9.37547,8.95875 -9.375,13.125 -4.7e-4,0.83438 0.20781,1.45938 0.625,1.875 3.74953,4.7e-4 9.16609,0.625 16.25,1.875 1.66609,0.41719 4.37453,2.29219 8.125,5.625 0.83281,4.16703 1.25,6.25047 1.25,6.25 -4.7e-4,2.50047 -1.45937,4.58375 -4.375,6.25 l -1.25,0.625 0,1.875 c 4.16609,3.75047 6.24953,7.08375 6.25,10 -4.7e-4,0.41719 -0.20937,1.66703 -0.625,3.75 -4.7e-4,2.08375 -0.20937,5.20875 -0.625,9.375 -2.08391,2.08375 -3.54219,3.12547 -4.375,3.125 l -0.625,0 c -1.66719,4.7e-4 -2.50047,-0.83281 -2.5,-2.5 -4.7e-4,-0.41562 0.625,-2.08297 1.875,-5 1.66609,-2.91625 2.29109,-6.04125 1.875,-9.375 l -1.875,-3.125 c -1.66719,-1.66625 -3.54219,-2.49953 -5.625,-2.5 -3.33391,4.7e-4 -6.66719,2.29203 -10,6.875 2.91609,-1.25 5.20781,-1.87453 6.875,-1.875 0.83281,4.7e-4 1.25,0.41719 1.25,1.25 -4.7e-4,2.08375 -0.20937,3.54203 -0.625,4.375 l 1.25,-0.625 -0.625,6.25 -1.25,4.375 0.625,5.625 c 2.49953,4.16703 5.62453,6.25047 9.375,6.25 9.58281,4.7e-4 14.37453,-7.08297 14.375,-21.25 -4.7e-4,-1.66625 -1.25,-6.04125 -3.75,-13.125 l 7.5,0.625 c -1.66719,-4.16625 -3.75047,-7.91625 -6.25,-11.25 -2.50047,-3.74953 -4.79219,-6.87453 -6.875,-9.375 -2.08391,-2.49953 -3.95891,-4.16625 -5.625,-5 -1.66719,-1.25 -2.50047,-1.66625 -2.5,-1.25 -4.7e-4,-1.66625 1.25,-2.49953 3.75,-2.5 l 1.875,0 10,5.625 3.125,0 3.125,-1.875 2.5,-0.625 c 0.41562,-0.41562 0.625,-0.83281 0.625,-1.25 l 0,-1.25 -4.375,-5 6.875,-3.75 c 1.66609,-0.41562 2.49953,-2.91625 2.5,-7.5 -4.7e-4,-1.66625 -1.45938,-2.70781 -4.375,-3.125 m -220.625,31.875 4.375,1.875 c 1.25,-6.24953 4.16641,-13.12453 8.75,-20.625 6.24969,-4.99953 12.49969,-7.49953 18.75,-7.5 6.66625,4.7e-4 9.99969,2.29219 10,6.875 -3.1e-4,1.66719 -0.20938,2.70875 -0.625,3.125 l -13.125,10 -5,10.625 6.875,-1.25 5.625,-6.875 13.125,-10 0.625,-4.375 0.625,-2.5 c -3.1e-4,-2.91625 -1.04219,-5.41625 -3.125,-7.5 -5.00031,-2.08281 -8.75031,-3.12453 -11.25,-3.125 -20.00031,4.7e-4 -31.87531,10.41719 -35.625,31.25 m -74.375,-8.75 8.125,-1.25 9.375,-10 c 1.66641,-0.83281 3.54141,-1.45781 5.625,-1.875 2.08312,-0.83281 4.16641,-1.66625 6.25,-2.5 2.49969,-1.25 4.58312,-1.87453 6.25,-1.875 l 1.875,0.625 3.125,0 c 2.08297,4.7e-4 3.12469,-0.83281 3.125,-2.5 -3.1e-4,-1.25 -1.04219,-1.87453 -3.125,-1.875 -24.16688,4.7e-4 -37.70859,7.08375 -40.625,21.25 m 56.875,-17.5 0,1.875 c 4.16641,0.83438 6.24969,1.25 6.25,1.25 6.66641,1.66719 11.04141,2.91719 13.125,3.75 2.49969,0.83438 2.91641,1.25 1.25,1.25 0.83281,4.7e-4 1.66641,-1.04062 2.5,-3.125 l -6.875,-3.125 -9.375,-2.5 -4.375,-1.25 -2.5,1.875 m 188.75,3.125 c -2.91719,2.91719 -4.37547,5.62547 -4.375,8.125 -4.7e-4,2.50047 1.25,3.75047 3.75,3.75 0.83281,4.7e-4 1.25,-0.20781 1.25,-0.625 l 4.375,-8.125 3.125,-5 -4.375,-1.875 -3.75,3.75 m -86.25,10.625 c 10.83297,-4.16625 19.79125,-6.24953 26.875,-6.25 9.16625,4.7e-4 13.74953,2.29219 13.75,6.875 -4.7e-4,2.08375 -0.20937,3.54219 -0.625,4.375 0.83281,0.41719 2.29125,0.625 4.375,0.625 4.99953,4.7e-4 7.49953,-2.49953 7.5,-7.5 -4.7e-4,-3.33281 -3.12547,-6.04125 -9.375,-8.125 l 0,-0.625 c -1.25,-0.41562 -3.54219,-0.625 -6.875,-0.625 -12.08375,4.7e-4 -23.95875,3.75047 -35.625,11.25 m -115,-5.625 c -0.41719,-0.41562 -1.25,-0.625 -2.5,-0.625 -1.66703,4.7e-4 -2.50031,2.08375 -2.5,6.25 -3.1e-4,7.08375 3.95797,10.62547 11.875,10.625 11.24969,4.7e-4 17.08297,-3.33281 17.5,-10 0.41719,-2.91625 0.83281,-4.58281 1.25,-5 l -5,-2.5 -2.5,6.25 c -0.41719,1.25 -2.50031,2.70875 -6.25,4.375 -0.41719,0.41719 -1.66703,0.625 -3.75,0.625 -6.25031,4.7e-4 -9.37531,-2.29125 -9.375,-6.875 -3.1e-4,0.41719 0.41563,-0.625 1.25,-3.125 m -30,7.5 0,1.25 12.5,7.5 14.375,11.875 8.75,8.125 3.125,2.5 2.5,-0.625 3.125,-1.25 0,-1.875 -4.375,-4.375 -18.125,-16.875 -17.5,-11.25 -4.375,5 m 45.625,11.875 c -3.1e-4,1.66703 1.66641,3.12547 5,4.375 7.91641,3.33375 12.91641,5.00047 15,5 9.16641,4.7e-4 13.74969,-3.74953 13.75,-11.25 -3.1e-4,-7.08281 -1.87531,-11.04125 -5.625,-11.875 -1.66703,4.7e-4 -2.50031,0.83437 -2.5,2.5 l 0,0.625 0,1.25 0.625,0.625 2.5,3.125 c 0.41719,0.41719 0.625,1.25 0.625,2.5 -3.1e-4,4.58375 -3.12531,6.87547 -9.375,6.875 -3.75031,4.7e-4 -7.08359,-1.04063 -10,-3.125 -2.91703,-2.49953 -4.37531,-3.74953 -4.375,-3.75 -0.83438,0.41719 -1.87531,0.83437 -3.125,1.25 -1.25,0.41719 -2.08359,1.04219 -2.5,1.875 m -170,10 3.75,3.75 3.125,5.625 1.25,3.75 3.75,16.875 -0.625,11.25 -0.625,94.375 c 4.58313,-1.66641 9.79156,-2.91641 15.625,-3.75 6.24984,-1.25 13.12484,-2.29141 20.625,-3.125 l -1.25,-91.875 c -0.41719,-23.74953 4.16641,-36.87453 13.75,-39.375 l 23.75,-5.625 c 2.91641,-0.41563 4.37484,-1.66625 4.375,-3.75 -1.6e-4,-4.16625 -6.04187,-6.24953 -18.125,-6.25 l -1.875,0 c -5.41687,0.41719 -12.70859,1.04219 -21.875,1.875 l -8.125,0.625 -16.25,0 c -0.41719,4.7e-4 -4.58344,-0.20781 -12.5,-0.625 -7.50016,-0.41563 -19.16672,-1.04062 -35,-1.875 l -2.5,0 c -5.41672,4.7e-4 -8.12516,1.25 -8.125,3.75 -1.6e-4,3.75047 3.33328,5.83375 10,6.25 11.24984,1.25 20.20828,3.95875 26.875,8.125 m 355.625,-15.625 -42.5,1.875 c -8.75047,4.7e-4 -19.58375,-0.625 -32.5,-1.875 -2.08375,-0.41563 -4.37547,-0.625 -6.875,-0.625 l -2.5,0 c -9.16703,4.7e-4 -13.75047,1.66719 -13.75,5 -4.7e-4,2.08375 1.25,3.33375 3.75,3.75 l 19.375,4.375 c 0.83281,0.41719 2.49953,1.25 5,2.5 2.49953,0.83438 5.41625,2.29203 8.75,4.375 l 6.25,7.5 c 2.91625,4.16703 4.37453,7.50047 4.375,10 l 0.625,5 0.625,6.25 0,10.625 0,16.875 0,6.25 -0.625,82.5 c -4.7e-4,3.33359 -1.66703,6.04187 -5,8.125 l -12.5,0.625 -42.5,-0.625 0.625,11.875 0,7.5 58.75,0.625 -0.625,108.75 6.875,0 5.625,-0.625 c 5.83281,1.6e-4 12.29125,2.91687 19.375,8.75 l 1.25,1.875 -1.875,1.875 c 1.25,2.08344 1.87453,3.75016 1.875,5 -4.7e-4,0.83281 -0.83438,2.08344 -2.5,3.75 0.41563,2.08344 0.625,4.16672 0.625,6.25 0.41563,1.66672 0.625,2.91672 0.625,3.75 -4.7e-4,3.33344 -1.45938,7.08344 -4.375,11.25 l -4.375,3.75 -11.875,1.25 c -2.91719,-0.41719 -5.00047,-2.08328 -6.25,-5 7.08281,-2.49984 10.62453,-5.62484 10.625,-9.375 -4.7e-4,-6.66656 -1.66719,-9.99984 -5,-10 -0.41719,0.41719 -1.25,0.625 -2.5,0.625 l -7.5,-0.625 -0.625,8.75 0,15.625 c -0.41719,21.66672 -12.91703,35 -37.5,40 -8.33375,1.66672 -12.91703,3.75 -13.75,6.25 5.83297,3.33344 12.08297,5 18.75,5 l 1.25,0 62.5,-3.125 22.5,1.875 5.625,0 6.875,0.625 16.25,-0.625 c 3.33281,0 5.62453,-1.66656 6.875,-5 l -5,-2.5 -3.125,-1.25 -13.75,-3.75 c -7.91719,-2.08328 -15.00047,-6.45828 -21.25,-13.125 -5.83375,-7.08328 -8.75047,-13.95828 -8.75,-20.625 l -0.625,-287.5 c 0.41563,-2.91625 0.625,-5.20797 0.625,-6.875 0.41563,-2.08297 0.625,-3.95797 0.625,-5.625 0.41563,-13.33297 1.66625,-22.29125 3.75,-26.875 2.08281,-4.58297 6.04125,-8.12453 11.875,-10.625 13.33281,-5.41625 20.62453,-8.12453 21.875,-8.125 l 1.25,-1.25 0,-1.25 c -4.7e-4,-0.83281 -1.04219,-1.66625 -3.125,-2.5 -4.58391,-1.66625 -9.16719,-2.49953 -13.75,-2.5 l -3.75,0.625 -5,0.625 m -260.625,24.375 7.5,-4.375 c -0.41719,0.83437 -0.625,2.50047 -0.625,5 -3.1e-4,5.00047 2.29141,7.50047 6.875,7.5 -3.1e-4,4.7e-4 2.08313,-0.41563 6.25,-1.25 -3.75031,-3.74953 -5.62531,-7.08297 -5.625,-10 -3.1e-4,-8.33297 5.20813,-12.49953 15.625,-12.5 10.83313,4.7e-4 19.79141,4.37547 26.875,13.125 2.08297,2.08375 3.54141,3.12547 4.375,3.125 1.25,4.7e-4 2.08297,-0.20781 2.5,-0.625 -10.00031,-11.24953 -21.66687,-19.16625 -35,-23.75 l -2.5,-0.625 c -0.83437,-0.41563 -2.08359,-0.625 -3.75,-0.625 -5.41687,4.7e-4 -10.62531,2.29219 -15.625,6.875 -5.00016,4.16703 -7.29187,8.75047 -6.875,13.75 l 0,4.375 m 297.5,-23.75 4.375,8.125 1.875,1.25 3.125,1.875 c 2.49953,0.83437 3.74953,1.25 3.75,1.25 2.08281,4.7e-4 3.54109,-1.04062 4.375,-3.125 l 0,-8.125 -1.25,0.625 -1.25,1.875 -5.625,1.25 -5,-1.875 -4.375,-3.125 m -303.75,5 -4.375,3.125 c -4.58359,0.83438 -13.12516,3.33375 -25.625,7.5 -5.00016,1.66703 -8.54188,9.16703 -10.625,22.5 l 0.625,9.375 0.625,7.5 0,86.875 c -1.6e-4,2.08359 0.83281,3.12531 2.5,3.125 1.25,3.1e-4 2.08312,-0.83281 2.5,-2.5 l -1.25,-88.75 c -1.6e-4,-21.66625 3.33312,-33.33297 10,-35 l 24.375,-6.875 c 2.08312,-0.83281 3.12484,-1.87453 3.125,-3.125 -1.6e-4,-0.41562 -0.625,-1.66625 -1.875,-3.75 m 293.75,-0.625 -3.125,3.75 c -2.50047,0.83438 -4.37547,1.45938 -5.625,1.875 -7.08391,2.08375 -11.45891,3.75047 -13.125,5 -1.25,0.83438 -3.33375,2.50047 -6.25,5 -7.08375,5.83375 -10.41719,20.83375 -10,45 l 0.625,15 0,16.875 0,9.375 0,12.5 -0.625,231.25 c 0.41562,1.66672 1.04062,3.75016 1.875,6.25 1.25,2.50016 2.70781,5.41672 4.375,8.75 l 2.5,4.375 c 0.83281,1.25 1.66625,2.5 2.5,3.75 0.83281,0.83281 1.66625,1.66672 2.5,2.5 l 1.25,0 -10,-25 0,-290 c -4.7e-4,-24.16625 3.74953,-37.91625 11.25,-41.25 l 22.5,-9.375 c 0.83281,-0.83281 1.25,-1.45781 1.25,-1.875 -4.7e-4,-0.41562 -0.625,-1.66625 -1.875,-3.75 m -418.125,2.5 c 3.33328,3.75047 6.24984,6.04203 8.75,6.875 l 14.375,3.125 c 2.91656,0.83438 7.91656,3.33375 15,7.5 l 1.25,-0.625 -4.375,-6.25 c -2.91688,-1.66625 -5.62516,-2.91625 -8.125,-3.75 -2.50016,-1.25 -5.00016,-2.29125 -7.5,-3.125 l -19.375,-3.75 m 294.375,1.25 c 0.83281,4.16703 3.33297,6.87547 7.5,8.125 4.58297,0.83438 11.04125,2.29203 19.375,4.375 1.66625,4.7e-4 4.16625,0.625 7.5,1.875 l -6.875,-5.625 -12.5,-3.75 -3.75,-1.875 -5,-0.625 -6.25,-2.5 m -62.5,11.875 0.625,0.625 6.875,-1.875 c 2.91625,-0.83281 5.62469,-1.66625 8.125,-2.5 2.49969,-0.83281 5.20797,-1.45781 8.125,-1.875 l 2.5,-4.375 -0.625,0 -1.875,-0.625 -12.5,1.25 -6.875,3.75 c -1.66703,0.83438 -2.91703,1.45938 -3.75,1.875 -0.83438,0.41719 -1.25,0.625 -1.25,0.625 -3.1e-4,1.66703 0.20781,2.70875 0.625,3.125 m -244.375,-10.625 c -1.25,2.50047 -1.87516,4.37547 -1.875,5.625 -1.6e-4,1.66703 0.20781,2.70875 0.625,3.125 2.49984,2.50047 4.58328,3.75047 6.25,3.75 1.25,4.7e-4 3.95828,-2.08297 8.125,-6.25 l -0.625,-3.125 c -2.91672,1.66703 -5.41672,2.50047 -7.5,2.5 l -3.125,0 -1.875,-5.625 m 291.25,7.5 9.375,5 c 2.91625,1.66703 4.37453,4.37547 4.375,8.125 -4.7e-4,6.66703 -4.79203,10.00047 -14.375,10 -11.66703,4.7e-4 -19.58375,-3.33297 -23.75,-10 -4.58375,-7.08297 -7.50031,-10.62453 -8.75,-10.625 -1.25,4.7e-4 -1.87531,0.625 -1.875,1.875 -3.1e-4,2.50047 1.66625,6.04203 5,10.625 3.74969,4.58375 6.87469,7.50047 9.375,8.75 4.99969,2.50047 10.41625,3.75047 16.25,3.75 17.08297,4.7e-4 25.62453,-4.79125 25.625,-14.375 -4.7e-4,-4.16625 -2.08375,-8.12453 -6.25,-11.875 -4.16703,-3.74953 -8.33375,-5.62453 -12.5,-5.625 -2.50031,4.7e-4 -3.75031,0.83438 -3.75,2.5 -3.1e-4,0.41719 0.41562,1.04219 1.25,1.875 m -123.75,-4.375 c -2.91688,1.66703 -4.37531,3.33375 -4.375,5 -3.1e-4,2.91703 4.79141,6.87547 14.375,11.875 5.83312,2.91703 12.91641,4.37547 21.25,4.375 6.66641,4.7e-4 14.79141,-1.87453 24.375,-5.625 1.25,-0.41562 3.54141,-1.04062 6.875,-1.875 0.41719,-0.83281 0.625,-1.45781 0.625,-1.875 0.41562,-0.41562 0.625,-0.625 0.625,-0.625 -3.1e-4,0.41719 -0.41719,-0.625 -1.25,-3.125 -10.41703,5.41703 -19.58359,8.12547 -27.5,8.125 -15.83359,4.7e-4 -27.50031,-5.41625 -35,-16.25 m 71.25,3.75 c -4.16703,0.41719 -6.25031,1.45938 -6.25,3.125 -3.1e-4,-4.16625 2.29141,0.625 6.875,14.375 l 1.875,3.125 2.5,4.375 8.75,16.25 5,10.625 9.375,31.875 c 1.66625,-1.66625 2.49969,-3.54125 2.5,-5.625 l 0,-0.625 -3.75,-15 c -0.83438,-4.16625 -1.66703,-7.29125 -2.5,-9.375 -0.41719,-2.08297 -0.625,-3.12469 -0.625,-3.125 l -20,-40 -1.25,-4.375 -2.5,-5.625 m -223.125,28.125 0.625,2.5 1.25,2.5 1.25,-0.625 1.25,-3.75 2.5,0 0.625,5.625 3.125,3.75 c 4.16656,5.00031 8.74984,7.50031 13.75,7.5 6.24984,3.1e-4 10.20812,-2.70797 11.875,-8.125 l -9.375,0 c -6.66672,-4.16625 -10.00016,-9.37453 -10,-15.625 -1.6e-4,-5.83297 0.83281,-11.45797 2.5,-16.875 l -4.375,-0.625 -11.25,-3.125 c -2.08344,4.7e-4 -3.12516,1.25 -3.125,3.75 l -0.625,5 -1.875,3.75 0.625,3.75 -0.625,6.25 1.875,4.375 m 299.375,-18.75 0.625,3.125 c 4.58297,1.25 6.87453,3.33375 6.875,6.25 -4.7e-4,1.66703 -1.66703,6.87547 -5,15.625 -0.83438,3.33375 -1.45938,5.62547 -1.875,6.875 8.74953,-10.41625 13.12453,-19.58297 13.125,-27.5 -4.7e-4,-0.83281 -0.41719,-2.49953 -1.25,-5 l -3.75,-3.125 c -0.83438,-0.83281 -1.45938,-1.04062 -1.875,-0.625 l -1.875,0.625 -5,3.75 m 133.125,-1.25 -1.875,0 0.625,10.625 0,13.75 0,1.875 c -4.7e-4,0.83438 -4.7e-4,1.87547 0,3.125 -4.7e-4,0.83438 0.20781,2.08375 0.625,3.75 l 0.625,6.875 -1.875,5.625 -3.125,4.375 c -1.66719,2.08375 -4.79219,4.79203 -9.375,8.125 l -6.25,1.875 c -4.16719,2.91703 -8.12547,4.37531 -11.875,4.375 -2.08391,3.1e-4 -3.95891,-0.83281 -5.625,-2.5 l -1.875,1.25 c -0.41719,2.08375 -0.83438,3.75031 -1.25,5 -4.7e-4,1.25 -4.7e-4,2.08375 0,2.5 -4.7e-4,-0.41562 0.41562,1.45938 1.25,5.625 l 0.625,-0.625 4.375,2.5 1.875,0 -1.875,2.5 -2.5,0.625 -1.875,0.625 1.875,1.25 -0.625,0.625 c 2.91609,1.66703 5.83281,2.50031 8.75,2.5 2.91609,3.1e-4 5.20781,-0.83281 6.875,-2.5 8.74953,-5.83297 13.33281,-9.37469 13.75,-10.625 l 3.125,-6.875 c 0.41562,-0.41562 1.25,-0.625 2.5,-0.625 2.08281,3.1e-4 3.12453,0.83438 3.125,2.5 l -1.875,3.75 -9.375,11.25 -5,4.375 2.5,0 -7.5,4.375 -8.75,8.75 -4.375,1.25 -6.25,5.625 -4.375,13.125 -0.625,4.375 3.125,0 5,-3.125 3.75,-1.25 -1.25,6.25 -1.875,-1.25 -3.125,5.625 c -2.91719,5.41703 -4.37547,9.58359 -4.375,12.5 l 0.625,1.875 3.125,15 0.625,9.375 c 2.08281,-1.25 3.33281,-3.33312 3.75,-6.25 l 1.875,0.625 c 3.33281,8.33359 7.70781,12.50031 13.125,12.5 8.33281,3.1e-4 13.74953,-1.25 16.25,-3.75 l 2.5,-3.75 3.75,-3.125 1.25,-3.125 2.5,-7.5 0,-2.5 c -4.7e-4,-9.99969 -3.33391,-18.33297 -10,-25 -1.25,-2.91641 -1.87547,-5.20797 -1.875,-6.875 l 0.625,-1.25 c 0.41562,-0.41719 3.95781,-1.66641 10.625,-3.75 3.74953,-1.25 5.62453,-3.74969 5.625,-7.5 -4.7e-4,-3.33297 -0.83438,-6.66641 -2.5,-10 l -0.625,0 0,-1.25 0,3.125 c 0.41562,4.16703 -0.83438,6.87531 -3.75,8.125 l -13.125,4.375 -6.25,4.375 c -0.41719,2.08359 -0.83438,3.75031 -1.25,5 -4.7e-4,1.25 -4.7e-4,2.29203 0,3.125 -4.7e-4,2.08359 1.04062,4.79203 3.125,8.125 l 0.625,1.875 1.875,0 c 7.08281,8.33359 10.62453,14.16687 10.625,17.5 -4.7e-4,5.41687 -2.91719,10.41687 -8.75,15 l -10.625,0 -0.625,-1.875 c -6.66719,-4.16641 -10.00047,-10.20813 -10,-18.125 -4.7e-4,-11.24969 4.79109,-24.16641 14.375,-38.75 l 22.5,-31.25 c 4.58281,-7.08297 6.87437,-20.62469 6.875,-40.625 -6.3e-4,-13.33297 -2.50047,-25.41625 -7.5,-36.25 -0.41719,-1.66625 -1.45938,-2.49953 -3.125,-2.5 l -1.875,1.25 m -436.25,0 c -4.16672,12.50047 -6.25016,21.04203 -6.25,25.625 l 0.625,2.5 c -1.6e-4,2.91703 0.625,6.87531 1.875,11.875 -0.41719,0.41719 -0.625,1.45937 -0.625,3.125 -1.6e-4,0.83437 0.625,1.45937 1.875,1.875 l 1.25,7.5 c 0.41719,2.91703 3.33328,9.37531 8.75,19.375 l 2.5,4.375 4.375,5.625 c 0.41719,3.1e-4 1.25,1.04219 2.5,3.125 1.66656,1.66703 2.70828,2.70859 3.125,3.125 1.25,3.1e-4 1.87484,-0.625 1.875,-1.875 l -1.25,-1.25 c 0.41719,0.41719 1.04219,0.625 1.875,0.625 0.83281,3.1e-4 -1.6e-4,-1.25 -2.5,-3.75 -2.50016,-2.91625 -4.16672,-4.37469 -5,-4.375 -1.6e-4,3.1e-4 -1.6e-4,0.20937 0,0.625 0.41719,0.41719 0.83281,1.04219 1.25,1.875 l -1.25,-3.125 4.375,3.125 1.875,3.125 4.375,3.125 c 3.74984,3.75031 8.74984,6.66703 15,8.75 l 0,-5 c -17.08344,-5.41625 -27.70844,-14.79125 -31.875,-28.125 l -5,-14.375 c -3.33344,-8.74969 -4.16672,-13.12469 -2.5,-13.125 l 0.625,-12.5 -2.5,-12.5 0.625,-9.375 m 207.5,9.375 0.625,1.25 5,6.25 10.625,16.25 16.875,30.625 1.25,5 2.5,6.25 3.125,10.625 1.25,5 c 2.49969,-3.74969 3.74969,-6.87469 3.75,-9.375 l -0.625,-1.875 -6.25,-19.375 c -2.08375,-4.16625 -4.79203,-9.16625 -8.125,-15 -2.91703,-6.24969 -6.66703,-13.33297 -11.25,-21.25 -6.25031,-12.08297 -10.41703,-17.70797 -12.5,-16.875 l -6.25,2.5 m -106.875,1.25 c -0.41719,1.25 -0.625,3.33375 -0.625,6.25 l 0,4.375 0,3.75 c -1.6e-4,2.50047 0.20781,4.37547 0.625,5.625 l 7.5,10 -8.125,-2.5 c -0.41719,1.25 -0.625,3.54203 -0.625,6.875 l 0,1.875 c 0.83281,1.66703 1.66641,3.75031 2.5,6.25 0.83281,2.08375 1.66641,4.79203 2.5,8.125 l 0.625,5.625 c -1.6e-4,2.50031 -1.66688,6.66703 -5,12.5 -1.25,1.66703 -2.91688,2.91703 -5,3.75 l -0.625,26.875 c 5.41641,-0.41563 9.99984,-0.83281 13.75,-1.25 4.16641,-0.41719 7.91641,-1.04063 11.25,-1.875 0.83281,-0.83281 6.24984,-2.70797 16.25,-5.625 7.08312,-2.08297 12.08312,-3.12469 15,-3.125 3.74969,3.1e-4 7.70812,1.45781 11.875,4.375 2.49969,-3.74969 3.74969,-6.45797 3.75,-8.125 -3.1e-4,-2.08297 -1.66688,-4.16641 -5,-6.25 -3.33359,-2.08297 -5.83359,-3.12469 -7.5,-3.125 -0.41719,3.1e-4 -4.16688,1.04219 -11.25,3.125 -1.66688,1.66703 -3.12531,2.50031 -4.375,2.5 -1.66688,3.1e-4 -2.50031,-0.625 -2.5,-1.875 -3.1e-4,-0.83281 0.625,-1.66641 1.875,-2.5 l 0.625,-0.625 19.375,-3.75 c 2.49969,-0.41563 4.99969,-1.66625 7.5,-3.75 2.49969,-2.08297 4.79141,-4.58297 6.875,-7.5 2.08312,-2.91625 3.74969,-6.04125 5,-9.375 1.25,-3.33297 1.87469,-6.24969 1.875,-8.75 l 0,-4.375 -8.75,2.5 -1.875,-1.875 c 4.99969,-4.99969 7.70812,-10.41625 8.125,-16.25 l 0,-8.125 c 0.41719,-0.83281 0.83281,-2.08297 1.25,-3.75 0.83281,-2.08297 2.08312,-4.37453 3.75,-6.875 -4.58359,-1.25 -8.12531,-1.87453 -10.625,-1.875 -8.33359,4.7e-4 -15.20859,3.33375 -20.625,10 -0.41719,0.41719 -1.04219,1.04219 -1.875,1.875 -0.41719,0.83437 -1.25,1.87547 -2.5,3.125 l -1.875,-0.625 0,-5 c 0.41719,-5.41625 -0.83438,-8.12453 -3.75,-8.125 -0.83281,4.7e-4 -1.87531,1.66703 -3.125,5 -3.33359,4.58375 -5.20859,14.16703 -5.625,28.75 -0.83438,8.75031 -2.50016,13.12531 -5,13.125 -1.66688,3.1e-4 -2.50016,-1.04062 -2.5,-3.125 -1.6e-4,-0.83281 0.20781,-1.45781 0.625,-1.875 l 3.125,-7.5 1.25,-11.875 0.625,-11.875 c -0.41719,-1.66625 -2.50016,-4.37453 -6.25,-8.125 l -0.625,11.875 c -1.66688,-0.41563 -3.54188,-3.33297 -5.625,-8.75 -0.41719,-2.91625 -2.08359,-4.99953 -5,-6.25 l -10.625,-4.375 -0.625,2.5 m 228.125,3.125 -4.375,1.25 -0.625,1.25 c -1.66703,0.83438 -3.54203,2.29203 -5.625,4.375 -1.66703,1.66703 -3.95875,3.75047 -6.875,6.25 -2.08375,2.91703 -4.16703,5.83375 -6.25,8.75 -1.66703,2.50031 -2.91703,6.04203 -3.75,10.625 -4.7e-4,2.50031 -0.20938,4.37531 -0.625,5.625 l 0.625,15 4.375,13.125 8.125,10.625 5.625,3.75 6.25,6.25 c 1.66625,1.66703 4.79125,3.33359 9.375,5 0.41562,-0.83281 0.625,-2.70797 0.625,-5.625 -4.7e-4,-1.66641 -0.83438,-2.70797 -2.5,-3.125 -1.66703,-0.41719 -5.41703,-3.74969 -11.25,-10 l -5.625,-6.875 c -3.75047,-4.16625 -5.62547,-11.87469 -5.625,-23.125 -4.7e-4,-13.33297 4.16625,-21.24969 12.5,-23.75 7.91625,-2.91625 12.29125,-4.79125 13.125,-5.625 l -0.625,-3.75 -1.25,-10.625 -1.875,-1.25 -3.75,1.875 m 60.625,43.125 c 10.41609,-0.41563 15.62453,-3.95797 15.625,-10.625 -4.7e-4,-1.25 -0.20938,-2.08297 -0.625,-2.5 -3.33391,-2.49969 -5.00047,-4.79125 -5,-6.875 -4.7e-4,-0.83281 0.41562,-1.66625 1.25,-2.5 4.16609,-2.91625 6.24953,-5.41625 6.25,-7.5 -4.7e-4,-1.25 -0.625,-2.91625 -1.875,-5 l -3.75,-4.375 -6.875,-3.75 -1.875,-1.875 -1.875,10 0,12.5 2.5,8.75 0,1.25 c -4.7e-4,3.33375 -1.25,7.50031 -3.75,12.5 m -188.75,-40.625 c -5.83359,3.33375 -8.75031,6.66703 -8.75,10 -3.1e-4,2.50047 1.25,3.95875 3.75,4.375 0.41719,-5.41625 2.70797,-8.12453 6.875,-8.125 5.41641,4.7e-4 11.45797,4.58375 18.125,13.75 l 1.875,1.875 1.875,0 -3.75,-5 -4.375,-6.25 c -1.66703,-2.08297 -3.95859,-3.95797 -6.875,-5.625 -2.50031,-1.66625 -5.41703,-3.33297 -8.75,-5 m 55.625,2.5 -1.875,5 c -0.41719,3.33375 -0.625,6.25047 -0.625,8.75 -3.1e-4,2.08375 -3.1e-4,3.95875 0,5.625 l 0,3.125 0,3.75 3.75,16.25 1.25,6.875 2.5,6.25 1.875,0 -0.625,-13.125 -3.125,-16.25 0.625,-8.125 0,-8.125 1.25,-8.125 c -0.41719,-0.41563 -2.08375,-1.04063 -5,-1.875 m 23.75,3.75 c -3.33375,4.7e-4 -5.20875,0.83437 -5.625,2.5 l -5,4.375 -3.125,6.25 -1.875,2.5 0,3.75 -1.25,8.75 -0.625,3.125 c -3.1e-4,3.75031 1.04062,5.62531 3.125,5.625 0.83281,-0.83281 1.25,-1.87469 1.25,-3.125 l -0.625,-1.25 0,-4.375 c -0.41719,-4.99969 1.04062,-9.16625 4.375,-12.5 3.74969,-3.74969 6.87469,-5.62453 9.375,-5.625 7.49969,4.7e-4 11.24953,2.29203 11.25,6.875 -4.7e-4,0.83437 -0.20938,1.45937 -0.625,1.875 l -3.125,5.625 3.125,0.625 1.875,-1.25 4.375,-7.5 c 0.41562,-0.41563 0.625,-1.25 0.625,-2.5 -4.7e-4,-9.16625 -5.83375,-13.74953 -17.5,-13.75 m -271.875,16.875 0.625,5.625 c 2.91656,7.50031 6.24984,11.25031 10,11.25 l 1.875,-0.625 c -6.66672,-9.16625 -10.00016,-14.79125 -10,-16.875 l 0,-0.625 0.625,-0.625 0,-1.25 -1.25,-3.75 -3.125,-1.875 1.25,8.75 m 397.5,-6.875 -1.875,6.875 c 1.66609,1.25 3.12453,1.87531 4.375,1.875 2.49953,3.1e-4 3.74953,-1.25 3.75,-3.75 -4.7e-4,-2.08297 -2.08391,-3.74969 -6.25,-5 m -413.75,2.5 0,5 c -0.41719,11.25031 3.12484,22.29203 10.625,33.125 l 3.125,6.875 4.375,6.25 3.125,5 5.625,8.75 c 4.58328,7.08359 6.87484,12.70859 6.875,16.875 -1.6e-4,2.50031 -2.08344,5.62531 -6.25,9.375 l -1.25,0 c -3.75016,0.41719 -6.25016,-1.25 -7.5,-5 -2.08344,0.83281 -3.12516,2.08359 -3.125,3.75 -1.6e-4,5.83359 3.95828,8.75031 11.875,8.75 9.99984,3.1e-4 14.99984,-5.41641 15,-16.25 -1.6e-4,-2.91641 -0.83281,-5.83297 -2.5,-8.75 l -5,-8.75 -19.375,-23.75 c -6.25016,-7.49969 -10.41672,-16.45797 -12.5,-26.875 l -1.25,-7.5 -1.875,-6.875 m 206.25,0 -10.625,3.75 5.625,5.625 c -2.91703,1.25 -5.20859,3.33375 -6.875,6.25 -1.25,4.58375 -1.87531,7.91703 -1.875,10 -3.1e-4,2.08375 0.625,5.00031 1.875,8.75 4.99969,6.25031 10.83297,9.37531 17.5,9.375 4.16641,3.1e-4 8.12469,-1.87469 11.875,-5.625 l -0.625,-1.25 c -1.25,0.41719 -3.33359,0.625 -6.25,0.625 -0.83438,3.1e-4 -3.75031,-1.04063 -8.75,-3.125 -3.33359,-4.58297 -5.00031,-7.91625 -5,-10 -3.1e-4,-7.08297 4.16641,-10.62469 12.5,-10.625 4.58297,3.1e-4 9.79141,1.66703 15.625,5 l 8.75,8.75 2.5,5 4.375,8.125 1.875,6.25 5,4.375 -6.25,-19.375 c -2.91703,-8.74969 -8.12531,-16.24969 -15.625,-22.5 -7.08359,-6.66625 -14.16703,-9.79125 -21.25,-9.375 l -1.875,0 -2.5,0 m -173.75,5.625 c -2.91672,2.50031 -4.37516,4.58375 -4.375,6.25 -1.6e-4,3.75031 2.08328,5.62531 6.25,5.625 3.74984,3.1e-4 5.62484,-2.29125 5.625,-6.875 -1.6e-4,-2.49969 -2.50016,-4.16625 -7.5,-5 m 10.625,23.125 2.5,0 c 0.83281,3.1e-4 1.25,-0.83281 1.25,-2.5 -1.6e-4,-4.99969 -1.66688,-7.49969 -5,-7.5 -3.33344,3.1e-4 -5.00016,1.87531 -5,5.625 -1.6e-4,4.16703 1.45781,6.25031 4.375,6.25 l 0.625,-0.625 1.25,-1.25 m 283.75,-1.875 c -1.25,8.33375 -1.87547,12.08375 -1.875,11.25 -4.7e-4,7.50031 4.37453,13.95859 13.125,19.375 l 5.625,2.5 c -8.75047,-6.66641 -13.12547,-13.54125 -13.125,-20.625 -4.7e-4,-7.08297 2.49953,-10.62469 7.5,-10.625 2.08297,3.1e-4 3.54125,0.20937 4.375,0.625 -1.25,-5.83297 -3.54203,-8.74969 -6.875,-8.75 -0.83438,3.1e-4 -1.66703,0.41719 -2.5,1.25 l -6.25,5 m -51.875,19.375 -1.875,0 c -2.50031,-1.25 -4.37531,-1.87469 -5.625,-1.875 -3.75031,3.1e-4 -5.62531,5.20875 -5.625,15.625 -3.1e-4,5.41703 0.83281,9.79203 2.5,13.125 l 6.25,19.375 c 0.41562,0.41719 1.25,5.41703 2.5,15 l -1.875,1.25 1.25,-1.25 -2.5,0 c -2.91703,-32.91641 -14.37531,-53.74969 -34.375,-62.5 l -1.25,9.375 1.25,2.5 c -2.50031,-0.83281 -4.79203,-2.29141 -6.875,-4.375 l -6.875,-1.875 c -0.83438,-0.41563 -2.70859,-0.625 -5.625,-0.625 -3.75031,3.1e-4 -6.25031,0.20937 -7.5,0.625 0.41719,4.16703 1.87469,7.70859 4.375,10.625 -9.58359,6.25031 -13.95859,12.29203 -13.125,18.125 l 0,2.5 c 0.83281,9.58359 6.04141,14.37531 15.625,14.375 l 1.875,-0.625 8.125,-3.125 6.25,0 0.625,-1.25 c -3.33359,-1.66641 -5.20859,-2.91641 -5.625,-3.75 l -13.75,0 c -2.50031,-0.41719 -3.75031,-2.29141 -3.75,-5.625 -3.1e-4,-6.66641 4.79141,-9.99969 14.375,-10 3.74969,3.1e-4 9.79141,2.91703 18.125,8.75 l 5,8.125 5,7.5 6.25,20 c 0.41562,1.66687 0.83281,3.54187 1.25,5.625 0.41562,2.08359 1.04062,4.79187 1.875,8.125 l 0,12.5 10,-0.625 10,1.875 c 2.49969,3.1e-4 3.74969,-1.45781 3.75,-4.375 l 0.625,-9.375 0.625,-7.5 c -3.1e-4,-3.33313 -0.625,-9.16641 -1.875,-17.5 -2.50031,-15.41641 -3.75031,-28.12469 -3.75,-38.125 -3.1e-4,-19.99969 5.62469,-32.49969 16.875,-37.5 -2.91703,-4.16625 -6.04203,-6.24969 -9.375,-6.25 -9.58375,3.1e-4 -14.37531,4.37531 -14.375,13.125 -3.1e-4,0.83437 -3.1e-4,2.08375 0,3.75 0.41562,1.66703 0.83281,3.75031 1.25,6.25 m -246.25,-10 c 3.74984,3.1e-4 5.62484,-2.08297 5.625,-6.25 -1.6e-4,-3.33297 -1.66672,-4.99969 -5,-5 -3.75016,3.1e-4 -5.62516,1.25 -5.625,3.75 -1.6e-4,5.00031 1.66656,7.50031 5,7.5 m 280,2.5 c -1.25,-1.66625 -2.70875,-2.49969 -4.375,-2.5 -3.33375,3.1e-4 -5.00047,1.45937 -5,4.375 -4.7e-4,2.91703 1.66625,4.37531 5,4.375 2.49953,3.1e-4 3.95797,-2.08297 4.375,-6.25 m -303.75,-1.25 0,5 0.625,8.125 c -1.6e-4,4.58359 -2.91672,7.91703 -8.75,10 1.66656,2.91703 3.54156,4.37531 5.625,4.375 -0.41719,3.1e-4 1.04219,-0.41719 4.375,-1.25 3.74984,-2.49969 5.62484,-5.62469 5.625,-9.375 -1.6e-4,-3.74969 -2.50016,-9.37469 -7.5,-16.875 m 285,6.25 0,1.875 c -3.1e-4,3.33375 1.04062,5.00031 3.125,5 3.33297,3.1e-4 4.99969,-1.45781 5,-4.375 -3.1e-4,-3.33297 -1.25,-4.99969 -3.75,-5 l -1.25,0.625 -3.125,1.875 m 108.125,3.75 0,5 c -0.83438,3.75031 0.20781,5.62531 3.125,5.625 -4.7e-4,3.1e-4 2.49953,-1.04063 7.5,-3.125 l -6.25,-2.5 -4.375,-5 m -95,0.625 c -0.41719,0.41719 -0.625,1.66703 -0.625,3.75 -4.7e-4,2.08359 4.79125,4.16703 14.375,6.25 1.25,0.41719 2.29125,0.83437 3.125,1.25 1.25,0.41719 2.29125,0.83437 3.125,1.25 -5.00047,-7.08297 -11.66703,-11.24969 -20,-12.5 m 105,10.625 c -6.25047,0.83281 -9.37547,2.50031 -9.375,5 -4.7e-4,0.41719 0.41562,2.29203 1.25,5.625 6.66609,-2.49969 11.87453,-5.62469 15.625,-9.375 1.66609,-1.66641 3.12453,-2.91641 4.375,-3.75 1.66609,-0.83281 2.70781,-1.45781 3.125,-1.875 l 1.875,-3.125 -16.875,7.5 m -109.375,3.125 c 1.25,-2.49969 1.87453,-4.37469 1.875,-5.625 -4.7e-4,-1.66641 -1.45938,-2.49969 -4.375,-2.5 -3.33375,3.1e-4 -5.00031,1.45781 -5,4.375 -3.1e-4,2.91703 1.45781,4.37531 4.375,4.375 1.66625,3.1e-4 2.70797,-0.20781 3.125,-0.625 m -263.125,-5.625 0,2.5 13.75,8.125 0,-4.375 -13.75,-6.25 m 261.875,8.125 -0.625,1.875 -3.125,0 -1.875,1.875 -3.125,1.25 -0.625,2.5 c 4.58297,0.83437 6.87469,1.66703 6.875,2.5 -3.1e-4,1.25 -1.45938,3.12531 -4.375,5.625 l -2.5,5.625 1.875,9.375 c 4.99969,5.41703 10.20797,8.12531 15.625,8.125 6.24953,3.1e-4 10.20797,-1.45781 11.875,-4.375 l 10.625,-13.125 c 0.83281,-0.83281 1.87453,-1.25 3.125,-1.25 0.83281,3.1e-4 2.29125,0.625 4.375,1.875 l 0,6.875 3.125,-6.25 c -4.7e-4,-2.08297 -1.87547,-4.16641 -5.625,-6.25 l -1.875,-0.625 c -5.41703,3.1e-4 -9.37547,3.12531 -11.875,9.375 -3.75047,3.75031 -6.66703,5.62531 -8.75,5.625 -7.08375,3.1e-4 -10.62547,-3.33297 -10.625,-10 -4.7e-4,-8.33297 6.45797,-12.49969 19.375,-12.5 7.91625,3.1e-4 13.74953,1.25 17.5,3.75 1.66625,1.66703 3.12453,2.50031 4.375,2.5 0.83281,3.1e-4 1.66625,-0.41719 2.5,-1.25 l 0,-2.5 c -4.7e-4,-1.66641 -1.04219,-2.91641 -3.125,-3.75 -4.58375,-2.08297 -6.87547,-3.12469 -6.875,-3.125 l -12.5,-5.625 -5,-0.625 c -1.66703,-0.41719 -3.75047,-0.625 -6.25,-0.625 l -2.5,0 c -1.66703,3.1e-4 -5.00047,1.04219 -10,3.125 m -123.125,32.5 c 1.66641,0.83281 3.74969,2.29203 6.25,4.375 2.49969,1.66687 5.41641,3.54187 8.75,5.625 -2.91688,-4.16641 -6.04188,-8.33297 -9.375,-12.5 -2.91688,-4.58297 -4.37531,-8.95797 -4.375,-13.125 -3.1e-4,-7.08297 2.49969,-10.62469 7.5,-10.625 1.25,3.1e-4 3.12469,0.625 5.625,1.875 l 0,8.125 c 4.16641,-2.49969 6.24969,-4.79141 6.25,-6.875 -3.1e-4,-5.83297 -3.75031,-8.74969 -11.25,-8.75 -5.00031,3.1e-4 -9.16688,2.91703 -12.5,8.75 -2.08359,5.00031 -3.12531,8.54203 -3.125,10.625 -3.1e-4,1.66703 0.83281,3.95859 2.5,6.875 1.66641,2.91703 2.91641,4.79203 3.75,5.625 m -165.625,-25 c -2.91672,0.41719 -7.29172,4.37531 -13.125,11.875 -0.41719,5.41703 -0.83281,9.16703 -1.25,11.25 -1.6e-4,1.66703 -1.6e-4,1.66703 0,0 -1.6e-4,-0.41719 0.41719,1.04219 1.25,4.375 l 4.375,6.25 8.125,1.875 0,1.875 -10.625,1.25 c -1.25,3.1e-4 -1.87516,0.625 -1.875,1.875 -1.6e-4,1.25 0.625,2.08359 1.875,2.5 4.16656,2.91687 7.29156,4.37531 9.375,4.375 l 3.125,0 8.75,-0.625 6.875,-2.5 13.75,-10 c 6.66656,-4.99969 16.04156,-9.37469 28.125,-13.125 l 14.375,-4.375 -7.5,0 c -10.00016,1.66703 -20.41688,5.41703 -31.25,11.25 l -6.875,1.875 -8.125,3.75 -5.625,0.625 c -2.50016,0.83437 -6.66672,-0.41563 -12.5,-3.75 -3.33344,-4.58297 -5.00016,-8.12469 -5,-10.625 -1.6e-4,-9.16641 4.58328,-13.54141 13.75,-13.125 l 1.875,0 c -2.08344,-3.74969 -6.04172,-6.04141 -11.875,-6.875 m 130,2.5 c -5.41688,1.25 -8.12516,3.12531 -8.125,5.625 -1.6e-4,3.33359 2.29141,5.41703 6.875,6.25 l 14.375,3.75 6.25,1.875 6.25,1.875 -4.375,-3.75 -17.5,-8.75 -1.875,-5.625 -1.875,-1.25 m -46.25,15.625 c -15.83344,2.50031 -26.87516,5.62531 -33.125,9.375 l -17.5,10.625 -10.625,7.5 -6.25,5.625 -8.125,7.5 c -2.08344,2.08359 -3.95844,4.79187 -5.625,8.125 -2.91672,5.41687 -5.20844,9.58359 -6.875,12.5 -1.25,2.91687 -2.08344,4.58359 -2.5,5 l -1.875,7.5 -1.875,6.25 -3.75,24.375 0,-7.5 0.625,7.5 -1.25,26.25 0,5 c 0.41719,8.33344 1.66656,15.83344 3.75,22.5 l 1.25,6.25 c 0.41719,1.66687 1.04219,3.95844 1.875,6.875 1.25,2.50016 2.70828,5.62516 4.375,9.375 l 4.375,15 1.875,4.375 c 0.41719,1.25 0.625,3.75016 0.625,7.5 -1.6e-4,9.16672 -5.20844,15.625 -15.625,19.375 2.49984,1.66672 4.79156,2.91672 6.875,3.75 2.91656,0 6.45828,-1.45781 10.625,-4.375 3.74984,-5.41656 5.62484,-9.58328 5.625,-12.5 -1.6e-4,-1.66656 -0.625,-4.16656 -1.875,-7.5 l 3.75,3.125 1.875,0.625 1.25,-6.25 0,-3.125 c 0.41719,-1.25 0.20781,-3.54156 -0.625,-6.875 l -2.5,-5 c -1.25,-2.91656 -2.08344,-4.58328 -2.5,-5 -0.41719,-0.83281 -3.33344,-3.74984 -8.75,-8.75 -0.83281,-1.25 -1.66672,-2.49984 -2.5,-3.75 -0.83281,-1.66656 -1.66672,-3.33313 -2.5,-5 l -3.75,-8.75 c -1.25,-2.49984 -1.87516,-3.95813 -1.875,-4.375 0.41719,-1.25 1.04219,-1.87484 1.875,-1.875 1.66656,1.6e-4 2.49984,1.66687 2.5,5 l 0,0.625 3.75,8.75 1.875,3.75 5,6.25 0,-7.5 1.25,-1.875 c 4.16656,5.00016 8.33328,7.50016 12.5,7.5 3.33328,1.6e-4 4.99984,-0.625 5,-1.875 l -3.125,-8.75 -3.125,-9.375 -6.25,-5.625 0.625,-2.5 5,0 c -0.83281,-4.16656 -3.95844,-8.54156 -9.375,-13.125 -1.25,-0.41719 -2.91672,-1.66656 -5,-3.75 -5.00016,-3.74984 -7.70844,-8.95813 -8.125,-15.625 l 3.125,-0.625 1.875,7.5 3.125,2.5 1.25,1.875 c 1.25,2.08344 2.91656,3.12516 5,3.125 1.25,1.6e-4 2.49984,-0.83281 3.75,-2.5 l -0.625,-5 5,0 3.125,-3.75 1.25,-5.625 -5,0 c -9.16672,0.41719 -13.75016,-6.24984 -13.75,-20 -1.6e-4,-17.91641 5.83328,-33.33313 17.5,-46.25 1.66656,-2.49969 2.91656,-4.37469 3.75,-5.625 1.25,-1.25 5.20812,-4.37469 11.875,-9.375 l 15.625,-11.25 c 1.25,-1.25 4.79156,-2.91641 10.625,-5 l 7.5,-2.5 c 7.08312,-2.91641 21.24984,-4.37469 42.5,-4.375 11.66641,3.1e-4 23.74969,2.29203 36.25,6.875 l 10.625,4.375 9.375,0 4.375,0 -13.75,-7.5 c -12.08359,-6.24969 -26.66688,-9.79141 -43.75,-10.625 l -14.375,-0.625 -5.625,-0.625 -11.875,1.875 m 1.25,16.25 1.875,3.125 1.875,0.625 0,-5.625 c 0.41562,-0.41563 0.625,-1.25 0.625,-2.5 -1.6e-4,-0.83281 -0.625,-1.66641 -1.875,-2.5 -0.83438,3.1e-4 -1.25,0.20937 -1.25,0.625 l -1.25,6.25 m -6.875,-5 -21.25,9.375 -3.75,1.25 c -5.00016,2.08359 -7.50016,5.62531 -7.5,10.625 l 0,3.125 0.625,38.125 -0.625,64.375 3.125,4.375 3.125,1.875 c 7.08312,4.58344 13.33312,6.87516 18.75,6.875 7.08312,1.6e-4 10.62484,-3.74984 10.625,-11.25 l 0,-88.125 c 1.25,-6.66641 3.54141,-9.99969 6.875,-10 l 160,0 0,-2.5 c -3.1e-4,-5.41641 -1.45938,-11.04141 -4.375,-16.875 l -148.125,0.625 -9.375,-1.875 c -2.91688,-2.49969 -4.37516,-5.83313 -4.375,-10 l -3.75,0 m -41.875,20 c -14.16672,11.25031 -21.25016,22.50031 -21.25,33.75 -1.6e-4,3.75016 0.20781,6.25016 0.625,7.5 2.91656,3.75016 6.24984,6.66687 10,8.75 l 0,-5 c 4.16656,0.83281 6.45812,1.25 6.875,1.25 6.66656,1.6e-4 9.99984,-3.74984 10,-11.25 -1.6e-4,-5.41641 -2.08344,-8.12469 -6.25,-8.125 -1.66688,3.1e-4 -2.50016,0.625 -2.5,1.875 -1.6e-4,1.25 0.83281,2.08359 2.5,2.5 -1.6e-4,4.58359 -1.87516,6.87516 -5.625,6.875 -4.58344,1.6e-4 -6.87516,-2.70813 -6.875,-8.125 -1.6e-4,-10.41641 3.33328,-18.33313 10,-23.75 2.08312,-2.08313 3.12484,-3.54141 3.125,-4.375 -1.6e-4,-0.83281 -0.20781,-1.45781 -0.625,-1.875 m 281.875,12.5 -26.875,0.625 -8.75,-0.625 -1.875,6.25 57.5,0.625 0,-5.625 -20,-1.25 m -233.75,16.25 0,5 0.625,8.125 -0.625,19.375 0.625,6.875 0,11.875 -0.625,10.625 c 0.41719,0.41719 1.25,0.625 2.5,0.625 1.25,1.6e-4 1.87484,-0.41719 1.875,-1.25 l 0.625,-1.875 0.625,-66.875 1.875,-3.125 153.125,0 c 2.91625,3.1e-4 4.37469,-1.04063 4.375,-3.125 -3.1e-4,-1.25 -0.625,-1.87469 -1.875,-1.875 l -144.375,0 c -9.16688,3.1e-4 -14.37516,0.41719 -15.625,1.25 -1.25,0.83437 -1.87516,2.70859 -1.875,5.625 l 0,1.875 c -1.6e-4,0.83437 -0.20938,1.87531 -0.625,3.125 -1.6e-4,0.83437 -0.20938,2.08359 -0.625,3.75 m 11.25,-6.875 -2.5,5 5.625,0 c 17.91641,3.1e-4 35.41641,6.25031 52.5,18.75 l 0,-1.25 c 2.91641,-1.66641 4.37469,-3.54141 4.375,-5.625 -3.1e-4,-2.08313 -3.12531,-4.37484 -9.375,-6.875 l -15.625,-6.875 c -0.41719,-0.41563 -3.33359,-1.25 -8.75,-2.5 l -26.25,-0.625 m 117.5,0 -8.125,0.625 5.625,6.25 10.625,15.625 1.875,4.375 3.75,8.125 1.875,3.75 c 2.08297,5.83359 3.54141,11.04187 4.375,15.625 1.25,4.58359 2.08297,8.54187 2.5,11.875 l 0.625,6.875 0,13.75 c -3.1e-4,7.08344 -1.04219,16.45844 -3.125,28.125 6.24969,-1.25 9.58297,-5.83313 10,-13.75 l 0.625,-16.25 c 0.41562,-36.24984 -9.79203,-64.58313 -30.625,-85 m 48.75,1.875 c -20.83375,0.83437 -31.25031,3.95859 -31.25,9.375 -3.1e-4,2.08359 0.83281,3.12516 2.5,3.125 0.83281,-0.41719 2.49969,-0.83281 5,-1.25 2.49969,-0.83281 5.83297,-1.87469 10,-3.125 4.16625,-0.83281 8.74969,-1.25 13.75,-1.25 5.83297,3.1e-4 9.99969,0.625 12.5,1.875 10.41625,5.41687 16.24953,8.12516 17.5,8.125 0.83281,1.6e-4 1.25,-0.83281 1.25,-2.5 -4.7e-4,-6.24969 -6.04203,-10.41641 -18.125,-12.5 l -13.125,-1.875 m -85.625,5.625 c -1.66688,2.91687 -2.50031,5.20859 -2.5,6.875 -3.1e-4,7.08359 1.66641,14.58359 5,22.5 0.83281,1.25 1.45781,3.12516 1.875,5.625 0.83281,2.08359 1.66641,3.12516 2.5,3.125 1.25,1.6e-4 1.87469,-0.83281 1.875,-2.5 -3.1e-4,-2.08313 -0.83438,-5.62484 -2.5,-10.625 -1.66688,-4.99984 -2.50031,-8.54141 -2.5,-10.625 -3.1e-4,-6.66641 2.91641,-9.99984 8.75,-10 0.41562,1.6e-4 1.25,0.20937 2.5,0.625 1.25,1.6e-4 2.91641,0.20937 5,0.625 l -2.5,-8.125 -1.25,-0.625 -7.5,-1.875 -1.25,0 -0.625,0.625 -6.875,4.375 m 234.375,-4.375 -11.25,5 -2.5,1.25 c -3.75047,2.91687 -6.04219,6.25016 -6.875,10 l 0,3.125 0,4.375 0.625,6.25 4.375,2.5 c 0.83281,-1.25 1.87453,-2.49984 3.125,-3.75 1.25,-1.25 2.29109,-2.29141 3.125,-3.125 l 1.875,0 2.5,6.25 c 2.91609,3.75016 6.24953,5.62516 10,5.625 1.25,1.6e-4 4.58281,-2.08313 10,-6.25 0.83281,-0.83281 2.91609,-2.29141 6.25,-4.375 -3.33391,-2.49984 -6.45891,-3.74984 -9.375,-3.75 -3.75047,1.6e-4 -6.25047,0.20937 -7.5,0.625 -3.33391,-3.33313 -5.00047,-5.83313 -5,-7.5 -4.7e-4,-4.99984 3.33281,-7.49984 10,-7.5 1.66609,1.6e-4 5.20781,1.04219 10.625,3.125 l 3.125,3.125 2.5,3.125 c 2.08281,5.41687 3.12453,9.16687 3.125,11.25 -4.7e-4,6.66687 -3.75047,14.37516 -11.25,23.125 l -5,2.5 c -4.16719,0.41719 -6.25047,1.45781 -6.25,3.125 -4.7e-4,1.25 0.625,2.70844 1.875,4.375 17.91609,-4.16641 26.87453,-15.41641 26.875,-33.75 -4.7e-4,-13.74984 -7.50047,-22.91641 -22.5,-27.5 l -12.5,-1.25 m -249.375,-0.625 0,6.25 c 0.41562,8.33359 -4.58359,15.83359 -15,22.5 l -4.375,4.375 -11.875,7.5 c -8.33359,5.83359 -12.50016,14.16687 -12.5,25 -1.6e-4,0.83281 -1.6e-4,2.08344 0,3.75 0.41719,1.25 0.83281,2.91687 1.25,5 l 0.625,3.75 c 2.49984,8.33344 7.91641,12.50016 16.25,12.5 2.08312,1.6e-4 4.79141,-0.41719 8.125,-1.25 l 5.625,-3.125 5.625,-1.875 c 0.83281,0.83281 1.25,1.45781 1.25,1.875 -3.1e-4,1.66687 -1.66688,2.91687 -5,3.75 l -3.125,0.625 -8.75,3.125 -5.625,0 c -2.08359,-1.25 -3.75016,-1.87484 -5,-1.875 -0.83438,1.6e-4 -1.45781,0.20781 -1.875,0.625 9.16641,10.00016 20.20812,15.00016 33.125,15 l 16.875,-0.625 c 3.33312,1.6e-4 7.49969,0.83281 12.5,2.5 4.16641,1.66687 6.66641,5.20844 7.5,10.625 l 2.5,0 0.625,0 c 0.41719,-0.41719 1.25,-1.45781 2.5,-3.125 1.66641,-2.08328 2.49969,-4.99984 2.5,-8.75 l -1.875,-6.25 -5.625,-3.75 c 1.25,-1.66656 1.87469,-3.12484 1.875,-4.375 -3.1e-4,-3.33313 -3.54203,-5.41656 -10.625,-6.25 l -8.125,2.5 1.25,0 -5,1.25 -11.875,5 c -0.41719,0.41719 -1.45781,0.625 -3.125,0.625 -2.50031,1.6e-4 -3.75031,-1.04219 -3.75,-3.125 -3.1e-4,-1.25 1.25,-1.87484 3.75,-1.875 l 6.875,-0.625 c 2.91641,1.6e-4 5.83312,-1.04219 8.75,-3.125 3.33312,-2.49984 4.99969,-4.99984 5,-7.5 -3.1e-4,-1.66656 -1.25,-2.49984 -3.75,-2.5 l -1.875,0 c 7.08312,-4.99984 10.62469,-10.41656 10.625,-16.25 l 0,-3.125 c -3.1e-4,-2.08313 -0.20938,-3.74984 -0.625,-5 -3.33359,3.33359 -7.08359,5.41687 -11.25,6.25 l -12.5,0 c -1.25,4.16687 -3.54188,6.25016 -6.875,6.25 l 3.125,-8.125 -5.625,0.625 -6.25,5.625 -4.375,8.125 c -1.25,2.08344 -2.70859,3.12516 -4.375,3.125 -1.66688,1.6e-4 -2.70859,-0.20781 -3.125,-0.625 -0.83281,-3.33313 -1.25,-4.99984 -1.25,-5 -3.1e-4,-3.74984 6.24969,-8.12484 18.75,-13.125 6.66641,-2.49984 11.04141,-5.41641 13.125,-8.75 2.08312,-3.33313 3.74969,-9.37484 5,-18.125 -2.91688,1.6e-4 -5.00031,1.04219 -6.25,3.125 l -2.5,-1.875 c 5.83312,-7.08313 8.74969,-12.70813 8.75,-16.875 -3.1e-4,-4.58313 -3.33359,-9.37469 -10,-14.375 m 159.375,1.875 c -4.16703,0.41719 -6.66703,1.87531 -7.5,4.375 l 0,4.375 c -1.25,-0.41563 -2.91703,-0.625 -5,-0.625 l -3.125,0 c -4.58375,1.6e-4 -8.75047,2.50016 -12.5,7.5 l -1.25,0 c -5.00031,1.6e-4 -7.50031,4.16687 -7.5,12.5 -3.1e-4,5.41687 1.66625,8.75016 5,10 l 10,4.375 1.25,1.875 0.625,0 c 1.25,1.6e-4 1.87453,-1.04063 1.875,-3.125 l 0,-0.625 0,-1.25 c -0.41719,-0.41719 -1.04219,-1.04063 -1.875,-1.875 -0.41719,-1.25 -1.45938,-2.70813 -3.125,-4.375 -2.08375,-2.08313 -3.12547,-4.58313 -3.125,-7.5 -4.7e-4,-6.66641 4.37453,-9.99984 13.125,-10 4.99953,1.6e-4 9.37453,2.50016 13.125,7.5 1.25,3.75016 1.87453,6.66687 1.875,8.75 -4.7e-4,0.83437 -1.04219,3.75016 -3.125,8.75 l -1.875,3.125 -7.5,6.25 -13.125,9.375 -3.125,3.125 -2.5,0.625 -6.875,7.5 -4.375,3.75 -6.25,8.125 -6.875,11.25 5,-5 13.125,-15 4.375,-3.75 30.625,-17.5 c 7.49953,-4.16641 11.24953,-11.87484 11.25,-23.125 -4.7e-4,-2.91641 -0.20938,-4.58313 -0.625,-5 l -8.75,-16.25 0.625,-7.5 -1.875,-0.625 m -216.25,5.625 c -5.00016,2.08359 -7.50016,5.00016 -7.5,8.75 -1.6e-4,4.58359 2.70812,6.66687 8.125,6.25 l 0.625,0 0,-1.25 c -0.41719,-6.66641 4.99984,-9.99984 16.25,-10 2.08312,1.6e-4 6.04141,0.625 11.875,1.875 -12.08359,-4.58313 -19.79188,-6.66641 -23.125,-6.25 l -3.125,0 -3.125,0.625 m 133.125,7.5 c 0.83281,2.08359 1.45781,3.12516 1.875,3.125 0.83281,-0.41719 2.49969,-1.04063 5,-1.875 2.49969,-0.83281 5.41625,-1.87484 8.75,-3.125 0.41562,-0.41719 2.91625,-0.625 7.5,-0.625 7.49969,1.6e-4 14.58297,2.08359 21.25,6.25 0.83281,-2.49984 1.25,-3.54141 1.25,-3.125 -3.1e-4,-2.91641 -4.58375,-5.20813 -13.75,-6.875 -0.83438,-0.41719 -3.95875,-0.625 -9.375,-0.625 -5.41703,3.1e-4 -10.62531,0.625 -15.625,1.875 -4.58375,0.83281 -6.87531,2.50016 -6.875,5 m -32.5,14.375 c -2.50031,-1.66641 -3.75031,-3.54141 -3.75,-5.625 -3.1e-4,-4.16641 2.08297,-6.24984 6.25,-6.25 2.91641,1.6e-4 6.45797,1.45781 10.625,4.375 -3.75031,-7.08313 -7.91703,-10.62484 -12.5,-10.625 -7.50031,1.6e-4 -11.25031,3.12516 -11.25,9.375 -3.1e-4,6.25016 2.70797,9.37516 8.125,9.375 l 2.5,-0.625 m 56.875,-14.375 -6.875,1.25 1.25,3.75 -1.25,0.625 c -2.08375,-3.33313 -3.54203,-4.99984 -4.375,-5 0.41562,1.6e-4 -1.04219,0.41719 -4.375,1.25 l 1.25,2.5 1.875,3.75 1.875,1.25 0.625,3.125 8.75,-1.25 10,2.5 4.375,-6.25 2.5,-3.125 -4.375,-2.5 c -0.83438,3.33359 -1.66703,5.00016 -2.5,5 l -1.875,0 c 1.25,-1.66641 1.87469,-3.12484 1.875,-4.375 -3.1e-4,-0.41719 -0.625,-0.83281 -1.875,-1.25 -1.25,-0.83281 -2.08375,-1.25 -2.5,-1.25 -0.83438,1.6e-4 -1.25,1.45781 -1.25,4.375 l -3.125,0 0,-4.375 m -141.875,0 -3.75,2.5 -3.125,5 -3.75,4.375 -3.125,5.625 -0.625,-11.25 -1.875,9.375 -4.375,-3.125 -3.75,9.375 c -0.41719,2.08359 -0.83438,3.75016 -1.25,5 -1.6e-4,1.25 -1.6e-4,2.08359 0,2.5 -1.6e-4,2.08359 1.25,4.79187 3.75,8.125 2.91641,3.33359 6.87484,5.83359 11.875,7.5 -1.66688,-2.91641 -2.50016,-5.41641 -2.5,-7.5 -1.6e-4,-1.66641 0.83281,-2.49984 2.5,-2.5 1.25,1.6e-4 1.87484,1.66687 1.875,5 l 0,1.25 c 0.83281,-3.74984 1.04062,-5.83313 0.625,-6.25 l 0,-3.125 c -1.6e-4,-3.33313 0.83281,-4.99984 2.5,-5 0.83281,1.6e-4 1.25,0.41719 1.25,1.25 -1.6e-4,2.50016 -0.20781,4.37516 -0.625,5.625 l 0.625,3.75 c 2.91641,-3.33313 5.41641,-7.29141 7.5,-11.875 0.83281,-3.33313 1.25,-6.45813 1.25,-9.375 -1.6e-4,-4.99984 -1.66688,-10.41641 -5,-16.25 m -95.625,44.375 1.25,0.625 c -0.41719,0.83437 -0.625,2.50016 -0.625,5 -1.6e-4,0.41719 -1.6e-4,1.25 0,2.5 0.41719,0.83281 0.83281,2.29187 1.25,4.375 l 2.5,7.5 c 6.66656,13.75016 15.62484,22.29187 26.875,25.625 l 10,2.5 5,0.625 0,-0.625 c -1.6e-4,1.25 -1.87516,-0.41719 -5.625,-5 l 3.75,-3.125 c -3.33344,-0.41719 -6.45844,-1.04219 -9.375,-1.875 -2.50016,-1.25 -5.20844,-2.70813 -8.125,-4.375 l -5,-3.75 c -8.33344,-8.33313 -12.50016,-18.74984 -12.5,-31.25 -1.6e-4,-4.16641 0.625,-7.91641 1.875,-11.25 l 6.25,-13.125 -0.625,-5 -0.625,-5.625 -5.625,9.375 -3.75,6.875 -3.125,5.625 -0.625,3.75 -2.5,6.25 -0.625,4.375 m 223.75,-20.625 1.875,2.5 1.25,0.625 c 2.49969,-3.74984 6.24969,-5.62484 11.25,-5.625 2.49969,1.6e-4 4.79125,0.625 6.875,1.875 l 5,5 c 1.66625,1.6e-4 2.49969,-1.45781 2.5,-4.375 -3.1e-4,-4.99984 -3.12531,-8.12484 -9.375,-9.375 l -3.75,-0.625 0.625,-0.625 -1.875,0 0,-0.625 -0.625,0 0,0.625 -6.25,0.625 c -4.58375,1.6e-4 -7.08375,3.33359 -7.5,10 m -236.25,-9.375 c -1.66672,1.66687 -2.50016,3.95859 -2.5,6.875 -1.6e-4,1.6e-4 -1.6e-4,0.20937 0,0.625 0.41719,0.41719 0.83281,1.04219 1.25,1.875 1.66656,3.75016 4.16656,5.62516 7.5,5.625 4.99984,1.6e-4 8.74984,-3.95813 11.25,-11.875 -4.58344,3.33359 -8.12516,5.00016 -10.625,5 -4.16672,1.6e-4 -6.45844,-2.70813 -6.875,-8.125 m 191.875,3.75 c -2.08359,0.83281 -3.12531,2.08359 -3.125,3.75 -3.1e-4,2.91687 1.87469,4.37516 5.625,4.375 3.33297,1.6e-4 4.99969,-1.45781 5,-4.375 -3.1e-4,-2.49984 -2.08359,-3.74984 -6.25,-3.75 l -1.25,0 m -30.625,1.25 0,4.375 -2.5,6.875 3.125,6.25 c 4.16641,-1.25 6.24969,-2.70813 6.25,-4.375 -3.1e-4,-4.16641 -2.29188,-8.54141 -6.875,-13.125 m 43.75,5 c 1.66641,2.50016 3.54141,3.75016 5.625,3.75 1.66641,1.6e-4 2.49969,-1.04219 2.5,-3.125 -3.1e-4,-3.33313 -1.04219,-4.99984 -3.125,-5 l -4.375,-0.625 -0.625,5 m 43.125,-0.625 c -4.16703,0.41719 -6.25031,2.29187 -6.25,5.625 l 0,2.5 c 3.74969,-1.25 6.45797,-1.87484 8.125,-1.875 2.91625,1.6e-4 5.83297,0.83281 8.75,2.5 0.41562,-1.25 0.625,-2.08313 0.625,-2.5 0.41562,-0.83281 0.625,-1.25 0.625,-1.25 -3.1e-4,-3.74984 -3.33375,-5.62484 -10,-5.625 l -1.25,0 -0.625,0.625 m -46.25,3.125 c -1.66703,0.41719 -2.50031,1.87516 -2.5,4.375 -3.1e-4,3.75016 1.45781,5.62516 4.375,5.625 2.91641,1.6e-4 4.37469,-1.45781 4.375,-4.375 -3.1e-4,-3.74984 -1.87531,-5.62484 -5.625,-5.625 l -0.625,0 m -34.375,8.75 -5,4.375 2.5,1.25 c 4.99969,-3.74984 8.74969,-6.04141 11.25,-6.875 2.49969,-0.83281 6.04141,-1.25 10.625,-1.25 l 8.75,0 c -0.83438,-3.74984 -2.91703,-5.62484 -6.25,-5.625 -7.91703,1.6e-4 -15.20859,2.70859 -21.875,8.125 m 231.875,-6.875 c -0.41719,3.75016 -2.70891,6.66687 -6.875,8.75 -3.75047,2.08359 -7.08391,3.12516 -10,3.125 l -4.375,-0.625 0,11.25 5,0 8.125,2.5 1.25,0 c 6.24953,1.6e-4 9.37453,-2.08313 9.375,-6.25 l -0.625,-0.625 -1.875,-3.75 6.875,-3.75 c 0.41562,-0.41563 0.625,-0.83281 0.625,-1.25 -4.7e-4,-0.83281 0.20781,-1.45781 0.625,-1.875 -4.7e-4,-3.33313 -2.70891,-5.83313 -8.125,-7.5 m -188.75,9.375 c 1.66641,1.25 2.91641,1.87516 3.75,1.875 1.66641,1.6e-4 2.49969,-1.45781 2.5,-4.375 -3.1e-4,-2.91641 -1.04219,-4.37484 -3.125,-4.375 -2.08359,1.6e-4 -3.12531,1.66687 -3.125,5 l 0,1.875 m 33.125,-3.125 -0.625,8.75 -5.625,32.5 c -0.41719,0.83281 -1.45938,3.75016 -3.125,8.75 -1.25,5.00016 -1.87531,8.12516 -1.875,9.375 -3.1e-4,1.25 0.625,3.33344 1.875,6.25 l 3.125,2.5 1.875,-5 3.75,-11.875 4.375,-13.125 5.625,-28.125 1.25,-6.25 c 0.41562,-0.41719 0.625,-1.45781 0.625,-3.125 -3.1e-4,-1.66641 -1.04219,-2.49984 -3.125,-2.5 l -1.875,0.625 -6.25,1.25 m -51.25,1.25 c -3.75031,1.6e-4 -5.62531,1.45781 -5.625,4.375 -3.1e-4,2.08359 1.87469,3.12516 5.625,3.125 3.33297,1.6e-4 4.99969,-1.66641 5,-5 -3.1e-4,-2.08313 -1.45781,-3.12484 -4.375,-3.125 l -0.625,0.625 m 61.25,28.75 c 4.99969,-13.33313 10.62469,-19.99984 16.875,-20 0.83281,1.6e-4 1.87469,0.83437 3.125,2.5 1.25,-1.25 1.87469,-2.49984 1.875,-3.75 -3.1e-4,-3.33313 -2.08375,-4.99984 -6.25,-5 -2.91703,1.6e-4 -5.20875,1.45781 -6.875,4.375 l -4.375,6.25 -1.875,2.5 0,3.125 -1.875,4.375 -0.625,5.625 m 33.125,-10.625 -6.25,3.125 -3.125,2.5 -8.75,9.375 -10.625,11.875 -6.25,10 -4.375,6.25 -5,8.75 -1.25,3.75 -1.875,1.875 0,6.875 0,7.5 3.75,-6.25 6.25,-13.75 8.125,-12.5 13.125,-16.25 10.625,-11.25 7.5,-5 7.5,-5 c 4.58297,-3.33313 9.58297,-4.99984 15,-5 8.33297,-0.83281 12.29125,-2.70813 11.875,-5.625 l 0,-3.125 0,-3.75 -1.25,0 -6.875,1.875 -15.625,5.625 -4.375,3.125 -4.375,1.25 -3.75,3.75 m -83.75,-13.75 c -1.25,0.41719 -2.50031,1.25 -3.75,2.5 l 0,1.25 c -3.1e-4,2.50016 1.25,3.75016 3.75,3.75 4.16641,1.6e-4 6.24969,-1.45781 6.25,-4.375 -3.1e-4,-2.08313 -1.87531,-3.12484 -5.625,-3.125 l -0.625,0 m 221.875,3.75 c -2.50047,0.83437 -3.75047,1.87516 -3.75,3.125 -4.7e-4,2.91687 1.25,4.37516 3.75,4.375 2.49953,1.6e-4 3.74953,-1.25 3.75,-3.75 -4.7e-4,-1.66656 -1.25,-2.91641 -3.75,-3.75 m -348.125,15.625 c 1.25,1.66687 3.12484,2.50016 5.625,2.5 l 1.25,0 0.625,1.875 c -5.00016,1.6e-4 -8.54188,1.66687 -10.625,5 -1.66688,3.33344 -2.91688,5.83344 -3.75,7.5 -0.41719,1.66687 -0.625,2.50016 -0.625,2.5 l -10,9.375 2.5,1.875 c 2.91656,2.91687 6.87484,4.37516 11.875,4.375 4.16641,1.6e-4 9.16641,-1.66656 15,-5 l 2.5,0 c -1.25,4.16687 -3.54188,7.91687 -6.875,11.25 l 9.375,1.875 c 12.49984,-2.91656 18.74984,-9.99984 18.75,-21.25 l 0,-1.25 c -2.08359,-4.58313 -5.41688,-6.87484 -10,-6.875 l -1.875,0 -9.375,3.125 1.25,-0.625 -2.5,0.625 0,-0.625 c -1.6e-4,-1.66656 1.66641,-2.91656 5,-3.75 5.41641,-1.25 8.12484,-4.99984 8.125,-11.25 -1.6e-4,-2.91656 -2.50016,-4.79156 -7.5,-5.625 l 0,-1.25 5,-1.25 -3.75,-5 -3.125,-1.25 0,-0.625 -3.75,0.625 -5,1.25 -1.875,1.25 -2.5,1.875 -1.875,2.5 -3.125,2.5 1.25,3.75 m 353.75,-8.125 c -2.08391,2.08344 -3.12547,3.75016 -3.125,5 -4.7e-4,2.08344 1.25,3.12516 3.75,3.125 l 3.125,-1.25 1.25,-2.5 0.625,-1.25 -0.625,-0.625 -1.25,-2.5 -3.75,0 m -52.5,1.25 -0.625,8.125 c 3.74953,2.08344 9.37453,6.45844 16.875,13.125 3.74953,4.58344 5.62453,8.75016 5.625,12.5 -4.7e-4,5.41687 -2.08391,10.20844 -6.25,14.375 -4.16719,0.83281 -6.04219,1.25 -5.625,1.25 -2.50047,1.6e-4 -3.75047,-1.04219 -3.75,-3.125 l 8.125,-8.125 c 0.41562,-0.41719 0.625,-1.45781 0.625,-3.125 -4.7e-4,-4.99984 -2.08391,-7.49984 -6.25,-7.5 -0.41719,1.6e-4 -2.29219,0.41719 -5.625,1.25 2.49953,2.08344 3.74953,3.95844 3.75,5.625 -4.7e-4,2.50016 -1.87547,5.83344 -5.625,10 l 0,3.75 c -0.41719,6.66672 3.33281,10.00016 11.25,10 4.58281,1.6e-4 8.33281,-2.70828 11.25,-8.125 l 1.25,-8.125 0.625,0 c 2.49953,1.6e-4 4.16609,-0.41719 5,-1.25 l 0.625,-3.75 0,-3.125 -0.625,-11.875 c -0.41719,-7.91656 -6.25047,-13.54156 -17.5,-16.875 l 1.25,-1.25 -5.625,-1.25 -8.75,-2.5 m -180.625,0.625 c 0.41719,2.91687 1.87469,5.20844 4.375,6.875 l 0,0.625 c -8.75031,0.83281 -13.12531,5.41687 -13.125,13.75 -3.1e-4,2.91687 1.87469,5.62516 5.625,8.125 1.25,1.25 2.29141,1.87516 3.125,1.875 0.41719,1.6e-4 1.04062,-0.41719 1.875,-1.25 -0.83438,-0.83281 -1.66703,-2.08313 -2.5,-3.75 -0.41719,-1.66656 -0.625,-2.49984 -0.625,-2.5 -3.1e-4,-4.16656 2.70797,-6.24984 8.125,-6.25 3.74969,1.6e-4 7.08297,2.70844 10,8.125 1.66641,3.33344 2.49969,6.45844 2.5,9.375 -3.1e-4,3.33344 -0.83438,6.87516 -2.5,10.625 l 0,1.875 c 4.16641,-1.25 6.24969,-7.49984 6.25,-18.75 -3.1e-4,-15.41656 -7.70859,-24.99984 -23.125,-28.75 m 201.875,3.125 0.625,1.25 c 5.41609,0.83281 9.37453,1.66687 11.875,2.5 2.91609,0.41719 4.37453,0.625 4.375,0.625 4.16609,1.6e-4 6.24953,-1.45781 6.25,-4.375 -4.7e-4,-1.66656 -1.25,-2.49984 -3.75,-2.5 l -5.625,0.625 -13.75,1.875 m -225,0.625 -3.125,3.125 c 1.66641,1.66687 2.49969,3.33344 2.5,5 -3.1e-4,0.41719 -1.04219,2.29187 -3.125,5.625 3.33297,1.6e-4 4.99969,-1.04219 5,-3.125 l 0,-2.5 c -0.41719,-0.41719 -0.625,-1.45781 -0.625,-3.125 -3.1e-4,-2.08313 -0.20938,-3.74984 -0.625,-5 m 121.25,3.125 -11.25,5.625 c 10.41625,-1.25 15.20797,-1.87484 14.375,-1.875 8.33297,1.6e-4 12.49953,3.33344 12.5,10 -4.7e-4,6.66687 -2.91703,9.58344 -8.75,8.75 l -3.75,0 0,1.25 c -4.7e-4,1.66687 2.49953,2.50016 7.5,2.5 7.49953,1.6e-4 11.24953,-4.37484 11.25,-13.125 -4.7e-4,-9.99984 -5.41703,-14.58313 -16.25,-13.75 l -5.625,0.625 m 125.625,5.625 c 1.66609,2.50016 3.33281,3.75016 5,3.75 2.08281,1.6e-4 3.12453,-1.25 3.125,-3.75 -4.7e-4,-3.33313 -1.25,-4.99984 -3.75,-5 -2.08391,1.6e-4 -3.54219,1.66687 -4.375,5 m -16.25,-2.5 8.75,11.25 c 5.83281,4.58344 9.79109,6.87516 11.875,6.875 4.16609,1.6e-4 6.66609,-1.25 7.5,-3.75 l 0,-2.5 -7.5,1.25 -5.625,-1.875 -3.125,-1.875 c -1.66719,-1.66656 -3.54219,-3.12484 -5.625,-4.375 -2.08391,-1.66656 -4.16719,-3.33313 -6.25,-5 m 8.125,11.875 5,20 c 2.91609,6.25016 4.37453,11.87516 4.375,16.875 -4.7e-4,5.83344 -1.04219,11.25016 -3.125,16.25 l -4.375,8.125 -1.25,2.5 -3.125,2.5 -1.25,2.5 -3.75,2.5 -5.625,5 -8.125,3.125 c -0.83438,0.83281 -1.25,1.45781 -1.25,1.875 -4.7e-4,0.83281 1.04062,1.66672 3.125,2.5 l 4.375,2.5 1.25,0 c 3.74953,0 7.08281,-2.08328 10,-6.25 0.83281,-1.25 1.66609,-2.29156 2.5,-3.125 0.83281,-0.83281 1.45781,-1.45781 1.875,-1.875 2.08281,-1.66656 3.54109,-2.91656 4.375,-3.75 1.25,-1.25 2.08281,-2.08328 2.5,-2.5 l 0.625,-3.125 6.25,-13.75 c 1.25,-1.66656 1.87453,-7.29156 1.875,-16.875 -4.7e-4,-10.83328 -3.75047,-20.62484 -11.25,-29.375 l -5,-5.625 m -126.875,5.625 -0.625,5 c -2.08375,-0.41719 -3.75047,-0.625 -5,-0.625 -1.25,-0.41719 -2.29203,-0.625 -3.125,-0.625 -6.25031,1.6e-4 -10.20875,4.58344 -11.875,13.75 0.83281,5.00016 3.54125,8.54172 8.125,10.625 -1.25,-2.91656 -1.87531,-5.20828 -1.875,-6.875 -3.1e-4,-6.66656 3.74969,-9.99984 11.25,-10 2.08297,1.6e-4 4.79125,1.04219 8.125,3.125 3.74953,4.58344 5.62453,9.79172 5.625,15.625 l 0,9.375 1.875,-6.25 3.125,-8.75 c 0.41562,-0.83281 0.625,-2.91656 0.625,-6.25 -4.7e-4,-9.99984 -5.41703,-16.04156 -16.25,-18.125 m 13.75,56.25 c 2.08297,5.41672 5.20797,10.83344 9.375,16.25 3.33297,-0.83281 4.99953,-2.29156 5,-4.375 l -0.625,-0.625 c -1.25,-1.66656 -3.12547,-4.37484 -5.625,-8.125 -2.08375,-4.16656 -3.12547,-8.74984 -3.125,-13.75 -4.7e-4,-7.49984 2.70797,-13.95828 8.125,-19.375 5.83297,-5.83328 12.49953,-8.74984 20,-8.75 9.99953,1.6e-4 14.99953,5.00016 15,15 -4.7e-4,2.50016 -1.45938,5.20844 -4.375,8.125 l -1.875,0.625 c 0.41562,1.25 1.04062,1.87516 1.875,1.875 3.74953,1.6e-4 7.29125,-2.29156 10.625,-6.875 1.25,-2.49984 1.87453,-5.41656 1.875,-8.75 -4.7e-4,-4.16656 -2.50047,-8.54156 -7.5,-13.125 l -0.625,-1.875 c 4.58281,-2.08313 6.87453,-3.33313 6.875,-3.75 -4.7e-4,-1.25 -2.29219,-2.49984 -6.875,-3.75 -4.58375,-1.66656 -7.70875,-2.49984 -9.375,-2.5 -11.25047,1.6e-4 -20.83375,4.58344 -28.75,13.75 -7.91703,8.75016 -11.87547,19.37516 -11.875,31.875 -4.7e-4,2.50016 0.625,5.20844 1.875,8.125 m -181.25,-50.625 2.5,6.875 1.25,2.5 -2.5,1.25 c -0.83281,-1.66656 -1.45781,-2.91656 -1.875,-3.75 -0.41719,-0.83281 -0.83438,-1.66656 -1.25,-2.5 -2.08359,1.6e-4 -3.12516,2.70844 -3.125,8.125 -1.6e-4,1.25 -1.6e-4,2.50016 0,3.75 0.41719,1.25 0.83281,2.70844 1.25,4.375 2.08312,2.50016 5.41641,4.79172 10,6.875 l 0.625,-5.625 5,3.75 c 3.74969,1.25 6.66641,1.87516 8.75,1.875 4.58312,1.6e-4 6.45812,-1.04219 5.625,-3.125 -3.1e-4,-2.91656 -1.45781,-5.83328 -4.375,-8.75 -4.16688,-4.99984 -6.66688,-7.91656 -7.5,-8.75 -0.83438,-0.83281 -3.33359,-2.29156 -7.5,-4.375 0.41719,2.08344 1.66641,4.58344 3.75,7.5 -3.1e-4,1.25 -0.41719,1.87516 -1.25,1.875 -0.83438,1.6e-4 -1.25,-0.20781 -1.25,-0.625 l -5,-8.125 -3.125,-3.125 m -85,1.875 0.625,34.375 0,5.625 c -3.75016,21.66672 -15.41688,34.16672 -35,37.5 l -8.125,1.25 c -2.91672,0.41719 -4.37516,1.45781 -4.375,3.125 -1.6e-4,2.5 3.33328,4.375 10,5.625 2.08328,0.41719 3.95828,0.83281 5.625,1.25 1.66656,0 2.91656,0 3.75,0 l 0.625,0 43.75,-2.5 28.125,2.5 22.5,1.25 10.625,0.625 c 4.99984,-0.41719 7.49984,-2.5 7.5,-6.25 -1.6e-4,-1.66656 -0.41719,-2.5 -1.25,-2.5 l -19.375,-4.375 c -0.83438,-0.41719 -2.29188,-0.83281 -4.375,-1.25 -2.08359,-0.83281 -4.79188,-1.66656 -8.125,-2.5 l -6.25,-6.875 -2.5,-3.125 c -5.83359,-11.24984 -8.54188,-19.79156 -8.125,-25.625 l 0,-3.125 0,-3.125 c 0.41719,-1.25 0.625,-3.12484 0.625,-5.625 l 0,-8.75 0,-7.5 -5.625,0 -11.25,-0.625 -8.125,-3.125 c -4.58344,-1.25 -8.33344,-3.33313 -11.25,-6.25 m 379.375,3.75 1.25,16.25 c 0.41562,1.66672 0.625,3.12516 0.625,4.375 -4.7e-4,0.83281 -4.7e-4,1.66672 0,2.5 l 0,1.25 c -4.7e-4,6.66672 -3.54219,12.29172 -10.625,16.875 -2.08391,1.25 -4.79219,1.87516 -8.125,1.875 -7.50047,1.6e-4 -11.25047,-2.91656 -11.25,-8.75 -4.7e-4,-2.08328 2.49953,-5.41656 7.5,-10 l -1.875,0 c -3.33391,1.6e-4 -6.66719,1.66672 -10,5 -1.25,2.08344 -1.87547,4.58344 -1.875,7.5 -4.7e-4,10.00016 5.41609,15.00016 16.25,15 6.66609,1.6e-4 12.29109,-3.12484 16.875,-9.375 4.99953,-6.24984 7.49953,-13.74984 7.5,-22.5 -4.7e-4,-7.91656 -2.08391,-14.58313 -6.25,-20 m -56.875,0.625 -3.75,2.5 3.125,3.75 1.875,0 c 0.41562,-0.41719 0.625,-1.04219 0.625,-1.875 -4.7e-4,-0.83281 -0.625,-2.29156 -1.875,-4.375 m -333.75,13.125 c -2.50016,2.50016 -4.79188,3.75016 -6.875,3.75 0.41719,1.6e-4 -2.91672,-1.04219 -10,-3.125 l -2.5,0 c -0.41719,1.6e-4 -0.625,0.20781 -0.625,0.625 -1.6e-4,1.66672 1.45781,3.33344 4.375,5 l 5.625,3.75 6.875,-0.625 3.125,0.625 c 4.58312,-0.83281 6.87484,-4.99984 6.875,-12.5 -1.6e-4,-6.24984 -1.66688,-9.37484 -5,-9.375 l -1.875,0 1.25,8.125 -1.25,3.75 m 138.75,-10.625 -1.875,5.625 -9.375,12.5 -6.875,6.875 c 2.91641,1.66672 5.41641,2.50016 7.5,2.5 1.66641,1.6e-4 3.54141,-1.66656 5.625,-5 1.25,-1.66656 3.74969,-4.79156 7.5,-9.375 3.74969,-4.99984 5.62469,-9.16656 5.625,-12.5 -3.1e-4,-0.83281 -0.83438,-1.25 -2.5,-1.25 -2.91688,1.6e-4 -4.79188,0.20781 -5.625,0.625 m -88.125,3.125 0.625,36.875 3.75,11.25 2.5,3.75 3.125,4.375 2.5,2.5 5,3.75 0,-1.25 c -1.6e-4,-0.83281 -1.25,-2.29156 -3.75,-4.375 -6.66688,-5 -10.00016,-15.83328 -10,-32.5 -1.6e-4,-3.33328 -1.6e-4,-6.87484 0,-10.625 0.41562,-4.16656 0.83281,-8.54156 1.25,-13.125 l -5,-0.625 m 133.125,15.625 c -0.83438,1.25 -1.87531,3.54172 -3.125,6.875 -1.25,3.33344 -2.08359,5.00016 -2.5,5 -1.25,1.6e-4 -1.87531,-0.20781 -1.875,-0.625 l -1.875,-10.625 -5,2.5 c -6.25031,5.83344 -10.00031,18.33344 -11.25,37.5 -3.1e-4,2.5 -1.04219,4.375 -3.125,5.625 l 1.25,-1.25 -3.125,-0.625 0.625,-5 0.625,-6.25 0,-3.125 c -3.1e-4,-6.24984 -2.08359,-11.45828 -6.25,-15.625 -1.25,-2.49984 -3.95859,-3.74984 -8.125,-3.75 l -4.375,-0.625 -0.625,3.125 c -3.1e-4,0.83281 0.83281,2.08344 2.5,3.75 l 0,1.25 c -3.1e-4,1.25 -0.625,1.87516 -1.875,1.875 l -1.875,-2.5 -4.375,-3.125 -2.5,-3.125 -4.375,-0.625 -9.375,-0.625 -5,2.5 -3.75,0.625 0,2.5 1.25,2.5 0.625,1.25 5.625,3.125 -1.25,1.875 c -1.25,1.6e-4 -2.08359,-0.20781 -2.5,-0.625 l -3.75,0 -4.375,-0.625 c -7.50016,1.6e-4 -11.25016,3.95844 -11.25,11.875 -1.6e-4,0.41719 -1.6e-4,1.25 0,2.5 0.41719,1.25 0.83281,2.91672 1.25,5 l 2.5,1.875 c 3.33312,-5.83328 6.87469,-8.74984 10.625,-8.75 7.49969,1.6e-4 13.74969,3.75 18.75,11.25 0.41719,1.25 1.66641,2.91672 3.75,5 l 2.5,5 c 0.83281,3.33344 3.12469,8.125 6.875,14.375 l 1.875,2.5 3.75,3.125 c 4.16641,3.75 7.70812,5.625 10.625,5.625 7.49969,0 12.29141,-1.25 14.375,-3.75 l 3.125,-4.375 5,-6.25 c 0.41562,-0.41719 1.66641,-3.54156 3.75,-9.375 2.08297,-4.58328 3.74969,-6.875 5,-6.875 0.83281,0 1.25,0.625 1.25,1.875 -0.41719,1.66672 -1.04219,3.95844 -1.875,6.875 -0.83438,2.91672 -3.33359,7.70844 -7.5,14.375 -2.50031,2.5 -3.75031,4.375 -3.75,5.625 -3.1e-4,1.66672 1.66641,2.5 5,2.5 -3.1e-4,0 1.66641,-0.41719 5,-1.25 l -4.375,-1.875 0,-2.5 8.125,2.5 0.625,1.875 -3.75,0 5.625,0.625 c 7.91641,0 14.16641,-2.29156 18.75,-6.875 l 10.625,-9.375 3.125,-1.875 20.625,-22.5 c 4.16625,-5.41656 9.79125,-8.12484 16.875,-8.125 4.16625,1.6e-4 6.24953,2.29172 6.25,6.875 l -0.625,4.375 c -1.66703,0.41719 -2.91703,0.83281 -3.75,1.25 -0.83438,0.41719 -1.66703,0.83281 -2.5,1.25 -10.83375,3.75 -19.16703,9.16672 -25,16.25 -3.33375,7.91672 -5.00031,14.375 -5,19.375 -3.1e-4,4.58344 2.70797,8.75 8.125,12.5 1.25,1.25 2.29125,1.875 3.125,1.875 l 9.375,1.875 -1.875,-3.125 0,-1.875 6.25,2.5 c 2.91625,1.25 6.04125,1.875 9.375,1.875 2.49953,0 4.79125,-0.625 6.875,-1.875 l 20,-13.125 c 3.33297,-2.08328 6.66625,-3.125 10,-3.125 4.99953,0 7.49953,1.875 7.5,5.625 l -0.625,0 -1.25,2.5 0,6.25 c 2.49953,2.91672 4.79125,4.375 6.875,4.375 2.08281,0 4.79125,-0.625 8.125,-1.875 l 1.25,0.625 3.75,-5.625 c 4.16625,-6.25 8.54125,-9.375 13.125,-9.375 0.83281,0 1.25,0.20781 1.25,0.625 l 3.125,5 1.25,0 c 0.83281,0 1.25,-0.41719 1.25,-1.25 l 0,-0.625 -1.25,-6.25 -0.625,0 c -2.91719,-1.66656 -5.41719,-2.5 -7.5,-2.5 -3.75047,0 -6.25047,0.83281 -7.5,2.5 l -9.375,10.625 c -1.25,1.66672 -2.70875,2.5 -4.375,2.5 -1.66719,0 -2.70875,-0.625 -3.125,-1.875 l -0.625,-1.25 0,-10.625 -5.625,-3.125 -11.25,0.625 -20.625,11.25 c -2.91703,1.66672 -5.83375,2.5 -8.75,2.5 -2.91703,0 -6.45875,-0.625 -10.625,-1.875 l -5,-2.5 c -3.75031,-5 -5.62531,-9.16656 -5.625,-12.5 -3.1e-4,-8.33328 2.29125,-13.75 6.875,-16.25 l 17.5,-10 c 1.25,-1.66656 2.49953,-3.33328 3.75,-5 1.25,-1.66656 2.70797,-3.54156 4.375,-5.625 l -0.625,-8.125 -0.625,-2.5 -4.375,-5.625 c -2.91703,-1.66656 -6.04203,-2.49984 -9.375,-2.5 -0.41719,1.6e-4 -3.75031,1.25 -10,3.75 l -3.75,-0.625 3.75,-6.25 0,-4.375 c -1.25,-0.41719 -3.75031,-0.625 -7.5,-0.625 -2.50031,1.6e-4 -5.83375,1.45781 -10,4.375 l -1.875,1.25 0,1.25 -4.375,5.625 -10.625,23.75 -4.375,5 c -2.91703,4.16672 -5.20875,6.25 -6.875,6.25 -3.1e-4,0 -0.41719,0 -1.25,0 -0.41719,-0.41719 -1.25,-0.83281 -2.5,-1.25 l 3.75,-5.625 6.25,-5.625 3.125,-5.625 2.5,-5 c 2.49969,-5.83328 3.74969,-9.16656 3.75,-10 0.41562,-1.25 0.83281,-3.54156 1.25,-6.875 l -1.875,0 c -2.08375,1.6e-4 -4.16703,2.29172 -6.25,6.875 l -1.25,0 1.25,-0.625 -2.5,0.625 c 2.08297,-8.33328 3.12469,-13.74984 3.125,-16.25 -3.1e-4,-15.41656 -2.50031,-23.12484 -7.5,-23.125 -0.83438,1.6e-4 -4.16703,1.66672 -10,5 l -6.875,4.375 -4.375,5 m -23.125,-10 -6.25,0.625 c -4.58359,2.08344 -8.54188,4.79172 -11.875,8.125 -0.83438,0.83281 -1.66688,1.87516 -2.5,3.125 -0.83438,1.25 -1.66688,2.50016 -2.5,3.75 -3.1e-4,1.25 1.04062,1.87516 3.125,1.875 1.25,1.6e-4 3.12469,-1.66656 5.625,-5 2.91641,-3.74984 6.04141,-5.41656 9.375,-5 l 2.5,0 1.25,7.5 c 2.91641,-2.91656 4.37469,-5.83328 4.375,-8.75 -3.1e-4,-1.66656 -1.45781,-2.49984 -4.375,-2.5 l 1.25,-3.75 m -87.5,0.625 -8.75,5.625 c -2.50016,3.33344 -3.75016,6.45844 -3.75,9.375 -1.6e-4,6.25016 2.29141,9.37516 6.875,9.375 l 4.375,-0.625 1.25,-1.875 c -4.16688,-1.25 -6.25016,-3.12484 -6.25,-5.625 -1.6e-4,-4.16656 2.29141,-6.24984 6.875,-6.25 -0.41719,1.6e-4 1.45781,0.41719 5.625,1.25 2.49984,3.33344 3.74984,5.83344 3.75,7.5 -1.6e-4,9.16672 -7.50016,13.75016 -22.5,13.75 -1.6e-4,3.33344 1.04062,4.58344 3.125,3.75 l 2.5,0 8.75,-0.625 10.625,-5 4.375,-3.75 0,-3.125 2.5,0 c 1.25,-0.41719 1.87484,-2.70828 1.875,-6.875 -1.6e-4,-6.24984 -2.70859,-11.24984 -8.125,-15 l -1.875,5.625 c -1.25,-2.49984 -3.12516,-4.37484 -5.625,-5.625 l -5.625,-1.875 m 150.625,23.75 c 6.66625,-9.99984 12.91625,-14.99984 18.75,-15 1.25,1.6e-4 3.12469,1.25 5.625,3.75 -1.25,-6.24984 -3.75031,-9.37484 -7.5,-9.375 -2.91703,1.6e-4 -5.62531,1.45781 -8.125,4.375 l -3.125,4.375 c -1.66703,2.08344 -2.91703,3.75016 -3.75,5 -0.83438,0.83281 -1.45938,1.45781 -1.875,1.875 l 0,2.5 0,2.5 m -241.25,-11.875 3.125,10 c 1.66656,1.25 2.91656,2.29172 3.75,3.125 1.25,0.83281 2.29156,1.66672 3.125,2.5 4.16656,3.75016 7.29156,5.62516 9.375,5.625 3.33312,1.6e-4 4.99984,-1.66656 5,-5 -1.6e-4,-0.83281 -2.29188,-2.29156 -6.875,-4.375 -0.41719,-0.41719 -1.25,-0.83281 -2.5,-1.25 -0.83281,-0.83281 -2.29188,-2.08328 -4.375,-3.75 l -10.625,-6.875 m 3.125,15.625 -0.625,3.125 c -1.6e-4,5.00016 2.70828,7.50016 8.125,7.5 l 6.25,3.75 2.5,-3.75 -16.25,-10.625 m 418.75,0 -5,11.875 -5.625,8.75 -4.375,3.75 -3.75,3.75 -3.75,3.125 c 2.49953,1.25 4.58281,1.875 6.25,1.875 1.66609,0 3.54109,-1.66656 5.625,-5 2.91609,-5.41656 5.20781,-9.79156 6.875,-13.125 1.66609,-3.33328 2.70781,-5.83328 3.125,-7.5 0.41562,-0.41719 0.625,-2.91656 0.625,-7.5 m -341.25,11.25 0,1.875 c -1.6e-4,1.25 0.625,2.50016 1.875,3.75 l 0.625,1.875 20.625,-3.125 2.5,-5.625 1.875,-4.375 -4.375,1.875 -10,1.25 -5,1.875 -8.125,0.625 m -30,35 -10.625,-0.625 c -1.66688,-0.41719 -3.75016,-0.41719 -6.25,0 -2.50016,0 -5.41688,0.20781 -8.75,0.625 -5.83344,0.41719 -10.62516,0.83281 -14.375,1.25 -3.33344,0 -5.83344,0 -7.5,0 -1.25,0 -3.54172,-0.20781 -6.875,-0.625 -2.91672,-0.83281 -7.08344,-1.66656 -12.5,-2.5 7.49984,5.83344 15.20828,8.54172 23.125,8.125 l 51.25,-1.875 c 2.49984,0 11.87484,0.625 28.125,1.875 3.33312,0.41719 6.45812,0.83281 9.375,1.25 3.33312,0 6.24984,0 8.75,0 9.99984,0 14.99969,-2.5 15,-7.5 -3.1e-4,-2.91656 -0.625,-4.375 -1.875,-4.375 l 0,1.25 c -3.1e-4,0.83281 -1.04219,1.875 -3.125,3.125 -2.08359,1.25 -6.66688,1.875 -13.75,1.875 l -5,0 -38.125,-2.5 -6.875,0.625 m 222.5,-1.875 c 0.41562,5.41672 6.24953,8.125 17.5,8.125 l 1.25,0 30,-0.625 20,-1.25 13.125,-0.625 c 1.25,0 3.74953,0.20781 7.5,0.625 3.74953,0 8.54125,0.20781 14.375,0.625 4.58281,0.41719 8.33281,0.83281 11.25,1.25 2.91609,0 5.20781,0 6.875,0 8.74953,0 13.74953,-2.29156 15,-6.875 -4.58391,1.25 -7.91719,1.875 -10,1.875 l -6.875,0 -5.625,0 -18.75,-0.625 -27.5,-0.625 -60,1.875 -8.125,-3.75 m -302.5,11.25 -1.25,6.25 1.25,1.875 c 2.08328,-4.58328 3.95828,-6.875 5.625,-6.875 2.08328,0 4.16656,1.875 6.25,5.625 l 1.25,1.25 5,0.625 c -1.66672,-9.16656 -5.62516,-13.75 -11.875,-13.75 -3.33344,0 -5.41672,1.66672 -6.25,5 m 51.25,10 0,6.25 c -3.33344,2.08328 -5.83344,3.125 -7.5,3.125 -2.91672,0 -4.79172,-1.66672 -5.625,-5 -0.83281,-3.75 -1.45781,-7.08328 -1.875,-10 -4.58344,-2.5 -8.95844,-3.75 -13.125,-3.75 l -2.5,0 0,1.25 c 7.91656,0.41719 11.87484,2.70844 11.875,6.875 l 0,11.25 c -1.6e-4,2.08328 3.33328,3.125 10,3.125 7.08312,0 11.87484,-2.5 14.375,-7.5 l 0,-1.25 -0.625,-8.125 c -1.6e-4,-2.5 3.12484,-3.75 9.375,-3.75 1.25,0 2.49984,1.25 3.75,3.75 -2.08344,2.08344 -3.12516,3.95844 -3.125,5.625 -1.6e-4,3.33328 1.25,5.20828 3.75,5.625 l 6.875,1.875 -3.125,3.75 0,1.25 c 2.49984,0.41719 4.58312,0.83281 6.25,1.25 2.08312,0 3.74984,0 5,0 14.16641,0 21.24984,-5.83328 21.25,-17.5 -1.6e-4,-3.75 -0.20938,-6.25 -0.625,-7.5 l -7.5,1.875 0,2.5 c 0.83281,4.58344 -1.87516,7.91672 -8.125,10 l -10.625,0 c -2.50016,-1.25 -3.75016,-2.5 -3.75,-3.75 l 0,-0.625 0.625,-0.625 0,-1.25 1.875,-3.125 c 0.41719,-0.41719 0.625,-1.04219 0.625,-1.875 -1.6e-4,-3.33328 -6.04188,-5 -18.125,-5 -6.66688,0 -10.00016,2.29172 -10,6.875 -1.6e-4,2.08344 0.20781,3.54172 0.625,4.375 m 358.75,-9.375 c -2.08391,3.33344 -3.12547,6.66672 -3.125,10 -4.7e-4,5 1.87453,8.75 5.625,11.25 0.83281,2.08328 2.29109,3.125 4.375,3.125 l 1.875,-8.125 c 6.24953,6.25 12.08281,9.375 17.5,9.375 9.99953,0 14.99953,-4.79172 15,-14.375 -4.7e-4,-4.16656 -1.45938,-7.08328 -4.375,-8.75 l -1.25,0 c -1.66719,0 -2.50047,0.625 -2.5,1.875 l 1.25,5 -1.25,1.25 -0.625,3.125 -3.125,2.5 -3.75,0.625 3.75,0 -9.375,-0.625 -5,-3.75 -4.375,-12.5 -10.625,0 m -286.875,2.5 -0.625,1.875 c -1.6e-4,2.08344 0.625,3.125 1.875,3.125 -0.41719,0 1.04062,-0.41719 4.375,-1.25 3.33312,2.08344 4.99984,4.16672 5,6.25 -1.6e-4,3.75 -3.12516,5.625 -9.375,5.625 -6.25016,0 -11.04188,-4.16672 -14.375,-12.5 l -1.875,0 1.25,0.625 -0.625,5.625 3.125,7.5 c 3.74984,3.75 7.91641,5.625 12.5,5.625 9.58312,0 14.37484,-4.58328 14.375,-13.75 -1.6e-4,-5 -2.50016,-7.5 -7.5,-7.5 -3.33359,0 -5.62516,0.20781 -6.875,0.625 l -1.25,-1.875 m 73.125,10.625 -17.5,-1.25 3.75,-1.875 c 2.91641,-0.41719 4.37469,-1.25 4.375,-2.5 -3.1e-4,-0.83281 -1.87531,-1.66656 -5.625,-2.5 l -8.125,-1.25 c -3.33359,-0.83281 -7.08359,0 -11.25,2.5 l -9.375,5 c 0.41562,1.25 2.29141,2.91672 5.625,5 5.41641,2.5 11.24969,3.75 17.5,3.75 9.99969,0 16.87469,-2.29172 20.625,-6.875 m -190,-8.125 c -2.91672,4.58344 -3.95844,8.54172 -3.125,11.875 l 0,4.375 c 3.33328,2.08328 5.41656,3.125 6.25,3.125 1.66656,0 3.95828,-0.83281 6.875,-2.5 l -1.875,-1.25 -2.5,0 -1.25,-0.625 -1.875,0.625 -0.625,0 c -1.25,0 -1.87516,-1.66672 -1.875,-5 -1.6e-4,-2.91656 0.83281,-5.83328 2.5,-8.75 l -2.5,-1.875 m 4.375,6.25 c -1.6e-4,4.58328 1.66656,6.875 5,6.875 8.33328,0 12.49984,-3.33328 12.5,-10 -1.6e-4,-1.66656 -0.83281,-2.5 -2.5,-2.5 -0.41719,0 -1.25,1.25 -2.5,3.75 -1.25,2.08344 -3.33344,3.125 -6.25,3.125 -1.6e-4,0 -2.08344,-0.41719 -6.25,-1.25 m 205,-0.625 -1.875,0 -1.25,-0.625 -0.625,0 c -3.33359,0 -5.62531,1.04219 -6.875,3.125 l 0,0.625 c -3.1e-4,1.66672 1.66641,2.5 5,2.5 4.16641,0 6.24969,-1.04219 6.25,-3.125 -3.1e-4,-1.25 -0.20781,-2.08328 -0.625,-2.5 m 180.625,0.625 -2.5,1.25 0,0.625 -0.625,0.625 0,1.25 c -4.7e-4,2.08328 0.83281,3.125 2.5,3.125 2.91625,0 4.37453,-1.45781 4.375,-4.375 -4.7e-4,-2.08328 -0.83437,-3.125 -2.5,-3.125 l -1.25,0 0,0.625 m -165,1.25 3.125,0 -13.75,1.875 c 2.91641,0 5.41641,1.25 7.5,3.75 -0.83281,-0.41719 -2.70859,-0.625 -5.625,-0.625 -2.08359,0 -3.95859,0.83281 -5.625,2.5 7.49969,2.08328 13.54141,3.125 18.125,3.125 l 5.625,0 c 2.08297,0 3.74969,-0.20781 5,-0.625 l 11.25,-2.5 6.25,-0.625 c -5.41703,-5.41672 -13.33359,-8.125 -23.75,-8.125 -3.33359,0 -5.41703,0.20781 -6.25,0.625 l -1.875,0.625 m 148.125,0.625 c -1.66719,1.66672 -2.50047,2.91672 -2.5,3.75 -4.7e-4,2.08328 0.83281,3.125 2.5,3.125 2.49953,0 3.74953,-1.25 3.75,-3.75 -4.7e-4,-2.08328 -1.04219,-3.125 -3.125,-3.125 l -0.625,0 m -178.125,4.375 -2.5,3.125 -6.25,3.125 1.25,1.25 c 0.83281,0.83281 2.49969,1.25 5,1.25 5.83297,0 10.20797,-2.08328 13.125,-6.25 l -10.625,-2.5 m 186.25,0 c -2.08375,2.08328 -3.12547,3.33328 -3.125,3.75 -4.7e-4,2.08328 1.04062,3.125 3.125,3.125 2.91625,0 4.37453,-1.04219 4.375,-3.125 -4.7e-4,-1.25 -0.20938,-1.875 -0.625,-1.875 l -3.75,-1.875 m -201.25,-375.625 -13.75,8.125 c -1.66688,3.1e-4 -2.50031,-0.625 -2.5,-1.875 0.83281,-0.83281 1.45781,-1.25 1.875,-1.25 l 0.625,0.625 13.75,-5.625 m -60,5.625 5.625,12.5 0,7.5 -0.625,5.625 -1.25,5 c -2.08359,-0.83281 -3.12516,-2.08297 -3.125,-3.75 -1.6e-4,-0.83281 0.20781,-2.49969 0.625,-5 0.83281,-2.49969 1.25,-4.58297 1.25,-6.25 -1.6e-4,-2.08297 -1.04219,-6.87469 -3.125,-14.375 l 0.625,-1.25 m 44.375,5 c 1.66641,-0.41562 3.12469,-0.83281 4.375,-1.25 1.66641,-0.41562 3.33312,-0.83281 5,-1.25 -0.41719,3.1e-4 -2.70859,0.83438 -6.875,2.5 -3.75031,1.25 -5.62531,1.66703 -5.625,1.25 0.83281,-0.83281 1.87469,-1.25 3.125,-1.25 m 7.5,2.5 -12.5,6.25 -1.25,-0.625 2.5,-1.875 11.25,-3.75 m -6.25,4.375 -8.125,6.25 0,1.875 0,-2.5 -3.125,1.25 1.875,2.5 1.25,-1.25 -1.875,0.625 10,-8.75 m 278.125,10 4.375,0 0.625,1.25 -5.625,0 0.625,-1.25 m -276.875,-1.25 c -1.66688,3.33375 -5.00031,7.50031 -10,12.5 -4.58359,5.00031 -11.04188,10.41703 -19.375,16.25 l -5,4.375 -8.125,5 -6.25,4.375 -4.375,1.25 -3.75,1.25 -1.25,1.25 -1.25,0.625 c -0.83438,3.1e-4 -1.25,-0.41563 -1.25,-1.25 -1.6e-4,-0.83281 1.87484,-2.08297 5.625,-3.75 4.16641,-1.66641 6.45812,-2.70797 6.875,-3.125 l 5.625,-3.75 12.5,-9.375 5,-5 6.875,-8.125 3.75,-8.125 1.25,0 13.125,-4.375 m 272.5,6.875 1.875,0 c 3.74953,-0.41563 6.24953,0.20937 7.5,1.875 l -1.25,0.625 -0.625,1.875 c -0.83438,-0.83281 -2.08391,-1.25 -3.75,-1.25 l -2.5,-1.875 -1.25,-1.25 m -300,4.375 1.25,-1.25 c -3.1e-4,0.83437 0.20781,1.45937 0.625,1.875 l 1.25,2.5 -8.125,-1.25 c 5.41641,3.1e-4 8.33312,0.20937 8.75,0.625 -10.41688,1.25 -15.62516,3.1e-4 -15.625,-3.75 l 1.875,1.875 10,-0.625 m -23.125,-14.375 0.625,15 0,11.875 c -1.66688,1.66703 -3.12516,2.70875 -4.375,3.125 -0.41719,-1.25 -1.6e-4,-3.54125 1.25,-6.875 l 0,-6.25 2.5,-16.875 m 63.125,5.625 c -3.1e-4,3.1e-4 -1.04219,0.83437 -3.125,2.5 -1.66688,1.66703 -4.16688,4.16703 -7.5,7.5 -0.41719,0.41719 -1.04219,1.04219 -1.875,1.875 -0.41719,0.83437 -1.04219,1.66703 -1.875,2.5 l -4.375,3.75 -3.75,1.25 -0.625,-1.875 23.125,-17.5 m -5,10 -1.25,3.75 -1.25,0.625 -1.875,3.75 -1.875,0.625 -6.25,4.375 -7.5,2.5 0,-0.625 c -3.1e-4,-1.66625 1.45781,-2.70797 4.375,-3.125 2.91641,-0.41563 4.99969,-1.45781 6.25,-3.125 l 3.125,-3.75 2.5,-1.875 2.5,-3.125 1.25,0 m -47.5,2.5 c 2.91641,1.25 4.37484,2.08375 4.375,2.5 -1.6e-4,0.83437 -0.20938,1.25 -0.625,1.25 l -2.5,0 -1.875,0.625 -1.25,-2.5 1.875,-1.875 m 293.125,3.75 16.875,-8.125 c -3.33391,3.33375 -8.33391,6.45875 -15,9.375 -0.41719,-0.41563 -0.83438,-0.625 -1.25,-0.625 l -0.625,-0.625 m -298.125,3.125 c 2.91641,3.1e-4 4.79141,0.41719 5.625,1.25 l 0,1.875 c -2.50016,3.1e-4 -4.16688,-0.20781 -5,-0.625 l -0.625,-2.5 m -8.125,6.875 7.5,-1.25 0,2.5 -6.875,3.75 -1.25,1.25 0.625,-6.25 m 44.375,11.25 -12.5,1.25 -3.125,1.25 14.375,-1.875 1.25,-0.625 m 116.875,-2.5 0,1.25 0.625,16.25 -1.25,13.125 -1.25,-30 1.875,-0.625 m -132.5,5 c 0.83281,0.41719 1.25,0.83438 1.25,1.25 0.41719,3.1e-4 0.625,3.1e-4 0.625,0 -3.1e-4,0.41719 -0.625,0.625 -1.875,0.625 -1.25,0.83281 -1.87531,0.625 -1.875,-0.625 l 0.625,-0.625 c 0.41719,3.1e-4 0.83281,-0.20781 1.25,-0.625 l 4.375,-2.5 -1.25,1.25 c 0.83281,0.83281 1.25,0.41719 1.25,-1.25 l -4.375,2.5 m -16.875,1.875 c 2.49984,-1.66641 5.20812,-2.70797 8.125,-3.125 l -5.625,8.125 c -1.25,-1.66641 -2.08359,-3.33297 -2.5,-5 m 118.125,-4.375 8.75,10 c 1.66625,4.16703 2.91625,8.33359 3.75,12.5 l 0,2.5 c -1.25,-0.41719 -1.87531,-2.08297 -1.875,-5 l -10.625,-20 m 168.125,11.875 -1.25,3.125 -5,5 c -0.83438,2.50031 -1.45938,3.75031 -1.875,3.75 -1.25,3.1e-4 -1.87547,-0.41719 -1.875,-1.25 -4.7e-4,-2.91641 0.83281,-4.37469 2.5,-4.375 l 15,-11.25 -13.75,15 c 1.66609,-2.08297 3.12453,-4.16641 4.375,-6.25 1.66609,-2.08297 3.33281,-4.16641 5,-6.25 -4.7e-4,0.41719 -1.04219,1.25 -3.125,2.5 m -0.625,14.375 21.25,-27.5 -18.125,28.75 -3.125,-1.25 m -413.125,100.625 1.875,-2.5 2.5,0 1.25,0.625 c 1.25,1.25 1.04219,1.87516 -0.625,1.875 l -5,0 m 156.25,8.125 -0.625,0 c 0.41719,-0.41719 1.04219,-1.04219 1.875,-1.875 1.25,-0.83281 4.37469,-2.91641 9.375,-6.25 -0.83438,-1.66641 -1.25,-1.25 -1.25,1.25 -3.1e-4,2.08359 -3.12531,4.37516 -9.375,6.875 m -49.375,-4.375 1.875,0 11.25,-3.125 -7.5,11.875 c -3.75016,-0.41719 -5.62516,-3.33312 -5.625,-8.75 m 47.5,13.125 -1.875,-1.875 c 2.08312,-0.83281 4.37469,-1.87484 6.875,-3.125 2.49969,-1.25 4.99969,-2.91641 7.5,-5 1.25,-2.08312 2.29141,-3.12484 3.125,-3.125 0.41719,0.41719 0.625,1.04219 0.625,1.875 -3.1e-4,4.16688 -5.41688,7.91688 -16.25,11.25 m -151.875,-12.5 1.875,-5.625 1.875,8.125 -6.875,1.25 3.125,-3.75 m -3.125,12.5 c -1.6e-4,-4.99984 1.66656,-7.49984 5,-7.5 l 1.25,-5.625 c 0.41719,0.83438 0.83281,1.87516 1.25,3.125 0.41719,1.25 0.83281,2.70859 1.25,4.375 l -0.625,3.125 -4.375,-1.875 -1.875,4.375 -1.875,0 m 147.5,-11.875 -8.125,10.625 c -0.83438,0.83438 -2.29188,2.91688 -4.375,6.25 -1.66688,3.33344 -2.70859,5.00016 -3.125,5 -1.25,1.6e-4 -1.87516,-0.83281 -1.875,-2.5 -1.6e-4,-0.83281 0.20781,-1.45781 0.625,-1.875 l 1.875,-2.5 5,-6.25 10,-8.75 m -151.25,16.25 c 1.25,3.33344 2.29156,6.66688 3.125,10 1.25,2.91688 2.49984,6.66688 3.75,11.25 l 1.875,3.75 c 1.66656,1.25 2.49984,2.50016 2.5,3.75 -1.6e-4,0.83281 -0.20781,1.25 -0.625,1.25 l -2.5,0 c -0.83281,-1.25 -1.45781,-2.29156 -1.875,-3.125 -1.6e-4,-0.83281 -0.20781,-1.66656 -0.625,-2.5 -1.66672,-3.33312 -2.91672,-5.83312 -3.75,-7.5 -0.41719,-2.08312 -0.625,-3.12484 -0.625,-3.125 -2.08344,-4.99984 -3.12516,-7.91656 -3.125,-8.75 -1.6e-4,-1.66656 0.625,-2.49984 1.875,-2.5 1.25,1.6e-4 1.87484,0.625 1.875,1.875 l -1.875,-4.375 m 140.625,16.25 7.5,5 15,-4.375 c -4.16688,2.50016 -8.33359,4.58344 -12.5,6.25 l -1.25,0 c -3.75016,1.6e-4 -6.66688,-2.29156 -8.75,-6.875 m -5,2.5 6.875,4.375 1.25,1.875 -3.125,0 c -2.91688,-1.25 -4.58359,-3.33312 -5,-6.25 m 45,-5 -6.25,8.125 -1.875,1.25 -0.625,-3.125 8.75,-6.25 m -180.625,5 3.75,9.375 -3.125,0.625 -0.625,-10 m 3.125,5.625 1.875,7.5 -3.125,0 0.625,-1.875 0.625,-5.625 m 169.375,7.5 -6.875,6.875 -0.625,-1.875 0,-3.75 1.875,-1.25 5.625,0 m -10.625,8.75 c -0.83281,-0.83281 -1.45781,-1.45781 -1.875,-1.875 -0.41719,-0.83281 -0.83281,-1.45781 -1.25,-1.875 -3.1e-4,-1.25 0.41719,-1.87484 1.25,-1.875 1.25,1.6e-4 1.87469,1.04219 1.875,3.125 l 0,2.5 m -6.875,-5 1.25,5 -1.875,0 0.625,-5 m -23.125,-5 c 1.66641,3.75016 2.49984,7.91688 2.5,12.5 -1.6e-4,1.66688 -1.25,3.75016 -3.75,6.25 l -1.25,-2.5 2.5,-16.25 m -5.625,1.25 c 0.41719,1.66688 0.625,3.33344 0.625,5 0.41562,1.25 0.83281,2.91688 1.25,5 -1.6e-4,1.25 -1.25,2.70844 -3.75,4.375 l -0.625,-1.875 2.5,-12.5 m 52.5,11.875 15,-2.5 -0.625,2.5 -9.375,-0.625 -5,0.625 m 15,-9.375 5.625,7.5 c -0.41719,1.66688 -1.04219,2.50016 -1.875,2.5 -1.66688,1.6e-4 -2.50031,-0.83281 -2.5,-2.5 l -1.25,-7.5 m 57.5,26.875 c -7.08359,3.33344 -10.62531,5.83344 -10.625,7.5 l -3.125,3.75 2.5,-2.5 -11.25,13.125 -1.875,-0.625 c 3.74969,-4.99984 6.45797,-8.54156 8.125,-10.625 2.08297,-2.49984 3.33297,-3.95828 3.75,-4.375 2.49969,-4.16656 5.62469,-6.24984 9.375,-6.25 l 3.125,0 m -5.625,6.875 -14.375,16.875 5,-1.25 -3.125,0 c 1.25,-3.33328 4.58297,-7.08328 10,-11.25 l 2.5,-4.375 m 0,20 -1.875,0 -1.875,-0.625 -0.625,-1.875 1.25,-0.625 c 1.66641,1.6e-4 2.70797,0.625 3.125,1.875 0.41719,0.83281 0.41719,1.25 0,1.25 m 40.625,-0.625 -4.375,3.125 -0.625,1.875 -5.625,6.25 -1.875,-1.25 1.25,-0.625 3.75,-5.625 3.75,-3.125 2.5,-1.25 1.25,0.625 m -96.25,-3.75 4.375,6.25 -1.25,-0.625 1.875,3.75 1.875,6.25 c 0.41719,0.41719 0.625,1.45781 0.625,3.125 -2.50031,-3.74984 -4.16688,-5.62484 -5,-5.625 l 3.75,6.25 -2.5,0 -3.75,-19.375 m 52.5,6.25 1.25,1.875 -1.25,1.25 1.25,0 -3.125,-0.625 c -0.41719,1.6e-4 -0.625,-0.41719 -0.625,-1.25 -3.1e-4,-0.83281 0.83281,-1.25 2.5,-1.25 m 36.25,10 6.25,-4.375 -5,4.375 1.875,0 -3.125,0 m -41.875,-3.75 c -1.66703,1.6e-4 -2.08359,-0.41719 -1.25,-1.25 0.83281,-0.83281 1.87469,-1.25 3.125,-1.25 2.08297,1.6e-4 3.12469,1.25 3.125,3.75 -3.1e-4,1.25 -1.25,1.87516 -3.75,1.875 l -0.625,0.625 0.625,-0.625 -1.25,-3.125 m -5,13.75 3.125,0.625 -2.5,2.5 1.875,-1.25 -1.25,0.625 c -1.25,0 -1.87531,-0.41719 -1.875,-1.25 l 1.25,-1.25 0.625,0.625 -1.25,-0.625 m -0.625,8.125 1.875,1.25 -1.25,0 0.625,-1.875 c -2.50031,0.83281 -3.54203,1.25 -3.125,1.25 -0.41719,0 -0.625,-0.41719 -0.625,-1.25 -3.1e-4,-0.41719 0.41719,-0.625 1.25,-0.625 l 1.25,0 0,1.25 m -36.875,-1.25 c 3.33312,2.08344 4.37469,3.125 3.125,3.125 5.41641,0 6.45797,0.41719 3.125,1.25 l 5,5.625 -11.25,-10 8.75,6.25 1.875,1.875 c -3.1e-4,2.91672 -0.41719,4.375 -1.25,4.375 -0.41719,0 -1.25,-1.04219 -2.5,-3.125 -0.83438,-2.08328 -1.45938,-2.91656 -1.875,-2.5 l -1.875,-1.25 -2.5,-1.875 -0.625,-3.75 m -20.625,1.25 3.125,1.25 5.625,13.125 2.5,3.75 4.375,6.25 5,5 c -3.1e-4,0.83281 -0.41719,1.25 -1.25,1.25 l -1.875,-0.625 -4.375,-4.375 -3.125,-6.25 -3.125,-4.375 c -1.66688,-2.5 -3.12531,-5 -4.375,-7.5 -0.83438,-2.5 -1.66688,-5 -2.5,-7.5 m 25.625,9.375 1.25,1.25 c -3.75031,1.25 -4.79188,1.875 -3.125,1.875 -0.41719,0 -1.25,-0.41719 -2.5,-1.25 -0.83281,-0.83281 -1.66688,-1.45781 -2.5,-1.875 -2.50031,-3.75 -3.75031,-7.08328 -3.75,-10 0.41719,0 1.87469,2.08344 4.375,6.25 l 3.125,1.875 3.125,1.875 m -11.875,1.875 1.25,3.125 1.25,2.5 1.875,5 c -2.08359,-0.83281 -3.95859,-2.91656 -5.625,-6.25 l -3.125,-5 0,-1.25 c -3.1e-4,-1.25 0.41719,-1.875 1.25,-1.875 1.25,0 2.29141,1.25 3.125,3.75 m 51.875,-1.25 5,3.125 1.25,1.25 6.875,0 0.625,1.875 0,-1.875 0.625,1.875 c -4.16703,0.83281 -6.45859,1.25 -6.875,1.25 -2.50031,0 -5.00031,-2.5 -7.5,-7.5 m -49.375,-1.875 3.125,4.375 1.875,3.125 1.25,3.125 -3.75,-3.75 -2.5,-6.875 m 44.375,6.875 5.625,4.375 4.375,3.125 -5.625,0 -2.5,-1.875 1.25,-3.125 -1.25,1.875 -1.875,-4.375 m 3.125,10 2.5,1.25 -3.125,0.625 -4.375,2.5 -1.875,0 -1.25,-0.625 -2.5,-0.625 1.25,-2.5 2.5,1.25 1.25,-1.25 2.5,-1.25 3.125,0.625"
       id="path3020"
       style="font-size:40px;font-style:normal;font-variant:normal;font-weight:normal;font-stretch:normal;line-height:125%;letter-spacing:0px;word-spacing:0px;fill:#000000;fill-opacity:1;stroke:none;font-family:Goudy Initialen;-inkscape-font-specification:Goudy Initialen" />
  </g>
</svg>
